<svg xmlns="http://www.w3.org/2000/svg" xmlns:xlink="http://www.w3.org/1999/xlink" width="6245" height="3298" fill="none"><rect width="6245" height="3298" fill="#222" rx="70"/><path fill="url(#a)" d="M1467.36 1000.87h1143.73v668.314H1467.36z" transform="rotate(179.799 1467.36 1000.87)"/><path fill="url(#b)" d="m1469.78 321.031-90.6-.318-371.23 289.99-228.936-.804-378.92-292.624-87.679-.308L310 1004.76l1157.36 4.07z"/><g filter="url(#c)"><path fill="url(#d)" d="M1463.07 320.016 319.344 316l12.346 90.646 56.255 71.316c133.321 15.38 179.536 62.798 224.349 198.555l276.265 117.877 270.271-115.958c49.74-128.189 96.43-175.209 226.71-196.971l67.47-70.881z" shape-rendering="crispEdges"/></g><path fill="url(#e)" d="M1000 901.184h216.276v216.276H1000z" transform="rotate(179.799 1000 901.184)"/><path fill="url(#f)" d="m2958.78 321.031-90.6-.318-371.23 289.99-228.94-.804-378.92-292.624-87.67-.308-2.42 687.793 1157.36 4.07z"/><g filter="url(#g)"><path fill="url(#h)" d="M2952.07 320.016 1808.34 316l12.35 90.646 56.26 71.316c133.32 15.38 179.53 62.798 224.34 198.555l276.27 117.877 270.27-115.958c49.74-128.189 96.43-175.209 226.71-196.971l67.47-70.881z" shape-rendering="crispEdges"/></g><path fill="url(#i)" d="M2489 901.184h216.276v216.276H2489z" transform="rotate(179.799 2489 901.184)"/><path fill="url(#j)" d="M1464.73 2596.45h1135.41v663.449H1464.73z" transform="rotate(179.799 1464.73 2596.45)"/><path fill="url(#k)" d="M0 0h214.702v214.702H0z" transform="rotate(-179.799 502.736 708.494)scale(1 -1)"/><g filter="url(#l)"><path fill="url(#m)" d="m1469.46 1986.02-1149.14-4.84 19.212-66.65 55.845-70.8c132.351-15.27 178.23-62.34 222.716-197.11l274.255-117.02 268.302 115.11c49.38 127.26 95.73 173.94 225.06 195.54l66.98 70.37z" shape-rendering="crispEdges"/></g><path fill="url(#n)" d="m1469.34 1985.21-89.94-.31-368.53 287.88-227.27-.8-376.161-290.5-87.041-.3L318 2663.97l1148.94 4.03z"/><path fill="url(#o)" d="M2953.73 2596.45h1135.41v663.449H2953.73z" transform="rotate(179.799 2953.73 2596.45)"/><path fill="url(#p)" d="M0 0h214.702v214.702H0z" transform="rotate(-179.799 1247.236 707.187)scale(1 -1)"/><g filter="url(#q)"><path fill="url(#r)" d="m2958.46 1986.02-1149.14-4.84 19.21-66.65 55.85-70.8c132.35-15.27 178.23-62.34 222.71-197.11l274.26-117.02 268.3 115.11c49.38 127.26 95.73 173.94 225.06 195.54l66.98 70.37z" shape-rendering="crispEdges"/></g><path fill="url(#s)" d="m2958.34 1985.21-89.94-.31-368.53 287.88-227.27-.8-376.16-290.5-87.04-.3-2.4 682.79 1148.94 4.03z"/><path fill="url(#t)" d="m4447.78 321.031-90.6-.318-371.23 289.99-228.94-.804-378.92-292.624-87.67-.308-2.42 687.793 1157.36 4.07z"/><g filter="url(#u)"><path fill="url(#v)" d="M4441.07 320.016 3297.34 316l12.35 90.646 56.26 71.316c133.32 15.38 179.53 62.798 224.34 198.555l276.27 117.877 270.27-115.958c49.74-128.189 96.43-175.209 226.71-196.971l67.47-70.881z" shape-rendering="crispEdges"/></g><path fill="url(#w)" d="M3978 901.184h216.276v216.276H3978z" transform="rotate(179.799 3978 901.184)"/><path fill="url(#x)" d="M4442.73 2596.45h1135.41v663.449H4442.73z" transform="rotate(179.799 4442.73 2596.45)"/><path fill="url(#y)" d="M0 0h214.702v214.702H0z" transform="rotate(-179.799 1991.736 705.88)scale(1 -1)"/><g filter="url(#z)"><path fill="url(#A)" d="m4447.46 1986.02-1149.14-4.84 19.21-66.65 55.85-70.8c132.35-15.27 178.23-62.34 222.71-197.11l274.26-117.02 268.3 115.11c49.38 127.26 95.73 173.94 225.06 195.54l66.98 70.37z" shape-rendering="crispEdges"/></g><path fill="url(#B)" d="m4447.34 1985.21-89.94-.31-368.53 287.88-227.27-.8-376.16-290.5-87.04-.3-2.4 682.79 1148.94 4.03z"/><path fill="url(#C)" d="m5936.78 321.031-90.6-.318-371.23 289.99-228.94-.804-378.92-292.624-87.67-.308-2.42 687.793 1157.36 4.07z"/><g filter="url(#D)"><path fill="url(#E)" d="M5930.07 320.016 4786.34 316l12.35 90.646 56.26 71.316c133.32 15.38 179.53 62.798 224.34 198.555l276.27 117.877 270.27-115.958c49.74-128.189 96.43-175.209 226.71-196.971l67.47-70.881z" shape-rendering="crispEdges"/></g><path fill="url(#F)" d="M5467 901.184h216.276v216.276H5467z" transform="rotate(179.799 5467 901.184)"/><path fill="url(#G)" d="M5931.73 2596.45h1135.41v663.449H5931.73z" transform="rotate(179.799 5931.73 2596.45)"/><path fill="url(#H)" d="M0 0h214.702v214.702H0z" transform="rotate(-179.8 2736.233 704.584)scale(1 -1)"/><g filter="url(#I)"><path fill="url(#J)" d="m5936.46 1986.02-1149.14-4.84 19.21-66.65 55.85-70.8c132.35-15.27 178.23-62.34 222.71-197.11l274.26-117.02 268.3 115.11c49.38 127.26 95.73 173.94 225.06 195.54l66.98 70.37z" shape-rendering="crispEdges"/></g><path fill="url(#K)" d="m5936.34 1985.21-89.94-.31-368.53 287.88-227.27-.8-376.16-290.5-87.04-.3-2.4 682.79 1148.94 4.03z"/><defs><pattern id="a" width="1" height="1" patternContentUnits="objectBoundingBox"><use xlink:href="#L" transform="matrix(.00049 0 0 .00084 0 -.09)"/></pattern><pattern id="b" width="1" height="1" patternContentUnits="objectBoundingBox"><use xlink:href="#M" transform="matrix(.00049 0 0 .00082 0 -.08)"/></pattern><pattern id="d" width="1" height="1" patternContentUnits="objectBoundingBox"><use xlink:href="#N" transform="matrix(.00049 0 0 .00117 0 -.329)"/></pattern><pattern id="e" width="1" height="1" patternContentUnits="objectBoundingBox"><use xlink:href="#O" transform="scale(.0005)"/></pattern><pattern id="f" width="1" height="1" patternContentUnits="objectBoundingBox"><use xlink:href="#P" transform="matrix(.00049 0 0 .00082 0 -.08)"/></pattern><pattern id="h" width="1" height="1" patternContentUnits="objectBoundingBox"><use xlink:href="#P" transform="matrix(.00049 0 0 .00117 0 -.329)"/></pattern><pattern id="i" width="1" height="1" patternContentUnits="objectBoundingBox"><use xlink:href="#O" transform="scale(.0005)"/></pattern><pattern id="j" width="1" height="1" patternContentUnits="objectBoundingBox"><use xlink:href="#N" transform="matrix(.00049 0 0 .00084 0 -.09)"/></pattern><pattern id="k" width="1" height="1" patternContentUnits="objectBoundingBox"><use xlink:href="#O" transform="scale(.0005)"/></pattern><pattern id="m" width="1" height="1" patternContentUnits="objectBoundingBox"><use xlink:href="#N" transform="matrix(.00049 0 0 .00122 0 -.365)"/></pattern><pattern id="n" width="1" height="1" patternContentUnits="objectBoundingBox"><use xlink:href="#N" transform="matrix(.00049 0 0 .00082 0 -.08)"/></pattern><pattern id="o" width="1" height="1" patternContentUnits="objectBoundingBox"><use xlink:href="#Q" transform="matrix(.00024 0 0 .00042 0 -.09)"/></pattern><pattern id="p" width="1" height="1" patternContentUnits="objectBoundingBox"><use xlink:href="#O" transform="scale(.0005)"/></pattern><pattern id="r" width="1" height="1" patternContentUnits="objectBoundingBox"><use xlink:href="#Q" transform="matrix(.00024 0 0 .00061 0 -.365)"/></pattern><pattern id="s" width="1" height="1" patternContentUnits="objectBoundingBox"><use xlink:href="#R" transform="matrix(.00024 0 0 .00041 0 -.08)"/></pattern><pattern id="t" width="1" height="1" patternContentUnits="objectBoundingBox"><use xlink:href="#S" transform="matrix(.00024 0 0 .00041 0 -.08)"/></pattern><pattern id="v" width="1" height="1" patternContentUnits="objectBoundingBox"><use xlink:href="#S" transform="matrix(.00024 0 0 .00059 0 -.329)"/></pattern><pattern id="w" width="1" height="1" patternContentUnits="objectBoundingBox"><use xlink:href="#O" transform="scale(.0005)"/></pattern><pattern id="x" width="1" height="1" patternContentUnits="objectBoundingBox"><use xlink:href="#T" transform="matrix(.00024 0 0 .00042 0 -.09)"/></pattern><pattern id="y" width="1" height="1" patternContentUnits="objectBoundingBox"><use xlink:href="#O" transform="scale(.0005)"/></pattern><pattern id="A" width="1" height="1" patternContentUnits="objectBoundingBox"><use xlink:href="#S" transform="matrix(.00024 0 0 .00061 0 -.365)"/></pattern><pattern id="B" width="1" height="1" patternContentUnits="objectBoundingBox"><use xlink:href="#T" transform="matrix(.00024 0 0 .00041 0 -.08)"/></pattern><pattern id="C" width="1" height="1" patternContentUnits="objectBoundingBox"><use xlink:href="#U" transform="matrix(.00024 0 0 .00041 0 -.08)"/></pattern><pattern id="E" width="1" height="1" patternContentUnits="objectBoundingBox"><use xlink:href="#U" transform="matrix(.00024 0 0 .00059 0 -.329)"/></pattern><pattern id="F" width="1" height="1" patternContentUnits="objectBoundingBox"><use xlink:href="#O" transform="scale(.0005)"/></pattern><pattern id="G" width="1" height="1" patternContentUnits="objectBoundingBox"><use xlink:href="#U" transform="matrix(.00024 0 0 .00042 0 -.09)"/></pattern><pattern id="H" width="1" height="1" patternContentUnits="objectBoundingBox"><use xlink:href="#O" transform="scale(.0005)"/></pattern><pattern id="J" width="1" height="1" patternContentUnits="objectBoundingBox"><use xlink:href="#U" transform="matrix(.00024 0 0 .00061 0 -.365)"/></pattern><pattern id="K" width="1" height="1" patternContentUnits="objectBoundingBox"><use xlink:href="#U" transform="matrix(.00024 0 0 .00041 0 -.08)"/></pattern><image xlink:href="/letter/envelopes.assets/envelopes-0.webp" id="L" width="2048" height="1414" preserveAspectRatio="none"/><image xlink:href="/letter/envelopes.assets/envelopes-1.webp" id="M" width="2048" height="1414" preserveAspectRatio="none"/><image xlink:href="/letter/envelopes.assets/envelopes-2.webp" id="N" width="2048" height="1414" preserveAspectRatio="none"/><image xlink:href="/letter/envelopes.assets/envelopes-3.webp" id="O" width="2000" height="2000" preserveAspectRatio="none"/><image xlink:href="/letter/envelopes.assets/envelopes-4.webp" id="P" width="2048" height="1414" preserveAspectRatio="none"/><image xlink:href="/letter/envelopes.assets/envelopes-5.webp" id="Q" width="4096" height="2828" preserveAspectRatio="none"/><image xlink:href="/letter/envelopes.assets/envelopes-6.webp" id="R" width="4096" height="2828" preserveAspectRatio="none"/><image xlink:href="/letter/envelopes.assets/envelopes-7.webp" id="S" width="4096" height="2828" preserveAspectRatio="none"/><image xlink:href="/letter/envelopes.assets/envelopes-8.webp" id="T" width="4096" height="2828" preserveAspectRatio="none"/><image xlink:href="/letter/envelopes.assets/envelopes-9.webp" id="U" width="4096" height="2828" preserveAspectRatio="none"/><filter id="c" width="1151.73" height="486.395" x="315.344" y="316" color-interpolation-filters="sRGB" filterUnits="userSpaceOnUse"><feFlood flood-opacity="0" result="BackgroundImageFix"/><feColorMatrix in="SourceAlpha" result="hardAlpha" values="0 0 0 0 0 0 0 0 0 0 0 0 0 0 0 0 0 0 127 0"/><feOffset dy="4"/><feGaussianBlur stdDeviation="2"/><feComposite in2="hardAlpha" operator="out"/><feColorMatrix values="0 0 0 0 0 0 0 0 0 0 0 0 0 0 0 0 0 0 0.25 0"/><feBlend in2="BackgroundImageFix" result="effect1_dropShadow_1_78"/><feBlend in="SourceGraphic" in2="effect1_dropShadow_1_78" result="shape"/></filter><filter id="g" width="1151.72" height="486.395" x="1804.34" y="316" color-interpolation-filters="sRGB" filterUnits="userSpaceOnUse"><feFlood flood-opacity="0" result="BackgroundImageFix"/><feColorMatrix in="SourceAlpha" result="hardAlpha" values="0 0 0 0 0 0 0 0 0 0 0 0 0 0 0 0 0 0 127 0"/><feOffset dy="4"/><feGaussianBlur stdDeviation="2"/><feComposite in2="hardAlpha" operator="out"/><feColorMatrix values="0 0 0 0 0 0 0 0 0 0 0 0 0 0 0 0 0 0 0.25 0"/><feBlend in2="BackgroundImageFix" result="effect1_dropShadow_1_78"/><feBlend in="SourceGraphic" in2="effect1_dropShadow_1_78" result="shape"/></filter><filter id="l" width="1157.14" height="464.421" x="316.32" y="1529.6" color-interpolation-filters="sRGB" filterUnits="userSpaceOnUse"><feFlood flood-opacity="0" result="BackgroundImageFix"/><feColorMatrix in="SourceAlpha" result="hardAlpha" values="0 0 0 0 0 0 0 0 0 0 0 0 0 0 0 0 0 0 127 0"/><feOffset dy="4"/><feGaussianBlur stdDeviation="2"/><feComposite in2="hardAlpha" operator="out"/><feColorMatrix values="0 0 0 0 0 0 0 0 0 0 0 0 0 0 0 0 0 0 0.25 0"/><feBlend in2="BackgroundImageFix" result="effect1_dropShadow_1_78"/><feBlend in="SourceGraphic" in2="effect1_dropShadow_1_78" result="shape"/></filter><filter id="q" width="1157.14" height="464.421" x="1805.32" y="1529.6" color-interpolation-filters="sRGB" filterUnits="userSpaceOnUse"><feFlood flood-opacity="0" result="BackgroundImageFix"/><feColorMatrix in="SourceAlpha" result="hardAlpha" values="0 0 0 0 0 0 0 0 0 0 0 0 0 0 0 0 0 0 127 0"/><feOffset dy="4"/><feGaussianBlur stdDeviation="2"/><feComposite in2="hardAlpha" operator="out"/><feColorMatrix values="0 0 0 0 0 0 0 0 0 0 0 0 0 0 0 0 0 0 0.25 0"/><feBlend in2="BackgroundImageFix" result="effect1_dropShadow_1_78"/><feBlend in="SourceGraphic" in2="effect1_dropShadow_1_78" result="shape"/></filter><filter id="u" width="1151.73" height="486.395" x="3293.34" y="316" color-interpolation-filters="sRGB" filterUnits="userSpaceOnUse"><feFlood flood-opacity="0" result="BackgroundImageFix"/><feColorMatrix in="SourceAlpha" result="hardAlpha" values="0 0 0 0 0 0 0 0 0 0 0 0 0 0 0 0 0 0 127 0"/><feOffset dy="4"/><feGaussianBlur stdDeviation="2"/><feComposite in2="hardAlpha" operator="out"/><feColorMatrix values="0 0 0 0 0 0 0 0 0 0 0 0 0 0 0 0 0 0 0.25 0"/><feBlend in2="BackgroundImageFix" result="effect1_dropShadow_1_78"/><feBlend in="SourceGraphic" in2="effect1_dropShadow_1_78" result="shape"/></filter><filter id="z" width="1157.14" height="464.421" x="3294.32" y="1529.6" color-interpolation-filters="sRGB" filterUnits="userSpaceOnUse"><feFlood flood-opacity="0" result="BackgroundImageFix"/><feColorMatrix in="SourceAlpha" result="hardAlpha" values="0 0 0 0 0 0 0 0 0 0 0 0 0 0 0 0 0 0 127 0"/><feOffset dy="4"/><feGaussianBlur stdDeviation="2"/><feComposite in2="hardAlpha" operator="out"/><feColorMatrix values="0 0 0 0 0 0 0 0 0 0 0 0 0 0 0 0 0 0 0.25 0"/><feBlend in2="BackgroundImageFix" result="effect1_dropShadow_1_78"/><feBlend in="SourceGraphic" in2="effect1_dropShadow_1_78" result="shape"/></filter><filter id="D" width="1151.73" height="486.395" x="4782.34" y="316" color-interpolation-filters="sRGB" filterUnits="userSpaceOnUse"><feFlood flood-opacity="0" result="BackgroundImageFix"/><feColorMatrix in="SourceAlpha" result="hardAlpha" values="0 0 0 0 0 0 0 0 0 0 0 0 0 0 0 0 0 0 127 0"/><feOffset dy="4"/><feGaussianBlur stdDeviation="2"/><feComposite in2="hardAlpha" operator="out"/><feColorMatrix values="0 0 0 0 0 0 0 0 0 0 0 0 0 0 0 0 0 0 0.25 0"/><feBlend in2="BackgroundImageFix" result="effect1_dropShadow_1_78"/><feBlend in="SourceGraphic" in2="effect1_dropShadow_1_78" result="shape"/></filter><filter id="I" width="1157.14" height="464.421" x="4783.32" y="1529.6" color-interpolation-filters="sRGB" filterUnits="userSpaceOnUse"><feFlood flood-opacity="0" result="BackgroundImageFix"/><feColorMatrix in="SourceAlpha" result="hardAlpha" values="0 0 0 0 0 0 0 0 0 0 0 0 0 0 0 0 0 0 127 0"/><feOffset dy="4"/><feGaussianBlur stdDeviation="2"/><feComposite in2="hardAlpha" operator="out"/><feColorMatrix values="0 0 0 0 0 0 0 0 0 0 0 0 0 0 0 0 0 0 0.25 0"/><feBlend in2="BackgroundImageFix" result="effect1_dropShadow_1_78"/><feBlend in="SourceGraphic" in2="effect1_dropShadow_1_78" result="shape"/></filter></defs></svg>