<svg xmlns="http://www.w3.org/2000/svg" xmlns:xlink="http://www.w3.org/1999/xlink" width="2375" height="3298" fill="none"><rect width="2375" height="3298" fill="#222" rx="70"/><path fill="url(#a)" d="M820.875 711h535v535h-535z" transform="rotate(179.799 820.875 711)"/><path fill="url(#b)" d="M920.875 176h535v535h-535z"/><path fill="url(#c)" d="M1555.88 178h535v535h-535z"/><path fill="url(#d)" d="M284 811h535v535H284z"/><path fill="url(#e)" d="M919 841h535v476H919z"/><path fill="url(#f)" d="M1554 813h535v506.707h-535z"/><path fill="url(#g)" d="M284 1446h535v492.56H284z"/><path fill="url(#h)" d="M919 1417h535v526.997H919z"/><path fill="url(#i)" d="M1554 1420h537v522h-537z"/><path fill="url(#j)" d="M944 2044h449v503H944z"/><path fill="url(#k)" d="M284 2039h510v503H284z"/><path fill="url(#l)" d="M1556 2042h535v498.933h-535z"/><path fill="url(#m)" d="M284 2642h485v481H284z"/><path fill="url(#n)" d="M944 2656h485v467.256H944z"/><path fill="url(#o)" d="M1552 2642h539v481h-539z"/><defs><pattern id="a" width="1" height="1" patternContentUnits="objectBoundingBox"><use xlink:href="#p" transform="scale(.0005)"/></pattern><pattern id="b" width="1" height="1" patternContentUnits="objectBoundingBox"><use xlink:href="#q" transform="scale(.00094)"/></pattern><pattern id="c" width="1" height="1" patternContentUnits="objectBoundingBox"><use xlink:href="#r" transform="scale(.00094)"/></pattern><pattern id="d" width="1" height="1" patternContentUnits="objectBoundingBox"><use xlink:href="#s" transform="scale(.00094)"/></pattern><pattern id="e" width="1" height="1" patternContentUnits="objectBoundingBox"><use xlink:href="#t" transform="matrix(.00121 0 0 .00136 0 -.254)"/></pattern><pattern id="f" width="1" height="1" patternContentUnits="objectBoundingBox"><use xlink:href="#u" transform="matrix(.001 0 0 .00106 -.127 0)"/></pattern><pattern id="g" width="1" height="1" patternContentUnits="objectBoundingBox"><use xlink:href="#v" transform="matrix(.00114 0 0 .00124 -.117 -.16)"/></pattern><pattern id="h" width="1" height="1" patternContentUnits="objectBoundingBox"><use xlink:href="#w" transform="matrix(.00115 0 0 .00117 -.24 -.055)"/></pattern><pattern id="i" width="1" height="1" patternContentUnits="objectBoundingBox"><use xlink:href="#x" transform="matrix(.00143 0 0 .00141 -.096 -.258)"/></pattern><pattern id="j" width="1" height="1" patternContentUnits="objectBoundingBox"><use xlink:href="#y" transform="matrix(.00135 0 0 .00128 -.049 -.176)"/></pattern><pattern id="k" width="1" height="1" patternContentUnits="objectBoundingBox"><use xlink:href="#z" transform="matrix(.00137 0 0 .00139 -.09 -.248)"/></pattern><pattern id="l" width="1" height="1" patternContentUnits="objectBoundingBox"><use xlink:href="#A" transform="matrix(.00225 0 0 .00241 -1.876 -.378)"/></pattern><pattern id="m" width="1" height="1" patternContentUnits="objectBoundingBox"><use xlink:href="#B" transform="matrix(.00246 0 0 .00248 -.052 -.392)"/></pattern><pattern id="n" width="1" height="1" patternContentUnits="objectBoundingBox"><use xlink:href="#B" transform="matrix(.00244 0 0 .00253 -2.085 -.415)"/></pattern><pattern id="o" width="1" height="1" patternContentUnits="objectBoundingBox"><use xlink:href="#C" transform="matrix(.00236 0 0 .00252 -1.033 -.363)"/></pattern><image xlink:href="/letter/wax.assets/wax-0.webp" id="p" width="2000" height="2000" preserveAspectRatio="none"/><image xlink:href="/letter/wax.assets/wax-1.webp" id="q" width="1060" height="1060" preserveAspectRatio="none"/><image xlink:href="/letter/wax.assets/wax-2.webp" id="r" width="1060" height="1060" preserveAspectRatio="none"/><image xlink:href="/letter/wax.assets/wax-3.webp" id="s" width="1060" height="1060" preserveAspectRatio="none"/><image xlink:href="/letter/wax.assets/wax-4.webp" id="t" width="826" height="1098" preserveAspectRatio="none"/><image xlink:href="/letter/wax.assets/wax-5.webp" id="u" width="1280" height="1022" preserveAspectRatio="none"/><image xlink:href="/letter/wax.assets/wax-6.webp" id="v" width="1060" height="1060" preserveAspectRatio="none"/><image xlink:href="/letter/wax.assets/wax-7.webp" id="w" width="1280" height="903" preserveAspectRatio="none"/><image xlink:href="/letter/wax.assets/wax-8.webp" id="x" width="826" height="1098" preserveAspectRatio="none"/><image xlink:href="/letter/wax.assets/wax-9.webp" id="y" width="826" height="1098" preserveAspectRatio="none"/><image xlink:href="/letter/wax.assets/wax-10.webp" id="z" width="826" height="1098" preserveAspectRatio="none"/><image xlink:href="/letter/wax.assets/wax-11.webp" id="A" width="1280" height="718" preserveAspectRatio="none"/><image xlink:href="/letter/wax.assets/wax-12.webp" id="B" width="1280" height="718" preserveAspectRatio="none"/><image xlink:href="/letter/wax.assets/wax-13.webp" id="C" width="1280" height="718" preserveAspectRatio="none"/></defs></svg>