<svg width="424" height="181" viewBox="0 0 424 181" fill="none" xmlns="http://www.w3.org/2000/svg">
<g filter="url(#filter0_di_8_139)">
<rect width="416" height="173" transform="translate(4)" fill="white"/>
<path d="M38.3395 37.4545V52H35.2642V37.4545H38.3395ZM43.8384 45.6932V52H40.8129V41.0909H43.6964V43.0156H43.8242C44.0657 42.3812 44.4705 41.8793 45.0387 41.5099C45.6069 41.1359 46.2958 40.9489 47.1055 40.9489C47.863 40.9489 48.5236 41.1146 49.087 41.446C49.6505 41.7775 50.0884 42.2509 50.4009 42.8665C50.7134 43.4773 50.8697 44.2064 50.8697 45.054V52H47.8441V45.5938C47.8488 44.9261 47.6784 44.4053 47.3327 44.0312C46.9871 43.6525 46.5112 43.4631 45.9052 43.4631C45.498 43.4631 45.1381 43.5507 44.8256 43.7259C44.5179 43.901 44.2764 44.1567 44.1012 44.4929C43.9308 44.8243 43.8432 45.2244 43.8384 45.6932ZM62.331 44.2017L59.5611 44.3722C59.5137 44.1354 59.4119 43.9223 59.2557 43.733C59.0994 43.5388 58.8935 43.3849 58.6378 43.2713C58.3868 43.1529 58.0862 43.0938 57.7358 43.0938C57.267 43.0938 56.8717 43.1932 56.5497 43.392C56.2277 43.5862 56.0668 43.8466 56.0668 44.1733C56.0668 44.4337 56.1709 44.6539 56.3793 44.8338C56.5876 45.0137 56.9451 45.1581 57.4517 45.267L59.4261 45.6648C60.4867 45.8826 61.2775 46.233 61.7983 46.7159C62.3191 47.1989 62.5795 47.8333 62.5795 48.6193C62.5795 49.3343 62.3688 49.9616 61.9474 50.5014C61.5308 51.0412 60.9579 51.4626 60.2287 51.7656C59.5043 52.0639 58.6686 52.2131 57.7216 52.2131C56.2775 52.2131 55.1269 51.9124 54.2699 51.3111C53.4176 50.705 52.9181 49.8812 52.7713 48.8395L55.7472 48.6832C55.8371 49.1236 56.0549 49.4598 56.4006 49.6918C56.7462 49.919 57.1889 50.0327 57.7287 50.0327C58.259 50.0327 58.6851 49.9309 59.0071 49.7273C59.3338 49.5189 59.4995 49.2514 59.5043 48.9247C59.4995 48.6501 59.3835 48.4252 59.1562 48.25C58.929 48.0701 58.5786 47.9328 58.1051 47.8381L56.2159 47.4616C55.1506 47.2486 54.3575 46.8793 53.8366 46.3537C53.3205 45.8281 53.0625 45.1581 53.0625 44.3438C53.0625 43.643 53.2519 43.0393 53.6307 42.5327C54.0142 42.026 54.5516 41.6354 55.2429 41.3608C55.9389 41.0862 56.7533 40.9489 57.6861 40.9489C59.0639 40.9489 60.1482 41.2401 60.9389 41.8224C61.7344 42.4048 62.1984 43.1979 62.331 44.2017ZM69.4563 52.2131C68.3342 52.2131 67.3683 51.9858 66.5586 51.5312C65.7537 51.072 65.1334 50.4233 64.6978 49.5852C64.2622 48.7424 64.0444 47.7457 64.0444 46.5952C64.0444 45.473 64.2622 44.4882 64.6978 43.6406C65.1334 42.7931 65.7466 42.1326 66.5373 41.6591C67.3327 41.1856 68.2655 40.9489 69.3356 40.9489C70.0553 40.9489 70.7253 41.0649 71.3455 41.2969C71.9705 41.5241 72.515 41.8674 72.979 42.3267C73.4478 42.786 73.8124 43.3636 74.0728 44.0597C74.3332 44.7509 74.4634 45.5606 74.4634 46.4886V47.3196H65.2518V45.4446H71.6154C71.6154 45.009 71.5207 44.6231 71.3313 44.2869C71.1419 43.9508 70.8791 43.688 70.543 43.4986C70.2115 43.3045 69.8256 43.2074 69.3853 43.2074C68.926 43.2074 68.5188 43.3139 68.1637 43.527C67.8133 43.7353 67.5387 44.017 67.3398 44.3722C67.141 44.7225 67.0392 45.1132 67.0344 45.544V47.3267C67.0344 47.8665 67.1339 48.3329 67.3327 48.7259C67.5363 49.1188 67.8228 49.4219 68.1921 49.6349C68.5614 49.848 68.9994 49.9545 69.506 49.9545C69.8422 49.9545 70.15 49.9072 70.4293 49.8125C70.7087 49.7178 70.9478 49.5758 71.1467 49.3864C71.3455 49.197 71.497 48.965 71.6012 48.6903L74.3995 48.875C74.2575 49.5473 73.9663 50.1345 73.5259 50.6364C73.0903 51.1335 72.5269 51.5218 71.8356 51.8011C71.149 52.0758 70.3559 52.2131 69.4563 52.2131ZM76.4379 52V41.0909H79.3711V42.9943H79.4847C79.6836 42.3172 80.0174 41.8059 80.4862 41.4602C80.9549 41.1098 81.4947 40.9347 82.1055 40.9347C82.257 40.9347 82.4203 40.9441 82.5955 40.9631C82.7707 40.982 82.9246 41.008 83.0572 41.0412V43.7259C82.9151 43.6832 82.7186 43.6454 82.4677 43.6122C82.2167 43.5791 81.9871 43.5625 81.7788 43.5625C81.3337 43.5625 80.936 43.6596 80.5856 43.8537C80.2399 44.0431 79.9653 44.3082 79.7617 44.6491C79.5629 44.9901 79.4634 45.383 79.4634 45.8281V52H76.4379ZM90.9709 41.0909V43.3636H84.4013V41.0909H90.9709ZM85.8928 38.4773H88.9183V48.6477C88.9183 48.9271 88.9609 49.1449 89.0462 49.3011C89.1314 49.4527 89.2498 49.5592 89.4013 49.6207C89.5575 49.6823 89.7375 49.7131 89.9411 49.7131C90.0831 49.7131 90.2251 49.7012 90.3672 49.6776C90.5092 49.6491 90.6181 49.6278 90.6939 49.6136L91.1697 51.8651C91.0182 51.9124 90.8052 51.9669 90.5305 52.0284C90.2559 52.0947 89.9221 52.1349 89.5291 52.1491C88.8 52.1776 88.1607 52.0805 87.6115 51.858C87.067 51.6354 86.6432 51.2898 86.3402 50.821C86.0372 50.3523 85.888 49.7604 85.8928 49.0455V38.4773ZM100.135 52H96.8391L101.86 37.4545H105.824L110.838 52H107.542L103.899 40.7784H103.785L100.135 52ZM99.9286 46.2827H107.713V48.6832H99.9286V46.2827ZM112.532 52V41.0909H115.465V42.9943H115.578C115.777 42.3172 116.111 41.8059 116.58 41.4602C117.049 41.1098 117.588 40.9347 118.199 40.9347C118.351 40.9347 118.514 40.9441 118.689 40.9631C118.864 40.982 119.018 41.008 119.151 41.0412V43.7259C119.009 43.6832 118.812 43.6454 118.561 43.6122C118.31 43.5791 118.081 43.5625 117.873 43.5625C117.427 43.5625 117.03 43.6596 116.679 43.8537C116.334 44.0431 116.059 44.3082 115.855 44.6491C115.657 44.9901 115.557 45.383 115.557 45.8281V52H112.532ZM127.065 41.0909V43.3636H120.495V41.0909H127.065ZM121.987 38.4773H125.012V48.6477C125.012 48.9271 125.055 49.1449 125.14 49.3011C125.225 49.4527 125.344 49.5592 125.495 49.6207C125.651 49.6823 125.831 49.7131 126.035 49.7131C126.177 49.7131 126.319 49.7012 126.461 49.6776C126.603 49.6491 126.712 49.6278 126.788 49.6136L127.263 51.8651C127.112 51.9124 126.899 51.9669 126.624 52.0284C126.35 52.0947 126.016 52.1349 125.623 52.1491C124.894 52.1776 124.254 52.0805 123.705 51.858C123.161 51.6354 122.737 51.2898 122.434 50.821C122.131 50.3523 121.982 49.7604 121.987 49.0455V38.4773ZM131.188 52L128.219 41.0909H131.28L132.97 48.4205H133.07L134.831 41.0909H137.835L139.625 48.3778H139.717L141.379 41.0909H144.433L141.472 52H138.268L136.393 45.1392H136.259L134.384 52H131.188ZM150.703 52.2131C149.6 52.2131 148.645 51.9787 147.841 51.5099C147.04 51.0365 146.422 50.3783 145.987 49.5355C145.551 48.688 145.333 47.7055 145.333 46.5881C145.333 45.4612 145.551 44.4763 145.987 43.6335C146.422 42.786 147.04 42.1278 147.841 41.6591C148.645 41.1856 149.6 40.9489 150.703 40.9489C151.806 40.9489 152.758 41.1856 153.558 41.6591C154.363 42.1278 154.983 42.786 155.419 43.6335C155.854 44.4763 156.072 45.4612 156.072 46.5881C156.072 47.7055 155.854 48.688 155.419 49.5355C154.983 50.3783 154.363 51.0365 153.558 51.5099C152.758 51.9787 151.806 52.2131 150.703 52.2131ZM150.717 49.8693C151.219 49.8693 151.638 49.7273 151.974 49.4432C152.31 49.1544 152.564 48.7614 152.734 48.2642C152.909 47.767 152.997 47.2012 152.997 46.5668C152.997 45.9323 152.909 45.3665 152.734 44.8693C152.564 44.3722 152.31 43.9792 151.974 43.6903C151.638 43.4015 151.219 43.2571 150.717 43.2571C150.21 43.2571 149.784 43.4015 149.439 43.6903C149.098 43.9792 148.84 44.3722 148.664 44.8693C148.494 45.3665 148.409 45.9323 148.409 46.5668C148.409 47.2012 148.494 47.767 148.664 48.2642C148.84 48.7614 149.098 49.1544 149.439 49.4432C149.784 49.7273 150.21 49.8693 150.717 49.8693ZM158.039 52V41.0909H160.973V42.9943H161.086C161.285 42.3172 161.619 41.8059 162.088 41.4602C162.556 41.1098 163.096 40.9347 163.707 40.9347C163.859 40.9347 164.022 40.9441 164.197 40.9631C164.372 40.982 164.526 41.008 164.659 41.0412V43.7259C164.517 43.6832 164.32 43.6454 164.069 43.6122C163.818 43.5791 163.589 43.5625 163.38 43.5625C162.935 43.5625 162.538 43.6596 162.187 43.8537C161.842 44.0431 161.567 44.3082 161.363 44.6491C161.164 44.9901 161.065 45.383 161.065 45.8281V52H158.039ZM168.964 48.8608L168.972 45.2315H169.412L172.906 41.0909H176.379L171.685 46.5739H170.967L168.964 48.8608ZM166.223 52V37.4545H169.249V52H166.223ZM173.041 52L169.831 47.2486L171.848 45.1108L176.585 52H173.041ZM181.995 39.9901V37.4545H193.941V39.9901H189.488V52H186.449V39.9901H181.995ZM195.852 52V41.0909H198.877V52H195.852ZM197.372 39.6847C196.922 39.6847 196.536 39.5355 196.214 39.2372C195.897 38.9342 195.738 38.572 195.738 38.1506C195.738 37.7339 195.897 37.3764 196.214 37.0781C196.536 36.7751 196.922 36.6236 197.372 36.6236C197.822 36.6236 198.205 36.7751 198.522 37.0781C198.844 37.3764 199.005 37.7339 199.005 38.1506C199.005 38.572 198.844 38.9342 198.522 39.2372C198.205 39.5355 197.822 39.6847 197.372 39.6847ZM207.104 41.0909V43.3636H200.534V41.0909H207.104ZM202.026 38.4773H205.051V48.6477C205.051 48.9271 205.094 49.1449 205.179 49.3011C205.264 49.4527 205.383 49.5592 205.534 49.6207C205.69 49.6823 205.87 49.7131 206.074 49.7131C206.216 49.7131 206.358 49.7012 206.5 49.6776C206.642 49.6491 206.751 49.6278 206.827 49.6136L207.303 51.8651C207.151 51.9124 206.938 51.9669 206.663 52.0284C206.389 52.0947 206.055 52.1349 205.662 52.1491C204.933 52.1776 204.294 52.0805 203.744 51.858C203.2 51.6354 202.776 51.2898 202.473 50.821C202.17 50.3523 202.021 49.7604 202.026 49.0455V38.4773ZM212.335 37.4545V52H209.309V37.4545H212.335ZM219.73 52.2131C218.608 52.2131 217.642 51.9858 216.832 51.5312C216.027 51.072 215.407 50.4233 214.971 49.5852C214.536 48.7424 214.318 47.7457 214.318 46.5952C214.318 45.473 214.536 44.4882 214.971 43.6406C215.407 42.7931 216.02 42.1326 216.811 41.6591C217.606 41.1856 218.539 40.9489 219.609 40.9489C220.329 40.9489 220.999 41.0649 221.619 41.2969C222.244 41.5241 222.788 41.8674 223.252 42.3267C223.721 42.786 224.086 43.3636 224.346 44.0597C224.607 44.7509 224.737 45.5606 224.737 46.4886V47.3196H215.525V45.4446H221.889C221.889 45.009 221.794 44.6231 221.605 44.2869C221.415 43.9508 221.153 43.688 220.816 43.4986C220.485 43.3045 220.099 43.2074 219.659 43.2074C219.199 43.2074 218.792 43.3139 218.437 43.527C218.087 43.7353 217.812 44.017 217.613 44.3722C217.414 44.7225 217.313 45.1132 217.308 45.544V47.3267C217.308 47.8665 217.407 48.3329 217.606 48.7259C217.81 49.1188 218.096 49.4219 218.466 49.6349C218.835 49.848 219.273 49.9545 219.779 49.9545C220.116 49.9545 220.423 49.9072 220.703 49.8125C220.982 49.7178 221.221 49.5758 221.42 49.3864C221.619 49.197 221.77 48.965 221.875 48.6903L224.673 48.875C224.531 49.5473 224.24 50.1345 223.799 50.6364C223.364 51.1335 222.8 51.5218 222.109 51.8011C221.422 52.0758 220.629 52.2131 219.73 52.2131Z" fill="#353535"/>
<path d="M34.5966 87L36.2869 76.8182H39.7273C40.5227 76.8182 41.1508 76.9607 41.6115 77.2457C42.0755 77.5308 42.3887 77.9169 42.5511 78.4041C42.7169 78.8913 42.75 79.4366 42.6506 80.0398C42.5511 80.6364 42.3374 81.1799 42.0092 81.6705C41.6844 82.161 41.2436 82.5521 40.6868 82.8438C40.1333 83.1354 39.4621 83.2812 38.6733 83.2812H36.2074L36.3864 82.1875H38.8125C39.3561 82.1875 39.8101 82.093 40.1747 81.9041C40.5393 81.7152 40.8243 81.4583 41.0298 81.1335C41.2353 80.8087 41.3712 80.4441 41.4375 80.0398C41.5038 79.6288 41.4872 79.2642 41.3878 78.946C41.2917 78.6245 41.0911 78.3726 40.7862 78.1903C40.4846 78.0047 40.0587 77.9119 39.5085 77.9119H37.3409L35.8295 87H34.5966ZM45.2395 82.4062L44.4838 87H43.3105L45.0009 76.8182H46.1742L45.5577 80.5568H45.6571C45.8958 80.1591 46.214 79.8442 46.6117 79.6122C47.0127 79.3802 47.5165 79.2642 48.123 79.2642C48.6401 79.2642 49.0759 79.3686 49.4306 79.5774C49.7885 79.7829 50.0404 80.0994 50.1863 80.527C50.3354 80.9512 50.3569 81.4915 50.2509 82.1477L49.4355 87H48.2623L49.0577 82.2273C49.1571 81.6207 49.0759 81.1518 48.8141 80.8203C48.5556 80.4856 48.1529 80.3182 47.606 80.3182C47.2215 80.3182 46.8636 80.3994 46.5321 80.5618C46.204 80.7242 45.9256 80.9612 45.6969 81.2727C45.4715 81.5843 45.3191 81.9621 45.2395 82.4062ZM54.734 87.1591C54.0314 87.1591 53.4431 86.9917 52.9691 86.657C52.4951 86.3222 52.1604 85.8532 51.9648 85.25C51.7726 84.6468 51.7411 83.9441 51.8704 83.142C51.9963 82.3598 52.2466 81.6787 52.6211 81.0987C52.9989 80.5154 53.4679 80.0646 54.0281 79.7464C54.5915 79.425 55.2113 79.2642 55.8874 79.2642C56.5901 79.2642 57.1767 79.4332 57.6474 79.7713C58.1213 80.1061 58.4561 80.5767 58.6516 81.1832C58.8472 81.7865 58.8803 82.4924 58.7511 83.3011C58.6251 84.0767 58.3716 84.7545 57.9904 85.3345C57.6126 85.9112 57.1436 86.3603 56.5835 86.6818C56.0266 87 55.4102 87.1591 54.734 87.1591ZM54.7539 86.1051C55.2908 86.1051 55.7565 85.9676 56.1509 85.6925C56.5487 85.4174 56.8701 85.0545 57.1154 84.6037C57.364 84.1529 57.5314 83.6657 57.6175 83.142C57.6971 82.6449 57.6938 82.1825 57.6076 81.755C57.5214 81.3241 57.3375 80.9777 57.0558 80.7159C56.774 80.4508 56.378 80.3182 55.8675 80.3182C55.3306 80.3182 54.8616 80.4574 54.4606 80.7358C54.0629 81.0142 53.7414 81.3804 53.4961 81.8345C53.2508 82.2886 53.0868 82.7775 53.0039 83.3011C52.9244 83.7983 52.926 84.2607 53.0089 84.6882C53.0951 85.1125 53.279 85.4555 53.5607 85.7173C53.8458 85.9759 54.2435 86.1051 54.7539 86.1051ZM64.5293 79.3636L64.3702 80.358H60.4128L60.5719 79.3636H64.5293ZM62.0236 77.5341H63.1969L61.9838 84.8125C61.9308 85.1439 61.9391 85.3925 62.0087 85.5582C62.0816 85.7206 62.191 85.83 62.3368 85.8864C62.486 85.9394 62.6467 85.9659 62.8191 85.9659C62.9483 85.9659 63.0544 85.9593 63.1373 85.946C63.2201 85.9295 63.2864 85.9162 63.3361 85.9062L63.4157 86.9602C63.3262 86.9901 63.2052 87.0199 63.0527 87.0497C62.9036 87.0829 62.7196 87.0994 62.5009 87.0994C62.1694 87.0994 61.8579 87.0282 61.5662 86.8857C61.2746 86.7431 61.0508 86.526 60.8951 86.2344C60.7393 85.9427 60.6979 85.5748 60.7708 85.1307L62.0236 77.5341ZM68.0914 87.1591C67.3888 87.1591 66.8005 86.9917 66.3265 86.657C65.8526 86.3222 65.5178 85.8532 65.3223 85.25C65.13 84.6468 65.0985 83.9441 65.2278 83.142C65.3538 82.3598 65.604 81.6787 65.9785 81.0987C66.3564 80.5154 66.8253 80.0646 67.3855 79.7464C67.9489 79.425 68.5687 79.2642 69.2449 79.2642C69.9475 79.2642 70.5342 79.4332 71.0048 79.7713C71.4788 80.1061 71.8135 80.5767 72.0091 81.1832C72.2046 81.7865 72.2377 82.4924 72.1085 83.3011C71.9825 84.0767 71.729 84.7545 71.3478 85.3345C70.97 85.9112 70.501 86.3603 69.9409 86.6818C69.3841 87 68.7676 87.1591 68.0914 87.1591ZM68.1113 86.1051C68.6483 86.1051 69.1139 85.9676 69.5083 85.6925C69.9061 85.4174 70.2276 85.0545 70.4728 84.6037C70.7214 84.1529 70.8888 83.6657 70.975 83.142C71.0545 82.6449 71.0512 82.1825 70.965 81.755C70.8788 81.3241 70.6949 80.9777 70.4132 80.7159C70.1315 80.4508 69.7354 80.3182 69.225 80.3182C68.688 80.3182 68.219 80.4574 67.818 80.7358C67.4203 81.0142 67.0988 81.3804 66.8535 81.8345C66.6083 82.2886 66.4442 82.7775 66.3613 83.3011C66.2818 83.7983 66.2834 84.2607 66.3663 84.6882C66.4525 85.1125 66.6364 85.4555 66.9181 85.7173C67.2032 85.9759 67.6009 86.1051 68.1113 86.1051ZM75.8981 90.0227C75.328 90.0227 74.8507 89.9498 74.4663 89.804C74.0818 89.6615 73.7736 89.4725 73.5415 89.2372C73.3095 89.0052 73.1339 88.7566 73.0146 88.4915L74.0685 87.8352C74.1481 87.9744 74.2508 88.1335 74.3768 88.3125C74.5027 88.4948 74.6933 88.6522 74.9485 88.7848C75.207 88.9207 75.57 88.9886 76.0373 88.9886C76.6504 88.9886 77.1874 88.8395 77.6481 88.5412C78.1088 88.2429 78.3938 87.7756 78.5032 87.1392L78.7418 85.5881H78.6424C78.5363 85.7273 78.3888 85.8996 78.1999 86.1051C78.011 86.3073 77.7575 86.4879 77.4393 86.647C77.1211 86.8028 76.7134 86.8807 76.2163 86.8807C75.5965 86.8807 75.0662 86.7348 74.6254 86.4432C74.1845 86.1515 73.868 85.7273 73.6758 85.1705C73.4869 84.6136 73.4587 83.9375 73.5913 83.142C73.7205 82.3598 73.9691 81.6787 74.337 81.0987C74.7082 80.5154 75.1656 80.0646 75.7092 79.7464C76.2527 79.425 76.846 79.2642 77.489 79.2642C77.9862 79.2642 78.3673 79.3471 78.6325 79.5128C78.9009 79.6752 79.0965 79.8608 79.2191 80.0696C79.3417 80.2751 79.4345 80.4441 79.4975 80.5767H79.6168L79.8157 79.3636H80.9492L79.6566 87.2188C79.5472 87.875 79.3103 88.4086 78.9457 88.8196C78.5811 89.2339 78.1336 89.5372 77.6033 89.7294C77.073 89.925 76.5046 90.0227 75.8981 90.0227ZM76.5146 85.8267C76.9819 85.8267 77.3978 85.719 77.7624 85.5036C78.1303 85.2881 78.4353 84.9782 78.6772 84.5739C78.9192 84.1695 79.0865 83.6856 79.1793 83.1222C79.2721 82.572 79.2655 82.0864 79.1594 81.6655C79.0534 81.2446 78.8529 80.9148 78.5579 80.6761C78.2662 80.4375 77.8834 80.3182 77.4094 80.3182C76.909 80.3182 76.4764 80.4441 76.1119 80.696C75.7506 80.9479 75.4573 81.286 75.2319 81.7102C75.0065 82.1345 74.8507 82.6051 74.7646 83.1222C74.6784 83.6525 74.6817 84.1214 74.7745 84.5291C74.8673 84.9335 75.0562 85.2517 75.3413 85.4837C75.6296 85.7124 76.0207 85.8267 76.5146 85.8267ZM81.8242 87L83.0969 79.3636H84.2305L84.0316 80.517H84.1112C84.31 80.1392 84.6133 79.8326 85.021 79.5973C85.4286 79.362 85.8612 79.2443 86.3185 79.2443C86.408 79.2443 86.5157 79.246 86.6417 79.2493C86.7676 79.2493 86.8654 79.2543 86.935 79.2642L86.7362 80.4574C86.6964 80.4474 86.6069 80.4325 86.4677 80.4126C86.3285 80.3894 86.1793 80.3778 86.0202 80.3778C85.649 80.3778 85.306 80.4557 84.9911 80.6115C84.6763 80.764 84.4128 80.9761 84.2006 81.2479C83.9885 81.5163 83.8526 81.8229 83.793 82.1676L82.9975 87H81.8242ZM89.2878 87.179C88.8039 87.179 88.3797 87.0878 88.0151 86.9055C87.6505 86.7199 87.3804 86.4531 87.2047 86.1051C87.0291 85.7538 86.981 85.3295 87.0605 84.8324C87.1368 84.3949 87.2843 84.0402 87.503 83.7685C87.7218 83.4934 87.9869 83.2779 88.2985 83.1222C88.6133 82.9631 88.9514 82.8454 89.3127 82.7692C89.6773 82.6896 90.0402 82.6283 90.4015 82.5852C90.8721 82.5256 91.2549 82.4792 91.5499 82.446C91.8449 82.4129 92.0669 82.3582 92.2161 82.282C92.3652 82.2057 92.4564 82.0748 92.4895 81.8892V81.8494C92.5691 81.3622 92.5044 80.9827 92.2956 80.7109C92.0868 80.4358 91.714 80.2983 91.177 80.2983C90.6202 80.2983 90.1545 80.4209 89.78 80.6662C89.4055 80.9115 89.1287 81.1733 88.9498 81.4517L87.9157 81.054C88.1874 80.59 88.5123 80.2287 88.8901 79.9702C89.2679 79.7083 89.664 79.526 90.0783 79.4233C90.4926 79.3172 90.892 79.2642 91.2765 79.2642C91.5217 79.2642 91.7985 79.294 92.1067 79.3537C92.415 79.41 92.7033 79.5277 92.9718 79.7067C93.2435 79.8857 93.4474 80.1558 93.5833 80.517C93.7225 80.8783 93.7424 81.3622 93.6429 81.9688L92.8077 87H91.6344L91.8134 85.9659H91.7537C91.6477 86.1316 91.4853 86.3089 91.2665 86.4979C91.0511 86.6868 90.7776 86.8475 90.4462 86.9801C90.1181 87.1127 89.7319 87.179 89.2878 87.179ZM89.6259 86.125C90.0899 86.125 90.4959 86.0339 90.8439 85.8516C91.1953 85.6693 91.477 85.4339 91.6891 85.1456C91.9045 84.8572 92.0388 84.554 92.0918 84.2358L92.2708 83.1619C92.2111 83.2216 92.0935 83.2763 91.9178 83.326C91.7421 83.3724 91.5433 83.4138 91.3212 83.4503C91.1025 83.4834 90.8887 83.5133 90.6799 83.5398C90.4744 83.563 90.3087 83.5829 90.1827 83.5994C89.8712 83.6392 89.5745 83.7038 89.2928 83.7933C89.0144 83.8795 88.7791 84.0104 88.5868 84.1861C88.3979 84.3584 88.2802 84.5937 88.2338 84.892C88.1642 85.2997 88.262 85.608 88.5272 85.8168C88.7923 86.0223 89.1586 86.125 89.6259 86.125ZM94.4719 89.8636L96.2319 79.3636H97.3654L97.1665 80.5767H97.3058C97.4118 80.4441 97.5576 80.2751 97.7433 80.0696C97.9322 79.8608 98.1857 79.6752 98.5039 79.5128C98.8254 79.3471 99.2347 79.2642 99.7319 79.2642C100.375 79.2642 100.913 79.425 101.348 79.7464C101.782 80.0679 102.088 80.5237 102.267 81.1136C102.446 81.7036 102.47 82.3996 102.337 83.2017C102.204 84.0104 101.951 84.7114 101.576 85.3047C101.202 85.8946 100.744 86.352 100.204 86.6768C99.6639 86.9983 99.0756 87.1591 98.4393 87.1591C97.9487 87.1591 97.5692 87.0779 97.3008 86.9155C97.0323 86.7498 96.8368 86.5625 96.7141 86.3537C96.5915 86.1416 96.497 85.9659 96.4308 85.8267H96.3313L95.6552 89.8636H94.4719ZM96.7489 83.1818C96.6561 83.7585 96.6561 84.2673 96.7489 84.7081C96.8451 85.1456 97.0356 85.4886 97.3207 85.7372C97.609 85.9825 97.9885 86.1051 98.4592 86.1051C98.9497 86.1051 99.3789 85.9759 99.7468 85.7173C100.118 85.4555 100.423 85.1042 100.662 84.6634C100.904 84.2192 101.071 83.7254 101.164 83.1818C101.25 82.6449 101.247 82.161 101.154 81.7301C101.061 81.2959 100.872 80.9529 100.587 80.701C100.302 80.4458 99.9109 80.3182 99.4137 80.3182C98.9364 80.3182 98.5138 80.4392 98.146 80.6811C97.7814 80.9197 97.4798 81.2545 97.2411 81.6854C97.0058 82.1129 96.8417 82.6117 96.7489 83.1818ZM105.423 82.4062L104.667 87H103.494L105.184 76.8182H106.358L105.741 80.5568H105.841C106.079 80.1591 106.398 79.8442 106.795 79.6122C107.196 79.3802 107.7 79.2642 108.307 79.2642C108.824 79.2642 109.26 79.3686 109.614 79.5774C109.972 79.7829 110.224 80.0994 110.37 80.527C110.519 80.9512 110.541 81.4915 110.434 82.1477L109.619 87H108.446L109.241 82.2273C109.341 81.6207 109.26 81.1518 108.998 80.8203C108.739 80.4856 108.336 80.3182 107.79 80.3182C107.405 80.3182 107.047 80.3994 106.716 80.5618C106.388 80.7242 106.109 80.9612 105.881 81.2727C105.655 81.5843 105.503 81.9621 105.423 82.4062Z" fill="#353535"/>
<path d="M114.426 85.608L114.247 86.1449C114.128 86.5227 113.975 86.9271 113.79 87.358C113.604 87.7888 113.42 88.1948 113.238 88.576C113.056 88.9571 112.908 89.2604 112.795 89.4858H111.901C111.973 89.2737 112.073 88.9936 112.199 88.6456C112.325 88.2976 112.459 87.9098 112.602 87.4822C112.744 87.0547 112.875 86.6155 112.994 86.1648L113.153 85.608H114.426Z" fill="#353535"/>
<path d="M120.418 87L120.577 86.1051L124.534 82.4261C124.998 81.9953 125.384 81.6191 125.692 81.2976C126.004 80.9761 126.246 80.6745 126.418 80.3928C126.594 80.111 126.708 79.8144 126.761 79.5028C126.821 79.1449 126.79 78.835 126.667 78.5732C126.544 78.3113 126.35 78.1091 126.085 77.9666C125.82 77.8241 125.502 77.7528 125.131 77.7528C124.74 77.7528 124.383 77.834 124.062 77.9964C123.74 78.1555 123.473 78.3809 123.261 78.6726C123.049 78.9609 122.91 79.2973 122.844 79.6818H121.67C121.77 79.0852 121.997 78.5616 122.352 78.1108C122.71 77.66 123.149 77.3087 123.669 77.0568C124.193 76.8049 124.753 76.679 125.349 76.679C125.946 76.679 126.451 76.8049 126.866 77.0568C127.28 77.3087 127.58 77.6484 127.766 78.076C127.951 78.5036 128.001 78.9792 127.915 79.5028C127.848 79.8807 127.718 80.2469 127.522 80.6016C127.326 80.9562 127.027 81.3523 126.622 81.7898C126.221 82.224 125.678 82.7543 124.991 83.3807L122.307 85.8267L122.287 85.9062H127.02L126.841 87H120.418ZM132.195 87.1392C131.446 87.1392 130.843 86.9354 130.386 86.5277C129.928 86.1167 129.627 85.5218 129.481 84.7429C129.335 83.9607 129.352 83.0161 129.531 81.9091C129.71 80.8087 130.003 79.8691 130.411 79.0902C130.818 78.308 131.32 77.7114 131.917 77.3004C132.513 76.8861 133.183 76.679 133.925 76.679C134.668 76.679 135.269 76.8861 135.73 77.3004C136.194 77.7147 136.502 78.3113 136.655 79.0902C136.811 79.8691 136.796 80.8087 136.61 81.9091C136.424 83.0161 136.128 83.959 135.72 84.7379C135.312 85.5168 134.81 86.1117 134.214 86.5227C133.617 86.9337 132.944 87.1392 132.195 87.1392ZM132.374 86.0455C133.12 86.0455 133.758 85.6875 134.288 84.9716C134.822 84.2524 135.198 83.2315 135.417 81.9091C135.563 81.0275 135.593 80.2768 135.506 79.657C135.42 79.0372 135.228 78.5649 134.93 78.2401C134.631 77.9152 134.237 77.7528 133.746 77.7528C133.011 77.7528 132.378 78.1158 131.847 78.8416C131.317 79.5642 130.942 80.5866 130.724 81.9091C130.578 82.7907 130.546 83.5398 130.629 84.1562C130.712 84.7727 130.901 85.2417 131.196 85.5632C131.491 85.8847 131.884 86.0455 132.374 86.0455ZM137.644 87L137.803 86.1051L141.761 82.4261C142.225 81.9953 142.611 81.6191 142.919 81.2976C143.231 80.9761 143.473 80.6745 143.645 80.3928C143.821 80.111 143.935 79.8144 143.988 79.5028C144.048 79.1449 144.016 78.835 143.893 78.5732C143.771 78.3113 143.577 78.1091 143.312 77.9666C143.047 77.8241 142.728 77.7528 142.357 77.7528C141.966 77.7528 141.61 77.834 141.288 77.9964C140.967 78.1555 140.7 78.3809 140.488 78.6726C140.276 78.9609 140.137 79.2973 140.07 79.6818H138.897C138.996 79.0852 139.223 78.5616 139.578 78.1108C139.936 77.66 140.375 77.3087 140.896 77.0568C141.419 76.8049 141.979 76.679 142.576 76.679C143.173 76.679 143.678 76.8049 144.092 77.0568C144.507 77.3087 144.807 77.6484 144.992 78.076C145.178 78.5036 145.228 78.9792 145.141 79.5028C145.075 79.8807 144.944 80.2469 144.749 80.6016C144.553 80.9562 144.253 81.3523 143.849 81.7898C143.448 82.224 142.904 82.7543 142.218 83.3807L139.533 85.8267L139.513 85.9062H144.246L144.067 87H137.644ZM149.561 87.1392C149.134 87.1359 148.719 87.0547 148.318 86.8956C147.917 86.7365 147.571 86.473 147.279 86.1051C146.987 85.7339 146.787 85.2318 146.678 84.5987C146.571 83.9657 146.598 83.1752 146.757 82.2273C146.906 81.3357 147.12 80.5469 147.398 79.8608C147.68 79.1714 148.017 78.5914 148.408 78.1207C148.799 77.6468 149.238 77.2888 149.725 77.0469C150.216 76.8016 150.744 76.679 151.311 76.679C151.875 76.679 152.363 76.7933 152.778 77.022C153.195 77.2474 153.517 77.5623 153.742 77.9666C153.971 78.3677 154.082 78.8333 154.075 79.3636H152.902C152.885 78.8996 152.745 78.5185 152.479 78.2202C152.218 77.9219 151.815 77.7727 151.271 77.7727C150.482 77.7727 149.793 78.1091 149.203 78.782C148.613 79.4548 148.209 80.4375 147.99 81.7301L148.07 81.6506C148.302 81.3722 148.558 81.1352 148.84 80.9396C149.122 80.7441 149.422 80.5949 149.74 80.4922C150.062 80.3894 150.393 80.3381 150.734 80.3381C151.331 80.3381 151.853 80.4872 152.3 80.7855C152.748 81.0838 153.078 81.4931 153.29 82.0135C153.502 82.5339 153.552 83.1288 153.439 83.7983C153.333 84.4148 153.101 84.9782 152.743 85.4886C152.388 85.9957 151.938 86.4001 151.391 86.7017C150.847 87 150.237 87.1458 149.561 87.1392ZM149.601 86.0455C150.025 86.0455 150.426 85.9377 150.804 85.7223C151.182 85.5069 151.502 85.2169 151.763 84.8523C152.025 84.4877 152.193 84.0833 152.266 83.6392C152.332 83.2348 152.302 82.8653 152.176 82.5305C152.05 82.1958 151.846 81.929 151.565 81.7301C151.283 81.5312 150.94 81.4318 150.536 81.4318C150.214 81.4318 149.901 81.4964 149.596 81.6257C149.294 81.755 149.019 81.9323 148.771 82.1577C148.525 82.3797 148.32 82.6333 148.154 82.9183C147.988 83.2034 147.881 83.5033 147.831 83.8182C147.765 84.2093 147.795 84.5739 147.92 84.9119C148.046 85.25 148.254 85.5234 148.542 85.7322C148.83 85.9411 149.183 86.0455 149.601 86.0455Z" fill="#353535"/>
<path d="M36.4659 109.818V120H35.233V109.818H36.4659ZM39.9522 115.406V120H38.7789V112.364H39.9125V113.557H40.0119C40.1909 113.169 40.4627 112.857 40.8272 112.622C41.1918 112.384 41.6625 112.264 42.2392 112.264C42.7562 112.264 43.2086 112.37 43.5964 112.582C43.9842 112.791 44.2858 113.109 44.5012 113.537C44.7167 113.961 44.8244 114.498 44.8244 115.148V120H43.6511V115.227C43.6511 114.627 43.4953 114.16 43.1838 113.825C42.8722 113.487 42.4447 113.318 41.9011 113.318C41.5266 113.318 41.1918 113.399 40.8968 113.562C40.6052 113.724 40.3748 113.961 40.2058 114.273C40.0368 114.584 39.9522 114.962 39.9522 115.406ZM52.3775 114.074L51.3235 114.372C51.2572 114.196 51.1594 114.026 51.0302 113.86C50.9042 113.691 50.7319 113.552 50.5131 113.442C50.2944 113.333 50.0143 113.278 49.6729 113.278C49.2056 113.278 48.8162 113.386 48.5046 113.602C48.1964 113.814 48.0423 114.084 48.0423 114.412C48.0423 114.704 48.1483 114.934 48.3604 115.103C48.5726 115.272 48.904 115.413 49.3548 115.526L50.4883 115.804C51.171 115.97 51.6798 116.223 52.0146 116.565C52.3493 116.903 52.5167 117.339 52.5167 117.872C52.5167 118.31 52.3907 118.701 52.1388 119.045C51.8903 119.39 51.5423 119.662 51.0948 119.861C50.6474 120.06 50.127 120.159 49.5337 120.159C48.7549 120.159 48.1102 119.99 47.5998 119.652C47.0894 119.314 46.7662 118.82 46.6303 118.17L47.744 117.892C47.85 118.303 48.0505 118.611 48.3455 118.817C48.6438 119.022 49.0333 119.125 49.5138 119.125C50.0607 119.125 50.4949 119.009 50.8164 118.777C51.1412 118.542 51.3036 118.26 51.3036 117.932C51.3036 117.667 51.2108 117.445 51.0252 117.266C50.8396 117.083 50.5546 116.947 50.1701 116.858L48.8974 116.56C48.198 116.394 47.6843 116.137 47.3562 115.789C47.0314 115.438 46.869 114.999 46.869 114.472C46.869 114.041 46.9899 113.66 47.2319 113.328C47.4772 112.997 47.8103 112.737 48.2312 112.548C48.6554 112.359 49.136 112.264 49.6729 112.264C50.4286 112.264 51.0219 112.43 51.4528 112.761C51.887 113.093 52.1952 113.53 52.3775 114.074ZM57.4846 120.159C56.7488 120.159 56.1141 119.997 55.5804 119.672C55.0501 119.344 54.6408 118.886 54.3525 118.3C54.0674 117.71 53.9249 117.024 53.9249 116.241C53.9249 115.459 54.0674 114.77 54.3525 114.173C54.6408 113.573 55.0418 113.106 55.5556 112.771C56.0726 112.433 56.6758 112.264 57.3652 112.264C57.763 112.264 58.1557 112.33 58.5435 112.463C58.9313 112.596 59.2843 112.811 59.6025 113.109C59.9206 113.404 60.1742 113.795 60.3631 114.283C60.552 114.77 60.6465 115.37 60.6465 116.082V116.58H54.7601V115.565H59.4533C59.4533 115.134 59.3671 114.75 59.1948 114.412C59.0257 114.074 58.7838 113.807 58.4689 113.612C58.1574 113.416 57.7895 113.318 57.3652 113.318C56.8979 113.318 56.4935 113.434 56.1522 113.666C55.8141 113.895 55.5539 114.193 55.3716 114.561C55.1893 114.929 55.0982 115.323 55.0982 115.744V116.42C55.0982 116.997 55.1976 117.486 55.3965 117.887C55.5987 118.285 55.8787 118.588 56.2367 118.797C56.5946 119.002 57.0106 119.105 57.4846 119.105C57.7928 119.105 58.0712 119.062 58.3198 118.976C58.5717 118.886 58.7888 118.754 58.9711 118.578C59.1534 118.399 59.2942 118.177 59.3936 117.912L60.5272 118.23C60.4078 118.615 60.2073 118.953 59.9256 119.244C59.6439 119.533 59.2959 119.758 58.8816 119.92C58.4673 120.08 58.0016 120.159 57.4846 120.159ZM62.4313 120V112.364H63.5648V113.517H63.6444C63.7836 113.139 64.0355 112.833 64.4 112.597C64.7646 112.362 65.1756 112.244 65.633 112.244C65.7192 112.244 65.8269 112.246 65.9561 112.249C66.0854 112.253 66.1832 112.258 66.2495 112.264V113.457C66.2097 113.447 66.1185 113.433 65.976 113.413C65.8368 113.389 65.6893 113.378 65.5336 113.378C65.1623 113.378 64.8309 113.456 64.5392 113.612C64.2509 113.764 64.0222 113.976 63.8532 114.248C63.6874 114.516 63.6046 114.823 63.6046 115.168V120H62.4313ZM71.4398 112.364V113.358H67.4824V112.364H71.4398ZM68.6358 110.534H69.8091V117.812C69.8091 118.144 69.8572 118.393 69.9533 118.558C70.0527 118.721 70.1787 118.83 70.3311 118.886C70.4869 118.939 70.651 118.966 70.8233 118.966C70.9526 118.966 71.0587 118.959 71.1415 118.946C71.2244 118.929 71.2907 118.916 71.3404 118.906L71.579 119.96C71.4995 119.99 71.3884 120.02 71.2459 120.05C71.1034 120.083 70.9228 120.099 70.704 120.099C70.3726 120.099 70.0478 120.028 69.7296 119.886C69.4147 119.743 69.1529 119.526 68.9441 119.234C68.7386 118.943 68.6358 118.575 68.6358 118.131V110.534ZM80.2445 120.159C79.5286 120.159 78.9121 119.99 78.3951 119.652C77.878 119.314 77.4803 118.848 77.2019 118.255C76.9235 117.662 76.7843 116.984 76.7843 116.222C76.7843 115.446 76.9268 114.762 77.2118 114.168C77.5002 113.572 77.9012 113.106 78.415 112.771C78.932 112.433 79.5352 112.264 80.2246 112.264C80.7615 112.264 81.2454 112.364 81.6763 112.562C82.1072 112.761 82.4602 113.04 82.7353 113.398C83.0104 113.756 83.181 114.173 83.2473 114.651H82.074C81.9846 114.303 81.7857 113.994 81.4775 113.726C81.1725 113.454 80.7615 113.318 80.2445 113.318C79.7871 113.318 79.3861 113.437 79.0414 113.676C78.7 113.911 78.4332 114.245 78.2409 114.675C78.052 115.103 77.9576 115.605 77.9576 116.182C77.9576 116.772 78.0504 117.286 78.236 117.723C78.4249 118.161 78.69 118.5 79.0314 118.742C79.3761 118.984 79.7805 119.105 80.2445 119.105C80.5494 119.105 80.8262 119.052 81.0748 118.946C81.3233 118.84 81.5338 118.688 81.7061 118.489C81.8785 118.29 82.0011 118.051 82.074 117.773H83.2473C83.181 118.223 83.017 118.629 82.7551 118.991C82.4966 119.349 82.1536 119.634 81.726 119.846C81.3018 120.055 80.8079 120.159 80.2445 120.159ZM89.775 116.878V112.364H90.9483V120H89.775V118.707H89.6955C89.5165 119.095 89.2381 119.425 88.8603 119.697C88.4824 119.965 88.0051 120.099 87.4284 120.099C86.9512 120.099 86.5269 119.995 86.1557 119.786C85.7845 119.574 85.4928 119.256 85.2807 118.832C85.0686 118.404 84.9625 117.866 84.9625 117.216V112.364H86.1358V117.136C86.1358 117.693 86.2916 118.137 86.6032 118.469C86.918 118.8 87.3191 118.966 87.8063 118.966C88.098 118.966 88.3946 118.891 88.6962 118.742C89.0011 118.593 89.2563 118.364 89.4618 118.056C89.6706 117.748 89.775 117.355 89.775 116.878ZM96.4183 112.364V113.358H92.4609V112.364H96.4183ZM93.6143 110.534H94.7876V117.812C94.7876 118.144 94.8357 118.393 94.9318 118.558C95.0313 118.721 95.1572 118.83 95.3097 118.886C95.4654 118.939 95.6295 118.966 95.8018 118.966C95.9311 118.966 96.0372 118.959 96.12 118.946C96.2029 118.929 96.2692 118.916 96.3189 118.906L96.5575 119.96C96.478 119.99 96.367 120.02 96.2244 120.05C96.0819 120.083 95.9013 120.099 95.6825 120.099C95.3511 120.099 95.0263 120.028 94.7081 119.886C94.3932 119.743 94.1314 119.526 93.9226 119.234C93.7171 118.943 93.6143 118.575 93.6143 118.131V110.534ZM101.303 120.159C100.567 120.159 99.9324 119.997 99.3988 119.672C98.8685 119.344 98.4592 118.886 98.1708 118.3C97.8858 117.71 97.7433 117.024 97.7433 116.241C97.7433 115.459 97.8858 114.77 98.1708 114.173C98.4592 113.573 98.8602 113.106 99.3739 112.771C99.891 112.433 100.494 112.264 101.184 112.264C101.581 112.264 101.974 112.33 102.362 112.463C102.75 112.596 103.103 112.811 103.421 113.109C103.739 113.404 103.993 113.795 104.181 114.283C104.37 114.77 104.465 115.37 104.465 116.082V116.58H98.5785V115.565H103.272C103.272 115.134 103.185 114.75 103.013 114.412C102.844 114.074 102.602 113.807 102.287 113.612C101.976 113.416 101.608 113.318 101.184 113.318C100.716 113.318 100.312 113.434 99.9705 113.666C99.6325 113.895 99.3723 114.193 99.19 114.561C99.0077 114.929 98.9165 115.323 98.9165 115.744V116.42C98.9165 116.997 99.016 117.486 99.2148 117.887C99.417 118.285 99.6971 118.588 100.055 118.797C100.413 119.002 100.829 119.105 101.303 119.105C101.611 119.105 101.89 119.062 102.138 118.976C102.39 118.886 102.607 118.754 102.789 118.578C102.972 118.399 103.113 118.177 103.212 117.912L104.346 118.23C104.226 118.615 104.026 118.953 103.744 119.244C103.462 119.533 103.114 119.758 102.7 119.92C102.286 120.08 101.82 120.159 101.303 120.159ZM113.508 112.364V113.358H109.551V112.364H113.508ZM110.704 110.534H111.877V117.812C111.877 118.144 111.926 118.393 112.022 118.558C112.121 118.721 112.247 118.83 112.4 118.886C112.555 118.939 112.719 118.966 112.892 118.966C113.021 118.966 113.127 118.959 113.21 118.946C113.293 118.929 113.359 118.916 113.409 118.906L113.647 119.96C113.568 119.99 113.457 120.02 113.314 120.05C113.172 120.083 112.991 120.099 112.772 120.099C112.441 120.099 112.116 120.028 111.798 119.886C111.483 119.743 111.221 119.526 111.012 119.234C110.807 118.943 110.704 118.575 110.704 118.131V110.534ZM118.393 120.159C117.657 120.159 117.022 119.997 116.489 119.672C115.958 119.344 115.549 118.886 115.261 118.3C114.976 117.71 114.833 117.024 114.833 116.241C114.833 115.459 114.976 114.77 115.261 114.173C115.549 113.573 115.95 113.106 116.464 112.771C116.981 112.433 117.584 112.264 118.273 112.264C118.671 112.264 119.064 112.33 119.452 112.463C119.839 112.596 120.192 112.811 120.511 113.109C120.829 113.404 121.082 113.795 121.271 114.283C121.46 114.77 121.555 115.37 121.555 116.082V116.58H115.668V115.565H120.362C120.362 115.134 120.275 114.75 120.103 114.412C119.934 114.074 119.692 113.807 119.377 113.612C119.066 113.416 118.698 113.318 118.273 113.318C117.806 113.318 117.402 113.434 117.06 113.666C116.722 113.895 116.462 114.193 116.28 114.561C116.098 114.929 116.006 115.323 116.006 115.744V116.42C116.006 116.997 116.106 117.486 116.305 117.887C116.507 118.285 116.787 118.588 117.145 118.797C117.503 119.002 117.919 119.105 118.393 119.105C118.701 119.105 118.979 119.062 119.228 118.976C119.48 118.886 119.697 118.754 119.879 118.578C120.062 118.399 120.202 118.177 120.302 117.912L121.435 118.23C121.316 118.615 121.116 118.953 120.834 119.244C120.552 119.533 120.204 119.758 119.79 119.92C119.375 120.08 118.91 120.159 118.393 120.159ZM124.009 112.364L125.839 115.486L127.669 112.364H129.021L126.555 116.182L129.021 120H127.669L125.839 117.037L124.009 120H122.657L125.083 116.182L122.657 112.364H124.009ZM134.016 112.364V113.358H130.059V112.364H134.016ZM131.212 110.534H132.385V117.812C132.385 118.144 132.433 118.393 132.529 118.558C132.629 118.721 132.755 118.83 132.907 118.886C133.063 118.939 133.227 118.966 133.4 118.966C133.529 118.966 133.635 118.959 133.718 118.946C133.801 118.929 133.867 118.916 133.917 118.906L134.155 119.96C134.076 119.99 133.965 120.02 133.822 120.05C133.68 120.083 133.499 120.099 133.28 120.099C132.949 120.099 132.624 120.028 132.306 119.886C131.991 119.743 131.729 119.526 131.52 119.234C131.315 118.943 131.212 118.575 131.212 118.131V110.534ZM141.966 120.179C141.482 120.179 141.042 120.088 140.648 119.906C140.254 119.72 139.94 119.453 139.708 119.105C139.476 118.754 139.36 118.33 139.36 117.832C139.36 117.395 139.447 117.04 139.619 116.768C139.791 116.493 140.022 116.278 140.31 116.122C140.598 115.966 140.917 115.85 141.265 115.774C141.616 115.695 141.969 115.632 142.324 115.585C142.788 115.526 143.164 115.481 143.452 115.451C143.744 115.418 143.956 115.363 144.088 115.287C144.224 115.211 144.292 115.078 144.292 114.889V114.849C144.292 114.359 144.158 113.978 143.89 113.706C143.624 113.434 143.222 113.298 142.681 113.298C142.121 113.298 141.682 113.421 141.364 113.666C141.046 113.911 140.822 114.173 140.693 114.452L139.579 114.054C139.778 113.59 140.043 113.229 140.375 112.97C140.709 112.708 141.074 112.526 141.468 112.423C141.866 112.317 142.257 112.264 142.642 112.264C142.887 112.264 143.169 112.294 143.487 112.354C143.808 112.41 144.118 112.528 144.417 112.707C144.718 112.886 144.968 113.156 145.167 113.517C145.366 113.878 145.466 114.362 145.466 114.969V120H144.292V118.966H144.233C144.153 119.132 144.02 119.309 143.835 119.498C143.649 119.687 143.402 119.848 143.094 119.98C142.786 120.113 142.41 120.179 141.966 120.179ZM142.145 119.125C142.609 119.125 143 119.034 143.318 118.852C143.639 118.669 143.881 118.434 144.044 118.146C144.209 117.857 144.292 117.554 144.292 117.236V116.162C144.243 116.222 144.133 116.276 143.964 116.326C143.798 116.372 143.606 116.414 143.387 116.45C143.172 116.483 142.962 116.513 142.756 116.54C142.554 116.563 142.39 116.583 142.264 116.599C141.959 116.639 141.674 116.704 141.409 116.793C141.147 116.879 140.935 117.01 140.772 117.186C140.613 117.358 140.534 117.594 140.534 117.892C140.534 118.3 140.685 118.608 140.986 118.817C141.291 119.022 141.677 119.125 142.145 119.125ZM147.766 120V109.818H148.939V113.577H149.039C149.125 113.444 149.244 113.275 149.397 113.07C149.553 112.861 149.775 112.675 150.063 112.513C150.355 112.347 150.749 112.264 151.246 112.264C151.889 112.264 152.456 112.425 152.947 112.746C153.437 113.068 153.82 113.524 154.095 114.114C154.37 114.704 154.508 115.4 154.508 116.202C154.508 117.01 154.37 117.711 154.095 118.305C153.82 118.895 153.439 119.352 152.952 119.677C152.464 119.998 151.903 120.159 151.266 120.159C150.776 120.159 150.383 120.078 150.088 119.915C149.793 119.75 149.566 119.562 149.407 119.354C149.248 119.142 149.125 118.966 149.039 118.827H148.9V120H147.766ZM148.92 116.182C148.92 116.759 149.004 117.267 149.173 117.708C149.342 118.146 149.589 118.489 149.914 118.737C150.239 118.982 150.636 119.105 151.107 119.105C151.598 119.105 152.007 118.976 152.335 118.717C152.666 118.455 152.915 118.104 153.081 117.663C153.25 117.219 153.334 116.725 153.334 116.182C153.334 115.645 153.251 115.161 153.086 114.73C152.923 114.296 152.676 113.953 152.345 113.701C152.017 113.446 151.604 113.318 151.107 113.318C150.63 113.318 150.229 113.439 149.904 113.681C149.579 113.92 149.334 114.254 149.168 114.685C149.002 115.113 148.92 115.612 148.92 116.182ZM159.405 120.159C158.715 120.159 158.11 119.995 157.59 119.667C157.073 119.339 156.669 118.88 156.377 118.29C156.089 117.7 155.944 117.01 155.944 116.222C155.944 115.426 156.089 114.732 156.377 114.138C156.669 113.545 157.073 113.085 157.59 112.756C158.11 112.428 158.715 112.264 159.405 112.264C160.094 112.264 160.697 112.428 161.214 112.756C161.735 113.085 162.139 113.545 162.427 114.138C162.719 114.732 162.865 115.426 162.865 116.222C162.865 117.01 162.719 117.7 162.427 118.29C162.139 118.88 161.735 119.339 161.214 119.667C160.697 119.995 160.094 120.159 159.405 120.159ZM159.405 119.105C159.928 119.105 160.359 118.971 160.697 118.702C161.035 118.434 161.286 118.081 161.448 117.643C161.61 117.206 161.692 116.732 161.692 116.222C161.692 115.711 161.61 115.236 161.448 114.795C161.286 114.354 161.035 113.998 160.697 113.726C160.359 113.454 159.928 113.318 159.405 113.318C158.881 113.318 158.45 113.454 158.112 113.726C157.774 113.998 157.524 114.354 157.361 114.795C157.199 115.236 157.118 115.711 157.118 116.222C157.118 116.732 157.199 117.206 157.361 117.643C157.524 118.081 157.774 118.434 158.112 118.702C158.45 118.971 158.881 119.105 159.405 119.105ZM169.468 116.878V112.364H170.642V120H169.468V118.707H169.389C169.21 119.095 168.931 119.425 168.554 119.697C168.176 119.965 167.699 120.099 167.122 120.099C166.645 120.099 166.22 119.995 165.849 119.786C165.478 119.574 165.186 119.256 164.974 118.832C164.762 118.404 164.656 117.866 164.656 117.216V112.364H165.829V117.136C165.829 117.693 165.985 118.137 166.297 118.469C166.611 118.8 167.012 118.966 167.5 118.966C167.791 118.966 168.088 118.891 168.39 118.742C168.694 118.593 168.95 118.364 169.155 118.056C169.364 117.748 169.468 117.355 169.468 116.878ZM176.112 112.364V113.358H172.154V112.364H176.112ZM173.308 110.534H174.481V117.812C174.481 118.144 174.529 118.393 174.625 118.558C174.725 118.721 174.851 118.83 175.003 118.886C175.159 118.939 175.323 118.966 175.495 118.966C175.624 118.966 175.731 118.959 175.813 118.946C175.896 118.929 175.963 118.916 176.012 118.906L176.251 119.96C176.171 119.99 176.06 120.02 175.918 120.05C175.775 120.083 175.595 120.099 175.376 120.099C175.044 120.099 174.72 120.028 174.401 119.886C174.087 119.743 173.825 119.526 173.616 119.234C173.41 118.943 173.308 118.575 173.308 118.131V110.534ZM185.135 112.364V113.358H181.178V112.364H185.135ZM182.331 110.534H183.504V117.812C183.504 118.144 183.552 118.393 183.649 118.558C183.748 118.721 183.874 118.83 184.026 118.886C184.182 118.939 184.346 118.966 184.519 118.966C184.648 118.966 184.754 118.959 184.837 118.946C184.92 118.929 184.986 118.916 185.036 118.906L185.274 119.96C185.195 119.99 185.084 120.02 184.941 120.05C184.799 120.083 184.618 120.099 184.399 120.099C184.068 120.099 183.743 120.028 183.425 119.886C183.11 119.743 182.848 119.526 182.639 119.234C182.434 118.943 182.331 118.575 182.331 118.131V110.534ZM188.237 115.406V120H187.064V109.818H188.237V113.557H188.337C188.516 113.162 188.784 112.849 189.142 112.617C189.503 112.382 189.984 112.264 190.584 112.264C191.104 112.264 191.56 112.369 191.951 112.577C192.342 112.783 192.646 113.099 192.861 113.527C193.08 113.951 193.189 114.491 193.189 115.148V120H192.016V115.227C192.016 114.621 191.858 114.152 191.544 113.82C191.232 113.486 190.799 113.318 190.246 113.318C189.861 113.318 189.517 113.399 189.212 113.562C188.91 113.724 188.672 113.961 188.496 114.273C188.324 114.584 188.237 114.962 188.237 115.406ZM198.537 120.159C197.801 120.159 197.167 119.997 196.633 119.672C196.103 119.344 195.694 118.886 195.405 118.3C195.12 117.71 194.978 117.024 194.978 116.241C194.978 115.459 195.12 114.77 195.405 114.173C195.694 113.573 196.095 113.106 196.608 112.771C197.125 112.433 197.729 112.264 198.418 112.264C198.816 112.264 199.208 112.33 199.596 112.463C199.984 112.596 200.337 112.811 200.655 113.109C200.973 113.404 201.227 113.795 201.416 114.283C201.605 114.77 201.699 115.37 201.699 116.082V116.58H195.813V115.565H200.506C200.506 115.134 200.42 114.75 200.248 114.412C200.078 114.074 199.837 113.807 199.522 113.612C199.21 113.416 198.842 113.318 198.418 113.318C197.951 113.318 197.546 113.434 197.205 113.666C196.867 113.895 196.607 114.193 196.424 114.561C196.242 114.929 196.151 115.323 196.151 115.744V116.42C196.151 116.997 196.25 117.486 196.449 117.887C196.651 118.285 196.931 118.588 197.289 118.797C197.647 119.002 198.063 119.105 198.537 119.105C198.846 119.105 199.124 119.062 199.373 118.976C199.624 118.886 199.842 118.754 200.024 118.578C200.206 118.399 200.347 118.177 200.446 117.912L201.58 118.23C201.461 118.615 201.26 118.953 200.978 119.244C200.697 119.533 200.349 119.758 199.934 119.92C199.52 120.08 199.054 120.159 198.537 120.159ZM209.669 120.179C209.185 120.179 208.746 120.088 208.351 119.906C207.957 119.72 207.644 119.453 207.412 119.105C207.18 118.754 207.064 118.33 207.064 117.832C207.064 117.395 207.15 117.04 207.322 116.768C207.494 116.493 207.725 116.278 208.013 116.122C208.301 115.966 208.62 115.85 208.968 115.774C209.319 115.695 209.672 115.632 210.027 115.585C210.491 115.526 210.867 115.481 211.155 115.451C211.447 115.418 211.659 115.363 211.792 115.287C211.927 115.211 211.995 115.078 211.995 114.889V114.849C211.995 114.359 211.861 113.978 211.593 113.706C211.328 113.434 210.925 113.298 210.385 113.298C209.824 113.298 209.385 113.421 209.067 113.666C208.749 113.911 208.525 114.173 208.396 114.452L207.282 114.054C207.481 113.59 207.746 113.229 208.078 112.97C208.413 112.708 208.777 112.526 209.172 112.423C209.569 112.317 209.96 112.264 210.345 112.264C210.59 112.264 210.872 112.294 211.19 112.354C211.511 112.41 211.821 112.528 212.12 112.707C212.421 112.886 212.672 113.156 212.87 113.517C213.069 113.878 213.169 114.362 213.169 114.969V120H211.995V118.966H211.936C211.856 119.132 211.724 119.309 211.538 119.498C211.352 119.687 211.105 119.848 210.797 119.98C210.489 120.113 210.113 120.179 209.669 120.179ZM209.848 119.125C210.312 119.125 210.703 119.034 211.021 118.852C211.342 118.669 211.584 118.434 211.747 118.146C211.913 117.857 211.995 117.554 211.995 117.236V116.162C211.946 116.222 211.836 116.276 211.667 116.326C211.502 116.372 211.309 116.414 211.091 116.45C210.875 116.483 210.665 116.513 210.459 116.54C210.257 116.563 210.093 116.583 209.967 116.599C209.662 116.639 209.377 116.704 209.112 116.793C208.85 116.879 208.638 117.01 208.475 117.186C208.316 117.358 208.237 117.594 208.237 117.892C208.237 118.3 208.388 118.608 208.689 118.817C208.994 119.022 209.38 119.125 209.848 119.125ZM215.31 120V112.364H216.444V113.517H216.523C216.662 113.139 216.914 112.833 217.279 112.597C217.644 112.362 218.055 112.244 218.512 112.244C218.598 112.244 218.706 112.246 218.835 112.249C218.964 112.253 219.062 112.258 219.128 112.264V113.457C219.089 113.447 218.997 113.433 218.855 113.413C218.716 113.389 218.568 113.378 218.412 113.378C218.041 113.378 217.71 113.456 217.418 113.612C217.13 113.764 216.901 113.976 216.732 114.248C216.566 114.516 216.483 114.823 216.483 115.168V120H215.31ZM224.319 112.364V113.358H220.361V112.364H224.319ZM221.515 110.534H222.688V117.812C222.688 118.144 222.736 118.393 222.832 118.558C222.932 118.721 223.058 118.83 223.21 118.886C223.366 118.939 223.53 118.966 223.702 118.966C223.831 118.966 223.938 118.959 224.02 118.946C224.103 118.929 224.17 118.916 224.219 118.906L224.458 119.96C224.378 119.99 224.267 120.02 224.125 120.05C223.982 120.083 223.802 120.099 223.583 120.099C223.251 120.099 222.927 120.028 222.608 119.886C222.294 119.743 222.032 119.526 221.823 119.234C221.617 118.943 221.515 118.575 221.515 118.131V110.534ZM227.814 120L225.487 112.364H226.72L228.371 118.21H228.45L230.081 112.364H231.334L232.944 118.19H233.024L234.675 112.364H235.907L233.581 120H232.427L230.757 114.134H230.638L228.967 120H227.814ZM240.301 120.159C239.612 120.159 239.007 119.995 238.487 119.667C237.969 119.339 237.565 118.88 237.273 118.29C236.985 117.7 236.841 117.01 236.841 116.222C236.841 115.426 236.985 114.732 237.273 114.138C237.565 113.545 237.969 113.085 238.487 112.756C239.007 112.428 239.612 112.264 240.301 112.264C240.991 112.264 241.594 112.428 242.111 112.756C242.631 113.085 243.036 113.545 243.324 114.138C243.616 114.732 243.761 115.426 243.761 116.222C243.761 117.01 243.616 117.7 243.324 118.29C243.036 118.88 242.631 119.339 242.111 119.667C241.594 119.995 240.991 120.159 240.301 120.159ZM240.301 119.105C240.825 119.105 241.256 118.971 241.594 118.702C241.932 118.434 242.182 118.081 242.344 117.643C242.507 117.206 242.588 116.732 242.588 116.222C242.588 115.711 242.507 115.236 242.344 114.795C242.182 114.354 241.932 113.998 241.594 113.726C241.256 113.454 240.825 113.318 240.301 113.318C239.777 113.318 239.347 113.454 239.009 113.726C238.67 113.998 238.42 114.354 238.258 114.795C238.095 115.236 238.014 115.711 238.014 116.222C238.014 116.732 238.095 117.206 238.258 117.643C238.42 118.081 238.67 118.434 239.009 118.702C239.347 118.971 239.777 119.105 240.301 119.105ZM245.552 120V112.364H246.686V113.517H246.765C246.905 113.139 247.157 112.833 247.521 112.597C247.886 112.362 248.297 112.244 248.754 112.244C248.84 112.244 248.948 112.246 249.077 112.249C249.206 112.253 249.304 112.258 249.371 112.264V113.457C249.331 113.447 249.24 113.433 249.097 113.413C248.958 113.389 248.81 113.378 248.655 113.378C248.283 113.378 247.952 113.456 247.66 113.612C247.372 113.764 247.143 113.976 246.974 114.248C246.809 114.516 246.726 114.823 246.726 115.168V120H245.552ZM251.855 117.216L251.835 115.764H252.074L255.415 112.364H256.866L253.307 115.963H253.207L251.855 117.216ZM250.761 120V109.818H251.935V120H250.761ZM255.614 120L252.631 116.222L253.466 115.406L257.105 120H255.614ZM265.635 112.364V113.358H261.678V112.364H265.635ZM262.831 110.534H264.004V117.812C264.004 118.144 264.052 118.393 264.149 118.558C264.248 118.721 264.374 118.83 264.526 118.886C264.682 118.939 264.846 118.966 265.019 118.966C265.148 118.966 265.254 118.959 265.337 118.946C265.42 118.929 265.486 118.916 265.536 118.906L265.774 119.96C265.695 119.99 265.584 120.02 265.441 120.05C265.299 120.083 265.118 120.099 264.899 120.099C264.568 120.099 264.243 120.028 263.925 119.886C263.61 119.743 263.348 119.526 263.139 119.234C262.934 118.943 262.831 118.575 262.831 118.131V110.534ZM268.737 115.406V120H267.564V109.818H268.737V113.557H268.837C269.016 113.162 269.284 112.849 269.642 112.617C270.003 112.382 270.484 112.264 271.084 112.264C271.604 112.264 272.06 112.369 272.451 112.577C272.842 112.783 273.146 113.099 273.361 113.527C273.58 113.951 273.689 114.491 273.689 115.148V120H272.516V115.227C272.516 114.621 272.358 114.152 272.044 113.82C271.732 113.486 271.299 113.318 270.746 113.318C270.361 113.318 270.017 113.399 269.712 113.562C269.41 113.724 269.172 113.961 268.996 114.273C268.824 114.584 268.737 114.962 268.737 115.406ZM278.083 120.179C277.599 120.179 277.16 120.088 276.765 119.906C276.371 119.72 276.058 119.453 275.826 119.105C275.594 118.754 275.478 118.33 275.478 117.832C275.478 117.395 275.564 117.04 275.736 116.768C275.908 116.493 276.139 116.278 276.427 116.122C276.716 115.966 277.034 115.85 277.382 115.774C277.733 115.695 278.086 115.632 278.441 115.585C278.905 115.526 279.281 115.481 279.569 115.451C279.861 115.418 280.073 115.363 280.206 115.287C280.342 115.211 280.409 115.078 280.409 114.889V114.849C280.409 114.359 280.275 113.978 280.007 113.706C279.742 113.434 279.339 113.298 278.799 113.298C278.239 113.298 277.799 113.421 277.481 113.666C277.163 113.911 276.939 114.173 276.81 114.452L275.696 114.054C275.895 113.59 276.16 113.229 276.492 112.97C276.827 112.708 277.191 112.526 277.586 112.423C277.983 112.317 278.374 112.264 278.759 112.264C279.004 112.264 279.286 112.294 279.604 112.354C279.926 112.41 280.235 112.528 280.534 112.707C280.835 112.886 281.086 113.156 281.284 113.517C281.483 113.878 281.583 114.362 281.583 114.969V120H280.409V118.966H280.35C280.27 119.132 280.138 119.309 279.952 119.498C279.766 119.687 279.52 119.848 279.211 119.98C278.903 120.113 278.527 120.179 278.083 120.179ZM278.262 119.125C278.726 119.125 279.117 119.034 279.435 118.852C279.757 118.669 279.998 118.434 280.161 118.146C280.327 117.857 280.409 117.554 280.409 117.236V116.162C280.36 116.222 280.25 116.276 280.081 116.326C279.916 116.372 279.723 116.414 279.505 116.45C279.289 116.483 279.079 116.513 278.873 116.54C278.671 116.563 278.507 116.583 278.381 116.599C278.076 116.639 277.791 116.704 277.526 116.793C277.264 116.879 277.052 117.01 276.89 117.186C276.73 117.358 276.651 117.594 276.651 117.892C276.651 118.3 276.802 118.608 277.103 118.817C277.408 119.022 277.794 119.125 278.262 119.125ZM287.045 112.364V113.358H283.088V112.364H287.045ZM284.241 110.534H285.415V117.812C285.415 118.144 285.463 118.393 285.559 118.558C285.658 118.721 285.784 118.83 285.937 118.886C286.092 118.939 286.256 118.966 286.429 118.966C286.558 118.966 286.664 118.959 286.747 118.946C286.83 118.929 286.896 118.916 286.946 118.906L287.184 119.96C287.105 119.99 286.994 120.02 286.851 120.05C286.709 120.083 286.528 120.099 286.309 120.099C285.978 120.099 285.653 120.028 285.335 119.886C285.02 119.743 284.758 119.526 284.55 119.234C284.344 118.943 284.241 118.575 284.241 118.131V110.534ZM294.478 120L292.151 112.364H293.384L295.035 118.21H295.114L296.745 112.364H297.998L299.608 118.19H299.688L301.339 112.364H302.572L300.245 120H299.091L297.421 114.134H297.302L295.631 120H294.478ZM304.123 120V112.364H305.296V120H304.123ZM304.719 111.091C304.491 111.091 304.293 111.013 304.128 110.857C303.965 110.701 303.884 110.514 303.884 110.295C303.884 110.077 303.965 109.889 304.128 109.734C304.293 109.578 304.491 109.5 304.719 109.5C304.948 109.5 305.144 109.578 305.306 109.734C305.472 109.889 305.555 110.077 305.555 110.295C305.555 110.514 305.472 110.701 305.306 110.857C305.144 111.013 304.948 111.091 304.719 111.091ZM308.618 109.818V120H307.445V109.818H308.618ZM311.941 109.818V120H310.767V109.818H311.941ZM318.027 120V112.364H319.161V113.557H319.26C319.419 113.149 319.676 112.833 320.031 112.607C320.385 112.379 320.811 112.264 321.308 112.264C321.812 112.264 322.231 112.379 322.566 112.607C322.904 112.833 323.168 113.149 323.357 113.557H323.436C323.632 113.162 323.925 112.849 324.316 112.617C324.707 112.382 325.176 112.264 325.723 112.264C326.406 112.264 326.964 112.478 327.398 112.906C327.833 113.33 328.05 113.991 328.05 114.889V120H326.876V114.889C326.876 114.326 326.722 113.923 326.414 113.681C326.106 113.439 325.743 113.318 325.325 113.318C324.788 113.318 324.372 113.481 324.077 113.805C323.782 114.127 323.635 114.535 323.635 115.028V120H322.442V114.77C322.442 114.336 322.301 113.986 322.019 113.721C321.737 113.452 321.375 113.318 320.93 113.318C320.625 113.318 320.34 113.399 320.075 113.562C319.813 113.724 319.601 113.95 319.439 114.238C319.28 114.523 319.2 114.853 319.2 115.227V120H318.027ZM332.442 120.179C331.958 120.179 331.519 120.088 331.125 119.906C330.73 119.72 330.417 119.453 330.185 119.105C329.953 118.754 329.837 118.33 329.837 117.832C329.837 117.395 329.923 117.04 330.096 116.768C330.268 116.493 330.498 116.278 330.787 116.122C331.075 115.966 331.393 115.85 331.741 115.774C332.092 115.695 332.445 115.632 332.8 115.585C333.264 115.526 333.64 115.481 333.929 115.451C334.22 115.418 334.432 115.363 334.565 115.287C334.701 115.211 334.769 115.078 334.769 114.889V114.849C334.769 114.359 334.635 113.978 334.366 113.706C334.101 113.434 333.698 113.298 333.158 113.298C332.598 113.298 332.159 113.421 331.841 113.666C331.522 113.911 331.299 114.173 331.169 114.452L330.056 114.054C330.255 113.59 330.52 113.229 330.851 112.97C331.186 112.708 331.551 112.526 331.945 112.423C332.343 112.317 332.734 112.264 333.118 112.264C333.364 112.264 333.645 112.294 333.963 112.354C334.285 112.41 334.595 112.528 334.893 112.707C335.195 112.886 335.445 113.156 335.644 113.517C335.843 113.878 335.942 114.362 335.942 114.969V120H334.769V118.966H334.709C334.63 119.132 334.497 119.309 334.311 119.498C334.126 119.687 333.879 119.848 333.571 119.98C333.262 120.113 332.886 120.179 332.442 120.179ZM332.621 119.125C333.085 119.125 333.476 119.034 333.794 118.852C334.116 118.669 334.358 118.434 334.52 118.146C334.686 117.857 334.769 117.554 334.769 117.236V116.162C334.719 116.222 334.61 116.276 334.441 116.326C334.275 116.372 334.083 116.414 333.864 116.45C333.649 116.483 333.438 116.513 333.233 116.54C333.03 116.563 332.866 116.583 332.74 116.599C332.435 116.639 332.15 116.704 331.885 116.793C331.623 116.879 331.411 117.01 331.249 117.186C331.09 117.358 331.01 117.594 331.01 117.892C331.01 118.3 331.161 118.608 331.463 118.817C331.768 119.022 332.154 119.125 332.621 119.125ZM339.177 117.216L339.157 115.764H339.396L342.737 112.364H344.189L340.629 115.963H340.53L339.177 117.216ZM338.084 120V109.818H339.257V120H338.084ZM342.936 120L339.953 116.222L340.788 115.406L344.427 120H342.936ZM348.586 120.159C347.85 120.159 347.216 119.997 346.682 119.672C346.152 119.344 345.742 118.886 345.454 118.3C345.169 117.71 345.026 117.024 345.026 116.241C345.026 115.459 345.169 114.77 345.454 114.173C345.742 113.573 346.143 113.106 346.657 112.771C347.174 112.433 347.777 112.264 348.467 112.264C348.865 112.264 349.257 112.33 349.645 112.463C350.033 112.596 350.386 112.811 350.704 113.109C351.022 113.404 351.276 113.795 351.465 114.283C351.654 114.77 351.748 115.37 351.748 116.082V116.58H345.862V115.565H350.555C350.555 115.134 350.469 114.75 350.296 114.412C350.127 114.074 349.885 113.807 349.57 113.612C349.259 113.416 348.891 113.318 348.467 113.318C347.999 113.318 347.595 113.434 347.254 113.666C346.916 113.895 346.655 114.193 346.473 114.561C346.291 114.929 346.2 115.323 346.2 115.744V116.42C346.2 116.997 346.299 117.486 346.498 117.887C346.7 118.285 346.98 118.588 347.338 118.797C347.696 119.002 348.112 119.105 348.586 119.105C348.894 119.105 349.173 119.062 349.421 118.976C349.673 118.886 349.89 118.754 350.073 118.578C350.255 118.399 350.396 118.177 350.495 117.912L351.629 118.23C351.509 118.615 351.309 118.953 351.027 119.244C350.745 119.533 350.397 119.758 349.983 119.92C349.569 120.08 349.103 120.159 348.586 120.159ZM35.8295 139.864C35.6307 139.864 35.4534 139.847 35.2976 139.814C35.1418 139.784 35.0341 139.754 34.9744 139.724L35.2727 138.69C35.5578 138.763 35.8097 138.79 36.0284 138.77C36.2472 138.75 36.4411 138.652 36.6101 138.477C36.7824 138.304 36.9399 138.024 37.0824 137.636L37.3011 137.04L34.4773 129.364H35.75L37.858 135.449H37.9375L40.0455 129.364H41.3182L38.0767 138.114C37.9309 138.508 37.7502 138.835 37.5348 139.093C37.3194 139.355 37.0691 139.549 36.7841 139.675C36.5024 139.801 36.1842 139.864 35.8295 139.864ZM45.6957 137.159C45.0063 137.159 44.4014 136.995 43.881 136.667C43.364 136.339 42.9596 135.88 42.668 135.29C42.3796 134.7 42.2354 134.01 42.2354 133.222C42.2354 132.426 42.3796 131.732 42.668 131.138C42.9596 130.545 43.364 130.085 43.881 129.756C44.4014 129.428 45.0063 129.264 45.6957 129.264C46.3851 129.264 46.9883 129.428 47.5053 129.756C48.0257 130.085 48.43 130.545 48.7184 131.138C49.0101 131.732 49.1559 132.426 49.1559 133.222C49.1559 134.01 49.0101 134.7 48.7184 135.29C48.43 135.88 48.0257 136.339 47.5053 136.667C46.9883 136.995 46.3851 137.159 45.6957 137.159ZM45.6957 136.105C46.2193 136.105 46.6502 135.971 46.9883 135.702C47.3263 135.434 47.5766 135.081 47.739 134.643C47.9014 134.206 47.9826 133.732 47.9826 133.222C47.9826 132.711 47.9014 132.236 47.739 131.795C47.5766 131.354 47.3263 130.998 46.9883 130.726C46.6502 130.454 46.2193 130.318 45.6957 130.318C45.172 130.318 44.7411 130.454 44.4031 130.726C44.065 130.998 43.8147 131.354 43.6523 131.795C43.4899 132.236 43.4087 132.711 43.4087 133.222C43.4087 133.732 43.4899 134.206 43.6523 134.643C43.8147 135.081 44.065 135.434 44.4031 135.702C44.7411 135.971 45.172 136.105 45.6957 136.105ZM55.7594 133.878V129.364H56.9327V137H55.7594V135.707H55.6799C55.5009 136.095 55.2225 136.425 54.8446 136.697C54.4668 136.965 53.9895 137.099 53.4128 137.099C52.9355 137.099 52.5113 136.995 52.1401 136.786C51.7689 136.574 51.4772 136.256 51.2651 135.832C51.053 135.404 50.9469 134.866 50.9469 134.216V129.364H52.1202V134.136C52.1202 134.693 52.276 135.137 52.5875 135.469C52.9024 135.8 53.3034 135.966 53.7907 135.966C54.0823 135.966 54.379 135.891 54.6806 135.742C54.9855 135.593 55.2407 135.364 55.4462 135.056C55.655 134.748 55.7594 134.355 55.7594 133.878ZM59.0817 137V129.364H60.2152V130.517H60.2947C60.4339 130.139 60.6858 129.833 61.0504 129.597C61.415 129.362 61.826 129.244 62.2834 129.244C62.3696 129.244 62.4773 129.246 62.6065 129.249C62.7358 129.253 62.8336 129.258 62.8999 129.264V130.457C62.8601 130.447 62.7689 130.433 62.6264 130.413C62.4872 130.389 62.3397 130.378 62.1839 130.378C61.8127 130.378 61.4813 130.456 61.1896 130.612C60.9013 130.764 60.6726 130.976 60.5036 131.248C60.3378 131.516 60.255 131.823 60.255 132.168V137H59.0817ZM68.2282 139.864V129.364H69.3617V130.577H69.5009C69.5871 130.444 69.7064 130.275 69.8588 130.07C70.0146 129.861 70.2367 129.675 70.525 129.513C70.8167 129.347 71.2111 129.264 71.7083 129.264C72.3513 129.264 72.918 129.425 73.4086 129.746C73.8991 130.068 74.2819 130.524 74.557 131.114C74.8321 131.704 74.9696 132.4 74.9696 133.202C74.9696 134.01 74.8321 134.711 74.557 135.305C74.2819 135.895 73.9007 136.352 73.4135 136.677C72.9263 136.998 72.3645 137.159 71.7282 137.159C71.2376 137.159 70.8449 137.078 70.5499 136.915C70.2549 136.75 70.0279 136.562 69.8688 136.354C69.7097 136.142 69.5871 135.966 69.5009 135.827H69.4015V139.864H68.2282ZM69.3816 133.182C69.3816 133.759 69.4661 134.267 69.6351 134.708C69.8042 135.146 70.0511 135.489 70.3759 135.737C70.7007 135.982 71.0984 136.105 71.5691 136.105C72.0596 136.105 72.4689 135.976 72.7971 135.717C73.1285 135.455 73.3771 135.104 73.5428 134.663C73.7118 134.219 73.7963 133.725 73.7963 133.182C73.7963 132.645 73.7135 132.161 73.5478 131.73C73.3854 131.296 73.1384 130.953 72.807 130.701C72.4789 130.446 72.0662 130.318 71.5691 130.318C71.0918 130.318 70.6908 130.439 70.3659 130.681C70.0411 130.92 69.7959 131.254 69.6301 131.685C69.4644 132.113 69.3816 132.612 69.3816 133.182ZM79.0066 137.179C78.5227 137.179 78.0835 137.088 77.6891 136.906C77.2947 136.72 76.9815 136.453 76.7495 136.105C76.5175 135.754 76.4015 135.33 76.4015 134.832C76.4015 134.395 76.4876 134.04 76.66 133.768C76.8323 133.493 77.0627 133.278 77.351 133.122C77.6394 132.966 77.9576 132.85 78.3056 132.774C78.6569 132.695 79.0099 132.632 79.3645 132.585C79.8285 132.526 80.2047 132.481 80.4931 132.451C80.7847 132.418 80.9969 132.363 81.1294 132.287C81.2653 132.211 81.3333 132.078 81.3333 131.889V131.849C81.3333 131.359 81.199 130.978 80.9306 130.706C80.6654 130.434 80.2627 130.298 79.7225 130.298C79.1623 130.298 78.7232 130.421 78.405 130.666C78.0868 130.911 77.8631 131.173 77.7338 131.452L76.6202 131.054C76.8191 130.59 77.0842 130.229 77.4157 129.97C77.7504 129.708 78.115 129.526 78.5094 129.423C78.9071 129.317 79.2982 129.264 79.6827 129.264C79.928 129.264 80.2097 129.294 80.5279 129.354C80.8494 129.41 81.1593 129.528 81.4576 129.707C81.7592 129.886 82.0094 130.156 82.2083 130.517C82.4071 130.878 82.5066 131.362 82.5066 131.969V137H81.3333V135.966H81.2736C81.1941 136.132 81.0615 136.309 80.8759 136.498C80.6903 136.687 80.4434 136.848 80.1351 136.98C79.8269 137.113 79.4507 137.179 79.0066 137.179ZM79.1855 136.125C79.6496 136.125 80.0407 136.034 80.3588 135.852C80.6803 135.669 80.9223 135.434 81.0847 135.146C81.2504 134.857 81.3333 134.554 81.3333 134.236V133.162C81.2836 133.222 81.1742 133.276 81.0051 133.326C80.8394 133.372 80.6472 133.414 80.4284 133.45C80.213 133.483 80.0025 133.513 79.7971 133.54C79.5949 133.563 79.4308 133.583 79.3049 133.599C78.9999 133.639 78.7149 133.704 78.4498 133.793C78.1879 133.879 77.9758 134.01 77.8134 134.186C77.6543 134.358 77.5748 134.594 77.5748 134.892C77.5748 135.3 77.7256 135.608 78.0272 135.817C78.3321 136.022 78.7182 136.125 79.1855 136.125ZM84.6481 137V129.364H85.7816V130.517H85.8612C86.0004 130.139 86.2522 129.833 86.6168 129.597C86.9814 129.362 87.3924 129.244 87.8498 129.244C87.936 129.244 88.0437 129.246 88.1729 129.249C88.3022 129.253 88.4 129.258 88.4663 129.264V130.457C88.4265 130.447 88.3353 130.433 88.1928 130.413C88.0536 130.389 87.9061 130.378 87.7504 130.378C87.3791 130.378 87.0477 130.456 86.756 130.612C86.4677 130.764 86.239 130.976 86.07 131.248C85.9042 131.516 85.8214 131.823 85.8214 132.168V137H84.6481ZM93.6566 129.364V130.358H89.6992V129.364H93.6566ZM90.8526 127.534H92.0259V134.812C92.0259 135.144 92.074 135.393 92.1701 135.558C92.2695 135.721 92.3955 135.83 92.5479 135.886C92.7037 135.939 92.8678 135.966 93.0401 135.966C93.1694 135.966 93.2755 135.959 93.3583 135.946C93.4412 135.929 93.5075 135.916 93.5572 135.906L93.7958 136.96C93.7163 136.99 93.6052 137.02 93.4627 137.05C93.3202 137.083 93.1396 137.099 92.9208 137.099C92.5894 137.099 92.2646 137.028 91.9464 136.886C91.6315 136.743 91.3697 136.526 91.1609 136.234C90.9554 135.943 90.8526 135.575 90.8526 135.131V127.534ZM96.5948 132.406V137H95.4215V129.364H96.555V130.557H96.6545C96.8335 130.169 97.1052 129.857 97.4698 129.622C97.8344 129.384 98.305 129.264 98.8817 129.264C99.3988 129.264 99.8512 129.37 100.239 129.582C100.627 129.791 100.928 130.109 101.144 130.537C101.359 130.961 101.467 131.498 101.467 132.148V137H100.294V132.227C100.294 131.627 100.138 131.16 99.8263 130.825C99.5148 130.487 99.0872 130.318 98.5437 130.318C98.1692 130.318 97.8344 130.399 97.5394 130.562C97.2478 130.724 97.0174 130.961 96.8484 131.273C96.6793 131.584 96.5948 131.962 96.5948 132.406ZM106.813 137.159C106.077 137.159 105.442 136.997 104.909 136.672C104.378 136.344 103.969 135.886 103.681 135.3C103.396 134.71 103.253 134.024 103.253 133.241C103.253 132.459 103.396 131.77 103.681 131.173C103.969 130.573 104.37 130.106 104.884 129.771C105.401 129.433 106.004 129.264 106.693 129.264C107.091 129.264 107.484 129.33 107.872 129.463C108.259 129.596 108.612 129.811 108.931 130.109C109.249 130.404 109.502 130.795 109.691 131.283C109.88 131.77 109.975 132.37 109.975 133.082V133.58H104.088V132.565H108.781C108.781 132.134 108.695 131.75 108.523 131.412C108.354 131.074 108.112 130.807 107.797 130.612C107.485 130.416 107.118 130.318 106.693 130.318C106.226 130.318 105.822 130.434 105.48 130.666C105.142 130.895 104.882 131.193 104.7 131.561C104.517 131.929 104.426 132.323 104.426 132.744V133.42C104.426 133.997 104.526 134.486 104.725 134.887C104.927 135.285 105.207 135.588 105.565 135.797C105.923 136.002 106.339 136.105 106.813 136.105C107.121 136.105 107.399 136.062 107.648 135.976C107.9 135.886 108.117 135.754 108.299 135.578C108.481 135.399 108.622 135.177 108.722 134.912L109.855 135.23C109.736 135.615 109.535 135.953 109.254 136.244C108.972 136.533 108.624 136.758 108.21 136.92C107.795 137.08 107.33 137.159 106.813 137.159ZM111.759 137V129.364H112.893V130.517H112.972C113.112 130.139 113.364 129.833 113.728 129.597C114.093 129.362 114.504 129.244 114.961 129.244C115.047 129.244 115.155 129.246 115.284 129.249C115.414 129.253 115.511 129.258 115.578 129.264V130.457C115.538 130.447 115.447 130.433 115.304 130.413C115.165 130.389 115.017 130.378 114.862 130.378C114.49 130.378 114.159 130.456 113.867 130.612C113.579 130.764 113.35 130.976 113.181 131.248C113.016 131.516 112.933 131.823 112.933 132.168V137H111.759ZM126.315 131.074L125.261 131.372C125.195 131.196 125.097 131.026 124.968 130.86C124.842 130.691 124.669 130.552 124.451 130.442C124.232 130.333 123.952 130.278 123.61 130.278C123.143 130.278 122.754 130.386 122.442 130.602C122.134 130.814 121.98 131.084 121.98 131.412C121.98 131.704 122.086 131.934 122.298 132.103C122.51 132.272 122.842 132.413 123.292 132.526L124.426 132.804C125.109 132.97 125.617 133.223 125.952 133.565C126.287 133.903 126.454 134.339 126.454 134.872C126.454 135.31 126.328 135.701 126.076 136.045C125.828 136.39 125.48 136.662 125.032 136.861C124.585 137.06 124.065 137.159 123.471 137.159C122.692 137.159 122.048 136.99 121.537 136.652C121.027 136.314 120.704 135.82 120.568 135.17L121.681 134.892C121.788 135.303 121.988 135.611 122.283 135.817C122.581 136.022 122.971 136.125 123.451 136.125C123.998 136.125 124.432 136.009 124.754 135.777C125.079 135.542 125.241 135.26 125.241 134.932C125.241 134.667 125.148 134.445 124.963 134.266C124.777 134.083 124.492 133.947 124.108 133.858L122.835 133.56C122.136 133.394 121.622 133.137 121.294 132.789C120.969 132.438 120.806 131.999 120.806 131.472C120.806 131.041 120.927 130.66 121.169 130.328C121.415 129.997 121.748 129.737 122.169 129.548C122.593 129.359 123.074 129.264 123.61 129.264C124.366 129.264 124.959 129.43 125.39 129.761C125.824 130.093 126.133 130.53 126.315 131.074ZM129.394 132.406V137H128.22V126.818H129.394V130.557H129.493C129.672 130.162 129.941 129.849 130.298 129.617C130.66 129.382 131.14 129.264 131.74 129.264C132.261 129.264 132.716 129.369 133.107 129.577C133.499 129.783 133.802 130.099 134.017 130.527C134.236 130.951 134.345 131.491 134.345 132.148V137H133.172V132.227C133.172 131.621 133.015 131.152 132.7 130.82C132.388 130.486 131.956 130.318 131.402 130.318C131.018 130.318 130.673 130.399 130.368 130.562C130.066 130.724 129.828 130.961 129.652 131.273C129.48 131.584 129.394 131.962 129.394 132.406ZM139.694 137.159C138.958 137.159 138.323 136.997 137.789 136.672C137.259 136.344 136.85 135.886 136.561 135.3C136.276 134.71 136.134 134.024 136.134 133.241C136.134 132.459 136.276 131.77 136.561 131.173C136.85 130.573 137.251 130.106 137.765 129.771C138.282 129.433 138.885 129.264 139.574 129.264C139.972 129.264 140.365 129.33 140.752 129.463C141.14 129.596 141.493 129.811 141.811 130.109C142.13 130.404 142.383 130.795 142.572 131.283C142.761 131.77 142.855 132.37 142.855 133.082V133.58H136.969V132.565H141.662C141.662 132.134 141.576 131.75 141.404 131.412C141.235 131.074 140.993 130.807 140.678 130.612C140.366 130.416 139.998 130.318 139.574 130.318C139.107 130.318 138.703 130.434 138.361 130.666C138.023 130.895 137.763 131.193 137.581 131.561C137.398 131.929 137.307 132.323 137.307 132.744V133.42C137.307 133.997 137.407 134.486 137.605 134.887C137.808 135.285 138.088 135.588 138.446 135.797C138.804 136.002 139.22 136.105 139.694 136.105C140.002 136.105 140.28 136.062 140.529 135.976C140.781 135.886 140.998 135.754 141.18 135.578C141.362 135.399 141.503 135.177 141.603 134.912L142.736 135.23C142.617 135.615 142.416 135.953 142.135 136.244C141.853 136.533 141.505 136.758 141.091 136.92C140.676 137.08 140.211 137.159 139.694 137.159ZM147.524 137.159C146.887 137.159 146.326 136.998 145.838 136.677C145.351 136.352 144.97 135.895 144.695 135.305C144.42 134.711 144.282 134.01 144.282 133.202C144.282 132.4 144.42 131.704 144.695 131.114C144.97 130.524 145.353 130.068 145.843 129.746C146.334 129.425 146.901 129.264 147.544 129.264C148.041 129.264 148.434 129.347 148.722 129.513C149.014 129.675 149.236 129.861 149.388 130.07C149.544 130.275 149.665 130.444 149.751 130.577H149.85V126.818H151.024V137H149.89V135.827H149.751C149.665 135.966 149.542 136.142 149.383 136.354C149.224 136.562 148.997 136.75 148.702 136.915C148.407 137.078 148.014 137.159 147.524 137.159ZM147.683 136.105C148.154 136.105 148.551 135.982 148.876 135.737C149.201 135.489 149.448 135.146 149.617 134.708C149.786 134.267 149.87 133.759 149.87 133.182C149.87 132.612 149.788 132.113 149.622 131.685C149.456 131.254 149.211 130.92 148.886 130.681C148.561 130.439 148.16 130.318 147.683 130.318C147.186 130.318 146.771 130.446 146.44 130.701C146.112 130.953 145.865 131.296 145.699 131.73C145.537 132.161 145.456 132.645 145.456 133.182C145.456 133.725 145.538 134.219 145.704 134.663C145.873 135.104 146.122 135.455 146.45 135.717C146.781 135.976 147.192 136.105 147.683 136.105ZM159.52 137.179C159.036 137.179 158.597 137.088 158.203 136.906C157.808 136.72 157.495 136.453 157.263 136.105C157.031 135.754 156.915 135.33 156.915 134.832C156.915 134.395 157.001 134.04 157.174 133.768C157.346 133.493 157.576 133.278 157.865 133.122C158.153 132.966 158.471 132.85 158.819 132.774C159.171 132.695 159.524 132.632 159.878 132.585C160.342 132.526 160.718 132.481 161.007 132.451C161.298 132.418 161.511 132.363 161.643 132.287C161.779 132.211 161.847 132.078 161.847 131.889V131.849C161.847 131.359 161.713 130.978 161.444 130.706C161.179 130.434 160.776 130.298 160.236 130.298C159.676 130.298 159.237 130.421 158.919 130.666C158.6 130.911 158.377 131.173 158.248 131.452L157.134 131.054C157.333 130.59 157.598 130.229 157.929 129.97C158.264 129.708 158.629 129.526 159.023 129.423C159.421 129.317 159.812 129.264 160.196 129.264C160.442 129.264 160.723 129.294 161.042 129.354C161.363 129.41 161.673 129.528 161.971 129.707C162.273 129.886 162.523 130.156 162.722 130.517C162.921 130.878 163.02 131.362 163.02 131.969V137H161.847V135.966H161.787C161.708 136.132 161.575 136.309 161.39 136.498C161.204 136.687 160.957 136.848 160.649 136.98C160.341 137.113 159.964 137.179 159.52 137.179ZM159.699 136.125C160.163 136.125 160.554 136.034 160.873 135.852C161.194 135.669 161.436 135.434 161.598 135.146C161.764 134.857 161.847 134.554 161.847 134.236V133.162C161.797 133.222 161.688 133.276 161.519 133.326C161.353 133.372 161.161 133.414 160.942 133.45C160.727 133.483 160.516 133.513 160.311 133.54C160.109 133.563 159.944 133.583 159.819 133.599C159.514 133.639 159.229 133.704 158.963 133.793C158.702 133.879 158.489 134.01 158.327 134.186C158.168 134.358 158.088 134.594 158.088 134.892C158.088 135.3 158.239 135.608 158.541 135.817C158.846 136.022 159.232 136.125 159.699 136.125ZM172.42 129.364V130.358H168.463V129.364H172.42ZM169.616 127.534H170.79V134.812C170.79 135.144 170.838 135.393 170.934 135.558C171.033 135.721 171.159 135.83 171.312 135.886C171.467 135.939 171.631 135.966 171.804 135.966C171.933 135.966 172.039 135.959 172.122 135.946C172.205 135.929 172.271 135.916 172.321 135.906L172.559 136.96C172.48 136.99 172.369 137.02 172.226 137.05C172.084 137.083 171.903 137.099 171.684 137.099C171.353 137.099 171.028 137.028 170.71 136.886C170.395 136.743 170.133 136.526 169.925 136.234C169.719 135.943 169.616 135.575 169.616 135.131V127.534ZM177.305 137.159C176.569 137.159 175.934 136.997 175.401 136.672C174.87 136.344 174.461 135.886 174.173 135.3C173.888 134.71 173.745 134.024 173.745 133.241C173.745 132.459 173.888 131.77 174.173 131.173C174.461 130.573 174.862 130.106 175.376 129.771C175.893 129.433 176.496 129.264 177.186 129.264C177.583 129.264 177.976 129.33 178.364 129.463C178.752 129.596 179.105 129.811 179.423 130.109C179.741 130.404 179.994 130.795 180.183 131.283C180.372 131.77 180.467 132.37 180.467 133.082V133.58H174.58V132.565H179.274C179.274 132.134 179.187 131.75 179.015 131.412C178.846 131.074 178.604 130.807 178.289 130.612C177.978 130.416 177.61 130.318 177.186 130.318C176.718 130.318 176.314 130.434 175.972 130.666C175.634 130.895 175.374 131.193 175.192 131.561C175.01 131.929 174.919 132.323 174.919 132.744V133.42C174.919 133.997 175.018 134.486 175.217 134.887C175.419 135.285 175.699 135.588 176.057 135.797C176.415 136.002 176.831 136.105 177.305 136.105C177.613 136.105 177.892 136.062 178.14 135.976C178.392 135.886 178.609 135.754 178.791 135.578C178.974 135.399 179.115 135.177 179.214 134.912L180.347 135.23C180.228 135.615 180.028 135.953 179.746 136.244C179.464 136.533 179.116 136.758 178.702 136.92C178.288 137.08 177.822 137.159 177.305 137.159ZM184.499 137.179C184.015 137.179 183.576 137.088 183.181 136.906C182.787 136.72 182.474 136.453 182.242 136.105C182.01 135.754 181.894 135.33 181.894 134.832C181.894 134.395 181.98 134.04 182.152 133.768C182.325 133.493 182.555 133.278 182.843 133.122C183.132 132.966 183.45 132.85 183.798 132.774C184.149 132.695 184.502 132.632 184.857 132.585C185.321 132.526 185.697 132.481 185.985 132.451C186.277 132.418 186.489 132.363 186.622 132.287C186.758 132.211 186.825 132.078 186.825 131.889V131.849C186.825 131.359 186.691 130.978 186.423 130.706C186.158 130.434 185.755 130.298 185.215 130.298C184.655 130.298 184.215 130.421 183.897 130.666C183.579 130.911 183.355 131.173 183.226 131.452L182.112 131.054C182.311 130.59 182.576 130.229 182.908 129.97C183.243 129.708 183.607 129.526 184.002 129.423C184.399 129.317 184.79 129.264 185.175 129.264C185.42 129.264 185.702 129.294 186.02 129.354C186.342 129.41 186.651 129.528 186.95 129.707C187.251 129.886 187.502 130.156 187.7 130.517C187.899 130.878 187.999 131.362 187.999 131.969V137H186.825V135.966H186.766C186.686 136.132 186.554 136.309 186.368 136.498C186.182 136.687 185.936 136.848 185.627 136.98C185.319 137.113 184.943 137.179 184.499 137.179ZM184.678 136.125C185.142 136.125 185.533 136.034 185.851 135.852C186.173 135.669 186.414 135.434 186.577 135.146C186.743 134.857 186.825 134.554 186.825 134.236V133.162C186.776 133.222 186.666 133.276 186.497 133.326C186.332 133.372 186.139 133.414 185.921 133.45C185.705 133.483 185.495 133.513 185.289 133.54C185.087 133.563 184.923 133.583 184.797 133.599C184.492 133.639 184.207 133.704 183.942 133.793C183.68 133.879 183.468 134.01 183.306 134.186C183.146 134.358 183.067 134.594 183.067 134.892C183.067 135.3 183.218 135.608 183.519 135.817C183.824 136.022 184.21 136.125 184.678 136.125ZM190.14 137V129.364H191.274V130.517H191.353C191.493 130.139 191.744 129.833 192.109 129.597C192.474 129.362 192.885 129.244 193.342 129.244C193.428 129.244 193.536 129.246 193.665 129.249C193.794 129.253 193.892 129.258 193.958 129.264V130.457C193.919 130.447 193.828 130.433 193.685 130.413C193.546 130.389 193.398 130.378 193.243 130.378C192.871 130.378 192.54 130.456 192.248 130.612C191.96 130.764 191.731 130.976 191.562 131.248C191.396 131.516 191.314 131.823 191.314 132.168V137H190.14ZM202.389 137.159C201.7 137.159 201.095 136.995 200.574 136.667C200.057 136.339 199.653 135.88 199.361 135.29C199.073 134.7 198.929 134.01 198.929 133.222C198.929 132.426 199.073 131.732 199.361 131.138C199.653 130.545 200.057 130.085 200.574 129.756C201.095 129.428 201.7 129.264 202.389 129.264C203.078 129.264 203.682 129.428 204.199 129.756C204.719 130.085 205.123 130.545 205.412 131.138C205.703 131.732 205.849 132.426 205.849 133.222C205.849 134.01 205.703 134.7 205.412 135.29C205.123 135.88 204.719 136.339 204.199 136.667C203.682 136.995 203.078 137.159 202.389 137.159ZM202.389 136.105C202.913 136.105 203.344 135.971 203.682 135.702C204.02 135.434 204.27 135.081 204.432 134.643C204.595 134.206 204.676 133.732 204.676 133.222C204.676 132.711 204.595 132.236 204.432 131.795C204.27 131.354 204.02 130.998 203.682 130.726C203.344 130.454 202.913 130.318 202.389 130.318C201.865 130.318 201.434 130.454 201.096 130.726C200.758 130.998 200.508 131.354 200.346 131.795C200.183 132.236 200.102 132.711 200.102 133.222C200.102 133.732 200.183 134.206 200.346 134.643C200.508 135.081 200.758 135.434 201.096 135.702C201.434 135.971 201.865 136.105 202.389 136.105ZM211.041 129.364V130.358H206.924V129.364H211.041ZM208.157 137V128.31C208.157 127.872 208.26 127.508 208.466 127.216C208.671 126.924 208.938 126.705 209.266 126.56C209.594 126.414 209.94 126.341 210.305 126.341C210.593 126.341 210.829 126.364 211.011 126.411C211.193 126.457 211.329 126.5 211.419 126.54L211.081 127.554C211.021 127.534 210.938 127.509 210.832 127.479C210.729 127.45 210.593 127.435 210.424 127.435C210.037 127.435 209.757 127.532 209.584 127.728C209.415 127.924 209.331 128.21 209.331 128.588V137H208.157ZM216.623 129.364H217.796V137.557C217.796 138.027 217.715 138.435 217.552 138.78C217.393 139.125 217.151 139.391 216.827 139.58C216.505 139.769 216.099 139.864 215.608 139.864C215.569 139.864 215.529 139.864 215.489 139.864C215.449 139.864 215.41 139.864 215.37 139.864V138.77C215.41 138.77 215.446 138.77 215.479 138.77C215.512 138.77 215.549 138.77 215.589 138.77C215.947 138.77 216.208 138.664 216.374 138.452C216.54 138.243 216.623 137.945 216.623 137.557V129.364ZM217.199 128.091C216.971 128.091 216.773 128.013 216.608 127.857C216.445 127.701 216.364 127.514 216.364 127.295C216.364 127.077 216.445 126.889 216.608 126.734C216.773 126.578 216.971 126.5 217.199 126.5C217.428 126.5 217.624 126.578 217.786 126.734C217.952 126.889 218.035 127.077 218.035 127.295C218.035 127.514 217.952 127.701 217.786 127.857C217.624 128.013 217.428 128.091 217.199 128.091ZM223.047 137.159C222.358 137.159 221.753 136.995 221.233 136.667C220.716 136.339 220.311 135.88 220.02 135.29C219.731 134.7 219.587 134.01 219.587 133.222C219.587 132.426 219.731 131.732 220.02 131.138C220.311 130.545 220.716 130.085 221.233 129.756C221.753 129.428 222.358 129.264 223.047 129.264C223.737 129.264 224.34 129.428 224.857 129.756C225.377 130.085 225.782 130.545 226.07 131.138C226.362 131.732 226.507 132.426 226.507 133.222C226.507 134.01 226.362 134.7 226.07 135.29C225.782 135.88 225.377 136.339 224.857 136.667C224.34 136.995 223.737 137.159 223.047 137.159ZM223.047 136.105C223.571 136.105 224.002 135.971 224.34 135.702C224.678 135.434 224.928 135.081 225.091 134.643C225.253 134.206 225.334 133.732 225.334 133.222C225.334 132.711 225.253 132.236 225.091 131.795C224.928 131.354 224.678 130.998 224.34 130.726C224.002 130.454 223.571 130.318 223.047 130.318C222.524 130.318 222.093 130.454 221.755 130.726C221.417 130.998 221.166 131.354 221.004 131.795C220.842 132.236 220.76 132.711 220.76 133.222C220.76 133.732 220.842 134.206 221.004 134.643C221.166 135.081 221.417 135.434 221.755 135.702C222.093 135.971 222.524 136.105 223.047 136.105ZM228.781 139.864C228.582 139.864 228.405 139.847 228.249 139.814C228.093 139.784 227.985 139.754 227.926 139.724L228.224 138.69C228.509 138.763 228.761 138.79 228.98 138.77C229.198 138.75 229.392 138.652 229.561 138.477C229.734 138.304 229.891 138.024 230.034 137.636L230.252 137.04L227.428 129.364H228.701L230.809 135.449H230.889L232.997 129.364H234.269L231.028 138.114C230.882 138.508 230.701 138.835 230.486 139.093C230.271 139.355 230.02 139.549 229.735 139.675C229.454 139.801 229.135 139.864 228.781 139.864ZM242.858 137.159C242.168 137.159 241.564 136.995 241.043 136.667C240.526 136.339 240.122 135.88 239.83 135.29C239.542 134.7 239.398 134.01 239.398 133.222C239.398 132.426 239.542 131.732 239.83 131.138C240.122 130.545 240.526 130.085 241.043 129.756C241.564 129.428 242.168 129.264 242.858 129.264C243.547 129.264 244.15 129.428 244.667 129.756C245.188 130.085 245.592 130.545 245.881 131.138C246.172 131.732 246.318 132.426 246.318 133.222C246.318 134.01 246.172 134.7 245.881 135.29C245.592 135.88 245.188 136.339 244.667 136.667C244.15 136.995 243.547 137.159 242.858 137.159ZM242.858 136.105C243.381 136.105 243.812 135.971 244.15 135.702C244.488 135.434 244.739 135.081 244.901 134.643C245.064 134.206 245.145 133.732 245.145 133.222C245.145 132.711 245.064 132.236 244.901 131.795C244.739 131.354 244.488 130.998 244.15 130.726C243.812 130.454 243.381 130.318 242.858 130.318C242.334 130.318 241.903 130.454 241.565 130.726C241.227 130.998 240.977 131.354 240.814 131.795C240.652 132.236 240.571 132.711 240.571 133.222C240.571 133.732 240.652 134.206 240.814 134.643C240.977 135.081 241.227 135.434 241.565 135.702C241.903 135.971 242.334 136.105 242.858 136.105ZM248.109 137V129.364H249.243V130.517H249.322C249.461 130.139 249.713 129.833 250.078 129.597C250.442 129.362 250.853 129.244 251.311 129.244C251.397 129.244 251.505 129.246 251.634 129.249C251.763 129.253 251.861 129.258 251.927 129.264V130.457C251.887 130.447 251.796 130.433 251.654 130.413C251.515 130.389 251.367 130.378 251.211 130.378C250.84 130.378 250.509 130.456 250.217 130.612C249.929 130.764 249.7 130.976 249.531 131.248C249.365 131.516 249.282 131.823 249.282 132.168V137H248.109ZM260.577 129.364V130.358H256.619V129.364H260.577ZM257.773 127.534H258.946V134.812C258.946 135.144 258.994 135.393 259.09 135.558C259.189 135.721 259.315 135.83 259.468 135.886C259.624 135.939 259.788 135.966 259.96 135.966C260.089 135.966 260.195 135.959 260.278 135.946C260.361 135.929 260.427 135.916 260.477 135.906L260.716 136.96C260.636 136.99 260.525 137.02 260.383 137.05C260.24 137.083 260.059 137.099 259.841 137.099C259.509 137.099 259.184 137.028 258.866 136.886C258.551 136.743 258.29 136.526 258.081 136.234C257.875 135.943 257.773 135.575 257.773 135.131V127.534ZM264.072 137L261.745 129.364H262.978L264.628 135.21H264.708L266.339 129.364H267.591L269.202 135.19H269.282L270.932 129.364H272.165L269.839 137H268.685L267.015 131.134H266.895L265.225 137H264.072ZM276.559 137.159C275.87 137.159 275.265 136.995 274.744 136.667C274.227 136.339 273.823 135.88 273.531 135.29C273.243 134.7 273.099 134.01 273.099 133.222C273.099 132.426 273.243 131.732 273.531 131.138C273.823 130.545 274.227 130.085 274.744 129.756C275.265 129.428 275.87 129.264 276.559 129.264C277.248 129.264 277.852 129.428 278.369 129.756C278.889 130.085 279.293 130.545 279.582 131.138C279.873 131.732 280.019 132.426 280.019 133.222C280.019 134.01 279.873 134.7 279.582 135.29C279.293 135.88 278.889 136.339 278.369 136.667C277.852 136.995 277.248 137.159 276.559 137.159ZM276.559 136.105C277.083 136.105 277.513 135.971 277.852 135.702C278.19 135.434 278.44 135.081 278.602 134.643C278.765 134.206 278.846 133.732 278.846 133.222C278.846 132.711 278.765 132.236 278.602 131.795C278.44 131.354 278.19 130.998 277.852 130.726C277.513 130.454 277.083 130.318 276.559 130.318C276.035 130.318 275.604 130.454 275.266 130.726C274.928 130.998 274.678 131.354 274.516 131.795C274.353 132.236 274.272 132.711 274.272 133.222C274.272 133.732 274.353 134.206 274.516 134.643C274.678 135.081 274.928 135.434 275.266 135.702C275.604 135.971 276.035 136.105 276.559 136.105Z" fill="#353535"/>
</g>
<defs>
<filter id="filter0_di_8_139" x="0" y="0" width="424" height="181" filterUnits="userSpaceOnUse" color-interpolation-filters="sRGB">
<feFlood flood-opacity="0" result="BackgroundImageFix"/>
<feColorMatrix in="SourceAlpha" type="matrix" values="0 0 0 0 0 0 0 0 0 0 0 0 0 0 0 0 0 0 127 0" result="hardAlpha"/>
<feOffset dy="4"/>
<feGaussianBlur stdDeviation="2"/>
<feComposite in2="hardAlpha" operator="out"/>
<feColorMatrix type="matrix" values="0 0 0 0 0 0 0 0 0 0 0 0 0 0 0 0 0 0 0.25 0"/>
<feBlend mode="normal" in2="BackgroundImageFix" result="effect1_dropShadow_8_139"/>
<feBlend mode="normal" in="SourceGraphic" in2="effect1_dropShadow_8_139" result="shape"/>
<feColorMatrix in="SourceAlpha" type="matrix" values="0 0 0 0 0 0 0 0 0 0 0 0 0 0 0 0 0 0 127 0" result="hardAlpha"/>
<feMorphology radius="8" operator="erode" in="SourceAlpha" result="effect2_innerShadow_8_139"/>
<feOffset/>
<feGaussianBlur stdDeviation="8"/>
<feComposite in2="hardAlpha" operator="arithmetic" k2="-1" k3="1"/>
<feColorMatrix type="matrix" values="0 0 0 0 0 0 0 0 0 0 0 0 0 0 0 0 0 0 0.25 0"/>
<feBlend mode="normal" in2="shape" result="effect2_innerShadow_8_139"/>
</filter>
</defs>
</svg>
