<svg xmlns="http://www.w3.org/2000/svg" xmlns:xlink="http://www.w3.org/1999/xlink" width="1728" height="1117" fill="none"><g clip-path="url(#a)"><path fill="#4e1c16" d="M0 0h1728v1117H0z"/><path fill="url(#b)" fill-opacity=".08" d="M0 0h1728v1117H0z"/><path fill="url(#c)" d="m-882.615 1345.54 637.085-324.8 2216.99-6.26 360.07 376.48z"/><path fill="url(#d)" d="M315.987-287.785h420.946v526.15H315.987z" transform="rotate(52.07 315.987 -287.785)"/><path fill="url(#e)" d="M554.987-286.785h420.946v526.15H554.987z" transform="rotate(52.07 554.987 -286.785)"/><path fill="url(#f)" d="M764.987-286.785h420.946v526.15H764.987z" transform="rotate(52.07 764.987 -286.785)"/><path fill="url(#g)" d="M974.989-286.785h420.946v526.15H974.989z" transform="rotate(52.07 974.989 -286.785)"/><path fill="url(#h)" d="M1184.99-286.785h420.946v526.15H1184.99z" transform="rotate(52.07 1184.99 -286.785)"/><path fill="url(#i)" d="M1394.99-286.785h420.946v526.15H1394.99z" transform="rotate(52.07 1394.99 -286.785)"/><path fill="url(#j)" d="M1604.99-286.785h420.946v526.15H1604.99z" transform="rotate(52.07 1604.99 -286.785)"/><path fill="url(#k)" d="M-25 990h770v32H-25z"/><path fill="url(#l)" d="M0 0h770v32H0z" transform="matrix(-1 0 0 1 1475 990)"/><path fill="url(#m)" d="M0 0h770v32H0z" transform="matrix(-1 0 0 1 1945 990)"/><path fill="url(#n)" d="M724 0h281v307H724z"/></g><defs><pattern id="b" width="1" height="1" patternContentUnits="objectBoundingBox"><use xlink:href="#o" transform="matrix(.00098 0 0 .00151 0 -.274)"/></pattern><pattern id="c" width="1" height="1" patternContentUnits="objectBoundingBox"><use xlink:href="#p" transform="matrix(0 .00038 -.00067 0 1.872 -.125)"/></pattern><pattern id="d" width="1" height="1" patternContentUnits="objectBoundingBox"><use xlink:href="#q" transform="scale(.0003 .00024)"/></pattern><pattern id="e" width="1" height="1" patternContentUnits="objectBoundingBox"><use xlink:href="#q" transform="scale(.0003 .00024)"/></pattern><pattern id="f" width="1" height="1" patternContentUnits="objectBoundingBox"><use xlink:href="#q" transform="scale(.0003 .00024)"/></pattern><pattern id="g" width="1" height="1" patternContentUnits="objectBoundingBox"><use xlink:href="#q" transform="scale(.0003 .00024)"/></pattern><pattern id="h" width="1" height="1" patternContentUnits="objectBoundingBox"><use xlink:href="#q" transform="scale(.0003 .00024)"/></pattern><pattern id="i" width="1" height="1" patternContentUnits="objectBoundingBox"><use xlink:href="#q" transform="scale(.0003 .00024)"/></pattern><pattern id="j" width="1" height="1" patternContentUnits="objectBoundingBox"><use xlink:href="#q" transform="scale(.0003 .00024)"/></pattern><pattern id="k" width="1" height="1" patternContentUnits="objectBoundingBox"><use xlink:href="#r" transform="matrix(.00034 0 0 .00806 -.056 -14.024)"/></pattern><pattern id="l" width="1" height="1" patternContentUnits="objectBoundingBox"><use xlink:href="#r" transform="matrix(.00034 0 0 .00806 -.056 -14.024)"/></pattern><pattern id="m" width="1" height="1" patternContentUnits="objectBoundingBox"><use xlink:href="#r" transform="matrix(.00034 0 0 .00806 -.056 -14.024)"/></pattern><pattern id="n" width="1" height="1" patternContentUnits="objectBoundingBox"><use xlink:href="#s" transform="matrix(.00038 0 0 .00035 -.117 -.214)"/></pattern><image xlink:href="/museum/museum-of-us.assets/museum-of-us-0.webp" id="o" width="1024" height="1024" preserveAspectRatio="none"/><image xlink:href="/museum/museum-of-us.assets/museum-of-us-1.webp" id="p" width="3277" height="4096" preserveAspectRatio="none"/><image xlink:href="/museum/museum-of-us.assets/museum-of-us-2.webp" id="q" width="3277" height="4096" preserveAspectRatio="none"/><image xlink:href="/museum/museum-of-us.assets/museum-of-us-3.webp" id="r" width="3277" height="4096" preserveAspectRatio="none"/><image xlink:href="/museum/museum-of-us.assets/museum-of-us-4.webp" id="s" width="3277" height="4096" preserveAspectRatio="none"/><clipPath id="a"><path fill="#fff" d="M0 0h1728v1117H0z"/></clipPath></defs></svg>