<svg width="1728" height="108" viewBox="0 0 1728 108" fill="none" xmlns="http://www.w3.org/2000/svg">
<rect width="1728" height="108" fill="#2C1B06"/>
<path d="M29 46.8424C29 58.9996 39.0486 65.4781 46.4043 71.2769C49 73.3231 51.5 75.2496 54 75.2496C56.5 75.2496 59 73.3231 61.5957 71.2769C68.9515 65.4781 79 58.9996 79 46.8424C79 34.685 65.2495 26.0633 54 37.7512C42.7504 26.0633 29 34.685 29 46.8424Z" fill="white"/>
<path d="M142.636 53.5455C142.636 57.3068 141.932 60.5284 140.523 63.2102C139.125 65.8807 137.216 67.9261 134.795 69.3466C132.386 70.767 129.653 71.4773 126.597 71.4773C123.54 71.4773 120.801 70.767 118.381 69.3466C115.972 67.9148 114.063 65.8636 112.653 63.1932C111.256 60.5114 110.557 57.2955 110.557 53.5455C110.557 49.7841 111.256 46.5682 112.653 43.8977C114.063 41.2159 115.972 39.1648 118.381 37.7443C120.801 36.3239 123.54 35.6136 126.597 35.6136C129.653 35.6136 132.386 36.3239 134.795 37.7443C137.216 39.1648 139.125 41.2159 140.523 43.8977C141.932 46.5682 142.636 49.7841 142.636 53.5455ZM136.278 53.5455C136.278 50.8977 135.864 48.6648 135.034 46.8466C134.216 45.017 133.08 43.6364 131.625 42.7045C130.17 41.7614 128.494 41.2898 126.597 41.2898C124.699 41.2898 123.023 41.7614 121.568 42.7045C120.114 43.6364 118.972 45.017 118.142 46.8466C117.324 48.6648 116.915 50.8977 116.915 53.5455C116.915 56.1932 117.324 58.4318 118.142 60.2614C118.972 62.0795 120.114 63.4602 121.568 64.4034C123.023 65.3352 124.699 65.8011 126.597 65.8011C128.494 65.8011 130.17 65.3352 131.625 64.4034C133.08 63.4602 134.216 62.0795 135.034 60.2614C135.864 58.4318 136.278 56.1932 136.278 53.5455ZM161.416 44.8182V49.5909H146.365V44.8182H161.416ZM150.081 38.5455H156.251V63.125C156.251 63.9545 156.376 64.5909 156.626 65.0341C156.888 65.4659 157.229 65.7614 157.649 65.9205C158.07 66.0795 158.536 66.1591 159.047 66.1591C159.433 66.1591 159.786 66.1307 160.104 66.0739C160.433 66.017 160.683 65.9659 160.854 65.9205L161.893 70.7443C161.564 70.858 161.092 70.983 160.479 71.1193C159.876 71.2557 159.138 71.3352 158.263 71.358C156.717 71.4034 155.325 71.1705 154.087 70.6591C152.848 70.1364 151.865 69.3295 151.138 68.2386C150.422 67.1477 150.07 65.7841 150.081 64.1477V38.5455ZM173.31 55.6591V71H167.139V36.0909H173.173V49.267H173.48C174.094 47.7898 175.043 46.625 176.327 45.7727C177.622 44.9091 179.27 44.4773 181.27 44.4773C183.088 44.4773 184.673 44.858 186.026 45.6193C187.378 46.3807 188.423 47.4943 189.162 48.9602C189.912 50.4261 190.287 52.2159 190.287 54.3295V71H184.116V55.2841C184.116 53.5227 183.662 52.1534 182.753 51.1761C181.855 50.1875 180.594 49.6932 178.969 49.6932C177.878 49.6932 176.901 49.9318 176.037 50.4091C175.185 50.875 174.514 51.5511 174.026 52.4375C173.548 53.3239 173.31 54.3977 173.31 55.6591ZM208.168 71.5114C205.543 71.5114 203.276 70.9659 201.366 69.875C199.469 68.7727 198.009 67.2159 196.986 65.2045C195.963 63.1818 195.452 60.8011 195.452 58.0625C195.452 55.3693 195.963 53.0057 196.986 50.9716C198.02 48.9261 199.463 47.3352 201.315 46.1989C203.168 45.0511 205.344 44.4773 207.844 44.4773C209.457 44.4773 210.98 44.7386 212.412 45.2614C213.855 45.7727 215.128 46.5682 216.23 47.6477C217.344 48.7273 218.219 50.1023 218.855 51.7727C219.491 53.4318 219.81 55.4091 219.81 57.7045V59.5966H198.349V55.4375H213.895C213.884 54.2557 213.628 53.2045 213.128 52.2841C212.628 51.3523 211.929 50.6193 211.031 50.0852C210.145 49.5511 209.111 49.2841 207.929 49.2841C206.668 49.2841 205.56 49.5909 204.605 50.2045C203.651 50.8068 202.906 51.6023 202.372 52.5909C201.849 53.5682 201.582 54.642 201.571 55.8125V59.4432C201.571 60.9659 201.849 62.2727 202.406 63.3636C202.963 64.4432 203.741 65.2727 204.741 65.8523C205.741 66.4205 206.912 66.7045 208.253 66.7045C209.151 66.7045 209.963 66.5795 210.69 66.3295C211.418 66.0682 212.048 65.6875 212.582 65.1875C213.116 64.6875 213.52 64.0682 213.793 63.3295L219.554 63.9773C219.19 65.5 218.497 66.8295 217.474 67.9659C216.463 69.0909 215.168 69.9659 213.588 70.5909C212.009 71.2045 210.202 71.5114 208.168 71.5114ZM225.03 71V44.8182H231.013V49.1818H231.286C231.763 47.6705 232.581 46.5057 233.74 45.6875C234.911 44.858 236.246 44.4432 237.746 44.4432C238.087 44.4432 238.467 44.4602 238.888 44.4943C239.32 44.517 239.678 44.5568 239.962 44.6136V50.2898C239.7 50.1989 239.286 50.1193 238.717 50.0511C238.161 49.9716 237.621 49.9318 237.098 49.9318C235.973 49.9318 234.962 50.1761 234.064 50.6648C233.178 51.142 232.479 51.8068 231.967 52.6591C231.456 53.5114 231.2 54.4943 231.2 55.608V71H225.03ZM267.388 71.5114C264.774 71.5114 262.53 70.9375 260.655 69.7898C258.791 68.642 257.354 67.0568 256.342 65.0341C255.342 63 254.842 60.6591 254.842 58.0114C254.842 55.3523 255.354 53.0057 256.376 50.9716C257.399 48.9261 258.842 47.3352 260.706 46.1989C262.581 45.0511 264.797 44.4773 267.354 44.4773C269.479 44.4773 271.359 44.8693 272.996 45.6534C274.643 46.4261 275.956 47.5227 276.933 48.9432C277.911 50.3523 278.467 52 278.604 53.8864H272.706C272.467 52.625 271.899 51.5739 271.001 50.733C270.115 49.8807 268.928 49.4545 267.439 49.4545C266.178 49.4545 265.07 49.7955 264.115 50.4773C263.161 51.1477 262.416 52.1136 261.882 53.375C261.359 54.6364 261.098 56.1477 261.098 57.9091C261.098 59.6932 261.359 61.2273 261.882 62.5114C262.405 63.7841 263.138 64.767 264.081 65.4602C265.036 66.142 266.155 66.483 267.439 66.483C268.348 66.483 269.161 66.3125 269.876 65.9716C270.604 65.6193 271.212 65.1136 271.7 64.4545C272.189 63.7955 272.524 62.9943 272.706 62.0511H278.604C278.456 63.9034 277.911 65.5455 276.967 66.9773C276.024 68.3977 274.74 69.5114 273.115 70.3182C271.49 71.1136 269.581 71.5114 267.388 71.5114ZM295.091 71.5114C292.534 71.5114 290.318 70.9489 288.443 69.8239C286.568 68.6989 285.114 67.125 284.08 65.1023C283.057 63.0795 282.545 60.7159 282.545 58.0114C282.545 55.3068 283.057 52.9375 284.08 50.9034C285.114 48.8693 286.568 47.2898 288.443 46.1648C290.318 45.0398 292.534 44.4773 295.091 44.4773C297.648 44.4773 299.864 45.0398 301.739 46.1648C303.614 47.2898 305.063 48.8693 306.085 50.9034C307.119 52.9375 307.636 55.3068 307.636 58.0114C307.636 60.7159 307.119 63.0795 306.085 65.1023C305.063 67.125 303.614 68.6989 301.739 69.8239C299.864 70.9489 297.648 71.5114 295.091 71.5114ZM295.125 66.5682C296.511 66.5682 297.67 66.1875 298.602 65.4261C299.534 64.6534 300.227 63.6193 300.682 62.3239C301.148 61.0284 301.381 59.5852 301.381 57.9943C301.381 56.392 301.148 54.9432 300.682 53.6477C300.227 52.3409 299.534 51.3011 298.602 50.5284C297.67 49.7557 296.511 49.3693 295.125 49.3693C293.705 49.3693 292.523 49.7557 291.58 50.5284C290.648 51.3011 289.949 52.3409 289.483 53.6477C289.028 54.9432 288.801 56.392 288.801 57.9943C288.801 59.5852 289.028 61.0284 289.483 62.3239C289.949 63.6193 290.648 64.6534 291.58 65.4261C292.523 66.1875 293.705 66.5682 295.125 66.5682ZM312.874 71V44.8182H318.771V49.267H319.078C319.624 47.767 320.527 46.5966 321.788 45.7557C323.05 44.9034 324.555 44.4773 326.305 44.4773C328.078 44.4773 329.572 44.9091 330.788 45.7727C332.016 46.625 332.879 47.7898 333.379 49.267H333.652C334.232 47.8125 335.209 46.6534 336.584 45.7898C337.97 44.9148 339.612 44.4773 341.51 44.4773C343.919 44.4773 345.885 45.2386 347.408 46.7614C348.93 48.2841 349.692 50.5057 349.692 53.4261V71H343.504V54.3807C343.504 52.7557 343.072 51.5682 342.209 50.8182C341.345 50.0568 340.288 49.6761 339.038 49.6761C337.55 49.6761 336.385 50.142 335.544 51.0739C334.714 51.9943 334.3 53.1932 334.3 54.6705V71H328.249V54.125C328.249 52.7727 327.839 51.6932 327.021 50.8864C326.214 50.0795 325.158 49.6761 323.851 49.6761C322.964 49.6761 322.158 49.9034 321.43 50.358C320.703 50.8011 320.124 51.4318 319.692 52.25C319.26 53.0568 319.044 54 319.044 55.0795V71H312.874ZM355.952 80.8182V44.8182H362.02V49.1477H362.378C362.696 48.5114 363.145 47.8352 363.724 47.1193C364.304 46.392 365.088 45.7727 366.077 45.2614C367.065 44.7386 368.327 44.4773 369.861 44.4773C371.884 44.4773 373.707 44.9943 375.332 46.0284C376.969 47.0511 378.264 48.5682 379.219 50.5795C380.185 52.5795 380.668 55.0341 380.668 57.9432C380.668 60.8182 380.196 63.2614 379.253 65.2727C378.31 67.2841 377.026 68.8182 375.401 69.875C373.776 70.9318 371.935 71.4602 369.878 71.4602C368.378 71.4602 367.134 71.2102 366.145 70.7102C365.156 70.2102 364.361 69.608 363.759 68.9034C363.168 68.1875 362.707 67.5114 362.378 66.875H362.122V80.8182H355.952ZM362.003 57.9091C362.003 59.6023 362.241 61.0852 362.719 62.358C363.207 63.6307 363.906 64.625 364.815 65.3409C365.736 66.0455 366.849 66.3977 368.156 66.3977C369.52 66.3977 370.662 66.0341 371.582 65.3068C372.503 64.5682 373.196 63.5625 373.662 62.2898C374.139 61.0057 374.378 59.5455 374.378 57.9091C374.378 56.2841 374.145 54.8409 373.679 53.5795C373.213 52.3182 372.52 51.3295 371.599 50.6136C370.679 49.8977 369.531 49.5398 368.156 49.5398C366.838 49.5398 365.719 49.8864 364.798 50.5795C363.878 51.2727 363.179 52.2443 362.702 53.4943C362.236 54.7443 362.003 56.2159 362.003 57.9091ZM397.372 71.5114C394.815 71.5114 392.599 70.9489 390.724 69.8239C388.849 68.6989 387.395 67.125 386.361 65.1023C385.338 63.0795 384.827 60.7159 384.827 58.0114C384.827 55.3068 385.338 52.9375 386.361 50.9034C387.395 48.8693 388.849 47.2898 390.724 46.1648C392.599 45.0398 394.815 44.4773 397.372 44.4773C399.929 44.4773 402.145 45.0398 404.02 46.1648C405.895 47.2898 407.344 48.8693 408.366 50.9034C409.401 52.9375 409.918 55.3068 409.918 58.0114C409.918 60.7159 409.401 63.0795 408.366 65.1023C407.344 67.125 405.895 68.6989 404.02 69.8239C402.145 70.9489 399.929 71.5114 397.372 71.5114ZM397.406 66.5682C398.793 66.5682 399.952 66.1875 400.884 65.4261C401.815 64.6534 402.509 63.6193 402.963 62.3239C403.429 61.0284 403.662 59.5852 403.662 57.9943C403.662 56.392 403.429 54.9432 402.963 53.6477C402.509 52.3409 401.815 51.3011 400.884 50.5284C399.952 49.7557 398.793 49.3693 397.406 49.3693C395.986 49.3693 394.804 49.7557 393.861 50.5284C392.929 51.3011 392.23 52.3409 391.764 53.6477C391.31 54.9432 391.082 56.392 391.082 57.9943C391.082 59.5852 391.31 61.0284 391.764 62.3239C392.23 63.6193 392.929 64.6534 393.861 65.4261C394.804 66.1875 395.986 66.5682 397.406 66.5682ZM421.325 55.6591V71H415.155V44.8182H421.053V49.267H421.359C421.962 47.8011 422.922 46.6364 424.24 45.7727C425.57 44.9091 427.212 44.4773 429.166 44.4773C430.973 44.4773 432.547 44.8636 433.888 45.6364C435.24 46.4091 436.286 47.5284 437.024 48.9943C437.774 50.4602 438.143 52.2386 438.132 54.3295V71H431.962V55.2841C431.962 53.5341 431.507 52.1648 430.598 51.1761C429.7 50.1875 428.456 49.6932 426.865 49.6932C425.786 49.6932 424.825 49.9318 423.984 50.4091C423.155 50.875 422.501 51.5511 422.024 52.4375C421.558 53.3239 421.325 54.3977 421.325 55.6591ZM455.996 71.5114C453.371 71.5114 451.104 70.9659 449.195 69.875C447.297 68.7727 445.837 67.2159 444.814 65.2045C443.791 63.1818 443.28 60.8011 443.28 58.0625C443.28 55.3693 443.791 53.0057 444.814 50.9716C445.848 48.9261 447.291 47.3352 449.143 46.1989C450.996 45.0511 453.172 44.4773 455.672 44.4773C457.286 44.4773 458.808 44.7386 460.24 45.2614C461.683 45.7727 462.956 46.5682 464.058 47.6477C465.172 48.7273 466.047 50.1023 466.683 51.7727C467.32 53.4318 467.638 55.4091 467.638 57.7045V59.5966H446.178V55.4375H461.723C461.712 54.2557 461.456 53.2045 460.956 52.2841C460.456 51.3523 459.757 50.6193 458.859 50.0852C457.973 49.5511 456.939 49.2841 455.757 49.2841C454.496 49.2841 453.388 49.5909 452.433 50.2045C451.479 50.8068 450.734 51.6023 450.2 52.5909C449.678 53.5682 449.411 54.642 449.399 55.8125V59.4432C449.399 60.9659 449.678 62.2727 450.234 63.3636C450.791 64.4432 451.57 65.2727 452.57 65.8523C453.57 66.4205 454.74 66.7045 456.081 66.7045C456.979 66.7045 457.791 66.5795 458.518 66.3295C459.246 66.0682 459.876 65.6875 460.411 65.1875C460.945 64.6875 461.348 64.0682 461.621 63.3295L467.382 63.9773C467.018 65.5 466.325 66.8295 465.303 67.9659C464.291 69.0909 462.996 69.9659 461.416 70.5909C459.837 71.2045 458.03 71.5114 455.996 71.5114ZM479.028 55.6591V71H472.858V44.8182H478.756V49.267H479.062C479.665 47.8011 480.625 46.6364 481.943 45.7727C483.273 44.9091 484.915 44.4773 486.869 44.4773C488.676 44.4773 490.25 44.8636 491.591 45.6364C492.943 46.4091 493.989 47.5284 494.727 48.9943C495.477 50.4602 495.847 52.2386 495.835 54.3295V71H489.665V55.2841C489.665 53.5341 489.21 52.1648 488.301 51.1761C487.403 50.1875 486.159 49.6932 484.568 49.6932C483.489 49.6932 482.528 49.9318 481.688 50.4091C480.858 50.875 480.205 51.5511 479.727 52.4375C479.261 53.3239 479.028 54.3977 479.028 55.6591ZM515.182 44.8182V49.5909H500.131V44.8182H515.182ZM503.847 38.5455H510.017V63.125C510.017 63.9545 510.142 64.5909 510.392 65.0341C510.653 65.4659 510.994 65.7614 511.415 65.9205C511.835 66.0795 512.301 66.1591 512.812 66.1591C513.199 66.1591 513.551 66.1307 513.869 66.0739C514.199 66.017 514.449 65.9659 514.619 65.9205L515.659 70.7443C515.33 70.858 514.858 70.983 514.244 71.1193C513.642 71.2557 512.903 71.3352 512.028 71.358C510.483 71.4034 509.091 71.1705 507.852 70.6591C506.614 70.1364 505.631 69.3295 504.903 68.2386C504.188 67.1477 503.835 65.7841 503.847 64.1477V38.5455ZM540.661 51.7386L535.036 52.3523C534.876 51.7841 534.598 51.25 534.2 50.75C533.814 50.25 533.291 49.8466 532.632 49.5398C531.973 49.233 531.166 49.0795 530.212 49.0795C528.928 49.0795 527.848 49.358 526.973 49.9148C526.109 50.4716 525.683 51.1932 525.695 52.0795C525.683 52.8409 525.962 53.4602 526.53 53.9375C527.109 54.4148 528.064 54.8068 529.393 55.1136L533.859 56.0682C536.337 56.6023 538.178 57.4489 539.382 58.608C540.598 59.767 541.212 61.2841 541.223 63.1591C541.212 64.8068 540.729 66.2614 539.774 67.5227C538.831 68.7727 537.518 69.75 535.837 70.4545C534.155 71.1591 532.223 71.5114 530.041 71.5114C526.837 71.5114 524.257 70.8409 522.303 69.5C520.348 68.1477 519.183 66.267 518.808 63.858L524.825 63.2784C525.098 64.4602 525.678 65.3523 526.564 65.9545C527.45 66.5568 528.604 66.858 530.024 66.858C531.49 66.858 532.666 66.5568 533.553 65.9545C534.45 65.3523 534.899 64.608 534.899 63.7216C534.899 62.9716 534.609 62.3523 534.03 61.8636C533.462 61.375 532.575 61 531.371 60.7386L526.905 59.8011C524.393 59.2784 522.536 58.3977 521.331 57.1591C520.126 55.9091 519.53 54.3295 519.541 52.4205C519.53 50.8068 519.967 49.4091 520.854 48.2273C521.751 47.0341 522.996 46.1136 524.587 45.4659C526.189 44.8068 528.036 44.4773 530.126 44.4773C533.195 44.4773 535.609 45.1307 537.371 46.4375C539.143 47.7443 540.24 49.5114 540.661 51.7386ZM560.561 34.4545L549.311 76.25H543.908L555.158 34.4545H560.561ZM576.089 71.5114C573.464 71.5114 571.197 70.9659 569.288 69.875C567.391 68.7727 565.93 67.2159 564.908 65.2045C563.885 63.1818 563.374 60.8011 563.374 58.0625C563.374 55.3693 563.885 53.0057 564.908 50.9716C565.942 48.9261 567.385 47.3352 569.237 46.1989C571.089 45.0511 573.266 44.4773 575.766 44.4773C577.379 44.4773 578.902 44.7386 580.334 45.2614C581.777 45.7727 583.05 46.5682 584.152 47.6477C585.266 48.7273 586.141 50.1023 586.777 51.7727C587.413 53.4318 587.732 55.4091 587.732 57.7045V59.5966H566.271V55.4375H581.817C581.805 54.2557 581.55 53.2045 581.05 52.2841C580.55 51.3523 579.851 50.6193 578.953 50.0852C578.067 49.5511 577.033 49.2841 575.851 49.2841C574.589 49.2841 573.482 49.5909 572.527 50.2045C571.572 50.8068 570.828 51.6023 570.294 52.5909C569.771 53.5682 569.504 54.642 569.493 55.8125V59.4432C569.493 60.9659 569.771 62.2727 570.328 63.3636C570.885 64.4432 571.663 65.2727 572.663 65.8523C573.663 66.4205 574.834 66.7045 576.175 66.7045C577.072 66.7045 577.885 66.5795 578.612 66.3295C579.339 66.0682 579.97 65.6875 580.504 65.1875C581.038 64.6875 581.442 64.0682 581.714 63.3295L587.476 63.9773C587.112 65.5 586.419 66.8295 585.396 67.9659C584.385 69.0909 583.089 69.9659 581.51 70.5909C579.93 71.2045 578.124 71.5114 576.089 71.5114ZM599.122 36.0909V71H592.952V36.0909H599.122ZM617.058 71.5114C614.433 71.5114 612.166 70.9659 610.257 69.875C608.359 68.7727 606.899 67.2159 605.876 65.2045C604.854 63.1818 604.342 60.8011 604.342 58.0625C604.342 55.3693 604.854 53.0057 605.876 50.9716C606.911 48.9261 608.354 47.3352 610.206 46.1989C612.058 45.0511 614.234 44.4773 616.734 44.4773C618.348 44.4773 619.871 44.7386 621.303 45.2614C622.746 45.7727 624.018 46.5682 625.121 47.6477C626.234 48.7273 627.109 50.1023 627.746 51.7727C628.382 53.4318 628.7 55.4091 628.7 57.7045V59.5966H607.24V55.4375H622.786C622.774 54.2557 622.518 53.2045 622.018 52.2841C621.518 51.3523 620.82 50.6193 619.922 50.0852C619.036 49.5511 618.001 49.2841 616.82 49.2841C615.558 49.2841 614.45 49.5909 613.496 50.2045C612.541 50.8068 611.797 51.6023 611.263 52.5909C610.74 53.5682 610.473 54.642 610.462 55.8125V59.4432C610.462 60.9659 610.74 62.2727 611.297 63.3636C611.854 64.4432 612.632 65.2727 613.632 65.8523C614.632 66.4205 615.803 66.7045 617.143 66.7045C618.041 66.7045 618.854 66.5795 619.581 66.3295C620.308 66.0682 620.939 65.6875 621.473 65.1875C622.007 64.6875 622.411 64.0682 622.683 63.3295L628.445 63.9773C628.081 65.5 627.388 66.8295 626.365 67.9659C625.354 69.0909 624.058 69.9659 622.479 70.5909C620.899 71.2045 619.092 71.5114 617.058 71.5114ZM633.92 71V44.8182H639.818V49.267H640.125C640.67 47.767 641.574 46.5966 642.835 45.7557C644.097 44.9034 645.602 44.4773 647.352 44.4773C649.125 44.4773 650.619 44.9091 651.835 45.7727C653.063 46.625 653.926 47.7898 654.426 49.267H654.699C655.278 47.8125 656.256 46.6534 657.631 45.7898C659.017 44.9148 660.659 44.4773 662.557 44.4773C664.966 44.4773 666.932 45.2386 668.455 46.7614C669.977 48.2841 670.739 50.5057 670.739 53.4261V71H664.551V54.3807C664.551 52.7557 664.119 51.5682 663.256 50.8182C662.392 50.0568 661.335 49.6761 660.085 49.6761C658.597 49.6761 657.432 50.142 656.591 51.0739C655.761 51.9943 655.347 53.1932 655.347 54.6705V71H649.295V54.125C649.295 52.7727 648.886 51.6932 648.068 50.8864C647.261 50.0795 646.205 49.6761 644.898 49.6761C644.011 49.6761 643.205 49.9034 642.477 50.358C641.75 50.8011 641.17 51.4318 640.739 52.25C640.307 53.0568 640.091 54 640.091 55.0795V71H633.92ZM688.589 71.5114C685.964 71.5114 683.697 70.9659 681.788 69.875C679.891 68.7727 678.43 67.2159 677.408 65.2045C676.385 63.1818 675.874 60.8011 675.874 58.0625C675.874 55.3693 676.385 53.0057 677.408 50.9716C678.442 48.9261 679.885 47.3352 681.737 46.1989C683.589 45.0511 685.766 44.4773 688.266 44.4773C689.879 44.4773 691.402 44.7386 692.834 45.2614C694.277 45.7727 695.55 46.5682 696.652 47.6477C697.766 48.7273 698.641 50.1023 699.277 51.7727C699.913 53.4318 700.232 55.4091 700.232 57.7045V59.5966H678.771V55.4375H694.317C694.305 54.2557 694.05 53.2045 693.55 52.2841C693.05 51.3523 692.351 50.6193 691.453 50.0852C690.567 49.5511 689.533 49.2841 688.351 49.2841C687.089 49.2841 685.982 49.5909 685.027 50.2045C684.072 50.8068 683.328 51.6023 682.794 52.5909C682.271 53.5682 682.004 54.642 681.993 55.8125V59.4432C681.993 60.9659 682.271 62.2727 682.828 63.3636C683.385 64.4432 684.163 65.2727 685.163 65.8523C686.163 66.4205 687.334 66.7045 688.675 66.7045C689.572 66.7045 690.385 66.5795 691.112 66.3295C691.839 66.0682 692.47 65.6875 693.004 65.1875C693.538 64.6875 693.942 64.0682 694.214 63.3295L699.976 63.9773C699.612 65.5 698.919 66.8295 697.896 67.9659C696.885 69.0909 695.589 69.9659 694.01 70.5909C692.43 71.2045 690.624 71.5114 688.589 71.5114ZM711.622 55.6591V71H705.452V44.8182H711.349V49.267H711.656C712.259 47.8011 713.219 46.6364 714.537 45.7727C715.866 44.9091 717.509 44.4773 719.463 44.4773C721.27 44.4773 722.844 44.8636 724.185 45.6364C725.537 46.4091 726.582 47.5284 727.321 48.9943C728.071 50.4602 728.44 52.2386 728.429 54.3295V71H722.259V55.2841C722.259 53.5341 721.804 52.1648 720.895 51.1761C719.997 50.1875 718.753 49.6932 717.162 49.6932C716.082 49.6932 715.122 49.9318 714.281 50.4091C713.452 50.875 712.798 51.5511 712.321 52.4375C711.855 53.3239 711.622 54.3977 711.622 55.6591ZM747.776 44.8182V49.5909H732.724V44.8182H747.776ZM736.44 38.5455H742.611V63.125C742.611 63.9545 742.736 64.5909 742.986 65.0341C743.247 65.4659 743.588 65.7614 744.009 65.9205C744.429 66.0795 744.895 66.1591 745.406 66.1591C745.793 66.1591 746.145 66.1307 746.463 66.0739C746.793 66.017 747.043 65.9659 747.213 65.9205L748.253 70.7443C747.923 70.858 747.452 70.983 746.838 71.1193C746.236 71.2557 745.497 71.3352 744.622 71.358C743.077 71.4034 741.685 71.1705 740.446 70.6591C739.207 70.1364 738.224 69.3295 737.497 68.2386C736.781 67.1477 736.429 65.7841 736.44 64.1477V38.5455ZM773.254 51.7386L767.629 52.3523C767.47 51.7841 767.192 51.25 766.794 50.75C766.408 50.25 765.885 49.8466 765.226 49.5398C764.567 49.233 763.76 49.0795 762.805 49.0795C761.521 49.0795 760.442 49.358 759.567 49.9148C758.703 50.4716 758.277 51.1932 758.288 52.0795C758.277 52.8409 758.555 53.4602 759.124 53.9375C759.703 54.4148 760.658 54.8068 761.987 55.1136L766.453 56.0682C768.93 56.6023 770.771 57.4489 771.976 58.608C773.192 59.767 773.805 61.2841 773.817 63.1591C773.805 64.8068 773.322 66.2614 772.368 67.5227C771.425 68.7727 770.112 69.75 768.43 70.4545C766.749 71.1591 764.817 71.5114 762.635 71.5114C759.43 71.5114 756.851 70.8409 754.896 69.5C752.942 68.1477 751.777 66.267 751.402 63.858L757.419 63.2784C757.692 64.4602 758.271 65.3523 759.158 65.9545C760.044 66.5568 761.197 66.858 762.618 66.858C764.084 66.858 765.26 66.5568 766.146 65.9545C767.044 65.3523 767.493 64.608 767.493 63.7216C767.493 62.9716 767.203 62.3523 766.624 61.8636C766.055 61.375 765.169 61 763.964 60.7386L759.499 59.8011C756.987 59.2784 755.129 58.3977 753.925 57.1591C752.72 55.9091 752.124 54.3295 752.135 52.4205C752.124 50.8068 752.561 49.4091 753.447 48.2273C754.345 47.0341 755.589 46.1136 757.18 45.4659C758.783 44.8068 760.629 44.4773 762.72 44.4773C765.788 44.4773 768.203 45.1307 769.964 46.4375C771.737 47.7443 772.834 49.5114 773.254 51.7386Z" fill="#FFFCFA"/>
</svg>
