<svg xmlns="http://www.w3.org/2000/svg" viewBox="0 0 27311594 21317963" fill="#AD731C" fill-rule="evenodd">
  <path d="M 27283595 490220 C 27283595 346710 27217555 203200 27105795 113030 C 27018163 39370 26907673 0 26793373 0 C 26793373 0 497868 0 497868 0 C 377218 0 261648 44450 172748 123190 C 68609 214630 7649 350520 7649 490220 C 30509 640080 -36801 20838561 31779 20971911 C 82579 21134470 222279 21261470 387379 21298300 C 463579 21344020 26698123 21293220 26794645 21311000 C 27004195 21311000 27190884 21177650 27258195 20978261 C 27396623 20796650 27213745 675640 27284863 488950 Z M 27221363 20966830 C 27159134 21149711 26987684 21272900 26793373 21272900 C 26654945 21250041 513109 21303380 396269 21261470 C 195609 21218291 41939 21026520 45749 20822050 C 45749 20822050 45749 490220 45749 490220 C 45749 361950 101629 236220 198149 152400 C 280699 78740 387379 38100 497869 38100 C 497869 38100 26793373 38100 26793373 38100 C 27002923 35560 27199773 194310 27236602 402590 C 27230252 651510 27289945 20730609 27221363 20966830 Z M 24214002 292100 L 6668799 292100 L 6079519 834390 L 3540789 834390 L 2951509 292100 L 497869 292100 C 435639 292100 392459 318770 368329 341630 L 381029 355600 L 367059 342900 C 365789 344170 351819 356870 349279 359410 L 842039 937260 L 842039 20474070 L 5481349 20474070 L 5880129 21018900 L 24724543 21018900 C 24728354 21013820 26444123 18877680 26447934 18872600 L 26447934 834390 L 24802013 834390 L 24212732 292100 Z M 26411102 18858630 L 24706763 20980800 L 5900449 20980800 L 5501669 20435971 L 880139 20435971 L 880139 922020 L 402619 361950 C 422939 345440 454689 330200 497869 330200 L 2937539 330200 L 3526819 872490 L 6094759 872490 L 6684039 330200 L 24200032 330200 L 24789311 872490 L 26412373 872490 L 26412373 18858630 Z"/>
</svg>