<svg width="25" height="25" viewBox="0 0 25 25" fill="none" xmlns="http://www.w3.org/2000/svg">
<g transform="scale(0.8928571428571429)">
<path d="M16.3712 17.4372C14.5301 19.2178 12.959 17.8404 12.4036 16.9291C11.3929 18.745 9.38535 18.0873 8.41145 17.4792C9.24215 18.5761 11.163 21.1054 12.2009 22.4481C13.2387 23.7908 14.1211 23.1981 14.6806 22.7657L19.1563 19.3062C17.4677 19.8965 16.5959 18.3062 16.3712 17.4372Z" fill="#652017"/>
<path d="M8.30895 17.4129C8.34167 17.4349 8.37587 17.457 8.41145 17.4792M8.41145 17.4792C9.38535 18.0873 11.3929 18.745 12.4036 16.9291C12.959 17.8404 14.5301 19.2178 16.3712 17.4372C16.5959 18.3062 17.4677 19.8965 19.1563 19.3062L14.6806 22.7657C14.1211 23.1981 13.2387 23.7908 12.2009 22.4481C11.163 21.1054 9.24215 18.5761 8.41145 17.4792Z" stroke="#652017" stroke-width="0.2"/>
</g>
</svg>
