<svg width="25" height="25" viewBox="0 0 25 25" fill="none" xmlns="http://www.w3.org/2000/svg">
<defs>
<linearGradient id="paint0_linear_1_234" x1="14.4753" y1="8.52616" x2="24.2528" y2="26.3034" gradientUnits="userSpaceOnUse">
<stop stop-color="#816453"/>
<stop offset="0.187957" stop-color="#52341E"/>
<stop offset="0.645" stop-color="#52341E"/>
<stop offset="1" stop-color="#422811"/>
</linearGradient>
</defs>
<g transform="translate(-6.265999999999998 -5.489000000000001) scale(0.8928571428571429)">
<g>
<mask id="path-1-inside-1_1_234" fill="white">
<path fill-rule="evenodd" clip-rule="evenodd" d="M10.7851 20.4041L19.5684 29.1874C19.9537 29.5727 20.5784 29.5727 20.9636 29.1874C20.9669 29.1843 20.9701 29.1811 20.9733 29.1779L29.7471 20.4041C32.1272 18.024 32.1272 14.1651 29.7471 11.7851C27.367 9.40498 23.5081 9.40498 21.1281 11.7851C20.652 12.2611 19.8802 12.2611 19.4041 11.7851C17.024 9.40499 13.1652 9.40499 10.7851 11.7851C8.40499 14.1652 8.40499 18.024 10.7851 20.4041Z"/>
</mask>
<path fill-rule="evenodd" clip-rule="evenodd" d="M10.7851 20.4041L19.5684 29.1874C19.9537 29.5727 20.5784 29.5727 20.9636 29.1874C20.9669 29.1843 20.9701 29.1811 20.9733 29.1779L29.7471 20.4041C32.1272 18.024 32.1272 14.1651 29.7471 11.7851C27.367 9.40498 23.5081 9.40498 21.1281 11.7851C20.652 12.2611 19.8802 12.2611 19.4041 11.7851C17.024 9.40499 13.1652 9.40499 10.7851 11.7851C8.40499 14.1652 8.40499 18.024 10.7851 20.4041Z" fill="url(#paint0_linear_1_234)"/>
<path d="M20.9733 29.1779L21.3268 29.5315L20.9733 29.1779ZM29.7471 20.4041L29.3935 20.0505L29.7471 20.4041ZM19.922 28.8339L11.1386 20.0506L10.4315 20.7577L19.2149 29.541L19.922 28.8339ZM20.6197 28.8244C20.6181 28.826 20.6165 28.8276 20.6148 28.8293L21.3125 29.5456C21.3173 29.541 21.322 29.5363 21.3268 29.5315L20.6197 28.8244ZM29.3935 20.0505L20.6197 28.8244L21.3268 29.5315L30.1007 20.7577L29.3935 20.0505ZM29.3935 12.1386C31.5784 14.3234 31.5784 17.8657 29.3935 20.0505L30.1007 20.7577C32.676 18.1823 32.676 14.0069 30.1007 11.4315L29.3935 12.1386ZM21.4816 12.1386C23.6664 9.95379 27.2087 9.95379 29.3935 12.1386L30.1007 11.4315C27.5253 8.85616 23.3499 8.85616 20.7745 11.4315L21.4816 12.1386ZM11.1386 12.1386C13.3235 9.9538 16.8657 9.9538 19.0506 12.1386L19.7577 11.4315C17.1823 8.85617 13.0069 8.85617 10.4315 11.4315L11.1386 12.1386ZM11.1386 20.0506C8.95381 17.8657 8.95381 14.3234 11.1386 12.1386L10.4315 11.4315C7.85618 14.0069 7.85618 18.1823 10.4315 20.7577L11.1386 20.0506ZM20.7745 11.4315C20.4937 11.7123 20.0385 11.7123 19.7577 11.4315L19.0506 12.1386C19.7219 12.8099 20.8103 12.8099 21.4816 12.1386L20.7745 11.4315ZM19.2149 29.541C19.7954 30.1215 20.7366 30.1215 21.3172 29.541L20.6101 28.8339C20.4201 29.0239 20.112 29.0239 19.922 28.8339L19.2149 29.541Z" fill="#3E2618" mask="url(#path-1-inside-1_1_234)"/>
</g>
<g>
<path d="M11.5045 17.3041C11.328 15.9708 11.8752 13.1041 15.4756 12.3041" stroke="#F9E0CF" stroke-linecap="round"/>
</g>
</g>
</svg>
