<svg width="25" height="25" viewBox="0 0 25 25" fill="none" xmlns="http://www.w3.org/2000/svg">
<g transform="scale(0.8928571428571429)">
<g>
<path d="M21.7754 15.1906L14.2578 23.0137L13.6068 22.3881" stroke="#FFF1E5" stroke-opacity="0.3" stroke-linecap="round"/>
</g>
<path d="M14.6905 23.7699L19.5058 18.9002C22.8442 15.524 23.8929 14.247 24 14.0306C22.9727 14.6798 22.3949 14.0847 22.2344 13.7059C22.2344 14.0306 22.0097 14.7123 21.1108 14.8422C20.212 14.972 19.8803 14.1388 19.8268 13.7059C19.6663 14.0306 19.1205 14.5825 18.2217 14.1929C17.3228 13.8033 17.4191 12.8402 17.5797 12.4074C17.2051 12.5156 16.3598 12.5372 15.9746 11.7581C15.5893 10.9789 16.1351 10.2431 16.4561 9.97253C16.1886 9.86432 15.6536 9.48557 15.6536 8.83628C15.6536 8.18699 16.2956 7.80824 16.6166 7.70003C16.103 7.05074 16.1886 6.23913 16.2956 5.91449C15.493 6.23913 14.851 6.88842 14.6905 7.05074C14.53 7.21306 14.0485 8.02465 12.4434 6.56376C11.1593 5.39504 9.12621 5.21107 8.27017 5.26518C7.14661 5.31929 4.61059 6.10926 3.45493 8.83626C2.29927 11.5633 3.61544 14.0847 4.41798 15.0045L10.6778 21.4974C11.5339 22.4172 13.3422 24.2568 13.7275 24.2568C14.1127 24.2568 14.53 23.9322 14.6905 23.7699Z" fill="#3E2618"/>
<path d="M24 14.0306V14.0306ZM24 14.0306C23.8929 14.247 22.8442 15.524 19.5058 18.9002C16.1672 22.2765 14.9045 23.5534 14.6905 23.7699C14.53 23.9322 14.1127 24.2568 13.7275 24.2568C13.3422 24.2568 11.5339 22.4172 10.6778 21.4974L4.41798 15.0045C3.61544 14.0847 2.29927 11.5633 3.45493 8.83626C4.61059 6.10926 7.14661 5.31929 8.27017 5.26518C9.12621 5.21107 11.1593 5.39504 12.4434 6.56376C14.0485 8.02465 14.53 7.21306 14.6905 7.05074C14.851 6.88842 15.493 6.23913 16.2956 5.91449C16.1886 6.23913 16.103 7.05074 16.6166 7.70003C16.2956 7.80824 15.6536 8.18699 15.6536 8.83628C15.6536 9.48557 16.1886 9.86432 16.4561 9.97253C16.1351 10.2431 15.5893 10.9789 15.9746 11.7581C16.3598 12.5372 17.2051 12.5156 17.5797 12.4074C17.4191 12.8402 17.3228 13.8033 18.2217 14.1929C19.1205 14.5825 19.6663 14.0306 19.8268 13.7059C19.8803 14.1388 20.212 14.972 21.1108 14.8422C22.0097 14.7123 22.2344 14.0306 22.2344 13.7059C22.3949 14.0847 22.9727 14.6798 24 14.0306Z" stroke="#3E2618" stroke-width="0.5625"/>
</g>
</svg>
