<svg width="25" height="25" viewBox="0 0 25 25" fill="none" xmlns="http://www.w3.org/2000/svg">
<defs>
<linearGradient id="paint0_linear_1_334" x1="3.01661" y1="4.0999" x2="19.8258" y2="18.5195" gradientUnits="userSpaceOnUse">
<stop stop-color="#7E4A2F"/>
<stop offset="1" stop-color="#683A20"/>
</linearGradient>
</defs>
<g transform="scale(0.78125)">
<path d="M17.0307 4.69874C17.5764 2.68118 19.3042 2.73722 20.0999 3.01744C16.5533 -0.210669 11.8017 -0.121005 9.8693 0.32734C2.50322 2.2104 0.491187 7.89323 0.150145 10.5833C-0.0203681 12.9372 -0.0885702 18.2837 5.77701 22.1843C11.6426 26.085 17.5423 23.1371 19.7589 21.1756C17.5764 21.8481 16.576 20.2228 16.3487 19.3261C12.6657 19.9986 12.8816 17.4767 13.45 16.1316C12.8816 16.2998 11.5744 16.2661 10.8923 14.7866C10.2103 13.307 11.5176 12.1525 12.2565 11.7602C11.6881 11.424 10.6536 10.3816 11.0629 8.90201C11.4721 7.42246 13.0522 7.27674 13.791 7.38883C13.3818 4.29523 15.7803 4.30644 17.0307 4.69874Z" fill="url(#paint0_linear_1_334)" stroke="#684433" stroke-width="0.2"/>
</g>
</svg>
