<svg width="699" height="92" viewBox="0 0 699 92" fill="none" xmlns="http://www.w3.org/2000/svg">
<path d="M8.6875 57.625C6.97917 56.9583 5.58333 55.7708 4.5 54.0625C3.45833 52.3125 2.70833 50.2917 2.25 48C1.79167 45.6667 1.625 43.1458 1.75 40.4375C1.875 37.7292 2.22917 35.0208 2.8125 32.3125C3.4375 29.6042 4.27083 27.0208 5.3125 24.5625C6.35417 22.1042 7.58333 19.9792 9 18.1875C10.4167 16.3542 12 14.9792 13.75 14.0625C15.5417 13.1042 17.4583 12.7917 19.5 13.125C19.5833 13.5417 19.7292 14.2708 19.9375 15.3125C20.1875 16.3125 20.4167 17.3958 20.625 18.5625C20.875 19.7292 21.0833 20.8333 21.25 21.875C21.4583 22.875 21.6042 23.5833 21.6875 24C21.7708 24.4583 21.625 24.9583 21.25 25.5C20.875 26.0417 20.4167 26.4792 19.875 26.8125C19.375 27.1458 18.875 27.3125 18.375 27.3125C17.875 27.2708 17.5417 26.8958 17.375 26.1875C17.25 25.7708 17.1458 25.1667 17.0625 24.375C16.9792 23.5833 16.875 22.75 16.75 21.875C16.625 21 16.4583 20.1875 16.25 19.4375C16.0417 18.6458 15.75 18.0833 15.375 17.75C15 17.4167 14.5208 17.375 13.9375 17.625C13.3958 17.8333 12.7292 18.5 11.9375 19.625C11.6875 19.9583 11.375 20.4167 11 21C10.6667 21.5417 10.3125 22.1042 9.9375 22.6875C9.60417 23.2708 9.3125 23.7917 9.0625 24.25C8.8125 24.7083 8.6875 24.9792 8.6875 25.0625L5.4375 42.4375C5.0625 44.3542 5.08333 46.0833 5.5 47.625C5.91667 49.125 6.58333 50.4167 7.5 51.5C8.41667 52.5417 9.54167 53.375 10.875 54C12.2083 54.5833 13.6042 54.9167 15.0625 55C16.5625 55.0417 18.0625 54.8542 19.5625 54.4375C21.1042 53.9792 22.5417 53.2292 23.875 52.1875C24.375 51.8125 25.0208 51.1042 25.8125 50.0625C26.6458 49.0208 27.5208 47.8542 28.4375 46.5625C29.3542 45.2292 30.3125 43.8542 31.3125 42.4375C32.3125 40.9792 33.25 39.6875 34.125 38.5625C35 37.3958 35.7708 36.4583 36.4375 35.75C37.1042 35.0417 37.6042 34.7292 37.9375 34.8125C38.5625 36.6458 38.5208 38.5833 37.8125 40.625C37.1458 42.6667 36.0208 44.6667 34.4375 46.625C32.8958 48.5417 31.0208 50.3333 28.8125 52C26.6458 53.6667 24.375 55.0417 22 56.125C19.625 57.2083 17.2708 57.9167 14.9375 58.25C12.6042 58.5833 10.5208 58.375 8.6875 57.625ZM44.5 57.625C43.5833 57.0417 42.8958 56.1458 42.4375 54.9375C42.0208 53.6875 41.7083 52.3958 41.5 51.0625C41.3333 49.6875 41.25 48.4167 41.25 47.25V44.625C41.25 44.1667 41.2708 43.25 41.3125 41.875C41.3542 40.4583 41.4167 38.8333 41.5 37C41.5833 35.125 41.6667 33.1458 41.75 31.0625C41.8333 28.9375 41.9167 26.9583 42 25.125C42.0833 23.25 42.1458 21.625 42.1875 20.25C42.2708 18.875 42.3125 17.9583 42.3125 17.5C42.3125 16.875 42.3125 15.7917 42.3125 14.25C42.3542 12.7083 42.375 11.0833 42.375 9.375C42.375 7.625 42.3542 5.97917 42.3125 4.4375C42.3125 2.89583 42.3125 1.8125 42.3125 1.1875C42.9375 0.729167 43.4792 0.416667 43.9375 0.25C44.3542 0.0833333 44.7292 0.0625 45.0625 0.1875C45.3958 0.270833 45.5625 0.604167 45.5625 1.1875V52.1875C45.5625 52.4792 45.6458 52.8333 45.8125 53.25C46.0208 53.625 46.2708 53.9583 46.5625 54.25C46.8542 54.5417 47.1875 54.7292 47.5625 54.8125C47.9792 54.8542 48.3958 54.6875 48.8125 54.3125L56.375 47.875C56.5833 48.8333 56.5625 49.8333 56.3125 50.875C56.0625 51.9167 55.6458 52.8958 55.0625 53.8125C54.5208 54.7292 53.8333 55.5625 53 56.3125C52.1667 57.0625 51.2708 57.6458 50.3125 58.0625C49.3542 58.4375 48.375 58.625 47.375 58.625C46.375 58.5833 45.4167 58.25 44.5 57.625ZM57.375 55.4375C57.2917 55.2708 57.1875 54.9583 57.0625 54.5C56.9375 54 56.8125 53.4583 56.6875 52.875C56.5625 52.2917 56.4583 51.7292 56.375 51.1875C56.2917 50.6458 56.25 50.25 56.25 50V19.625C56.25 19.2083 56.4375 18.9167 56.8125 18.75C57.1875 18.5833 57.6042 18.5 58.0625 18.5C58.5625 18.4583 59 18.4583 59.375 18.5C59.7917 18.5417 60.0208 18.5625 60.0625 18.5625V52.1875C60.0625 52.8958 60.2917 53.4792 60.75 53.9375C61.2083 54.3958 61.75 54.7708 62.375 55.0625C63 55.3125 63.6458 55.4792 64.3125 55.5625C64.9792 55.6042 65.5417 55.5625 66 55.4375C66.5833 56.3125 66.5625 57.0208 65.9375 57.5625C65.3542 58.0625 64.5 58.3542 63.375 58.4375C62.2917 58.4792 61.1458 58.2708 59.9375 57.8125C58.7708 57.3125 57.9167 56.5208 57.375 55.4375ZM55.1875 8.75C55.1875 7.54167 55.6667 6.77083 56.625 6.4375C57.5833 6.0625 58.5625 6.10417 59.5625 6.5625V9.875C59.4375 9.91667 59.2083 9.95833 58.875 10C58.5833 10 58.25 10 57.875 10C57.5417 10 57.2083 10 56.875 10C56.5833 9.95833 56.375 9.91667 56.25 9.875C56.0833 9.83333 55.8542 9.66667 55.5625 9.375C55.3125 9.08333 55.1875 8.875 55.1875 8.75ZM73.125 56.5C71.5833 55.3333 70.4583 53.9375 69.75 52.3125C69.0833 50.6458 68.7083 48.8542 68.625 46.9375C68.5833 44.9792 68.7917 42.9792 69.25 40.9375C69.75 38.8958 70.3958 36.9167 71.1875 35C71.9792 33.0833 72.8542 31.3125 73.8125 29.6875C74.8125 28.0208 75.8125 26.625 76.8125 25.5C77.8125 24.3333 78.75 23.5208 79.625 23.0625C80.5 22.5625 81.2083 22.5208 81.75 22.9375C81.8333 23.3958 81.9792 24.25 82.1875 25.5C82.4375 26.7083 82.6667 28.0208 82.875 29.4375C83.125 30.8125 83.3333 32.125 83.5 33.375C83.7083 34.5833 83.8542 35.4167 83.9375 35.875C84.0208 36.4167 84.0417 37 84 37.625C83.9583 38.2083 83.8333 38.75 83.625 39.25C83.4167 39.7083 83.0625 40.0625 82.5625 40.3125C82.1042 40.5208 81.4792 40.5 80.6875 40.25C80.6458 39.9583 80.5208 39.4583 80.3125 38.75C80.1458 38.0417 79.9375 37.2917 79.6875 36.5C79.4792 35.6667 79.25 34.8958 79 34.1875C78.7917 33.4375 78.6458 32.9167 78.5625 32.625L77.5 31.5625C76.2083 32.4375 75.125 33.6875 74.25 35.3125C73.4167 36.9375 72.8125 38.7083 72.4375 40.625C72.0625 42.5 71.9583 44.3958 72.125 46.3125C72.3333 48.1875 72.8125 49.8542 73.5625 51.3125C74.3542 52.7292 75.4375 53.8125 76.8125 54.5625C78.2292 55.2708 79.9792 55.375 82.0625 54.875C84.1875 54.375 86.6667 53.1667 89.5 51.25C92.3333 49.2917 95.5625 46.3542 99.1875 42.4375V44.625C99.1875 44.75 98.9375 45.125 98.4375 45.75C97.9375 46.375 97.3333 47.1042 96.625 47.9375C95.9167 48.7292 95.1875 49.5208 94.4375 50.3125C93.7292 51.1042 93.125 51.7292 92.625 52.1875C91.25 53.4792 89.7708 54.6667 88.1875 55.75C86.6458 56.8333 85.0417 57.6458 83.375 58.1875C81.7083 58.7292 80 58.8958 78.25 58.6875C76.5417 58.5208 74.8333 57.7917 73.125 56.5ZM105.812 54.3125C105.854 53.6458 106 52.6875 106.25 51.4375C106.542 50.1458 106.792 48.7917 107 47.375C107.25 45.9167 107.396 44.4792 107.438 43.0625C107.521 41.6458 107.396 40.4583 107.062 39.5C106.729 38.5 106.125 37.8333 105.25 37.5C104.417 37.1667 103.188 37.3542 101.562 38.0625C100.646 37.8125 100.125 37.4583 100 37C99.875 36.5417 100 36.0208 100.375 35.4375C100.75 34.8542 101.271 34.2292 101.938 33.5625C102.646 32.8542 103.354 32.1458 104.062 31.4375C104.771 30.6875 105.396 29.9583 105.938 29.25C106.521 28.5417 106.854 27.8542 106.938 27.1875C106.896 26.8542 106.812 26.125 106.688 25C106.604 23.875 106.479 22.5833 106.312 21.125C106.146 19.625 105.979 18.0417 105.812 16.375C105.688 14.7083 105.542 13.125 105.375 11.625C105.208 10.125 105.062 8.83333 104.938 7.75C104.854 6.625 104.792 5.875 104.75 5.5C104.708 4.95833 104.708 4.45833 104.75 4C104.833 3.5 105 3.08333 105.25 2.75C105.5 2.41667 105.833 2.20833 106.25 2.125C106.708 2 107.292 2.0625 108 2.3125C108.208 3.89583 108.417 5.6875 108.625 7.6875C108.833 9.6875 109.062 11.75 109.312 13.875C109.562 16 109.833 18.125 110.125 20.25C110.458 22.375 110.833 24.3542 111.25 26.1875C111.667 25.8542 112.167 25.2917 112.75 24.5C113.333 23.6667 113.958 22.7708 114.625 21.8125C115.292 20.8125 115.979 19.8333 116.688 18.875C117.438 17.875 118.146 17.0833 118.812 16.5C119.479 15.875 120.104 15.5208 120.688 15.4375C121.271 15.3125 121.75 15.625 122.125 16.375C122.167 16.4583 122.188 16.6458 122.188 16.9375C122.188 17.1875 122.167 17.375 122.125 17.5C121.583 19.1667 120.708 20.7083 119.5 22.125C118.333 23.5417 117.125 24.9167 115.875 26.25C114.667 27.5833 113.604 28.9583 112.688 30.375C111.771 31.75 111.292 33.2292 111.25 34.8125C111.625 35.1458 112.167 35.6875 112.875 36.4375L118.312 41.875C119.354 42.875 120.333 43.8542 121.25 44.8125C122.167 45.7292 122.979 46.5625 123.688 47.3125L125.312 48.875C125.562 49.125 125.958 49.5417 126.5 50.125C127.042 50.6667 127.521 51.2708 127.938 51.9375C128.354 52.6042 128.583 53.25 128.625 53.875C128.667 54.5 128.292 55.0208 127.5 55.4375C127.417 55.4792 127.229 55.5 126.938 55.5C126.688 55.5 126.521 55.4792 126.438 55.4375C124.312 52.7708 121.958 50.0833 119.375 47.375C116.833 44.625 114.125 42.25 111.25 40.25C111.208 40.625 111.146 41.2083 111.062 42C110.979 42.7917 110.854 43.6875 110.688 44.6875C110.562 45.6875 110.417 46.75 110.25 47.875C110.125 48.9583 109.979 50 109.812 51C109.646 52 109.5 52.8958 109.375 53.6875C109.25 54.4792 109.146 55.0625 109.062 55.4375C109.021 55.6458 108.896 55.9792 108.688 56.4375C108.521 56.8542 108.292 57.2708 108 57.6875C107.708 58.1042 107.375 58.4375 107 58.6875C106.625 58.8958 106.229 58.8958 105.812 58.6875C105.812 58.5208 105.792 58.25 105.75 57.875C105.75 57.4583 105.75 57.0208 105.75 56.5625C105.75 56.0625 105.75 55.6042 105.75 55.1875C105.792 54.7708 105.812 54.4792 105.812 54.3125ZM180.125 54.3125C179.208 52.7708 178.5 51.0417 178 49.125C177.5 47.1667 177.146 45.1667 176.938 43.125C176.729 41.0833 176.625 39.0625 176.625 37.0625C176.667 35.0625 176.729 33.2292 176.812 31.5625C176.229 31.3958 175.562 31.4375 174.812 31.6875C174.062 31.9375 173.271 32.2708 172.438 32.6875C171.604 33.0625 170.75 33.4792 169.875 33.9375C169 34.3958 168.188 34.7292 167.438 34.9375C166.688 35.1458 166 35.1875 165.375 35.0625C164.75 34.9375 164.25 34.5 163.875 33.75C163.5 33.0417 163.521 32.4792 163.938 32.0625C164.396 31.6458 165.042 31.3333 165.875 31.125C166.75 30.875 167.75 30.7083 168.875 30.625C170 30.5 171.062 30.3542 172.062 30.1875C173.062 30.0208 173.917 29.8125 174.625 29.5625C175.333 29.2708 175.708 28.8542 175.75 28.3125L177.938 4.5C177.979 4.125 178.167 3.83333 178.5 3.625C178.875 3.41667 179.25 3.3125 179.625 3.3125C180.042 3.3125 180.396 3.41667 180.688 3.625C181.021 3.79167 181.188 4.08333 181.188 4.5V25.0625C181.771 25.1875 182.333 25.1875 182.875 25.0625C183.417 24.8958 183.958 24.7083 184.5 24.5C185.042 24.2917 185.562 24.125 186.062 24C186.604 23.875 187.167 23.875 187.75 24C188 24.4583 187.958 24.8958 187.625 25.3125C187.292 25.6875 186.958 25.9792 186.625 26.1875L185.5 26.875C185 27.1667 184.458 27.5 183.875 27.875C183.333 28.2083 182.792 28.5208 182.25 28.8125C181.75 29.1042 181.396 29.2917 181.188 29.375C181.146 29.9583 181.104 30.9792 181.062 32.4375C181.062 33.8542 181.062 35.375 181.062 37C181.062 38.625 181.062 40.1667 181.062 41.625C181.104 43.0417 181.146 44.0417 181.188 44.625C181.354 46.5833 181.729 48.375 182.312 50C182.896 51.625 183.688 52.8958 184.688 53.8125C185.688 54.7292 186.875 55.1875 188.25 55.1875C189.667 55.1875 191.312 54.5417 193.188 53.25C193.479 54.2083 193.458 55.0625 193.125 55.8125C192.792 56.5625 192.25 57.1667 191.5 57.625C190.75 58.0417 189.854 58.3125 188.812 58.4375C187.771 58.5625 186.708 58.5 185.625 58.25C184.583 58 183.562 57.5625 182.562 56.9375C181.562 56.2708 180.75 55.3958 180.125 54.3125ZM196.375 55.4375C195.333 53.8958 194.708 52.1875 194.5 50.3125C194.292 48.3958 194.292 46.3958 194.5 44.3125C194.708 42.2292 195.042 40.125 195.5 38C195.958 35.875 196.354 33.8333 196.688 31.875C197.021 29.875 197.208 28.0208 197.25 26.3125C197.292 24.5625 197 23.0625 196.375 21.8125C196.042 21.1458 195.583 20.8333 195 20.875C194.458 20.875 193.854 20.9583 193.188 21.125C192.562 21.25 191.917 21.2917 191.25 21.25C190.625 21.2083 190.062 20.8125 189.562 20.0625C189.604 19.8958 189.771 19.6875 190.062 19.4375C190.312 19.1458 190.5 18.9792 190.625 18.9375C194.375 18.3958 197.5 18.7917 200 20.125C202.542 21.4167 204.562 23.2708 206.062 25.6875C207.562 28.0625 208.583 30.7917 209.125 33.875C209.708 36.9583 209.917 40.0208 209.75 43.0625C209.583 46.1042 209.104 48.9375 208.312 51.5625C207.521 54.1458 206.521 56.1458 205.312 57.5625C204.104 58.9792 202.729 59.6042 201.188 59.4375C199.646 59.2708 198.042 57.9375 196.375 55.4375ZM199.625 53.25C199.667 53.375 199.792 53.5417 200 53.75C200.208 53.9583 200.417 54.1875 200.625 54.4375C200.875 54.6875 201.104 54.9167 201.312 55.125C201.521 55.2917 201.667 55.3958 201.75 55.4375C203.292 54.5625 204.438 53.375 205.188 51.875C205.938 50.375 206.375 48.7083 206.5 46.875C206.667 45.0417 206.583 43.125 206.25 41.125C205.958 39.0833 205.521 37.125 204.938 35.25C204.354 33.375 203.667 31.6458 202.875 30.0625C202.125 28.4792 201.396 27.1875 200.688 26.1875C200.646 26.7292 200.562 27.5625 200.438 28.6875C200.312 29.8125 200.188 31.0833 200.062 32.5C199.938 33.9167 199.792 35.4167 199.625 37C199.458 38.5833 199.292 40.1042 199.125 41.5625C199 42.9792 198.875 44.25 198.75 45.375C198.625 46.5 198.542 47.3333 198.5 47.875C198.458 48.2917 198.458 48.7708 198.5 49.3125C198.583 49.8125 198.688 50.3125 198.812 50.8125C198.938 51.3125 199.062 51.7917 199.188 52.25C199.354 52.6667 199.5 53 199.625 53.25ZM248.438 57.625C247.438 56.875 246.688 55.8333 246.188 54.5C245.729 53.125 245.479 51.8542 245.438 50.6875C245.438 49.4792 245.604 48.5625 245.938 47.9375C246.271 47.2708 246.729 47.25 247.312 47.875C247.229 50.125 247.646 51.8333 248.562 53C249.479 54.1667 250.583 54.8958 251.875 55.1875C253.208 55.4792 254.604 55.3958 256.062 54.9375C257.562 54.4792 258.833 53.7708 259.875 52.8125C260.958 51.8125 261.688 50.6042 262.062 49.1875C262.479 47.7708 262.271 46.25 261.438 44.625C260.354 43.4167 259.125 42.25 257.75 41.125C256.417 39.9583 255.062 38.8125 253.688 37.6875C252.312 36.5625 250.979 35.4167 249.688 34.25C248.396 33.0417 247.25 31.7708 246.25 30.4375C246.167 30.3542 246.125 30.1875 246.125 29.9375C246.125 29.6458 246.167 29.4583 246.25 29.375C246.542 29 246.958 28.4167 247.5 27.625C248.042 26.8333 248.667 25.9375 249.375 24.9375C250.083 23.9375 250.833 22.8958 251.625 21.8125C252.417 20.6875 253.167 19.625 253.875 18.625C254.583 17.625 255.208 16.7292 255.75 15.9375C256.333 15.1458 256.771 14.5625 257.062 14.1875C257.646 13.4375 258.229 13 258.812 12.875C259.438 12.75 260.312 12.8333 261.438 13.125C261.396 13.2917 261.229 13.6667 260.938 14.25C260.646 14.7917 260.438 15.1458 260.312 15.3125C259.979 15.8125 259.354 16.6875 258.438 17.9375C257.521 19.1458 256.542 20.4583 255.5 21.875C254.458 23.25 253.479 24.5625 252.562 25.8125C251.646 27.0208 251 27.8542 250.625 28.3125C250.292 28.8125 250.417 29.3958 251 30.0625C251.583 30.7292 252.417 31.4792 253.5 32.3125C254.583 33.1458 255.812 34.0833 257.188 35.125C258.562 36.125 259.854 37.2083 261.062 38.375C262.312 39.5417 263.354 40.7917 264.188 42.125C265.062 43.4583 265.521 44.8958 265.562 46.4375C265.646 47.9375 265.208 49.5208 264.25 51.1875C263.333 52.8542 261.667 54.625 259.25 56.5C258.5 57.0833 257.667 57.5833 256.75 58C255.875 58.4167 254.958 58.6875 254 58.8125C253.042 58.9792 252.083 58.9792 251.125 58.8125C250.167 58.6458 249.271 58.25 248.438 57.625ZM273.375 56.5C273.75 52.0833 273.833 47.8542 273.625 43.8125C273.458 39.7708 273.125 35.75 272.625 31.75C272.125 27.75 271.542 23.6875 270.875 19.5625C270.208 15.4375 269.604 11.1042 269.062 6.5625C269.062 6.4375 269.042 6.22917 269 5.9375C269 5.64583 269 5.33333 269 5C269 4.625 269 4.29167 269 4C269.042 3.70833 269.062 3.5 269.062 3.375H271.25C271.375 4.125 271.562 5.29167 271.812 6.875C272.104 8.45833 272.417 10.25 272.75 12.25C273.125 14.25 273.5 16.3542 273.875 18.5625C274.292 20.7708 274.667 22.875 275 24.875C275.375 26.875 275.708 28.6667 276 30.25C276.292 31.8333 276.521 33 276.688 33.75C276.688 33.875 276.729 34.1042 276.812 34.4375C276.938 34.7292 277.042 35.0417 277.125 35.375C277.25 35.7083 277.354 36.0417 277.438 36.375C277.562 36.6667 277.667 36.875 277.75 37C277.875 36.6667 278.125 36.1042 278.5 35.3125C278.917 34.4792 279.354 33.6042 279.812 32.6875C280.271 31.7292 280.708 30.8542 281.125 30.0625C281.542 29.2292 281.854 28.6458 282.062 28.3125C282.729 27.1042 283.583 26 284.625 25C285.667 24 286.688 23.375 287.688 23.125C288.688 22.875 289.562 23.125 290.312 23.875C291.104 24.5833 291.604 26.0625 291.812 28.3125C291.854 28.8542 291.896 29.6875 291.938 30.8125C292.021 31.9375 292.104 33.2292 292.188 34.6875C292.271 36.1042 292.354 37.6042 292.438 39.1875C292.521 40.7708 292.583 42.2708 292.625 43.6875C292.708 45.1042 292.771 46.375 292.812 47.5C292.896 48.625 292.938 49.4583 292.938 50C293.396 50.5833 293.729 51.2708 293.938 52.0625C294.188 52.8125 294.208 53.5625 294 54.3125C293.167 54.6042 292.458 54.5833 291.875 54.25C291.292 53.9167 290.792 53.4583 290.375 52.875C289.958 52.25 289.604 51.5625 289.312 50.8125C289.021 50.0625 288.771 49.4167 288.562 48.875C288.646 47.2917 288.708 45.5833 288.75 43.75C288.792 41.9167 288.771 40.0625 288.688 38.1875C288.646 36.2708 288.521 34.375 288.312 32.5C288.146 30.625 287.875 28.8542 287.5 27.1875C286.75 26.8125 286.042 26.9583 285.375 27.625C284.75 28.2917 284.146 29.3125 283.562 30.6875C283.021 32.0208 282.5 33.6042 282 35.4375C281.5 37.2708 281.021 39.2083 280.562 41.25C280.104 43.25 279.646 45.25 279.188 47.25C278.771 49.25 278.354 51.0625 277.938 52.6875C277.562 54.3125 277.167 55.6667 276.75 56.75C276.375 57.8333 275.979 58.4792 275.562 58.6875L273.375 56.5ZM298.875 57.625C298.042 55.875 297.583 54.1042 297.5 52.3125C297.458 50.5208 297.562 48.6875 297.812 46.8125C297.854 46.2292 297.958 45.3542 298.125 44.1875C298.292 43.0208 298.479 41.7292 298.688 40.3125C298.896 38.8958 299.125 37.3958 299.375 35.8125C299.625 34.2292 299.854 32.7292 300.062 31.3125C300.271 29.8958 300.458 28.6458 300.625 27.5625C300.833 26.4375 300.979 25.6042 301.062 25.0625C301.396 23.3125 301.75 21.8333 302.125 20.625C302.542 19.375 303.083 18.4167 303.75 17.75C304.458 17.0833 305.354 16.7292 306.438 16.6875C307.562 16.6458 309 16.9167 310.75 17.5C310.958 17.5417 311.188 17.7083 311.438 18C311.688 18.25 311.833 18.4375 311.875 18.5625C311.958 19.1042 312.104 19.9375 312.312 21.0625C312.562 22.1875 312.833 23.4792 313.125 24.9375C313.417 26.3542 313.708 27.8542 314 29.4375C314.333 30.9792 314.646 32.4792 314.938 33.9375C315.229 35.3542 315.479 36.625 315.688 37.75C315.938 38.875 316.125 39.7083 316.25 40.25C316.875 43.2083 317.646 45.2708 318.562 46.4375C319.479 47.5625 320.458 48.1458 321.5 48.1875C322.542 48.2292 323.604 47.8958 324.688 47.1875C325.812 46.4375 326.917 45.6667 328 44.875C329.083 44.0417 330.104 43.3333 331.062 42.75C332.021 42.1667 332.854 42.0625 333.562 42.4375C333.562 43.2292 333.375 44 333 44.75C332.625 45.5 332.167 46.2083 331.625 46.875C331.125 47.5 330.562 48.0833 329.938 48.625C329.312 49.1667 328.729 49.625 328.188 50C325.854 51.5417 323.896 52.3542 322.312 52.4375C320.771 52.5208 319.458 52.1667 318.375 51.375C317.292 50.5833 316.417 49.5 315.75 48.125C315.083 46.75 314.479 45.3542 313.938 43.9375C313.438 42.5208 312.938 41.2708 312.438 40.1875C311.979 39.0625 311.417 38.3542 310.75 38.0625C310.625 38.6042 310.354 39.5417 309.938 40.875C309.562 42.2083 309.146 43.625 308.688 45.125C308.229 46.625 307.792 48.0417 307.375 49.375C306.958 50.7083 306.667 51.6458 306.5 52.1875C306.417 52.3958 306.229 52.7917 305.938 53.375C305.688 53.9583 305.354 54.6042 304.938 55.3125C304.521 55.9792 304.042 56.6458 303.5 57.3125C303 57.9375 302.479 58.4167 301.938 58.75C301.396 59.125 300.854 59.25 300.312 59.125C299.771 59 299.292 58.5 298.875 57.625ZM302.125 39.1875C302.042 39.6875 301.979 40.6042 301.938 41.9375C301.938 43.2708 301.938 44.6875 301.938 46.1875C301.938 47.6875 301.938 49.1042 301.938 50.4375C301.979 51.7708 302.042 52.7083 302.125 53.25C303.583 51.0417 304.896 48.4792 306.062 45.5625C307.229 42.6042 308.104 39.5625 308.688 36.4375C309.312 33.2708 309.562 30.1458 309.438 27.0625C309.312 23.9375 308.688 21.1042 307.562 18.5625C306.854 19.8542 306.188 21.4792 305.562 23.4375C304.938 25.3958 304.396 27.3958 303.938 29.4375C303.479 31.4375 303.083 33.3333 302.75 35.125C302.458 36.875 302.25 38.2292 302.125 39.1875ZM334.062 58C333.396 59.375 332.833 60.0625 332.375 60.0625C331.917 60.1042 331.521 59.6458 331.188 58.6875C330.896 57.7708 330.646 56.4583 330.438 54.75C330.271 53.0417 330.146 51.1458 330.062 49.0625C330.021 46.9792 330.021 44.7917 330.062 42.5C330.104 40.2083 330.167 38 330.25 35.875C330.375 33.75 330.521 31.8125 330.688 30.0625C330.854 28.2708 331.021 26.875 331.188 25.875C331.396 24.8333 331.604 24.2708 331.812 24.1875C332.021 24.1042 332.229 24.6667 332.438 25.875C333.771 24.875 335.208 23.9375 336.75 23.0625C338.292 22.1458 339.875 21.3958 341.5 20.8125C343.167 20.1875 344.833 19.7917 346.5 19.625C348.208 19.4583 349.854 19.6042 351.438 20.0625C351.604 20.6042 351.625 21.2292 351.5 21.9375C351.375 22.6458 350.979 23.1042 350.312 23.3125C349.646 23.1875 348.771 23.125 347.688 23.125C346.604 23.125 345.458 23.2083 344.25 23.375C343.042 23.5417 341.833 23.8125 340.625 24.1875C339.417 24.5625 338.312 25.0625 337.312 25.6875C336.354 26.2708 335.562 27 334.938 27.875C334.354 28.7083 334.062 29.7083 334.062 30.875V58ZM367.25 57.625C365.5 56.25 364.104 54.6458 363.062 52.8125C362.062 50.9375 361.292 48.9375 360.75 46.8125C360.5 47.0208 360.125 47.25 359.625 47.5C359.125 47.75 358.604 47.9583 358.062 48.125C357.562 48.2917 357.062 48.4167 356.562 48.5C356.062 48.5417 355.688 48.4792 355.438 48.3125C355.229 48.1458 355.167 47.875 355.25 47.5C355.375 47.0833 355.771 46.4792 356.438 45.6875C356.521 45.5625 356.771 45.2917 357.188 44.875C357.646 44.4583 358.125 44.0208 358.625 43.5625C359.125 43.0625 359.583 42.6042 360 42.1875C360.417 41.7292 360.667 41.4375 360.75 41.3125C361.208 40.2708 361.479 39.125 361.562 37.875C361.688 36.625 361.75 35.3333 361.75 34C361.792 32.625 361.875 31.2708 362 29.9375C362.125 28.6042 362.438 27.3542 362.938 26.1875C363.229 25.5208 363.771 24.7083 364.562 23.75C365.396 22.75 366.312 21.7917 367.312 20.875C368.354 19.9583 369.396 19.1458 370.438 18.4375C371.521 17.6875 372.438 17.2292 373.188 17.0625C373.979 16.8958 374.542 17.0833 374.875 17.625C375.25 18.1667 375.25 19.2083 374.875 20.75C374.417 22.5833 373.708 24.375 372.75 26.125C371.833 27.8333 370.875 29.5417 369.875 31.25C368.875 32.9167 367.917 34.5833 367 36.25C366.125 37.9167 365.5 39.6042 365.125 41.3125C364.917 42.2292 364.812 43.3542 364.812 44.6875C364.812 45.9792 364.958 47.2708 365.25 48.5625C365.542 49.8542 366.021 51.0417 366.688 52.125C367.354 53.1667 368.271 53.8958 369.438 54.3125C370.771 54.8125 372.104 54.9375 373.438 54.6875C374.771 54.4375 376.062 53.9583 377.312 53.25C378.604 52.5417 379.833 51.6667 381 50.625C382.167 49.5417 383.25 48.4375 384.25 47.3125C385.25 46.1875 386.146 45.1042 386.938 44.0625C387.729 42.9792 388.396 42.0625 388.938 41.3125L390 42.4375C390.292 42.6875 390.104 43.3958 389.438 44.5625C388.812 45.7292 387.875 47.0625 386.625 48.5625C385.417 50.0208 383.979 51.5208 382.312 53.0625C380.646 54.6042 378.917 55.8958 377.125 56.9375C375.375 57.9792 373.625 58.625 371.875 58.875C370.167 59.125 368.625 58.7083 367.25 57.625ZM365.125 30.4375C365.083 30.6458 365.042 31.0208 365 31.5625C365 32.0625 365 32.6042 365 33.1875C365 33.7708 365 34.3125 365 34.8125C365.042 35.3125 365.083 35.6667 365.125 35.875C366.458 33.5833 367.708 31.1458 368.875 28.5625C370.042 25.9792 370.958 23.375 371.625 20.75C370.667 21.0833 369.792 21.6042 369 22.3125C368.25 22.9792 367.604 23.7708 367.062 24.6875C366.521 25.5625 366.083 26.5 365.75 27.5C365.458 28.5 365.25 29.4792 365.125 30.4375ZM423.875 90.125C423.042 89.5833 422.354 88.7292 421.812 87.5625C421.271 86.4375 420.833 85.2292 420.5 83.9375C420.167 82.6458 419.917 81.375 419.75 80.125C419.625 78.875 419.542 77.875 419.5 77.125C419.333 73.5417 419.271 69.75 419.312 65.75C419.396 61.7917 419.771 57.8542 420.438 53.9375C421.104 49.9792 422.125 46.1875 423.5 42.5625C424.917 38.8958 426.854 35.5833 429.312 32.625C430.604 31.0833 431.854 29.6875 433.062 28.4375C434.312 27.1458 435.604 26 436.938 25C438.312 24 439.771 23.1458 441.312 22.4375C442.896 21.6875 444.667 21.1042 446.625 20.6875C448.417 20.3125 449.771 20.5 450.688 21.25C451.646 22 452.271 23.125 452.562 24.625C452.854 26.0833 452.854 27.8333 452.562 29.875C452.271 31.875 451.771 33.9583 451.062 36.125C450.354 38.25 449.479 40.3333 448.438 42.375C447.438 44.4167 446.354 46.2083 445.188 47.75C444.021 49.2917 442.812 50.5 441.562 51.375C440.312 52.2083 439.104 52.4792 437.938 52.1875C437.771 51.8958 437.958 51.2083 438.5 50.125C439.042 49.0417 439.75 47.7083 440.625 46.125C441.542 44.5417 442.521 42.7917 443.562 40.875C444.646 38.9167 445.604 36.9375 446.438 34.9375C447.312 32.9375 447.979 30.9792 448.438 29.0625C448.938 27.1458 449.062 25.4375 448.812 23.9375C448.688 23.2708 448.312 22.875 447.688 22.75C447.062 22.625 446.375 22.6458 445.625 22.8125C444.917 22.9792 444.229 23.1875 443.562 23.4375C442.896 23.6875 442.479 23.8542 442.312 23.9375C439.146 25.3125 436.396 27.3125 434.062 29.9375C431.771 32.5208 429.833 35.5 428.25 38.875C426.667 42.2083 425.417 45.7708 424.5 49.5625C423.625 53.3542 423 57.0833 422.625 60.75C422.25 64.4583 422.104 67.9792 422.188 71.3125C422.271 74.6875 422.542 77.5833 423 80C423.458 82.4583 424.042 84.3125 424.75 85.5625C425.458 86.8542 426.25 87.2917 427.125 86.875C427.208 86.8333 427.375 86.6667 427.625 86.375C427.917 86.0833 428.104 85.875 428.188 85.75C428.771 84 429.25 82.0833 429.625 80C430 77.9167 430.271 75.75 430.438 73.5C430.646 71.25 430.771 68.9792 430.812 66.6875C430.854 64.3958 430.854 62.1667 430.812 60C430.771 57.875 430.688 55.8542 430.562 53.9375C430.479 52.0208 430.396 50.3333 430.312 48.875C430.188 48.5833 430.083 48.0417 430 47.25C429.958 46.4583 429.917 45.6042 429.875 44.6875C429.875 43.7708 429.896 42.875 429.938 42C430.021 41.0833 430.167 40.3958 430.375 39.9375C430.583 39.4792 430.854 39.3125 431.188 39.4375C431.521 39.5625 431.958 40.1667 432.5 41.25C432.583 41.7917 432.667 42.7292 432.75 44.0625C432.875 45.3958 433 46.8333 433.125 48.375C433.25 49.875 433.354 51.2917 433.438 52.625C433.521 53.9583 433.562 54.8958 433.562 55.4375C433.604 56.0208 433.625 56.8333 433.625 57.875C433.667 58.875 433.688 59.9583 433.688 61.125V68.3125C433.688 69.3958 433.667 70.3333 433.625 71.125C433.625 71.9583 433.604 72.5 433.562 72.75C433.562 73.125 433.458 73.8542 433.25 74.9375C433.083 76.0625 432.896 77.25 432.688 78.5C432.479 79.7917 432.25 81.0208 432 82.1875C431.75 83.3542 431.562 84.1875 431.438 84.6875C431.188 85.5625 430.833 86.4583 430.375 87.375C429.917 88.2917 429.354 89.0625 428.688 89.6875C428.062 90.3125 427.333 90.6875 426.5 90.8125C425.708 90.9792 424.833 90.75 423.875 90.125ZM460.438 58C459.771 59.375 459.208 60.0625 458.75 60.0625C458.292 60.1042 457.896 59.6458 457.562 58.6875C457.271 57.7708 457.021 56.4583 456.812 54.75C456.646 53.0417 456.521 51.1458 456.438 49.0625C456.396 46.9792 456.396 44.7917 456.438 42.5C456.479 40.2083 456.542 38 456.625 35.875C456.75 33.75 456.896 31.8125 457.062 30.0625C457.229 28.2708 457.396 26.875 457.562 25.875C457.771 24.8333 457.979 24.2708 458.188 24.1875C458.396 24.1042 458.604 24.6667 458.812 25.875C460.146 24.875 461.583 23.9375 463.125 23.0625C464.667 22.1458 466.25 21.3958 467.875 20.8125C469.542 20.1875 471.208 19.7917 472.875 19.625C474.583 19.4583 476.229 19.6042 477.812 20.0625C477.979 20.6042 478 21.2292 477.875 21.9375C477.75 22.6458 477.354 23.1042 476.688 23.3125C476.021 23.1875 475.146 23.125 474.062 23.125C472.979 23.125 471.833 23.2083 470.625 23.375C469.417 23.5417 468.208 23.8125 467 24.1875C465.792 24.5625 464.688 25.0625 463.688 25.6875C462.729 26.2708 461.938 27 461.312 27.875C460.729 28.7083 460.438 29.7083 460.438 30.875V58ZM486.938 55.4375C485.896 53.8958 485.271 52.1875 485.062 50.3125C484.854 48.3958 484.854 46.3958 485.062 44.3125C485.271 42.2292 485.604 40.125 486.062 38C486.521 35.875 486.917 33.8333 487.25 31.875C487.583 29.875 487.771 28.0208 487.812 26.3125C487.854 24.5625 487.562 23.0625 486.938 21.8125C486.604 21.1458 486.146 20.8333 485.562 20.875C485.021 20.875 484.417 20.9583 483.75 21.125C483.125 21.25 482.479 21.2917 481.812 21.25C481.188 21.2083 480.625 20.8125 480.125 20.0625C480.167 19.8958 480.333 19.6875 480.625 19.4375C480.875 19.1458 481.062 18.9792 481.188 18.9375C484.938 18.3958 488.062 18.7917 490.562 20.125C493.104 21.4167 495.125 23.2708 496.625 25.6875C498.125 28.0625 499.146 30.7917 499.688 33.875C500.271 36.9583 500.479 40.0208 500.312 43.0625C500.146 46.1042 499.667 48.9375 498.875 51.5625C498.083 54.1458 497.083 56.1458 495.875 57.5625C494.667 58.9792 493.292 59.6042 491.75 59.4375C490.208 59.2708 488.604 57.9375 486.938 55.4375ZM490.188 53.25C490.229 53.375 490.354 53.5417 490.562 53.75C490.771 53.9583 490.979 54.1875 491.188 54.4375C491.438 54.6875 491.667 54.9167 491.875 55.125C492.083 55.2917 492.229 55.3958 492.312 55.4375C493.854 54.5625 495 53.375 495.75 51.875C496.5 50.375 496.938 48.7083 497.062 46.875C497.229 45.0417 497.146 43.125 496.812 41.125C496.521 39.0833 496.083 37.125 495.5 35.25C494.917 33.375 494.229 31.6458 493.438 30.0625C492.688 28.4792 491.958 27.1875 491.25 26.1875C491.208 26.7292 491.125 27.5625 491 28.6875C490.875 29.8125 490.75 31.0833 490.625 32.5C490.5 33.9167 490.354 35.4167 490.188 37C490.021 38.5833 489.854 40.1042 489.688 41.5625C489.562 42.9792 489.438 44.25 489.312 45.375C489.188 46.5 489.104 47.3333 489.062 47.875C489.021 48.2917 489.021 48.7708 489.062 49.3125C489.146 49.8125 489.25 50.3125 489.375 50.8125C489.5 51.3125 489.625 51.7917 489.75 52.25C489.917 52.6667 490.062 53 490.188 53.25ZM520 54.3125C519.083 52.7708 518.375 51.0417 517.875 49.125C517.375 47.1667 517.021 45.1667 516.812 43.125C516.604 41.0833 516.5 39.0625 516.5 37.0625C516.542 35.0625 516.604 33.2292 516.688 31.5625C516.104 31.3958 515.438 31.4375 514.688 31.6875C513.938 31.9375 513.146 32.2708 512.312 32.6875C511.479 33.0625 510.625 33.4792 509.75 33.9375C508.875 34.3958 508.062 34.7292 507.312 34.9375C506.562 35.1458 505.875 35.1875 505.25 35.0625C504.625 34.9375 504.125 34.5 503.75 33.75C503.375 33.0417 503.396 32.4792 503.812 32.0625C504.271 31.6458 504.917 31.3333 505.75 31.125C506.625 30.875 507.625 30.7083 508.75 30.625C509.875 30.5 510.938 30.3542 511.938 30.1875C512.938 30.0208 513.792 29.8125 514.5 29.5625C515.208 29.2708 515.583 28.8542 515.625 28.3125L517.812 4.5C517.854 4.125 518.042 3.83333 518.375 3.625C518.75 3.41667 519.125 3.3125 519.5 3.3125C519.917 3.3125 520.271 3.41667 520.562 3.625C520.896 3.79167 521.062 4.08333 521.062 4.5V25.0625C521.646 25.1875 522.208 25.1875 522.75 25.0625C523.292 24.8958 523.833 24.7083 524.375 24.5C524.917 24.2917 525.438 24.125 525.938 24C526.479 23.875 527.042 23.875 527.625 24C527.875 24.4583 527.833 24.8958 527.5 25.3125C527.167 25.6875 526.833 25.9792 526.5 26.1875L525.375 26.875C524.875 27.1667 524.333 27.5 523.75 27.875C523.208 28.2083 522.667 28.5208 522.125 28.8125C521.625 29.1042 521.271 29.2917 521.062 29.375C521.021 29.9583 520.979 30.9792 520.938 32.4375C520.938 33.8542 520.938 35.375 520.938 37C520.938 38.625 520.938 40.1667 520.938 41.625C520.979 43.0417 521.021 44.0417 521.062 44.625C521.229 46.5833 521.604 48.375 522.188 50C522.771 51.625 523.562 52.8958 524.562 53.8125C525.562 54.7292 526.75 55.1875 528.125 55.1875C529.542 55.1875 531.188 54.5417 533.062 53.25C533.354 54.2083 533.333 55.0625 533 55.8125C532.667 56.5625 532.125 57.1667 531.375 57.625C530.625 58.0417 529.729 58.3125 528.688 58.4375C527.646 58.5625 526.583 58.5 525.5 58.25C524.458 58 523.438 57.5625 522.438 56.9375C521.438 56.2708 520.625 55.3958 520 54.3125ZM536.25 55.4375C535.208 53.8958 534.583 52.1875 534.375 50.3125C534.167 48.3958 534.167 46.3958 534.375 44.3125C534.583 42.2292 534.917 40.125 535.375 38C535.833 35.875 536.229 33.8333 536.562 31.875C536.896 29.875 537.083 28.0208 537.125 26.3125C537.167 24.5625 536.875 23.0625 536.25 21.8125C535.917 21.1458 535.458 20.8333 534.875 20.875C534.333 20.875 533.729 20.9583 533.062 21.125C532.438 21.25 531.792 21.2917 531.125 21.25C530.5 21.2083 529.938 20.8125 529.438 20.0625C529.479 19.8958 529.646 19.6875 529.938 19.4375C530.188 19.1458 530.375 18.9792 530.5 18.9375C534.25 18.3958 537.375 18.7917 539.875 20.125C542.417 21.4167 544.438 23.2708 545.938 25.6875C547.438 28.0625 548.458 30.7917 549 33.875C549.583 36.9583 549.792 40.0208 549.625 43.0625C549.458 46.1042 548.979 48.9375 548.188 51.5625C547.396 54.1458 546.396 56.1458 545.188 57.5625C543.979 58.9792 542.604 59.6042 541.062 59.4375C539.521 59.2708 537.917 57.9375 536.25 55.4375ZM539.5 53.25C539.542 53.375 539.667 53.5417 539.875 53.75C540.083 53.9583 540.292 54.1875 540.5 54.4375C540.75 54.6875 540.979 54.9167 541.188 55.125C541.396 55.2917 541.542 55.3958 541.625 55.4375C543.167 54.5625 544.312 53.375 545.062 51.875C545.812 50.375 546.25 48.7083 546.375 46.875C546.542 45.0417 546.458 43.125 546.125 41.125C545.833 39.0833 545.396 37.125 544.812 35.25C544.229 33.375 543.542 31.6458 542.75 30.0625C542 28.4792 541.271 27.1875 540.562 26.1875C540.521 26.7292 540.438 27.5625 540.312 28.6875C540.188 29.8125 540.062 31.0833 539.938 32.5C539.812 33.9167 539.667 35.4167 539.5 37C539.333 38.5833 539.167 40.1042 539 41.5625C538.875 42.9792 538.75 44.25 538.625 45.375C538.5 46.5 538.417 47.3333 538.375 47.875C538.333 48.2917 538.333 48.7708 538.375 49.3125C538.458 49.8125 538.562 50.3125 538.688 50.8125C538.812 51.3125 538.938 51.7917 539.062 52.25C539.229 52.6667 539.375 53 539.5 53.25ZM569.312 54.3125C568.396 52.7708 567.688 51.0417 567.188 49.125C566.688 47.1667 566.333 45.1667 566.125 43.125C565.917 41.0833 565.812 39.0625 565.812 37.0625C565.854 35.0625 565.917 33.2292 566 31.5625C565.417 31.3958 564.75 31.4375 564 31.6875C563.25 31.9375 562.458 32.2708 561.625 32.6875C560.792 33.0625 559.938 33.4792 559.062 33.9375C558.188 34.3958 557.375 34.7292 556.625 34.9375C555.875 35.1458 555.188 35.1875 554.562 35.0625C553.938 34.9375 553.438 34.5 553.062 33.75C552.688 33.0417 552.708 32.4792 553.125 32.0625C553.583 31.6458 554.229 31.3333 555.062 31.125C555.938 30.875 556.938 30.7083 558.062 30.625C559.188 30.5 560.25 30.3542 561.25 30.1875C562.25 30.0208 563.104 29.8125 563.812 29.5625C564.521 29.2708 564.896 28.8542 564.938 28.3125L567.125 4.5C567.167 4.125 567.354 3.83333 567.688 3.625C568.062 3.41667 568.438 3.3125 568.812 3.3125C569.229 3.3125 569.583 3.41667 569.875 3.625C570.208 3.79167 570.375 4.08333 570.375 4.5V25.0625C570.958 25.1875 571.521 25.1875 572.062 25.0625C572.604 24.8958 573.146 24.7083 573.688 24.5C574.229 24.2917 574.75 24.125 575.25 24C575.792 23.875 576.354 23.875 576.938 24C577.188 24.4583 577.146 24.8958 576.812 25.3125C576.479 25.6875 576.146 25.9792 575.812 26.1875L574.688 26.875C574.188 27.1667 573.646 27.5 573.062 27.875C572.521 28.2083 571.979 28.5208 571.438 28.8125C570.938 29.1042 570.583 29.2917 570.375 29.375C570.333 29.9583 570.292 30.9792 570.25 32.4375C570.25 33.8542 570.25 35.375 570.25 37C570.25 38.625 570.25 40.1667 570.25 41.625C570.292 43.0417 570.333 44.0417 570.375 44.625C570.542 46.5833 570.917 48.375 571.5 50C572.083 51.625 572.875 52.8958 573.875 53.8125C574.875 54.7292 576.062 55.1875 577.438 55.1875C578.854 55.1875 580.5 54.5417 582.375 53.25C582.667 54.2083 582.646 55.0625 582.312 55.8125C581.979 56.5625 581.438 57.1667 580.688 57.625C579.938 58.0417 579.042 58.3125 578 58.4375C576.958 58.5625 575.896 58.5 574.812 58.25C573.771 58 572.75 57.5625 571.75 56.9375C570.75 56.2708 569.938 55.3958 569.312 54.3125ZM605.875 77.125C604.833 76.4167 604.104 75.4792 603.688 74.3125C603.312 73.1458 603.146 71.8542 603.188 70.4375C603.229 69.0208 603.438 67.5208 603.812 65.9375C604.188 64.3958 604.625 62.8958 605.125 61.4375C605.625 59.9792 606.146 58.625 606.688 57.375C607.229 56.125 607.688 55.1042 608.062 54.3125C608.229 53.9375 608.5 53.3542 608.875 52.5625C609.25 51.7708 609.688 50.875 610.188 49.875L613.312 43.625C613.812 42.625 614.271 41.7292 614.688 40.9375C615.104 40.1458 615.417 39.5625 615.625 39.1875C615.833 37.2292 615.688 35.6875 615.188 34.5625C614.729 33.4375 614.062 32.6667 613.188 32.25C612.312 31.8333 611.292 31.7292 610.125 31.9375C609 32.1458 607.833 32.5833 606.625 33.25C605.458 33.9167 604.312 34.7708 603.188 35.8125C602.104 36.8125 601.188 37.9375 600.438 39.1875C600.188 39.3958 599.75 39.8958 599.125 40.6875C598.5 41.4375 597.75 42.375 596.875 43.5C596 44.5833 595.021 45.7708 593.938 47.0625C592.896 48.3542 591.812 49.625 590.688 50.875C589.604 52.0833 588.542 53.2083 587.5 54.25C586.458 55.2917 585.479 56.1042 584.562 56.6875C583.688 57.2708 582.917 57.5833 582.25 57.625C581.625 57.6667 581.188 57.2917 580.938 56.5C580.896 56.4583 580.854 56.3333 580.812 56.125C580.812 55.9167 580.812 55.7083 580.812 55.5C580.812 55.25 580.812 55.0208 580.812 54.8125C580.854 54.6042 580.896 54.4375 580.938 54.3125C581.021 53.8958 581.188 53.0208 581.438 51.6875C581.729 50.3542 582.042 48.7917 582.375 47C582.75 45.2083 583.146 43.2917 583.562 41.25C583.979 39.2083 584.354 37.2917 584.688 35.5C585.062 33.7083 585.396 32.1667 585.688 30.875C585.979 29.5417 586.188 28.6667 586.312 28.25C586.396 27.875 586.667 27.375 587.125 26.75C587.583 26.125 588.104 25.6042 588.688 25.1875C589.271 24.7708 589.833 24.5833 590.375 24.625C590.958 24.6667 591.417 25.1458 591.75 26.0625C591.333 26.6875 590.854 27.6667 590.312 29C589.771 30.3333 589.229 31.8333 588.688 33.5C588.188 35.1667 587.688 36.9375 587.188 38.8125C586.688 40.6458 586.25 42.4167 585.875 44.125C585.542 45.8333 585.312 47.4167 585.188 48.875C585.062 50.2917 585.083 51.3958 585.25 52.1875C587 49.8125 588.958 47.2917 591.125 44.625C593.292 41.9583 595.5 39.4375 597.75 37.0625C600 34.6875 602.229 32.625 604.438 30.875C606.688 29.125 608.75 28 610.625 27.5C612.542 27 614.208 27.2917 615.625 28.375C617.083 29.4167 618.167 31.5625 618.875 34.8125L626.5 28.3125H629.75C630.125 29.4792 630.104 30.2708 629.688 30.6875C629.312 31.1042 628.75 31.4375 628 31.6875C627.25 31.8958 626.417 32.1458 625.5 32.4375C624.625 32.6875 623.875 33.2292 623.25 34.0625C622.667 34.8958 622.312 36.125 622.188 37.75C622.062 39.375 622.396 41.6667 623.188 44.625C623.771 46.7083 624.167 48.8542 624.375 51.0625C624.625 53.2708 624.604 55.4583 624.312 57.625C624.188 58.5833 623.854 59.875 623.312 61.5C622.812 63.1667 622.146 64.8958 621.312 66.6875C620.479 68.4792 619.5 70.2292 618.375 71.9375C617.25 73.6458 616.021 75.0625 614.688 76.1875C613.396 77.3125 612 78 610.5 78.25C609 78.5417 607.458 78.1667 605.875 77.125ZM606.938 71.6875C607.271 73.2708 607.812 74.2708 608.562 74.6875C609.354 75.1042 610.25 75.0625 611.25 74.5625C612.25 74.0625 613.292 73.1667 614.375 71.875C615.5 70.5833 616.521 69.0417 617.438 67.25C618.396 65.4583 619.208 63.4583 619.875 61.25C620.542 59.0833 620.938 56.8542 621.062 54.5625C621.229 52.2708 621.062 50 620.562 47.75C620.062 45.4583 619.125 43.3125 617.75 41.3125C616.792 42.0208 615.833 43.1042 614.875 44.5625C613.917 46.0208 613 47.6875 612.125 49.5625C611.292 51.4375 610.5 53.4375 609.75 55.5625C609 57.6458 608.375 59.6875 607.875 61.6875C607.417 63.7292 607.083 65.625 606.875 67.375C606.708 69.125 606.729 70.5625 606.938 71.6875ZM631.812 90.125C630.979 89.5833 630.292 88.7292 629.75 87.5625C629.208 86.4375 628.771 85.2292 628.438 83.9375C628.104 82.6458 627.854 81.375 627.688 80.125C627.562 78.875 627.479 77.875 627.438 77.125C627.271 73.5417 627.208 69.75 627.25 65.75C627.333 61.7917 627.708 57.8542 628.375 53.9375C629.042 49.9792 630.062 46.1875 631.438 42.5625C632.854 38.8958 634.792 35.5833 637.25 32.625C638.542 31.0833 639.792 29.6875 641 28.4375C642.25 27.1458 643.542 26 644.875 25C646.25 24 647.708 23.1458 649.25 22.4375C650.833 21.6875 652.604 21.1042 654.562 20.6875C656.354 20.3125 657.708 20.5 658.625 21.25C659.583 22 660.208 23.125 660.5 24.625C660.792 26.0833 660.792 27.8333 660.5 29.875C660.208 31.875 659.708 33.9583 659 36.125C658.292 38.25 657.417 40.3333 656.375 42.375C655.375 44.4167 654.292 46.2083 653.125 47.75C651.958 49.2917 650.75 50.5 649.5 51.375C648.25 52.2083 647.042 52.4792 645.875 52.1875C645.708 51.8958 645.896 51.2083 646.438 50.125C646.979 49.0417 647.688 47.7083 648.562 46.125C649.479 44.5417 650.458 42.7917 651.5 40.875C652.583 38.9167 653.542 36.9375 654.375 34.9375C655.25 32.9375 655.917 30.9792 656.375 29.0625C656.875 27.1458 657 25.4375 656.75 23.9375C656.625 23.2708 656.25 22.875 655.625 22.75C655 22.625 654.312 22.6458 653.562 22.8125C652.854 22.9792 652.167 23.1875 651.5 23.4375C650.833 23.6875 650.417 23.8542 650.25 23.9375C647.083 25.3125 644.333 27.3125 642 29.9375C639.708 32.5208 637.771 35.5 636.188 38.875C634.604 42.2083 633.354 45.7708 632.438 49.5625C631.562 53.3542 630.938 57.0833 630.562 60.75C630.188 64.4583 630.042 67.9792 630.125 71.3125C630.208 74.6875 630.479 77.5833 630.938 80C631.396 82.4583 631.979 84.3125 632.688 85.5625C633.396 86.8542 634.188 87.2917 635.062 86.875C635.146 86.8333 635.312 86.6667 635.562 86.375C635.854 86.0833 636.042 85.875 636.125 85.75C636.708 84 637.188 82.0833 637.562 80C637.938 77.9167 638.208 75.75 638.375 73.5C638.583 71.25 638.708 68.9792 638.75 66.6875C638.792 64.3958 638.792 62.1667 638.75 60C638.708 57.875 638.625 55.8542 638.5 53.9375C638.417 52.0208 638.333 50.3333 638.25 48.875C638.125 48.5833 638.021 48.0417 637.938 47.25C637.896 46.4583 637.854 45.6042 637.812 44.6875C637.812 43.7708 637.833 42.875 637.875 42C637.958 41.0833 638.104 40.3958 638.312 39.9375C638.521 39.4792 638.792 39.3125 639.125 39.4375C639.458 39.5625 639.896 40.1667 640.438 41.25C640.521 41.7917 640.604 42.7292 640.688 44.0625C640.812 45.3958 640.938 46.8333 641.062 48.375C641.188 49.875 641.292 51.2917 641.375 52.625C641.458 53.9583 641.5 54.8958 641.5 55.4375C641.542 56.0208 641.562 56.8333 641.562 57.875C641.604 58.875 641.625 59.9583 641.625 61.125V68.3125C641.625 69.3958 641.604 70.3333 641.562 71.125C641.562 71.9583 641.542 72.5 641.5 72.75C641.5 73.125 641.396 73.8542 641.188 74.9375C641.021 76.0625 640.833 77.25 640.625 78.5C640.417 79.7917 640.188 81.0208 639.938 82.1875C639.688 83.3542 639.5 84.1875 639.375 84.6875C639.125 85.5625 638.771 86.4583 638.312 87.375C637.854 88.2917 637.292 89.0625 636.625 89.6875C636 90.3125 635.271 90.6875 634.438 90.8125C633.646 90.9792 632.771 90.75 631.812 90.125ZM675.188 57.625C673.438 56.25 672.042 54.6458 671 52.8125C670 50.9375 669.229 48.9375 668.688 46.8125C668.438 47.0208 668.062 47.25 667.562 47.5C667.062 47.75 666.542 47.9583 666 48.125C665.5 48.2917 665 48.4167 664.5 48.5C664 48.5417 663.625 48.4792 663.375 48.3125C663.167 48.1458 663.104 47.875 663.188 47.5C663.312 47.0833 663.708 46.4792 664.375 45.6875C664.458 45.5625 664.708 45.2917 665.125 44.875C665.583 44.4583 666.062 44.0208 666.562 43.5625C667.062 43.0625 667.521 42.6042 667.938 42.1875C668.354 41.7292 668.604 41.4375 668.688 41.3125C669.146 40.2708 669.417 39.125 669.5 37.875C669.625 36.625 669.688 35.3333 669.688 34C669.729 32.625 669.812 31.2708 669.938 29.9375C670.062 28.6042 670.375 27.3542 670.875 26.1875C671.167 25.5208 671.708 24.7083 672.5 23.75C673.333 22.75 674.25 21.7917 675.25 20.875C676.292 19.9583 677.333 19.1458 678.375 18.4375C679.458 17.6875 680.375 17.2292 681.125 17.0625C681.917 16.8958 682.479 17.0833 682.812 17.625C683.188 18.1667 683.188 19.2083 682.812 20.75C682.354 22.5833 681.646 24.375 680.688 26.125C679.771 27.8333 678.812 29.5417 677.812 31.25C676.812 32.9167 675.854 34.5833 674.938 36.25C674.062 37.9167 673.438 39.6042 673.062 41.3125C672.854 42.2292 672.75 43.3542 672.75 44.6875C672.75 45.9792 672.896 47.2708 673.188 48.5625C673.479 49.8542 673.958 51.0417 674.625 52.125C675.292 53.1667 676.208 53.8958 677.375 54.3125C678.708 54.8125 680.042 54.9375 681.375 54.6875C682.708 54.4375 684 53.9583 685.25 53.25C686.542 52.5417 687.771 51.6667 688.938 50.625C690.104 49.5417 691.188 48.4375 692.188 47.3125C693.188 46.1875 694.083 45.1042 694.875 44.0625C695.667 42.9792 696.333 42.0625 696.875 41.3125L697.938 42.4375C698.229 42.6875 698.042 43.3958 697.375 44.5625C696.75 45.7292 695.812 47.0625 694.562 48.5625C693.354 50.0208 691.917 51.5208 690.25 53.0625C688.583 54.6042 686.854 55.8958 685.062 56.9375C683.312 57.9792 681.562 58.625 679.812 58.875C678.104 59.125 676.562 58.7083 675.188 57.625ZM673.062 30.4375C673.021 30.6458 672.979 31.0208 672.938 31.5625C672.938 32.0625 672.938 32.6042 672.938 33.1875C672.938 33.7708 672.938 34.3125 672.938 34.8125C672.979 35.3125 673.021 35.6667 673.062 35.875C674.396 33.5833 675.646 31.1458 676.812 28.5625C677.979 25.9792 678.896 23.375 679.562 20.75C678.604 21.0833 677.729 21.6042 676.938 22.3125C676.188 22.9792 675.542 23.7708 675 24.6875C674.458 25.5625 674.021 26.5 673.688 27.5C673.396 28.5 673.188 29.4792 673.062 30.4375Z" fill="white"/>
<path d="M0 65.0625H416.117V68.25H0V65.0625ZM436.875 65.0625H600.188V68.25H436.875V65.0625ZM644.812 65.0625H694.938V68.25H644.812V65.0625Z" fill="white"/>
<a href="https://www.figma.com/proto/ZPyXcV4AVCC7ZyUB65xZTI/loveyou?page-id=0%3A1&#38;node-id=2-182&#38;p=f&#38;viewport=404%2C835%2C0.4&#38;t=o6uvKSeKu9FD1HKI-1&#38;scaling=scale-down&#38;content-scaling=fixed&#38;starting-point-node-id=2%3A182">
<rect fill="black" fill-opacity="0" y="0.21875" width="694.938" height="130.562"/>
</a>
</svg>
