<svg width="393" height="852" viewBox="0 0 393 852" fill="none" xmlns="http://www.w3.org/2000/svg">
<rect width="393" height="852" fill="#FFE3E3"/>
<g filter="url(#filter0_d_2_182)">
<g clip-path="url(#clip0_2_182)">
<rect x="56" y="334" width="280" height="266" rx="12" fill="#F29F9F"/>
<path d="M109 352C105.571 352 100.429 349.958 98.1429 345.118C97.4099 343.565 97 342.708 97 340C97 337.195 97.9624 334.615 99.5751 332.571C101.188 330.528 104.429 328 109 328C112.27 328 115.519 329.406 117 330.857C119.916 333.714 121 336.642 121 340C121 342.55 120.07 343.771 118.714 345.714C116.546 348.823 114.714 352 109 352Z" fill="#FACAC9"/>
<path d="M158 389C158 392.429 155.958 397.571 151.118 399.857C149.565 400.59 148.708 401 146 401C143.195 401 140.615 400.038 138.571 398.425C136.528 396.812 134 393.571 134 389C134 385.73 135.406 382.481 136.857 381C139.714 378.084 142.642 377 146 377C148.55 377 149.771 377.93 151.714 379.286C154.823 381.454 158 383.286 158 389Z" fill="#FACAC9"/>
<path d="M114 580C114 583.429 111.958 588.571 107.118 590.857C105.565 591.59 104.708 592 102 592C99.1949 592 96.6147 591.038 94.5714 589.425C92.5282 587.812 90 584.571 90 580C90 576.73 91.4061 573.481 92.8571 572C95.7143 569.084 98.6422 568 102 568C104.55 568 105.771 568.93 107.714 570.286C110.823 572.454 114 574.286 114 580Z" fill="#FACAC9"/>
<path d="M259 357C259 360.429 256.958 365.571 252.118 367.857C250.565 368.59 249.708 369 247 369C244.195 369 241.615 368.038 239.571 366.425C237.528 364.812 235 361.571 235 357C235 353.73 236.406 350.481 237.857 349C240.714 346.084 243.642 345 247 345C249.55 345 250.771 345.93 252.714 347.286C255.823 349.454 259 351.286 259 357Z" fill="#FACAC9"/>
<path d="M198 600C198 603.429 195.958 608.571 191.118 610.857C189.565 611.59 188.708 612 186 612C183.195 612 180.615 611.038 178.571 609.425C176.528 607.812 174 604.571 174 600C174 596.73 175.406 593.481 176.857 592C179.714 589.084 182.642 588 186 588C188.55 588 189.771 588.93 191.714 590.286C194.823 592.454 198 594.286 198 600Z" fill="#FACAC9"/>
<path d="M251 573C251 576.429 248.958 581.571 244.118 583.857C242.565 584.59 241.708 585 239 585C236.195 585 233.615 584.038 231.571 582.425C229.528 580.812 227 577.571 227 573C227 569.73 228.406 566.481 229.857 565C232.714 562.084 235.642 561 239 561C241.55 561 242.771 561.93 244.714 563.286C247.823 565.454 251 567.286 251 573Z" fill="#FACAC9"/>
<path d="M198 321C201.429 321 206.571 323.042 208.857 327.882C209.59 329.435 210 330.292 210 333C210 335.805 209.038 338.385 207.425 340.429C205.812 342.472 202.571 345 198 345C194.73 345 191.481 343.594 190 342.143C187.084 339.286 186 336.358 186 333C186 330.45 186.93 329.229 188.286 327.286C190.454 324.177 192.286 321 198 321Z" fill="#FACAC9"/>
<path d="M191 480C191 483.429 188.958 488.571 184.118 490.857C182.565 491.59 181.708 492 179 492C176.195 492 173.615 491.038 171.571 489.425C169.528 487.812 167 484.571 167 480C167 476.73 168.406 473.481 169.857 472C172.714 469.084 175.642 468 179 468C181.55 468 182.771 468.93 184.714 470.286C187.823 472.454 191 474.286 191 480Z" fill="#FACAC9"/>
<path d="M291 452C294.429 452 299.571 454.042 301.857 458.882C302.59 460.435 303 461.292 303 464C303 466.805 302.038 469.385 300.425 471.429C298.812 473.472 295.571 476 291 476C287.73 476 284.481 474.594 283 473.143C280.084 470.286 279 467.358 279 464C279 461.45 279.93 460.229 281.286 458.286C283.454 455.177 285.286 452 291 452Z" fill="#FACAC9"/>
<path d="M327 479C330.429 479 335.571 481.042 337.857 485.882C338.59 487.435 339 488.292 339 491C339 493.805 338.038 496.385 336.425 498.429C334.812 500.472 331.571 503 327 503C323.73 503 320.481 501.594 319 500.143C316.084 497.286 315 494.358 315 491C315 488.45 315.93 487.229 317.286 485.286C319.454 482.177 321.286 479 327 479Z" fill="#FACAC9"/>
<path d="M224 456C220.571 456 215.429 453.958 213.143 449.118C212.41 447.565 212 446.708 212 444C212 441.195 212.962 438.615 214.575 436.571C216.188 434.528 219.429 432 224 432C227.27 432 230.519 433.406 232 434.857C234.916 437.714 236 440.642 236 444C236 446.55 235.07 447.771 233.714 449.714C231.546 452.823 229.714 456 224 456Z" fill="#FACAC9"/>
<path d="M278 411C274.571 411 269.429 408.958 267.143 404.118C266.41 402.565 266 401.708 266 399C266 396.195 266.962 393.615 268.575 391.571C270.188 389.528 273.429 387 278 387C281.27 387 284.519 388.406 286 389.857C288.916 392.714 290 395.642 290 399C290 401.55 289.07 402.771 287.714 404.714C285.546 407.823 283.714 411 278 411Z" fill="#FACAC9"/>
<path d="M203 414C199.571 414 194.429 411.958 192.143 407.118C191.41 405.565 191 404.708 191 402C191 399.195 191.962 396.615 193.575 394.571C195.188 392.528 198.429 390 203 390C206.27 390 209.519 391.406 211 392.857C213.916 395.714 215 398.642 215 402C215 404.55 214.07 405.771 212.714 407.714C210.546 410.823 208.714 414 203 414Z" fill="#FACAC9"/>
<path d="M282 533C282 536.429 279.958 541.571 275.118 543.857C273.565 544.59 272.708 545 270 545C267.195 545 264.615 544.038 262.571 542.425C260.528 540.812 258 537.571 258 533C258 529.73 259.406 526.481 260.857 525C263.714 522.084 266.642 521 270 521C272.55 521 273.771 521.93 275.714 523.286C278.823 525.454 282 527.286 282 533Z" fill="#FACAC9"/>
<path d="M332 570C332 573.429 329.958 578.571 325.118 580.857C323.565 581.59 322.708 582 320 582C317.195 582 314.615 581.038 312.571 579.425C310.528 577.812 308 574.571 308 570C308 566.73 309.406 563.481 310.857 562C313.714 559.084 316.642 558 320 558C322.55 558 323.771 558.93 325.714 560.286C328.823 562.454 332 564.286 332 570Z" fill="#FACAC9"/>
<path d="M90 375C90 378.429 87.9583 383.571 83.1176 385.857C81.5653 386.59 80.7081 387 78 387C75.1949 387 72.6147 386.038 70.5714 384.425C68.5282 382.812 66 379.571 66 375C66 371.73 67.4061 368.481 68.8571 367C71.7143 364.084 74.6422 363 78 363C80.5496 363 81.7706 363.93 83.7143 365.286C86.8231 367.454 90 369.286 90 375Z" fill="#FACAC9"/>
<path d="M236 515C236 518.429 233.958 523.571 229.118 525.857C227.565 526.59 226.708 527 224 527C221.195 527 218.615 526.038 216.571 524.425C214.528 522.812 212 519.571 212 515C212 511.73 213.406 508.481 214.857 507C217.714 504.084 220.642 503 224 503C226.55 503 227.771 503.93 229.714 505.286C232.823 507.454 236 509.286 236 515Z" fill="#FACAC9"/>
<path d="M330 433C326.571 433 321.429 430.958 319.143 426.118C318.41 424.565 318 423.708 318 421C318 418.195 318.962 415.615 320.575 413.571C322.188 411.528 325.429 409 330 409C333.27 409 336.519 410.406 338 411.857C340.916 414.714 342 417.642 342 421C342 423.55 341.07 424.771 339.714 426.714C337.546 429.823 335.714 433 330 433Z" fill="#FACAC9"/>
<path d="M160 527C163.429 527 168.571 529.042 170.857 533.882C171.59 535.435 172 536.292 172 539C172 541.805 171.038 544.385 169.425 546.429C167.812 548.472 164.571 551 160 551C156.73 551 153.481 549.594 152 548.143C149.084 545.286 148 542.358 148 539C148 536.45 148.93 535.229 150.286 533.286C152.454 530.177 154.286 527 160 527Z" fill="#FACAC9"/>
<path d="M326 323C329.429 323 334.571 325.042 336.857 329.882C337.59 331.435 338 332.292 338 335C338 337.805 337.038 340.385 335.425 342.429C333.812 344.472 330.571 347 326 347C322.73 347 319.481 345.594 318 344.143C315.084 341.286 314 338.358 314 335C314 332.45 314.93 331.229 316.286 329.286C318.454 326.177 320.286 323 326 323Z" fill="#FACAC9"/>
<path d="M61 451C57.5714 451 52.4286 448.958 50.1429 444.118C49.4099 442.565 49 441.708 49 439C49 436.195 49.9624 433.615 51.5751 431.571C53.1878 429.528 56.4286 427 61 427C64.2697 427 67.5192 428.406 69 429.857C71.9157 432.714 73 435.642 73 439C73 441.55 72.0701 442.771 70.7143 444.714C68.5458 447.823 66.7143 451 61 451Z" fill="#FACAC9"/>
<path d="M134 440C134 443.429 131.958 448.571 127.118 450.857C125.565 451.59 124.708 452 122 452C119.195 452 116.615 451.038 114.571 449.425C112.528 447.812 110 444.571 110 440C110 436.73 111.406 433.481 112.857 432C115.714 429.084 118.642 428 122 428C124.55 428 125.771 428.93 127.714 430.286C130.823 432.454 134 434.286 134 440Z" fill="#FACAC9"/>
<path d="M108 511C104.571 511 99.4286 508.958 97.1429 504.118C96.4099 502.565 96 501.708 96 499C96 496.195 96.9624 493.615 98.5751 491.571C100.188 489.528 103.429 487 108 487C111.27 487 114.519 488.406 116 489.857C118.916 492.714 120 495.642 120 499C120 501.55 119.07 502.771 117.714 504.714C115.546 507.823 113.714 511 108 511Z" fill="#FACAC9"/>
<path d="M81 527C81 530.429 78.9583 535.571 74.1176 537.857C72.5653 538.59 71.7081 539 69 539C66.1949 539 63.6147 538.038 61.5714 536.425C59.5282 534.812 57 531.571 57 527C57 523.73 58.4061 520.481 59.8571 519C62.7143 516.084 65.6422 515 69 515C71.5496 515 72.7706 515.93 74.7143 517.286C77.8231 519.454 81 521.286 81 527Z" fill="#FACAC9"/>
</g>
<g filter="url(#filter1_d_2_182)">
<path d="M46 332C46 325.373 51.3726 320 58 320H334C340.627 320 346 325.373 346 332V432C346 436.418 342.418 440 338 440H54C49.5817 440 46 436.418 46 432V332Z" fill="#E68B8B"/>
</g>
<g filter="url(#filter2_d_2_182)">
<path d="M247.859 531.857L285.865 539.01C287.439 539.306 288.657 537.662 287.897 536.266L229.817 429.541L194.355 439.196L211.464 558.379C211.678 559.873 213.492 560.523 214.624 559.513L244.596 532.76C245.481 531.971 246.688 531.636 247.859 531.857Z" fill="#FACAC9"/>
</g>
<g filter="url(#filter3_d_2_182)">
<path d="M145.08 531.857L107.741 539.01C106.194 539.306 104.998 537.662 105.744 536.266L162.805 429.541L197.645 439.196L180.837 558.379C180.626 559.873 178.844 560.523 177.732 559.513L148.285 532.76C147.416 531.971 146.23 531.636 145.08 531.857Z" fill="#FACAC9"/>
</g>
<g filter="url(#filter4_d_2_182)">
<path d="M169.686 401.441C158.187 391.991 144.096 380.41 103.119 380.011C101.819 379.998 100.647 380.823 100.277 382.069C95.2403 399.037 89.1393 436.973 100.232 470.47C100.631 471.676 101.788 472.479 103.059 472.467C144.132 472.065 159.855 460.095 171.958 450.882C179.594 445.069 185.789 440.353 196 440.331C206.211 440.353 212.406 445.069 220.042 450.882C232.145 460.095 247.868 472.065 288.941 472.467C290.212 472.479 291.369 471.676 291.768 470.47C302.861 436.973 296.76 399.037 291.723 382.069C291.353 380.823 290.181 379.998 288.881 380.011C247.904 380.41 233.813 391.991 222.314 401.441C214.736 407.67 208.283 412.973 196 413.54C183.717 412.973 177.264 407.67 169.686 401.441Z" fill="#FACAC9"/>
</g>
<g filter="url(#filter5_dd_2_182)">
<path d="M184.593 444.131C183.466 442.776 183.241 410.796 184.593 409.667C185.945 408.312 206.366 408.538 207.493 409.667C208.62 410.796 208.62 443.002 207.493 444.131C206.366 445.26 185.72 445.486 184.593 444.131Z" fill="#FACAC9"/>
</g>
</g>
<path d="M41.25 276.906C41.1667 276.76 41.1667 276.594 41.25 276.406C41.3333 276.24 41.4375 276.073 41.5625 275.906C41.7083 275.76 41.8542 275.625 42 275.5C42.1667 275.396 42.2812 275.323 42.3438 275.281L50.4688 272.062L51.0312 271.5C51.0104 271.146 50.9896 270.604 50.9688 269.875C50.9688 269.125 50.9688 268.292 50.9688 267.375V261.531C50.9688 260.594 50.9688 259.76 50.9688 259.031C50.9896 258.302 51.0104 257.76 51.0312 257.406C51.0312 257.281 51.0521 257.062 51.0938 256.75C51.1562 256.438 51.2083 256.104 51.25 255.75C51.3125 255.396 51.3646 255.073 51.4062 254.781C51.4688 254.469 51.5208 254.25 51.5625 254.125H44.5312C44.2604 254.125 44.0833 254.052 44 253.906C43.9375 253.76 43.9271 253.594 43.9688 253.406C44.0104 253.219 44.0833 253.042 44.1875 252.875C44.3125 252.688 44.4271 252.562 44.5312 252.5C47.0729 252.688 49.5938 252.5 52.0938 251.938C52.5312 250.938 53.1354 250.167 53.9062 249.625C54.6771 249.083 55.5312 248.719 56.4688 248.531C57.4062 248.344 58.375 248.312 59.375 248.438C60.3958 248.542 61.3438 248.74 62.2188 249.031C63.1146 249.323 63.8958 249.677 64.5625 250.094C65.25 250.51 65.7292 250.938 66 251.375C66.2708 251.792 66.3021 252.188 66.0938 252.562C65.8854 252.917 65.3333 253.198 64.4375 253.406C63.5625 253.594 62.3021 253.677 60.6562 253.656C59.0104 253.615 56.8854 253.406 54.2812 253.031C53.7604 253.781 53.3542 254.635 53.0625 255.594C52.7917 256.552 52.6042 257.562 52.5 258.625C52.4167 259.688 52.3958 260.781 52.4375 261.906C52.5 263.01 52.5938 264.104 52.7188 265.188C52.8646 266.25 53.0312 267.281 53.2188 268.281C53.4062 269.26 53.5833 270.156 53.75 270.969C54.375 271.094 55 271.115 55.625 271.031C56.2708 270.927 56.9062 270.771 57.5312 270.562C58.1771 270.354 58.8125 270.125 59.4375 269.875C60.0625 269.604 60.6875 269.365 61.3125 269.156C61.9583 268.948 62.5938 268.802 63.2188 268.719C63.8438 268.615 64.4792 268.635 65.125 268.781C65.2292 269.052 65.25 269.365 65.1875 269.719C65.125 270.073 64.9271 270.302 64.5938 270.406C62.9062 270.719 61.0729 271.094 59.0938 271.531C57.1354 271.948 55.1354 272.448 53.0938 273.031C51.0729 273.615 49.0938 274.271 47.1562 275C45.2188 275.729 43.4375 276.552 41.8125 277.469L41.25 276.906ZM54.2812 251.406C56.6146 251.844 58.4688 252.115 59.8438 252.219C61.2396 252.323 62.2604 252.333 62.9062 252.25C63.5521 252.146 63.8854 251.979 63.9062 251.75C63.9271 251.5 63.7292 251.25 63.3125 251C62.8958 250.75 62.3229 250.531 61.5938 250.344C60.8646 250.135 60.0729 250.021 59.2188 250C58.3646 249.958 57.5 250.042 56.625 250.25C55.75 250.458 54.9688 250.844 54.2812 251.406ZM85.4688 272.906C85.6562 270.698 85.6979 268.583 85.5938 266.562C85.5104 264.542 85.3438 262.531 85.0938 260.531C84.8438 258.531 84.5521 256.5 84.2188 254.438C83.8854 252.375 83.5833 250.208 83.3125 247.938C83.3125 247.875 83.3021 247.771 83.2812 247.625C83.2812 247.479 83.2812 247.323 83.2812 247.156C83.2812 246.969 83.2812 246.802 83.2812 246.656C83.3021 246.51 83.3125 246.406 83.3125 246.344H84.4062C84.4688 246.719 84.5625 247.302 84.6875 248.094C84.8333 248.885 84.9896 249.781 85.1562 250.781C85.3438 251.781 85.5312 252.833 85.7188 253.938C85.9271 255.042 86.1146 256.094 86.2812 257.094C86.4688 258.094 86.6354 258.99 86.7812 259.781C86.9271 260.573 87.0417 261.156 87.125 261.531C87.125 261.594 87.1458 261.708 87.1875 261.875C87.25 262.021 87.3021 262.177 87.3438 262.344C87.4062 262.51 87.4583 262.677 87.5 262.844C87.5625 262.99 87.6146 263.094 87.6562 263.156C87.7188 262.99 87.8438 262.708 88.0312 262.312C88.2396 261.896 88.4583 261.458 88.6875 261C88.9167 260.521 89.1354 260.083 89.3438 259.688C89.5521 259.271 89.7083 258.979 89.8125 258.812C90.1458 258.208 90.5729 257.656 91.0938 257.156C91.6146 256.656 92.125 256.344 92.625 256.219C93.125 256.094 93.5625 256.219 93.9375 256.594C94.3333 256.948 94.5833 257.688 94.6875 258.812C94.7083 259.083 94.7292 259.5 94.75 260.062C94.7917 260.625 94.8333 261.271 94.875 262C94.9167 262.708 94.9583 263.458 95 264.25C95.0417 265.042 95.0729 265.792 95.0938 266.5C95.1354 267.208 95.1667 267.844 95.1875 268.406C95.2292 268.969 95.25 269.385 95.25 269.656C95.4792 269.948 95.6458 270.292 95.75 270.688C95.875 271.062 95.8854 271.438 95.7812 271.812C95.3646 271.958 95.0104 271.948 94.7188 271.781C94.4271 271.615 94.1771 271.385 93.9688 271.094C93.7604 270.781 93.5833 270.438 93.4375 270.062C93.2917 269.688 93.1667 269.365 93.0625 269.094C93.1042 268.302 93.1354 267.448 93.1562 266.531C93.1771 265.615 93.1667 264.688 93.125 263.75C93.1042 262.792 93.0417 261.844 92.9375 260.906C92.8542 259.969 92.7188 259.083 92.5312 258.25C92.1562 258.062 91.8021 258.135 91.4688 258.469C91.1562 258.802 90.8542 259.312 90.5625 260C90.2917 260.667 90.0312 261.458 89.7812 262.375C89.5312 263.292 89.2917 264.26 89.0625 265.281C88.8333 266.281 88.6042 267.281 88.375 268.281C88.1667 269.281 87.9583 270.188 87.75 271C87.5625 271.812 87.3646 272.49 87.1562 273.031C86.9688 273.573 86.7708 273.896 86.5625 274L85.4688 272.906ZM98.2188 273.469C97.8021 272.594 97.5729 271.708 97.5312 270.812C97.5104 269.917 97.5625 269 97.6875 268.062C97.7083 267.771 97.7604 267.333 97.8438 266.75C97.9271 266.167 98.0208 265.521 98.125 264.812C98.2292 264.104 98.3438 263.354 98.4688 262.562C98.5938 261.771 98.7083 261.021 98.8125 260.312C98.9167 259.604 99.0104 258.979 99.0938 258.438C99.1979 257.875 99.2708 257.458 99.3125 257.188C99.4792 256.312 99.6562 255.573 99.8438 254.969C100.052 254.344 100.323 253.865 100.656 253.531C101.01 253.198 101.458 253.021 102 253C102.562 252.979 103.281 253.115 104.156 253.406C104.26 253.427 104.375 253.51 104.5 253.656C104.625 253.781 104.698 253.875 104.719 253.938C104.76 254.208 104.833 254.625 104.938 255.188C105.062 255.75 105.198 256.396 105.344 257.125C105.49 257.833 105.635 258.583 105.781 259.375C105.948 260.146 106.104 260.896 106.25 261.625C106.396 262.333 106.521 262.969 106.625 263.531C106.75 264.094 106.844 264.51 106.906 264.781C107.219 266.26 107.604 267.292 108.062 267.875C108.521 268.438 109.01 268.729 109.531 268.75C110.052 268.771 110.583 268.604 111.125 268.25C111.688 267.875 112.24 267.49 112.781 267.094C113.323 266.677 113.833 266.323 114.312 266.031C114.792 265.74 115.208 265.688 115.562 265.875C115.562 266.271 115.469 266.656 115.281 267.031C115.094 267.406 114.865 267.76 114.594 268.094C114.344 268.406 114.062 268.698 113.75 268.969C113.438 269.24 113.146 269.469 112.875 269.656C111.708 270.427 110.729 270.833 109.938 270.875C109.167 270.917 108.51 270.74 107.969 270.344C107.427 269.948 106.99 269.406 106.656 268.719C106.323 268.031 106.021 267.333 105.75 266.625C105.5 265.917 105.25 265.292 105 264.75C104.771 264.188 104.49 263.833 104.156 263.688C104.094 263.958 103.958 264.427 103.75 265.094C103.562 265.76 103.354 266.469 103.125 267.219C102.896 267.969 102.677 268.677 102.469 269.344C102.26 270.01 102.115 270.479 102.031 270.75C101.99 270.854 101.896 271.052 101.75 271.344C101.625 271.635 101.458 271.958 101.25 272.312C101.042 272.646 100.802 272.979 100.531 273.312C100.281 273.625 100.021 273.865 99.75 274.031C99.4792 274.219 99.2083 274.281 98.9375 274.219C98.6667 274.156 98.4271 273.906 98.2188 273.469ZM99.8438 264.25C99.8021 264.5 99.7708 264.958 99.75 265.625C99.75 266.292 99.75 267 99.75 267.75C99.75 268.5 99.75 269.208 99.75 269.875C99.7708 270.542 99.8021 271.01 99.8438 271.281C100.573 270.177 101.229 268.896 101.812 267.438C102.396 265.958 102.833 264.438 103.125 262.875C103.438 261.292 103.562 259.729 103.5 258.188C103.438 256.625 103.125 255.208 102.562 253.938C102.208 254.583 101.875 255.396 101.562 256.375C101.25 257.354 100.979 258.354 100.75 259.375C100.521 260.375 100.323 261.323 100.156 262.219C100.01 263.094 99.9062 263.771 99.8438 264.25ZM115.156 263.156C115.094 262.99 114.958 262.698 114.75 262.281L114.094 260.969C113.865 260.51 113.635 260.083 113.406 259.688C113.198 259.271 113.052 258.979 112.969 258.812C113.031 258.583 113.167 258.417 113.375 258.312C113.583 258.208 113.802 258.167 114.031 258.188C114.26 258.188 114.479 258.24 114.688 258.344C114.917 258.448 115.073 258.604 115.156 258.812L119.469 268.594L123.281 255.031L123.438 254.812C123.562 254.646 123.698 254.49 123.844 254.344C124.01 254.177 124.188 254.042 124.375 253.938C124.562 253.833 124.74 253.833 124.906 253.938C124.948 254.021 124.969 254.208 124.969 254.5C124.969 254.771 124.948 254.948 124.906 255.031C124.865 255.198 124.729 255.594 124.5 256.219C124.292 256.844 124.062 257.531 123.812 258.281C123.562 259.01 123.333 259.698 123.125 260.344C122.917 260.969 122.792 261.365 122.75 261.531C122.708 261.698 122.635 262.052 122.531 262.594C122.448 263.115 122.354 263.729 122.25 264.438C122.146 265.146 122.031 265.896 121.906 266.688C121.781 267.479 121.656 268.229 121.531 268.938C121.427 269.646 121.333 270.26 121.25 270.781C121.167 271.302 121.115 271.646 121.094 271.812C121.052 272.062 120.979 272.333 120.875 272.625C120.792 272.917 120.667 273.188 120.5 273.438C120.333 273.667 120.115 273.844 119.844 273.969C119.594 274.094 119.292 274.104 118.938 274C118.854 273.729 118.708 273.312 118.5 272.75C118.312 272.167 118.094 271.521 117.844 270.812C117.594 270.104 117.333 269.354 117.062 268.562C116.792 267.771 116.531 267.021 116.281 266.312C116.031 265.604 115.802 264.969 115.594 264.406C115.406 263.844 115.26 263.427 115.156 263.156ZM132.5 273.469C131.625 272.781 130.927 271.979 130.406 271.062C129.906 270.125 129.521 269.125 129.25 268.062C129.125 268.167 128.938 268.281 128.688 268.406C128.438 268.531 128.177 268.635 127.906 268.719C127.656 268.802 127.406 268.865 127.156 268.906C126.906 268.927 126.719 268.896 126.594 268.812C126.49 268.729 126.458 268.594 126.5 268.406C126.562 268.198 126.76 267.896 127.094 267.5C127.135 267.438 127.26 267.302 127.469 267.094C127.698 266.885 127.938 266.667 128.188 266.438C128.438 266.188 128.667 265.958 128.875 265.75C129.083 265.521 129.208 265.375 129.25 265.312C129.479 264.792 129.615 264.219 129.656 263.594C129.719 262.969 129.75 262.323 129.75 261.656C129.771 260.969 129.812 260.292 129.875 259.625C129.938 258.958 130.094 258.333 130.344 257.75C130.49 257.417 130.76 257.01 131.156 256.531C131.573 256.031 132.031 255.552 132.531 255.094C133.052 254.635 133.573 254.229 134.094 253.875C134.635 253.5 135.094 253.271 135.469 253.188C135.865 253.104 136.146 253.198 136.312 253.469C136.5 253.74 136.5 254.26 136.312 255.031C136.083 255.948 135.729 256.844 135.25 257.719C134.792 258.573 134.312 259.427 133.812 260.281C133.312 261.115 132.833 261.948 132.375 262.781C131.938 263.615 131.625 264.458 131.438 265.312C131.333 265.771 131.281 266.333 131.281 267C131.281 267.646 131.354 268.292 131.5 268.938C131.646 269.583 131.885 270.177 132.219 270.719C132.552 271.24 133.01 271.604 133.594 271.812C134.26 272.062 134.927 272.125 135.594 272C136.26 271.875 136.906 271.635 137.531 271.281C138.177 270.927 138.792 270.49 139.375 269.969C139.958 269.427 140.5 268.875 141 268.312C141.5 267.75 141.948 267.208 142.344 266.688C142.74 266.146 143.073 265.688 143.344 265.312L143.875 265.875C144.021 266 143.927 266.354 143.594 266.938C143.281 267.521 142.812 268.188 142.188 268.938C141.583 269.667 140.865 270.417 140.031 271.188C139.198 271.958 138.333 272.604 137.438 273.125C136.562 273.646 135.688 273.969 134.812 274.094C133.958 274.219 133.188 274.01 132.5 273.469ZM131.438 259.875C131.417 259.979 131.396 260.167 131.375 260.438C131.375 260.688 131.375 260.958 131.375 261.25C131.375 261.542 131.375 261.812 131.375 262.062C131.396 262.312 131.417 262.49 131.438 262.594C132.104 261.448 132.729 260.229 133.312 258.938C133.896 257.646 134.354 256.344 134.688 255.031C134.208 255.198 133.771 255.458 133.375 255.812C133 256.146 132.677 256.542 132.406 257C132.135 257.438 131.917 257.906 131.75 258.406C131.604 258.906 131.5 259.396 131.438 259.875ZM159.719 273.469C159.302 272.594 159.073 271.708 159.031 270.812C159.01 269.917 159.062 269 159.188 268.062C159.208 267.771 159.26 267.333 159.344 266.75C159.427 266.167 159.521 265.521 159.625 264.812C159.729 264.104 159.844 263.354 159.969 262.562C160.094 261.771 160.208 261.021 160.312 260.312C160.417 259.604 160.51 258.979 160.594 258.438C160.698 257.875 160.771 257.458 160.812 257.188C160.979 256.312 161.156 255.573 161.344 254.969C161.552 254.344 161.823 253.865 162.156 253.531C162.51 253.198 162.958 253.021 163.5 253C164.062 252.979 164.781 253.115 165.656 253.406C165.76 253.427 165.875 253.51 166 253.656C166.125 253.781 166.198 253.875 166.219 253.938C166.26 254.208 166.333 254.625 166.438 255.188C166.562 255.75 166.698 256.396 166.844 257.125C166.99 257.833 167.135 258.583 167.281 259.375C167.448 260.146 167.604 260.896 167.75 261.625C167.896 262.333 168.021 262.969 168.125 263.531C168.25 264.094 168.344 264.51 168.406 264.781C168.719 266.26 169.104 267.292 169.562 267.875C170.021 268.438 170.51 268.729 171.031 268.75C171.552 268.771 172.083 268.604 172.625 268.25C173.188 267.875 173.74 267.49 174.281 267.094C174.823 266.677 175.333 266.323 175.812 266.031C176.292 265.74 176.708 265.688 177.062 265.875C177.062 266.271 176.969 266.656 176.781 267.031C176.594 267.406 176.365 267.76 176.094 268.094C175.844 268.406 175.562 268.698 175.25 268.969C174.938 269.24 174.646 269.469 174.375 269.656C173.208 270.427 172.229 270.833 171.438 270.875C170.667 270.917 170.01 270.74 169.469 270.344C168.927 269.948 168.49 269.406 168.156 268.719C167.823 268.031 167.521 267.333 167.25 266.625C167 265.917 166.75 265.292 166.5 264.75C166.271 264.188 165.99 263.833 165.656 263.688C165.594 263.958 165.458 264.427 165.25 265.094C165.062 265.76 164.854 266.469 164.625 267.219C164.396 267.969 164.177 268.677 163.969 269.344C163.76 270.01 163.615 270.479 163.531 270.75C163.49 270.854 163.396 271.052 163.25 271.344C163.125 271.635 162.958 271.958 162.75 272.312C162.542 272.646 162.302 272.979 162.031 273.312C161.781 273.625 161.521 273.865 161.25 274.031C160.979 274.219 160.708 274.281 160.438 274.219C160.167 274.156 159.927 273.906 159.719 273.469ZM161.344 264.25C161.302 264.5 161.271 264.958 161.25 265.625C161.25 266.292 161.25 267 161.25 267.75C161.25 268.5 161.25 269.208 161.25 269.875C161.271 270.542 161.302 271.01 161.344 271.281C162.073 270.177 162.729 268.896 163.312 267.438C163.896 265.958 164.333 264.438 164.625 262.875C164.938 261.292 165.062 259.729 165 258.188C164.938 256.625 164.625 255.208 164.062 253.938C163.708 254.583 163.375 255.396 163.062 256.375C162.75 257.354 162.479 258.354 162.25 259.375C162.021 260.375 161.823 261.323 161.656 262.219C161.51 263.094 161.406 263.771 161.344 264.25ZM196.156 283.219C195.51 282.573 195.167 281.771 195.125 280.812C195.104 279.875 195.271 278.854 195.625 277.75C195.979 276.667 196.469 275.552 197.094 274.406C197.719 273.26 198.365 272.156 199.031 271.094C199.698 270.01 200.312 269.021 200.875 268.125C201.458 267.208 201.885 266.458 202.156 265.875C202.302 265.542 202.333 265.073 202.25 264.469C202.188 263.844 202.073 263.219 201.906 262.594C201.76 261.948 201.594 261.365 201.406 260.844C201.24 260.323 201.125 260 201.062 259.875L200.531 260.438L194.562 270.75C194.521 270.792 194.427 270.865 194.281 270.969C194.156 271.073 194.01 271.177 193.844 271.281C193.677 271.385 193.5 271.49 193.312 271.594C193.146 271.698 193.021 271.771 192.938 271.812C192.271 272.083 191.771 272.052 191.438 271.719C191.125 271.385 190.958 270.854 190.938 270.125C190.938 269.375 191.052 268.479 191.281 267.438C191.531 266.375 191.875 265.26 192.312 264.094C192.771 262.927 193.302 261.75 193.906 260.562C194.51 259.375 195.167 258.281 195.875 257.281C196.604 256.26 197.354 255.385 198.125 254.656C198.917 253.927 199.708 253.438 200.5 253.188C200.896 253.312 201.094 253.479 201.094 253.688C201.115 253.875 201.01 254.094 200.781 254.344C200.573 254.573 200.281 254.823 199.906 255.094C199.552 255.365 199.177 255.635 198.781 255.906C198.406 256.156 198.052 256.396 197.719 256.625C197.406 256.854 197.198 257.052 197.094 257.219C196.594 258.323 196.073 259.365 195.531 260.344C194.99 261.323 194.5 262.302 194.062 263.281C193.646 264.26 193.323 265.271 193.094 266.312C192.865 267.333 192.812 268.448 192.938 269.656L193.469 269.094C194.24 268.177 194.938 267.125 195.562 265.938C196.188 264.75 196.76 263.562 197.281 262.375C197.802 261.167 198.281 260.021 198.719 258.938C199.156 257.833 199.562 256.917 199.938 256.188C200.312 255.458 200.677 254.969 201.031 254.719C201.385 254.469 201.729 254.594 202.062 255.094C202.417 255.594 202.781 256.531 203.156 257.906C203.531 259.281 203.927 261.208 204.344 263.688C204.448 263.604 204.646 263.458 204.938 263.25C205.25 263.021 205.573 262.792 205.906 262.562C206.26 262.333 206.594 262.125 206.906 261.938C207.219 261.729 207.438 261.594 207.562 261.531C207.667 261.49 207.854 261.469 208.125 261.469C208.396 261.469 208.573 261.49 208.656 261.531C208.573 261.906 208.333 262.344 207.938 262.844C207.562 263.323 207.146 263.781 206.688 264.219C206.25 264.656 205.844 265.042 205.469 265.375C205.094 265.688 204.896 265.854 204.875 265.875C204.875 266.083 204.865 266.396 204.844 266.812C204.844 267.229 204.823 267.708 204.781 268.25C204.76 268.792 204.729 269.354 204.688 269.938C204.646 270.521 204.604 271.083 204.562 271.625C204.521 272.167 204.479 272.646 204.438 273.062L204.344 274C204.302 274.271 204.146 274.76 203.875 275.469C203.625 276.198 203.302 277.01 202.906 277.906C202.51 278.802 202.052 279.698 201.531 280.594C201.01 281.49 200.458 282.229 199.875 282.812C199.292 283.417 198.677 283.792 198.031 283.938C197.406 284.083 196.781 283.844 196.156 283.219ZM197.812 277.812C197.792 277.979 197.771 278.26 197.75 278.656C197.75 279.073 197.75 279.51 197.75 279.969C197.75 280.427 197.75 280.865 197.75 281.281C197.771 281.698 197.792 281.979 197.812 282.125C198.917 281.667 199.833 280.896 200.562 279.812C201.292 278.729 201.844 277.521 202.219 276.188C202.594 274.875 202.812 273.531 202.875 272.156C202.958 270.781 202.896 269.583 202.688 268.562C202.083 269.062 201.51 269.688 200.969 270.438C200.427 271.167 199.938 271.958 199.5 272.812C199.062 273.646 198.698 274.5 198.406 275.375C198.115 276.25 197.917 277.062 197.812 277.812ZM208.188 272.375C208.146 272.292 208.094 272.135 208.031 271.906C207.969 271.656 207.906 271.385 207.844 271.094C207.781 270.802 207.729 270.521 207.688 270.25C207.646 269.979 207.625 269.781 207.625 269.656V254.469C207.625 254.26 207.719 254.115 207.906 254.031C208.094 253.948 208.302 253.906 208.531 253.906C208.781 253.885 209 253.885 209.188 253.906C209.396 253.927 209.51 253.938 209.531 253.938V270.75C209.531 271.104 209.646 271.396 209.875 271.625C210.104 271.854 210.375 272.042 210.688 272.188C211 272.312 211.323 272.396 211.656 272.438C211.99 272.458 212.271 272.438 212.5 272.375C212.792 272.812 212.781 273.167 212.469 273.438C212.177 273.688 211.75 273.833 211.188 273.875C210.646 273.896 210.073 273.792 209.469 273.562C208.885 273.312 208.458 272.917 208.188 272.375ZM207.094 249.031C207.094 248.427 207.333 248.042 207.812 247.875C208.292 247.688 208.781 247.708 209.281 247.938V249.594C209.219 249.615 209.104 249.635 208.938 249.656C208.792 249.656 208.625 249.656 208.438 249.656C208.271 249.656 208.104 249.656 207.938 249.656C207.792 249.635 207.688 249.615 207.625 249.594C207.542 249.573 207.427 249.49 207.281 249.344C207.156 249.198 207.094 249.094 207.094 249.031ZM220.625 273.469C220.583 273.385 220.531 273.271 220.469 273.125C220.427 272.958 220.375 272.792 220.312 272.625C220.271 272.438 220.219 272.271 220.156 272.125C220.115 271.979 220.094 271.875 220.094 271.812C220.073 271.583 220.042 271.229 220 270.75C219.979 270.271 219.948 269.729 219.906 269.125C219.865 268.521 219.823 267.885 219.781 267.219C219.76 266.531 219.729 265.885 219.688 265.281C219.646 264.677 219.615 264.135 219.594 263.656C219.573 263.177 219.562 262.823 219.562 262.594C219.521 262.573 219.427 262.562 219.281 262.562C219.135 262.562 219.042 262.573 219 262.594C218.833 262.635 218.542 262.708 218.125 262.812C217.729 262.917 217.302 263.031 216.844 263.156L215.531 263.469C215.115 263.573 214.833 263.646 214.688 263.688L213.312 262.312L219.562 260.438L220.625 248.5C220.708 247.729 220.948 247.073 221.344 246.531C221.74 245.99 222.208 245.562 222.75 245.25C223.292 244.938 223.844 244.75 224.406 244.688C224.99 244.625 225.49 244.688 225.906 244.875C226.323 245.042 226.615 245.344 226.781 245.781C226.948 246.198 226.896 246.74 226.625 247.406C226.312 247.635 226.062 247.729 225.875 247.688C225.708 247.646 225.573 247.552 225.469 247.406C225.385 247.24 225.312 247.052 225.25 246.844C225.188 246.635 225.104 246.469 225 246.344C224.604 245.948 224.25 245.823 223.938 245.969C223.646 246.094 223.385 246.417 223.156 246.938C222.927 247.438 222.729 248.073 222.562 248.844C222.396 249.615 222.26 250.448 222.156 251.344C222.052 252.219 221.969 253.115 221.906 254.031C221.844 254.927 221.792 255.75 221.75 256.5C221.729 257.25 221.719 257.885 221.719 258.406V259.344C222.135 259.469 222.594 259.458 223.094 259.312C223.615 259.167 224.135 258.958 224.656 258.688C225.198 258.417 225.729 258.135 226.25 257.844C226.771 257.531 227.26 257.292 227.719 257.125C228.177 256.958 228.583 256.906 228.938 256.969C229.312 257.031 229.615 257.292 229.844 257.75L228.812 258.812L222.281 261.531L221.719 262.062C221.698 262.104 221.677 262.396 221.656 262.938C221.656 263.479 221.656 264.125 221.656 264.875C221.656 265.625 221.656 266.396 221.656 267.188C221.677 267.958 221.698 268.594 221.719 269.094C221.74 269.323 221.812 269.667 221.938 270.125C222.083 270.583 222.198 271.073 222.281 271.594C222.385 272.115 222.406 272.604 222.344 273.062C222.302 273.5 222.094 273.812 221.719 274C221.49 274.104 221.271 274.083 221.062 273.938C220.875 273.792 220.729 273.635 220.625 273.469ZM239.094 271.812C238.635 271.042 238.281 270.177 238.031 269.219C237.781 268.24 237.604 267.24 237.5 266.219C237.396 265.198 237.344 264.188 237.344 263.188C237.365 262.188 237.396 261.271 237.438 260.438C237.146 260.354 236.812 260.375 236.438 260.5C236.062 260.625 235.667 260.792 235.25 261C234.833 261.188 234.406 261.396 233.969 261.625C233.531 261.854 233.125 262.021 232.75 262.125C232.375 262.229 232.031 262.25 231.719 262.188C231.406 262.125 231.156 261.906 230.969 261.531C230.781 261.177 230.792 260.896 231 260.688C231.229 260.479 231.552 260.323 231.969 260.219C232.406 260.094 232.906 260.01 233.469 259.969C234.031 259.906 234.562 259.833 235.062 259.75C235.562 259.667 235.99 259.562 236.344 259.438C236.698 259.292 236.885 259.083 236.906 258.812L238 246.906C238.021 246.719 238.115 246.573 238.281 246.469C238.469 246.365 238.656 246.312 238.844 246.312C239.052 246.312 239.229 246.365 239.375 246.469C239.542 246.552 239.625 246.698 239.625 246.906V257.188C239.917 257.25 240.198 257.25 240.469 257.188C240.74 257.104 241.01 257.01 241.281 256.906C241.552 256.802 241.812 256.719 242.062 256.656C242.333 256.594 242.615 256.594 242.906 256.656C243.031 256.885 243.01 257.104 242.844 257.312C242.677 257.5 242.51 257.646 242.344 257.75L241.781 258.094C241.531 258.24 241.26 258.406 240.969 258.594C240.698 258.76 240.427 258.917 240.156 259.062C239.906 259.208 239.729 259.302 239.625 259.344C239.604 259.635 239.583 260.146 239.562 260.875C239.562 261.583 239.562 262.344 239.562 263.156C239.562 263.969 239.562 264.74 239.562 265.469C239.583 266.177 239.604 266.677 239.625 266.969C239.708 267.948 239.896 268.844 240.188 269.656C240.479 270.469 240.875 271.104 241.375 271.562C241.875 272.021 242.469 272.25 243.156 272.25C243.865 272.25 244.688 271.927 245.625 271.281C245.771 271.76 245.76 272.188 245.594 272.562C245.427 272.938 245.156 273.24 244.781 273.469C244.406 273.677 243.958 273.812 243.438 273.875C242.917 273.938 242.385 273.906 241.844 273.781C241.323 273.656 240.812 273.438 240.312 273.125C239.812 272.792 239.406 272.354 239.094 271.812ZM267.344 273.469C267.302 273.385 267.25 273.271 267.188 273.125C267.146 272.958 267.094 272.792 267.031 272.625C266.99 272.438 266.938 272.271 266.875 272.125C266.833 271.979 266.812 271.875 266.812 271.812C266.792 271.583 266.76 271.229 266.719 270.75C266.698 270.271 266.667 269.729 266.625 269.125C266.583 268.521 266.542 267.885 266.5 267.219C266.479 266.531 266.448 265.885 266.406 265.281C266.365 264.677 266.333 264.135 266.312 263.656C266.292 263.177 266.281 262.823 266.281 262.594C266.24 262.573 266.146 262.562 266 262.562C265.854 262.562 265.76 262.573 265.719 262.594C265.552 262.635 265.26 262.708 264.844 262.812C264.448 262.917 264.021 263.031 263.562 263.156L262.25 263.469C261.833 263.573 261.552 263.646 261.406 263.688L260.031 262.312L266.281 260.438L267.344 248.5C267.427 247.729 267.667 247.073 268.062 246.531C268.458 245.99 268.927 245.562 269.469 245.25C270.01 244.938 270.562 244.75 271.125 244.688C271.708 244.625 272.208 244.688 272.625 244.875C273.042 245.042 273.333 245.344 273.5 245.781C273.667 246.198 273.615 246.74 273.344 247.406C273.031 247.635 272.781 247.729 272.594 247.688C272.427 247.646 272.292 247.552 272.188 247.406C272.104 247.24 272.031 247.052 271.969 246.844C271.906 246.635 271.823 246.469 271.719 246.344C271.323 245.948 270.969 245.823 270.656 245.969C270.365 246.094 270.104 246.417 269.875 246.938C269.646 247.438 269.448 248.073 269.281 248.844C269.115 249.615 268.979 250.448 268.875 251.344C268.771 252.219 268.688 253.115 268.625 254.031C268.562 254.927 268.51 255.75 268.469 256.5C268.448 257.25 268.438 257.885 268.438 258.406V259.344C268.854 259.469 269.312 259.458 269.812 259.312C270.333 259.167 270.854 258.958 271.375 258.688C271.917 258.417 272.448 258.135 272.969 257.844C273.49 257.531 273.979 257.292 274.438 257.125C274.896 256.958 275.302 256.906 275.656 256.969C276.031 257.031 276.333 257.292 276.562 257.75L275.531 258.812L269 261.531L268.438 262.062C268.417 262.104 268.396 262.396 268.375 262.938C268.375 263.479 268.375 264.125 268.375 264.875C268.375 265.625 268.375 266.396 268.375 267.188C268.396 267.958 268.417 268.594 268.438 269.094C268.458 269.323 268.531 269.667 268.656 270.125C268.802 270.583 268.917 271.073 269 271.594C269.104 272.115 269.125 272.604 269.062 273.062C269.021 273.5 268.812 273.812 268.438 274C268.208 274.104 267.99 274.083 267.781 273.938C267.594 273.792 267.448 273.635 267.344 273.469ZM280.031 272.375C279.51 271.604 279.198 270.75 279.094 269.812C278.99 268.854 278.99 267.854 279.094 266.812C279.198 265.771 279.365 264.719 279.594 263.656C279.823 262.594 280.021 261.573 280.188 260.594C280.354 259.594 280.448 258.667 280.469 257.812C280.49 256.938 280.344 256.188 280.031 255.562C279.865 255.229 279.635 255.073 279.344 255.094C279.073 255.094 278.771 255.135 278.438 255.219C278.125 255.281 277.802 255.302 277.469 255.281C277.156 255.26 276.875 255.062 276.625 254.688C276.646 254.604 276.729 254.5 276.875 254.375C277 254.229 277.094 254.146 277.156 254.125C279.031 253.854 280.594 254.052 281.844 254.719C283.115 255.365 284.125 256.292 284.875 257.5C285.625 258.688 286.135 260.052 286.406 261.594C286.698 263.135 286.802 264.667 286.719 266.188C286.635 267.708 286.396 269.125 286 270.438C285.604 271.729 285.104 272.729 284.5 273.438C283.896 274.146 283.208 274.458 282.438 274.375C281.667 274.292 280.865 273.625 280.031 272.375ZM281.656 271.281C281.677 271.344 281.74 271.427 281.844 271.531C281.948 271.635 282.052 271.75 282.156 271.875C282.281 272 282.396 272.115 282.5 272.219C282.604 272.302 282.677 272.354 282.719 272.375C283.49 271.938 284.062 271.344 284.438 270.594C284.812 269.844 285.031 269.01 285.094 268.094C285.177 267.177 285.135 266.219 284.969 265.219C284.823 264.198 284.604 263.219 284.312 262.281C284.021 261.344 283.677 260.479 283.281 259.688C282.906 258.896 282.542 258.25 282.188 257.75C282.167 258.021 282.125 258.438 282.062 259C282 259.562 281.938 260.198 281.875 260.906C281.812 261.615 281.74 262.365 281.656 263.156C281.573 263.948 281.49 264.708 281.406 265.438C281.344 266.146 281.281 266.781 281.219 267.344C281.156 267.906 281.115 268.323 281.094 268.594C281.073 268.802 281.073 269.042 281.094 269.312C281.135 269.562 281.188 269.812 281.25 270.062C281.312 270.312 281.375 270.552 281.438 270.781C281.521 270.99 281.594 271.156 281.656 271.281ZM290.719 273.656C290.385 274.344 290.104 274.688 289.875 274.688C289.646 274.708 289.448 274.479 289.281 274C289.135 273.542 289.01 272.885 288.906 272.031C288.823 271.177 288.76 270.229 288.719 269.188C288.698 268.146 288.698 267.052 288.719 265.906C288.74 264.76 288.771 263.656 288.812 262.594C288.875 261.531 288.948 260.562 289.031 259.688C289.115 258.792 289.198 258.094 289.281 257.594C289.385 257.073 289.49 256.792 289.594 256.75C289.698 256.708 289.802 256.99 289.906 257.594C290.573 257.094 291.292 256.625 292.062 256.188C292.833 255.729 293.625 255.354 294.438 255.062C295.271 254.75 296.104 254.552 296.938 254.469C297.792 254.385 298.615 254.458 299.406 254.688C299.49 254.958 299.5 255.271 299.438 255.625C299.375 255.979 299.177 256.208 298.844 256.312C298.51 256.25 298.073 256.219 297.531 256.219C296.99 256.219 296.417 256.26 295.812 256.344C295.208 256.427 294.604 256.562 294 256.75C293.396 256.938 292.844 257.188 292.344 257.5C291.865 257.792 291.469 258.156 291.156 258.594C290.865 259.01 290.719 259.51 290.719 260.094V273.656ZM330.125 283.219C329.604 282.865 329.24 282.396 329.031 281.812C328.844 281.229 328.76 280.583 328.781 279.875C328.802 279.167 328.906 278.417 329.094 277.625C329.281 276.854 329.5 276.104 329.75 275.375C330 274.646 330.26 273.969 330.531 273.344C330.802 272.719 331.031 272.208 331.219 271.812C331.302 271.625 331.438 271.333 331.625 270.938C331.812 270.542 332.031 270.094 332.281 269.594L333.844 266.469C334.094 265.969 334.323 265.521 334.531 265.125C334.74 264.729 334.896 264.438 335 264.25C335.104 263.271 335.031 262.5 334.781 261.938C334.552 261.375 334.219 260.99 333.781 260.781C333.344 260.573 332.833 260.521 332.25 260.625C331.688 260.729 331.104 260.948 330.5 261.281C329.917 261.615 329.344 262.042 328.781 262.562C328.24 263.062 327.781 263.625 327.406 264.25C327.281 264.354 327.062 264.604 326.75 265C326.438 265.375 326.062 265.844 325.625 266.406C325.188 266.948 324.698 267.542 324.156 268.188C323.635 268.833 323.094 269.469 322.531 270.094C321.99 270.698 321.458 271.26 320.938 271.781C320.417 272.302 319.927 272.708 319.469 273C319.031 273.292 318.646 273.448 318.312 273.469C318 273.49 317.781 273.302 317.656 272.906C317.635 272.885 317.615 272.823 317.594 272.719C317.594 272.615 317.594 272.51 317.594 272.406C317.594 272.281 317.594 272.167 317.594 272.062C317.615 271.958 317.635 271.875 317.656 271.812C317.698 271.604 317.781 271.167 317.906 270.5C318.052 269.833 318.208 269.052 318.375 268.156C318.562 267.26 318.76 266.302 318.969 265.281C319.177 264.26 319.365 263.302 319.531 262.406C319.719 261.51 319.885 260.74 320.031 260.094C320.177 259.427 320.281 258.99 320.344 258.781C320.385 258.594 320.521 258.344 320.75 258.031C320.979 257.719 321.24 257.458 321.531 257.25C321.823 257.042 322.104 256.948 322.375 256.969C322.667 256.99 322.896 257.229 323.062 257.688C322.854 258 322.615 258.49 322.344 259.156C322.073 259.823 321.802 260.573 321.531 261.406C321.281 262.24 321.031 263.125 320.781 264.062C320.531 264.979 320.312 265.865 320.125 266.719C319.958 267.573 319.844 268.365 319.781 269.094C319.719 269.802 319.729 270.354 319.812 270.75C320.688 269.562 321.667 268.302 322.75 266.969C323.833 265.635 324.938 264.375 326.062 263.188C327.188 262 328.302 260.969 329.406 260.094C330.531 259.219 331.562 258.656 332.5 258.406C333.458 258.156 334.292 258.302 335 258.844C335.729 259.365 336.271 260.438 336.625 262.062L340.438 258.812H342.062C342.25 259.396 342.24 259.792 342.031 260C341.844 260.208 341.562 260.375 341.188 260.5C340.812 260.604 340.396 260.729 339.938 260.875C339.5 261 339.125 261.271 338.812 261.688C338.521 262.104 338.344 262.719 338.281 263.531C338.219 264.344 338.385 265.49 338.781 266.969C339.073 268.01 339.271 269.083 339.375 270.188C339.5 271.292 339.49 272.385 339.344 273.469C339.281 273.948 339.115 274.594 338.844 275.406C338.594 276.24 338.26 277.104 337.844 278C337.427 278.896 336.938 279.771 336.375 280.625C335.812 281.479 335.198 282.188 334.531 282.75C333.885 283.312 333.188 283.656 332.438 283.781C331.688 283.927 330.917 283.74 330.125 283.219ZM330.656 280.5C330.823 281.292 331.094 281.792 331.469 282C331.865 282.208 332.312 282.188 332.812 281.938C333.312 281.688 333.833 281.24 334.375 280.594C334.938 279.948 335.448 279.177 335.906 278.281C336.385 277.385 336.792 276.385 337.125 275.281C337.458 274.198 337.656 273.083 337.719 271.938C337.802 270.792 337.719 269.656 337.469 268.531C337.219 267.385 336.75 266.312 336.062 265.312C335.583 265.667 335.104 266.208 334.625 266.938C334.146 267.667 333.688 268.5 333.25 269.438C332.833 270.375 332.438 271.375 332.062 272.438C331.688 273.479 331.375 274.5 331.125 275.5C330.896 276.521 330.729 277.469 330.625 278.344C330.542 279.219 330.552 279.938 330.656 280.5ZM343.812 272.375C343.292 271.604 342.979 270.75 342.875 269.812C342.771 268.854 342.771 267.854 342.875 266.812C342.979 265.771 343.146 264.719 343.375 263.656C343.604 262.594 343.802 261.573 343.969 260.594C344.135 259.594 344.229 258.667 344.25 257.812C344.271 256.938 344.125 256.188 343.812 255.562C343.646 255.229 343.417 255.073 343.125 255.094C342.854 255.094 342.552 255.135 342.219 255.219C341.906 255.281 341.583 255.302 341.25 255.281C340.938 255.26 340.656 255.062 340.406 254.688C340.427 254.604 340.51 254.5 340.656 254.375C340.781 254.229 340.875 254.146 340.938 254.125C342.812 253.854 344.375 254.052 345.625 254.719C346.896 255.365 347.906 256.292 348.656 257.5C349.406 258.688 349.917 260.052 350.188 261.594C350.479 263.135 350.583 264.667 350.5 266.188C350.417 267.708 350.177 269.125 349.781 270.438C349.385 271.729 348.885 272.729 348.281 273.438C347.677 274.146 346.99 274.458 346.219 274.375C345.448 274.292 344.646 273.625 343.812 272.375ZM345.438 271.281C345.458 271.344 345.521 271.427 345.625 271.531C345.729 271.635 345.833 271.75 345.938 271.875C346.062 272 346.177 272.115 346.281 272.219C346.385 272.302 346.458 272.354 346.5 272.375C347.271 271.938 347.844 271.344 348.219 270.594C348.594 269.844 348.812 269.01 348.875 268.094C348.958 267.177 348.917 266.219 348.75 265.219C348.604 264.198 348.385 263.219 348.094 262.281C347.802 261.344 347.458 260.479 347.062 259.688C346.688 258.896 346.323 258.25 345.969 257.75C345.948 258.021 345.906 258.438 345.844 259C345.781 259.562 345.719 260.198 345.656 260.906C345.594 261.615 345.521 262.365 345.438 263.156C345.354 263.948 345.271 264.708 345.188 265.438C345.125 266.146 345.062 266.781 345 267.344C344.938 267.906 344.896 268.323 344.875 268.594C344.854 268.802 344.854 269.042 344.875 269.312C344.917 269.562 344.969 269.812 345.031 270.062C345.094 270.312 345.156 270.552 345.219 270.781C345.302 270.99 345.375 271.156 345.438 271.281ZM353.031 272.375C352.99 272.292 352.938 272.156 352.875 271.969C352.812 271.76 352.75 271.542 352.688 271.312C352.646 271.062 352.604 270.833 352.562 270.625C352.521 270.417 352.5 270.271 352.5 270.188V258.25C352.5 258.062 352.573 257.927 352.719 257.844C352.865 257.76 353.031 257.708 353.219 257.688C353.406 257.667 353.583 257.667 353.75 257.688C353.938 257.708 354.062 257.729 354.125 257.75C354.104 258.021 354.094 258.438 354.094 259C354.094 259.562 354.083 260.198 354.062 260.906C354.062 261.615 354.062 262.365 354.062 263.156C354.083 263.948 354.094 264.708 354.094 265.438V267.344C354.094 267.906 354.104 268.323 354.125 268.594C354.167 269.76 354.323 270.573 354.594 271.031C354.885 271.49 355.229 271.708 355.625 271.688C356.042 271.646 356.469 271.417 356.906 271C357.365 270.562 357.781 270.052 358.156 269.469C358.552 268.865 358.875 268.24 359.125 267.594C359.396 266.948 359.531 266.375 359.531 265.875V257.75H361.719C361.677 258.229 361.625 258.854 361.562 259.625C361.5 260.396 361.458 261.229 361.438 262.125C361.438 263.021 361.458 263.938 361.5 264.875C361.542 265.792 361.635 266.667 361.781 267.5C361.948 268.312 362.177 269.031 362.469 269.656C362.76 270.26 363.135 270.698 363.594 270.969C364.073 271.219 364.646 271.26 365.312 271.094C365.979 270.906 366.771 270.427 367.688 269.656C367.875 270.198 367.802 270.719 367.469 271.219C367.135 271.719 366.698 272.156 366.156 272.531C365.615 272.906 365.031 273.188 364.406 273.375C363.781 273.542 363.25 273.573 362.812 273.469C362.75 273.448 362.646 273.365 362.5 273.219C362.375 273.073 362.292 272.969 362.25 272.906C362.167 272.76 362.021 272.49 361.812 272.094C361.604 271.677 361.385 271.24 361.156 270.781C360.927 270.323 360.708 269.885 360.5 269.469C360.312 269.052 360.177 268.76 360.094 268.594C359.969 268.823 359.76 269.177 359.469 269.656C359.177 270.115 358.823 270.615 358.406 271.156C358.01 271.677 357.573 272.177 357.094 272.656C356.635 273.115 356.167 273.448 355.688 273.656C355.208 273.844 354.74 273.865 354.281 273.719C353.823 273.552 353.406 273.104 353.031 272.375Z" fill="#C52929"/>
<path d="M45.3438 726.469C44.4896 726.135 43.7917 725.542 43.25 724.688C42.7292 723.812 42.3542 722.802 42.125 721.656C41.8958 720.49 41.8125 719.229 41.875 717.875C41.9375 716.521 42.1146 715.167 42.4062 713.812C42.7188 712.458 43.1354 711.167 43.6562 709.938C44.1771 708.708 44.7917 707.646 45.5 706.75C46.2083 705.833 47 705.146 47.875 704.688C48.7708 704.208 49.7292 704.052 50.75 704.219C50.7917 704.427 50.8646 704.792 50.9688 705.312C51.0938 705.812 51.2083 706.354 51.3125 706.938C51.4375 707.521 51.5417 708.073 51.625 708.594C51.7292 709.094 51.8021 709.448 51.8438 709.656C51.8854 709.885 51.8125 710.135 51.625 710.406C51.4375 710.677 51.2083 710.896 50.9375 711.062C50.6875 711.229 50.4375 711.312 50.1875 711.312C49.9375 711.292 49.7708 711.104 49.6875 710.75C49.625 710.542 49.5729 710.24 49.5312 709.844C49.4896 709.448 49.4375 709.031 49.375 708.594C49.3125 708.156 49.2292 707.75 49.125 707.375C49.0208 706.979 48.875 706.698 48.6875 706.531C48.5 706.365 48.2604 706.344 47.9688 706.469C47.6979 706.573 47.3646 706.906 46.9688 707.469C46.8438 707.635 46.6875 707.865 46.5 708.156C46.3333 708.427 46.1562 708.708 45.9688 709C45.8021 709.292 45.6562 709.552 45.5312 709.781C45.4062 710.01 45.3438 710.146 45.3438 710.188L43.7188 718.875C43.5312 719.833 43.5417 720.698 43.75 721.469C43.9583 722.219 44.2917 722.865 44.75 723.406C45.2083 723.927 45.7708 724.344 46.4375 724.656C47.1042 724.948 47.8021 725.115 48.5312 725.156C49.2812 725.177 50.0312 725.083 50.7812 724.875C51.5521 724.646 52.2708 724.271 52.9375 723.75C53.1875 723.562 53.5104 723.208 53.9062 722.688C54.3229 722.167 54.7604 721.583 55.2188 720.938C55.6771 720.271 56.1562 719.583 56.6562 718.875C57.1562 718.146 57.625 717.5 58.0625 716.938C58.5 716.354 58.8854 715.885 59.2188 715.531C59.5521 715.177 59.8021 715.021 59.9688 715.062C60.2812 715.979 60.2604 716.948 59.9062 717.969C59.5729 718.99 59.0104 719.99 58.2188 720.969C57.4479 721.927 56.5104 722.823 55.4062 723.656C54.3229 724.49 53.1875 725.177 52 725.719C50.8125 726.26 49.6354 726.615 48.4688 726.781C47.3021 726.948 46.2604 726.844 45.3438 726.469ZM63.25 726.469C62.7917 726.177 62.4479 725.729 62.2188 725.125C62.0104 724.5 61.8542 723.854 61.75 723.188C61.6667 722.5 61.625 721.865 61.625 721.281V719.969C61.625 719.74 61.6354 719.281 61.6562 718.594C61.6771 717.885 61.7083 717.073 61.75 716.156C61.7917 715.219 61.8333 714.229 61.875 713.188C61.9167 712.125 61.9583 711.135 62 710.219C62.0417 709.281 62.0729 708.469 62.0938 707.781C62.1354 707.094 62.1562 706.635 62.1562 706.406C62.1562 706.094 62.1562 705.552 62.1562 704.781C62.1771 704.01 62.1875 703.198 62.1875 702.344C62.1875 701.469 62.1771 700.646 62.1562 699.875C62.1562 699.104 62.1562 698.562 62.1562 698.25C62.4688 698.021 62.7396 697.865 62.9688 697.781C63.1771 697.698 63.3646 697.688 63.5312 697.75C63.6979 697.792 63.7812 697.958 63.7812 698.25V723.75C63.7812 723.896 63.8229 724.073 63.9062 724.281C64.0104 724.469 64.1354 724.635 64.2812 724.781C64.4271 724.927 64.5938 725.021 64.7812 725.062C64.9896 725.083 65.1979 725 65.4062 724.812L69.1875 721.594C69.2917 722.073 69.2812 722.573 69.1562 723.094C69.0312 723.615 68.8229 724.104 68.5312 724.562C68.2604 725.021 67.9167 725.438 67.5 725.812C67.0833 726.188 66.6354 726.479 66.1562 726.688C65.6771 726.875 65.1875 726.969 64.6875 726.969C64.1875 726.948 63.7083 726.781 63.25 726.469ZM69.6875 725.375C69.6458 725.292 69.5938 725.135 69.5312 724.906C69.4688 724.656 69.4062 724.385 69.3438 724.094C69.2812 723.802 69.2292 723.521 69.1875 723.25C69.1458 722.979 69.125 722.781 69.125 722.656V707.469C69.125 707.26 69.2188 707.115 69.4062 707.031C69.5938 706.948 69.8021 706.906 70.0312 706.906C70.2812 706.885 70.5 706.885 70.6875 706.906C70.8958 706.927 71.0104 706.938 71.0312 706.938V723.75C71.0312 724.104 71.1458 724.396 71.375 724.625C71.6042 724.854 71.875 725.042 72.1875 725.188C72.5 725.312 72.8229 725.396 73.1562 725.438C73.4896 725.458 73.7708 725.438 74 725.375C74.2917 725.812 74.2812 726.167 73.9688 726.438C73.6771 726.688 73.25 726.833 72.6875 726.875C72.1458 726.896 71.5729 726.792 70.9688 726.562C70.3854 726.312 69.9583 725.917 69.6875 725.375ZM68.5938 702.031C68.5938 701.427 68.8333 701.042 69.3125 700.875C69.7917 700.688 70.2812 700.708 70.7812 700.938V702.594C70.7188 702.615 70.6042 702.635 70.4375 702.656C70.2917 702.656 70.125 702.656 69.9375 702.656C69.7708 702.656 69.6042 702.656 69.4375 702.656C69.2917 702.635 69.1875 702.615 69.125 702.594C69.0417 702.573 68.9271 702.49 68.7812 702.344C68.6562 702.198 68.5938 702.094 68.5938 702.031ZM77.5625 725.906C76.7917 725.323 76.2292 724.625 75.875 723.812C75.5417 722.979 75.3542 722.083 75.3125 721.125C75.2917 720.146 75.3958 719.146 75.625 718.125C75.875 717.104 76.1979 716.115 76.5938 715.156C76.9896 714.198 77.4271 713.312 77.9062 712.5C78.4062 711.667 78.9062 710.969 79.4062 710.406C79.9062 709.823 80.375 709.417 80.8125 709.188C81.25 708.938 81.6042 708.917 81.875 709.125C81.9167 709.354 81.9896 709.781 82.0938 710.406C82.2188 711.01 82.3333 711.667 82.4375 712.375C82.5625 713.062 82.6667 713.719 82.75 714.344C82.8542 714.948 82.9271 715.365 82.9688 715.594C83.0104 715.865 83.0208 716.156 83 716.469C82.9792 716.76 82.9167 717.031 82.8125 717.281C82.7083 717.51 82.5312 717.688 82.2812 717.812C82.0521 717.917 81.7396 717.906 81.3438 717.781C81.3229 717.635 81.2604 717.385 81.1562 717.031C81.0729 716.677 80.9688 716.302 80.8438 715.906C80.7396 715.49 80.625 715.104 80.5 714.75C80.3958 714.375 80.3229 714.115 80.2812 713.969L79.75 713.438C79.1042 713.875 78.5625 714.5 78.125 715.312C77.7083 716.125 77.4062 717.01 77.2188 717.969C77.0312 718.906 76.9792 719.854 77.0625 720.812C77.1667 721.75 77.4062 722.583 77.7812 723.312C78.1771 724.021 78.7188 724.562 79.4062 724.938C80.1146 725.292 80.9896 725.344 82.0312 725.094C83.0938 724.844 84.3333 724.24 85.75 723.281C87.1667 722.302 88.7812 720.833 90.5938 718.875V719.969C90.5938 720.031 90.4688 720.219 90.2188 720.531C89.9688 720.844 89.6667 721.208 89.3125 721.625C88.9583 722.021 88.5938 722.417 88.2188 722.812C87.8646 723.208 87.5625 723.521 87.3125 723.75C86.625 724.396 85.8854 724.99 85.0938 725.531C84.3229 726.073 83.5208 726.479 82.6875 726.75C81.8542 727.021 81 727.104 80.125 727C79.2708 726.917 78.4167 726.552 77.5625 725.906ZM93.9062 724.812C93.9271 724.479 94 724 94.125 723.375C94.2708 722.729 94.3958 722.052 94.5 721.344C94.625 720.615 94.6979 719.896 94.7188 719.188C94.7604 718.479 94.6979 717.885 94.5312 717.406C94.3646 716.906 94.0625 716.573 93.625 716.406C93.2083 716.24 92.5938 716.333 91.7812 716.688C91.3229 716.562 91.0625 716.385 91 716.156C90.9375 715.927 91 715.667 91.1875 715.375C91.375 715.083 91.6354 714.771 91.9688 714.438C92.3229 714.083 92.6771 713.729 93.0312 713.375C93.3854 713 93.6979 712.635 93.9688 712.281C94.2604 711.927 94.4271 711.583 94.4688 711.25C94.4479 711.083 94.4062 710.719 94.3438 710.156C94.3021 709.594 94.2396 708.948 94.1562 708.219C94.0729 707.469 93.9896 706.677 93.9062 705.844C93.8438 705.01 93.7708 704.219 93.6875 703.469C93.6042 702.719 93.5312 702.073 93.4688 701.531C93.4271 700.969 93.3958 700.594 93.375 700.406C93.3542 700.135 93.3542 699.885 93.375 699.656C93.4167 699.406 93.5 699.198 93.625 699.031C93.75 698.865 93.9167 698.76 94.125 698.719C94.3542 698.656 94.6458 698.688 95 698.812C95.1042 699.604 95.2083 700.5 95.3125 701.5C95.4167 702.5 95.5312 703.531 95.6562 704.594C95.7812 705.656 95.9167 706.719 96.0625 707.781C96.2292 708.844 96.4167 709.833 96.625 710.75C96.8333 710.583 97.0833 710.302 97.375 709.906C97.6667 709.49 97.9792 709.042 98.3125 708.562C98.6458 708.062 98.9896 707.573 99.3438 707.094C99.7188 706.594 100.073 706.198 100.406 705.906C100.74 705.594 101.052 705.417 101.344 705.375C101.635 705.312 101.875 705.469 102.062 705.844C102.083 705.885 102.094 705.979 102.094 706.125C102.094 706.25 102.083 706.344 102.062 706.406C101.792 707.24 101.354 708.01 100.75 708.719C100.167 709.427 99.5625 710.115 98.9375 710.781C98.3333 711.448 97.8021 712.135 97.3438 712.844C96.8854 713.531 96.6458 714.271 96.625 715.062C96.8125 715.229 97.0833 715.5 97.4375 715.875L100.156 718.594C100.677 719.094 101.167 719.583 101.625 720.062C102.083 720.521 102.49 720.938 102.844 721.312L103.656 722.094C103.781 722.219 103.979 722.427 104.25 722.719C104.521 722.99 104.76 723.292 104.969 723.625C105.177 723.958 105.292 724.281 105.312 724.594C105.333 724.906 105.146 725.167 104.75 725.375C104.708 725.396 104.615 725.406 104.469 725.406C104.344 725.406 104.26 725.396 104.219 725.375C103.156 724.042 101.979 722.698 100.688 721.344C99.4167 719.969 98.0625 718.781 96.625 717.781C96.6042 717.969 96.5729 718.26 96.5312 718.656C96.4896 719.052 96.4271 719.5 96.3438 720C96.2812 720.5 96.2083 721.031 96.125 721.594C96.0625 722.135 95.9896 722.656 95.9062 723.156C95.8229 723.656 95.75 724.104 95.6875 724.5C95.625 724.896 95.5729 725.188 95.5312 725.375C95.5104 725.479 95.4479 725.646 95.3438 725.875C95.2604 726.083 95.1458 726.292 95 726.5C94.8542 726.708 94.6875 726.875 94.5 727C94.3125 727.104 94.1146 727.104 93.9062 727C93.9062 726.917 93.8958 726.781 93.875 726.594C93.875 726.385 93.875 726.167 93.875 725.938C93.875 725.688 93.875 725.458 93.875 725.25C93.8958 725.042 93.9062 724.896 93.9062 724.812ZM131.062 724.812C130.604 724.042 130.25 723.177 130 722.219C129.75 721.24 129.573 720.24 129.469 719.219C129.365 718.198 129.312 717.188 129.312 716.188C129.333 715.188 129.365 714.271 129.406 713.438C129.115 713.354 128.781 713.375 128.406 713.5C128.031 713.625 127.635 713.792 127.219 714C126.802 714.188 126.375 714.396 125.938 714.625C125.5 714.854 125.094 715.021 124.719 715.125C124.344 715.229 124 715.25 123.688 715.188C123.375 715.125 123.125 714.906 122.938 714.531C122.75 714.177 122.76 713.896 122.969 713.688C123.198 713.479 123.521 713.323 123.938 713.219C124.375 713.094 124.875 713.01 125.438 712.969C126 712.906 126.531 712.833 127.031 712.75C127.531 712.667 127.958 712.562 128.312 712.438C128.667 712.292 128.854 712.083 128.875 711.812L129.969 699.906C129.99 699.719 130.083 699.573 130.25 699.469C130.438 699.365 130.625 699.312 130.812 699.312C131.021 699.312 131.198 699.365 131.344 699.469C131.51 699.552 131.594 699.698 131.594 699.906V710.188C131.885 710.25 132.167 710.25 132.438 710.188C132.708 710.104 132.979 710.01 133.25 709.906C133.521 709.802 133.781 709.719 134.031 709.656C134.302 709.594 134.583 709.594 134.875 709.656C135 709.885 134.979 710.104 134.812 710.312C134.646 710.5 134.479 710.646 134.312 710.75L133.75 711.094C133.5 711.24 133.229 711.406 132.938 711.594C132.667 711.76 132.396 711.917 132.125 712.062C131.875 712.208 131.698 712.302 131.594 712.344C131.573 712.635 131.552 713.146 131.531 713.875C131.531 714.583 131.531 715.344 131.531 716.156C131.531 716.969 131.531 717.74 131.531 718.469C131.552 719.177 131.573 719.677 131.594 719.969C131.677 720.948 131.865 721.844 132.156 722.656C132.448 723.469 132.844 724.104 133.344 724.562C133.844 725.021 134.438 725.25 135.125 725.25C135.833 725.25 136.656 724.927 137.594 724.281C137.74 724.76 137.729 725.188 137.562 725.562C137.396 725.938 137.125 726.24 136.75 726.469C136.375 726.677 135.927 726.812 135.406 726.875C134.885 726.938 134.354 726.906 133.812 726.781C133.292 726.656 132.781 726.438 132.281 726.125C131.781 725.792 131.375 725.354 131.062 724.812ZM139.188 725.375C138.667 724.604 138.354 723.75 138.25 722.812C138.146 721.854 138.146 720.854 138.25 719.812C138.354 718.771 138.521 717.719 138.75 716.656C138.979 715.594 139.177 714.573 139.344 713.594C139.51 712.594 139.604 711.667 139.625 710.812C139.646 709.938 139.5 709.188 139.188 708.562C139.021 708.229 138.792 708.073 138.5 708.094C138.229 708.094 137.927 708.135 137.594 708.219C137.281 708.281 136.958 708.302 136.625 708.281C136.312 708.26 136.031 708.062 135.781 707.688C135.802 707.604 135.885 707.5 136.031 707.375C136.156 707.229 136.25 707.146 136.312 707.125C138.188 706.854 139.75 707.052 141 707.719C142.271 708.365 143.281 709.292 144.031 710.5C144.781 711.688 145.292 713.052 145.562 714.594C145.854 716.135 145.958 717.667 145.875 719.188C145.792 720.708 145.552 722.125 145.156 723.438C144.76 724.729 144.26 725.729 143.656 726.438C143.052 727.146 142.365 727.458 141.594 727.375C140.823 727.292 140.021 726.625 139.188 725.375ZM140.812 724.281C140.833 724.344 140.896 724.427 141 724.531C141.104 724.635 141.208 724.75 141.312 724.875C141.438 725 141.552 725.115 141.656 725.219C141.76 725.302 141.833 725.354 141.875 725.375C142.646 724.938 143.219 724.344 143.594 723.594C143.969 722.844 144.188 722.01 144.25 721.094C144.333 720.177 144.292 719.219 144.125 718.219C143.979 717.198 143.76 716.219 143.469 715.281C143.177 714.344 142.833 713.479 142.438 712.688C142.062 711.896 141.698 711.25 141.344 710.75C141.323 711.021 141.281 711.438 141.219 712C141.156 712.562 141.094 713.198 141.031 713.906C140.969 714.615 140.896 715.365 140.812 716.156C140.729 716.948 140.646 717.708 140.562 718.438C140.5 719.146 140.438 719.781 140.375 720.344C140.312 720.906 140.271 721.323 140.25 721.594C140.229 721.802 140.229 722.042 140.25 722.312C140.292 722.562 140.344 722.812 140.406 723.062C140.469 723.312 140.531 723.552 140.594 723.781C140.677 723.99 140.75 724.156 140.812 724.281ZM165.938 725.375C165.417 724.604 165.104 723.75 165 722.812C164.896 721.854 164.896 720.854 165 719.812C165.104 718.771 165.271 717.719 165.5 716.656C165.729 715.594 165.927 714.573 166.094 713.594C166.26 712.594 166.354 711.667 166.375 710.812C166.396 709.938 166.25 709.188 165.938 708.562C165.771 708.229 165.542 708.073 165.25 708.094C164.979 708.094 164.677 708.135 164.344 708.219C164.031 708.281 163.708 708.302 163.375 708.281C163.062 708.26 162.781 708.062 162.531 707.688C162.552 707.604 162.635 707.5 162.781 707.375C162.906 707.229 163 707.146 163.062 707.125C164.938 706.854 166.5 707.052 167.75 707.719C169.021 708.365 170.031 709.292 170.781 710.5C171.531 711.688 172.042 713.052 172.312 714.594C172.604 716.135 172.708 717.667 172.625 719.188C172.542 720.708 172.302 722.125 171.906 723.438C171.51 724.729 171.01 725.729 170.406 726.438C169.802 727.146 169.115 727.458 168.344 727.375C167.573 727.292 166.771 726.625 165.938 725.375ZM167.562 724.281C167.583 724.344 167.646 724.427 167.75 724.531C167.854 724.635 167.958 724.75 168.062 724.875C168.188 725 168.302 725.115 168.406 725.219C168.51 725.302 168.583 725.354 168.625 725.375C169.396 724.938 169.969 724.344 170.344 723.594C170.719 722.844 170.938 722.01 171 721.094C171.083 720.177 171.042 719.219 170.875 718.219C170.729 717.198 170.51 716.219 170.219 715.281C169.927 714.344 169.583 713.479 169.188 712.688C168.812 711.896 168.448 711.25 168.094 710.75C168.073 711.021 168.031 711.438 167.969 712C167.906 712.562 167.844 713.198 167.781 713.906C167.719 714.615 167.646 715.365 167.562 716.156C167.479 716.948 167.396 717.708 167.312 718.438C167.25 719.146 167.188 719.781 167.125 720.344C167.062 720.906 167.021 721.323 167 721.594C166.979 721.802 166.979 722.042 167 722.312C167.042 722.562 167.094 722.812 167.156 723.062C167.219 723.312 167.281 723.552 167.344 723.781C167.427 723.99 167.5 724.156 167.562 724.281ZM175.969 742.719C175.552 742.448 175.208 742.021 174.938 741.438C174.667 740.875 174.448 740.271 174.281 739.625C174.115 738.979 173.99 738.344 173.906 737.719C173.844 737.094 173.802 736.594 173.781 736.219C173.698 734.427 173.667 732.531 173.688 730.531C173.729 728.552 173.917 726.583 174.25 724.625C174.583 722.646 175.094 720.75 175.781 718.938C176.49 717.104 177.458 715.448 178.688 713.969C179.333 713.198 179.958 712.5 180.562 711.875C181.188 711.229 181.833 710.656 182.5 710.156C183.188 709.656 183.917 709.229 184.688 708.875C185.479 708.5 186.365 708.208 187.344 708C188.24 707.812 188.917 707.906 189.375 708.281C189.854 708.656 190.167 709.219 190.312 709.969C190.458 710.698 190.458 711.573 190.312 712.594C190.167 713.594 189.917 714.635 189.562 715.719C189.208 716.781 188.771 717.823 188.25 718.844C187.75 719.865 187.208 720.76 186.625 721.531C186.042 722.302 185.438 722.906 184.812 723.344C184.188 723.76 183.583 723.896 183 723.75C182.917 723.604 183.01 723.26 183.281 722.719C183.552 722.177 183.906 721.51 184.344 720.719C184.802 719.927 185.292 719.052 185.812 718.094C186.354 717.115 186.833 716.125 187.25 715.125C187.688 714.125 188.021 713.146 188.25 712.188C188.5 711.229 188.562 710.375 188.438 709.625C188.375 709.292 188.188 709.094 187.875 709.031C187.562 708.969 187.219 708.979 186.844 709.062C186.49 709.146 186.146 709.25 185.812 709.375C185.479 709.5 185.271 709.583 185.188 709.625C183.604 710.312 182.229 711.312 181.062 712.625C179.917 713.917 178.948 715.406 178.156 717.094C177.365 718.76 176.74 720.542 176.281 722.438C175.844 724.333 175.531 726.198 175.344 728.031C175.156 729.885 175.083 731.646 175.125 733.312C175.167 735 175.302 736.448 175.531 737.656C175.76 738.885 176.052 739.812 176.406 740.438C176.76 741.083 177.156 741.302 177.594 741.094C177.635 741.073 177.719 740.99 177.844 740.844C177.99 740.698 178.083 740.594 178.125 740.531C178.417 739.656 178.656 738.698 178.844 737.656C179.031 736.615 179.167 735.531 179.25 734.406C179.354 733.281 179.417 732.146 179.438 731C179.458 729.854 179.458 728.74 179.438 727.656C179.417 726.594 179.375 725.583 179.312 724.625C179.271 723.667 179.229 722.823 179.188 722.094C179.125 721.948 179.073 721.677 179.031 721.281C179.01 720.885 178.99 720.458 178.969 720C178.969 719.542 178.979 719.094 179 718.656C179.042 718.198 179.115 717.854 179.219 717.625C179.323 717.396 179.458 717.312 179.625 717.375C179.792 717.438 180.01 717.74 180.281 718.281C180.323 718.552 180.365 719.021 180.406 719.688C180.469 720.354 180.531 721.073 180.594 721.844C180.656 722.594 180.708 723.302 180.75 723.969C180.792 724.635 180.812 725.104 180.812 725.375C180.833 725.667 180.844 726.073 180.844 726.594C180.865 727.094 180.875 727.635 180.875 728.219V731.812C180.875 732.354 180.865 732.823 180.844 733.219C180.844 733.635 180.833 733.906 180.812 734.031C180.812 734.219 180.76 734.583 180.656 735.125C180.573 735.688 180.479 736.281 180.375 736.906C180.271 737.552 180.156 738.167 180.031 738.75C179.906 739.333 179.812 739.75 179.75 740C179.625 740.438 179.448 740.885 179.219 741.344C178.99 741.802 178.708 742.188 178.375 742.5C178.062 742.812 177.698 743 177.281 743.062C176.885 743.146 176.448 743.031 175.969 742.719ZM197.656 726.469C196.781 725.781 196.083 724.979 195.562 724.062C195.062 723.125 194.677 722.125 194.406 721.062C194.281 721.167 194.094 721.281 193.844 721.406C193.594 721.531 193.333 721.635 193.062 721.719C192.812 721.802 192.562 721.865 192.312 721.906C192.062 721.927 191.875 721.896 191.75 721.812C191.646 721.729 191.615 721.594 191.656 721.406C191.719 721.198 191.917 720.896 192.25 720.5C192.292 720.438 192.417 720.302 192.625 720.094C192.854 719.885 193.094 719.667 193.344 719.438C193.594 719.188 193.823 718.958 194.031 718.75C194.24 718.521 194.365 718.375 194.406 718.312C194.635 717.792 194.771 717.219 194.812 716.594C194.875 715.969 194.906 715.323 194.906 714.656C194.927 713.969 194.969 713.292 195.031 712.625C195.094 711.958 195.25 711.333 195.5 710.75C195.646 710.417 195.917 710.01 196.312 709.531C196.729 709.031 197.188 708.552 197.688 708.094C198.208 707.635 198.729 707.229 199.25 706.875C199.792 706.5 200.25 706.271 200.625 706.188C201.021 706.104 201.302 706.198 201.469 706.469C201.656 706.74 201.656 707.26 201.469 708.031C201.24 708.948 200.885 709.844 200.406 710.719C199.948 711.573 199.469 712.427 198.969 713.281C198.469 714.115 197.99 714.948 197.531 715.781C197.094 716.615 196.781 717.458 196.594 718.312C196.49 718.771 196.438 719.333 196.438 720C196.438 720.646 196.51 721.292 196.656 721.938C196.802 722.583 197.042 723.177 197.375 723.719C197.708 724.24 198.167 724.604 198.75 724.812C199.417 725.062 200.083 725.125 200.75 725C201.417 724.875 202.062 724.635 202.688 724.281C203.333 723.927 203.948 723.49 204.531 722.969C205.115 722.427 205.656 721.875 206.156 721.312C206.656 720.75 207.104 720.208 207.5 719.688C207.896 719.146 208.229 718.688 208.5 718.312L209.031 718.875C209.177 719 209.083 719.354 208.75 719.938C208.438 720.521 207.969 721.188 207.344 721.938C206.74 722.667 206.021 723.417 205.188 724.188C204.354 724.958 203.49 725.604 202.594 726.125C201.719 726.646 200.844 726.969 199.969 727.094C199.115 727.219 198.344 727.01 197.656 726.469ZM196.594 712.875C196.573 712.979 196.552 713.167 196.531 713.438C196.531 713.688 196.531 713.958 196.531 714.25C196.531 714.542 196.531 714.812 196.531 715.062C196.552 715.312 196.573 715.49 196.594 715.594C197.26 714.448 197.885 713.229 198.469 711.938C199.052 710.646 199.51 709.344 199.844 708.031C199.365 708.198 198.927 708.458 198.531 708.812C198.156 709.146 197.833 709.542 197.562 710C197.292 710.438 197.073 710.906 196.906 711.406C196.76 711.906 196.656 712.396 196.594 712.875ZM209.719 726.469C209.74 726.198 209.75 725.729 209.75 725.062V720.812C209.75 720.146 209.74 719.677 209.719 719.406C209.698 719.281 209.656 719.01 209.594 718.594C209.552 718.177 209.49 717.688 209.406 717.125C209.344 716.562 209.271 715.969 209.188 715.344C209.104 714.719 209.021 714.125 208.938 713.562C208.854 713 208.781 712.51 208.719 712.094C208.677 711.677 208.646 711.396 208.625 711.25C208.583 710.958 208.562 710.656 208.562 710.344C208.583 710.031 208.646 709.76 208.75 709.531C208.854 709.302 209.021 709.146 209.25 709.062C209.479 708.958 209.812 708.979 210.25 709.125C210.271 709.562 210.302 710.083 210.344 710.688C210.406 711.271 210.479 711.885 210.562 712.531C210.646 713.177 210.75 713.812 210.875 714.438C211 715.062 211.156 715.635 211.344 716.156C211.615 715.385 211.875 714.708 212.125 714.125C212.396 713.521 212.698 712.969 213.031 712.469C213.365 711.969 213.74 711.5 214.156 711.062C214.573 710.604 215.073 710.135 215.656 709.656C216.385 709.052 216.99 708.812 217.469 708.938C217.969 709.042 218.375 709.396 218.688 710C219.021 710.583 219.292 711.344 219.5 712.281C219.708 713.219 219.896 714.219 220.062 715.281C220.229 716.323 220.396 717.354 220.562 718.375C220.75 719.375 220.979 720.25 221.25 721C221.521 721.729 221.854 722.271 222.25 722.625C222.667 722.958 223.188 722.969 223.812 722.656C224 723.219 224.021 723.635 223.875 723.906C223.75 724.156 223.521 724.302 223.188 724.344C222.875 724.365 222.5 724.281 222.062 724.094C221.625 723.885 221.188 723.615 220.75 723.281C220.333 722.927 219.958 722.51 219.625 722.031C219.292 721.552 219.062 721.042 218.938 720.5C218.854 720.125 218.781 719.51 218.719 718.656C218.656 717.802 218.562 716.885 218.438 715.906C218.312 714.927 218.115 713.969 217.844 713.031C217.594 712.073 217.229 711.312 216.75 710.75L214.562 712.875C214.5 712.958 214.344 713.333 214.094 714C213.865 714.667 213.604 715.438 213.312 716.312C213.021 717.167 212.74 718.042 212.469 718.938C212.198 719.812 212 720.521 211.875 721.062C211.833 721.25 211.781 721.604 211.719 722.125C211.656 722.625 211.594 723.167 211.531 723.75C211.469 724.333 211.417 724.885 211.375 725.406C211.354 725.906 211.344 726.26 211.344 726.469C211.156 726.844 210.885 727.031 210.531 727.031C210.177 727.031 209.906 726.844 209.719 726.469Z" fill="#C52929"/>
<path d="M106.594 699.046C101.651 694.007 97.3897 688.34 93.9181 682.192C91.6229 678.307 89.2505 673.895 86.8704 669.119C84.2942 664.021 82.0746 658.75 80.2275 653.344C79.2436 650.429 78.4523 647.454 77.8585 644.435C77.2047 641.31 76.8332 638.131 76.7484 634.939C76.6239 631.668 76.8869 628.395 77.5317 625.187C78.1368 621.936 79.1807 618.784 80.6346 615.815L80.8884 615.33C81.0233 615.46 81.1423 615.622 81.2775 615.768C86.4136 621.253 93.1899 624.92 100.587 626.217C104.346 626.834 108.19 626.68 111.887 625.762C115.761 624.803 119.323 622.866 122.236 620.137C123.815 618.744 125.163 617.109 126.228 615.292C127.436 613.264 128.167 610.987 128.365 608.635C128.499 606.346 128.15 604.054 127.339 601.909C126.528 599.765 125.273 597.816 123.658 596.19C120.731 593.245 116.866 591.421 112.734 591.034C108.952 590.657 105.134 591.03 101.496 592.132C97.9105 593.184 94.5083 594.784 91.4099 596.876C87.5489 599.494 84.1619 602.752 81.3943 606.51C80.8503 605.606 80.367 604.666 79.9476 603.698C77.4315 598.002 76.2115 591.818 76.3758 585.592C76.4896 579.786 77.4805 574.031 79.3149 568.522C80.892 563.703 83.0507 559.094 85.7431 554.799C88.1152 551.201 90.8064 547.824 93.7842 544.71C98.3925 539.791 103.526 535.391 109.092 531.592C112.805 529.013 116.708 526.72 120.768 524.732C124.037 523.158 126.459 522.132 128.358 521.38C129.995 520.701 131.092 520.298 131.927 519.949L131.175 521.073C129.031 524.275 127.145 527.208 125.613 529.72C122.566 534.743 120.837 538.086 121.407 538.487C121.977 538.888 124.466 536.356 128.169 531.88C130.036 529.642 132.175 526.936 134.504 523.878L135.387 522.719C135.773 522.224 136.115 521.697 136.411 521.143C136.594 520.785 136.746 520.411 136.866 520.026C137.018 519.537 137.102 519.029 137.114 518.517C137.14 517.462 136.829 516.426 136.226 515.56C135.39 514.507 134.362 513.62 133.198 512.947L130.634 511.167C116.23 501.556 104.013 494.659 103.361 495.83C102.709 497.001 113.842 505.756 128.247 515.383L130.156 516.632C129.196 516.771 128.246 516.973 127.312 517.238C124.513 517.968 121.773 518.91 119.117 520.056C114.724 521.897 110.51 524.139 106.529 526.754C100.536 530.616 95.0194 535.172 90.0915 540.326C86.835 543.705 83.9006 547.381 81.3264 551.306C78.324 556.035 75.925 561.123 74.1854 566.449C72.1387 572.588 71.0445 579.005 70.9411 585.476C70.7755 592.679 72.2252 599.827 75.1836 606.394C76.0282 608.29 77.0623 610.095 78.2702 611.783C77.9209 612.435 77.5715 613.087 77.272 613.754C75.6903 617.105 74.5662 620.654 73.9299 624.305C73.299 627.842 73.0819 631.441 73.2829 635.029C73.4427 638.454 73.913 641.857 74.688 645.197C75.369 648.335 76.2566 651.425 77.345 654.446C79.3466 659.942 81.7505 665.283 84.537 670.425C87.0939 675.23 89.6137 679.584 92.0963 683.487C95.8535 689.619 100.495 695.163 105.87 699.938C107.313 701.184 108.85 702.317 110.466 703.327C111.586 703.981 112.138 704.284 112.235 704.199C112.332 704.114 110.101 702.459 106.593 699.013L106.594 699.046ZM85.1829 611.52C84.7945 611.115 84.4385 610.676 84.0824 610.238C86.7209 606.572 90.0125 603.426 93.7918 600.957C96.556 599.16 99.5783 597.797 102.754 596.915C105.862 596.02 109.117 595.749 112.33 596.116C115.386 596.449 118.23 597.838 120.372 600.045C121.437 601.115 122.265 602.399 122.801 603.812C123.338 605.224 123.571 606.734 123.485 608.243C123.014 611.264 121.436 614.002 119.059 615.923C116.722 618.058 113.877 619.559 110.797 620.281C107.733 620.974 104.562 621.042 101.472 620.479C98.366 619.933 95.3705 618.88 92.6052 617.362C89.822 615.858 87.3128 613.894 85.1836 611.553" fill="#C52929"/>
<defs>
<filter id="filter0_d_2_182" x="32" y="308" width="328" height="308" filterUnits="userSpaceOnUse" color-interpolation-filters="sRGB">
<feFlood flood-opacity="0" result="BackgroundImageFix"/>
<feColorMatrix in="SourceAlpha" type="matrix" values="0 0 0 0 0 0 0 0 0 0 0 0 0 0 0 0 0 0 127 0" result="hardAlpha"/>
<feOffset dy="2"/>
<feGaussianBlur stdDeviation="2"/>
<feComposite in2="hardAlpha" operator="out"/>
<feColorMatrix type="matrix" values="0 0 0 0 0 0 0 0 0 0 0 0 0 0 0 0 0 0 0.25 0"/>
<feBlend mode="normal" in2="BackgroundImageFix" result="effect1_dropShadow_2_182"/>
<feBlend mode="normal" in="SourceGraphic" in2="effect1_dropShadow_2_182" result="shape"/>
</filter>
<filter id="filter1_d_2_182" x="42" y="318" width="308" height="128" filterUnits="userSpaceOnUse" color-interpolation-filters="sRGB">
<feFlood flood-opacity="0" result="BackgroundImageFix"/>
<feColorMatrix in="SourceAlpha" type="matrix" values="0 0 0 0 0 0 0 0 0 0 0 0 0 0 0 0 0 0 127 0" result="hardAlpha"/>
<feOffset dy="2"/>
<feGaussianBlur stdDeviation="2"/>
<feComposite in2="hardAlpha" operator="out"/>
<feColorMatrix type="matrix" values="0 0 0 0 0 0 0 0 0 0 0 0 0 0 0 0 0 0 0.25 0"/>
<feBlend mode="normal" in2="BackgroundImageFix" result="effect1_dropShadow_2_182"/>
<feBlend mode="normal" in="SourceGraphic" in2="effect1_dropShadow_2_182" result="shape"/>
</filter>
<filter id="filter2_d_2_182" x="194.355" y="429.541" width="95.7742" height="134.459" filterUnits="userSpaceOnUse" color-interpolation-filters="sRGB">
<feFlood flood-opacity="0" result="BackgroundImageFix"/>
<feColorMatrix in="SourceAlpha" type="matrix" values="0 0 0 0 0 0 0 0 0 0 0 0 0 0 0 0 0 0 127 0" result="hardAlpha"/>
<feOffset dx="2" dy="4"/>
<feComposite in2="hardAlpha" operator="out"/>
<feColorMatrix type="matrix" values="0 0 0 0 0 0 0 0 0 0 0 0 0 0 0 0 0 0 0.3 0"/>
<feBlend mode="multiply" in2="BackgroundImageFix" result="effect1_dropShadow_2_182"/>
<feBlend mode="normal" in="SourceGraphic" in2="effect1_dropShadow_2_182" result="shape"/>
</filter>
<filter id="filter3_d_2_182" x="105.516" y="429.541" width="94.129" height="134.459" filterUnits="userSpaceOnUse" color-interpolation-filters="sRGB">
<feFlood flood-opacity="0" result="BackgroundImageFix"/>
<feColorMatrix in="SourceAlpha" type="matrix" values="0 0 0 0 0 0 0 0 0 0 0 0 0 0 0 0 0 0 127 0" result="hardAlpha"/>
<feOffset dx="2" dy="4"/>
<feComposite in2="hardAlpha" operator="out"/>
<feColorMatrix type="matrix" values="0 0 0 0 0 0 0 0 0 0 0 0 0 0 0 0 0 0 0.3 0"/>
<feBlend mode="multiply" in2="BackgroundImageFix" result="effect1_dropShadow_2_182"/>
<feBlend mode="normal" in="SourceGraphic" in2="effect1_dropShadow_2_182" result="shape"/>
</filter>
<filter id="filter4_d_2_182" x="94" y="380.01" width="206" height="96.4563" filterUnits="userSpaceOnUse" color-interpolation-filters="sRGB">
<feFlood flood-opacity="0" result="BackgroundImageFix"/>
<feColorMatrix in="SourceAlpha" type="matrix" values="0 0 0 0 0 0 0 0 0 0 0 0 0 0 0 0 0 0 127 0" result="hardAlpha"/>
<feOffset dx="2" dy="4"/>
<feComposite in2="hardAlpha" operator="out"/>
<feColorMatrix type="matrix" values="0 0 0 0 0 0 0 0 0 0 0 0 0 0 0 0 0 0 0.25 0"/>
<feBlend mode="multiply" in2="BackgroundImageFix" result="effect1_dropShadow_2_182"/>
<feBlend mode="normal" in="SourceGraphic" in2="effect1_dropShadow_2_182" result="shape"/>
</filter>
<filter id="filter5_dd_2_182" x="182.661" y="408.734" width="27.6774" height="40.3303" filterUnits="userSpaceOnUse" color-interpolation-filters="sRGB">
<feFlood flood-opacity="0" result="BackgroundImageFix"/>
<feColorMatrix in="SourceAlpha" type="matrix" values="0 0 0 0 0 0 0 0 0 0 0 0 0 0 0 0 0 0 127 0" result="hardAlpha"/>
<feOffset dx="2" dy="4"/>
<feComposite in2="hardAlpha" operator="out"/>
<feColorMatrix type="matrix" values="0 0 0 0 0 0 0 0 0 0 0 0 0 0 0 0 0 0 0.2 0"/>
<feBlend mode="multiply" in2="BackgroundImageFix" result="effect1_dropShadow_2_182"/>
<feColorMatrix in="SourceAlpha" type="matrix" values="0 0 0 0 0 0 0 0 0 0 0 0 0 0 0 0 0 0 127 0" result="hardAlpha"/>
<feOffset dx="-1"/>
<feComposite in2="hardAlpha" operator="out"/>
<feColorMatrix type="matrix" values="0 0 0 0 0 0 0 0 0 0 0 0 0 0 0 0 0 0 0.2 0"/>
<feBlend mode="multiply" in2="effect1_dropShadow_2_182" result="effect2_dropShadow_2_182"/>
<feBlend mode="normal" in="SourceGraphic" in2="effect2_dropShadow_2_182" result="shape"/>
</filter>
<clipPath id="clip0_2_182">
<rect x="56" y="334" width="280" height="266" rx="12" fill="white"/>
</clipPath>
</defs>
</svg>
