<svg xmlns="http://www.w3.org/2000/svg" xmlns:xlink="http://www.w3.org/1999/xlink" width="159" height="209" fill="none"><g filter="url(#a)"><g clip-path="url(#b)"><path fill="#fff" d="M4 0h151v201H4z"/><path fill="url(#c)" d="M-40-5h358v358H-40z"/><path fill="url(#d)" d="M0 0h131v143H0z" transform="translate(14 17)"/><path fill="#c52a28" d="M22.854 190.322a26 26 0 0 0-.193-2.266 77 77 0 0 0-.292-2.276q-.146-1.146-.292-2.276a27 27 0 0 1-.16-2.285q-.178.063-.549.187-.372.11-.84.258l-1.003.318a46 46 0 0 0-1.826.574 20 20 0 0 1-.55.155.75.75 0 0 1-.465-.017 4 4 0 0 1-.412-.219l.537-.599q2.58-.43 5.042-1.362a39 39 0 0 0 4.735-2.2l.855-.06q.09.126.02.279a.9.9 0 0 1-.178.294q-.123.124-.248.232l-.11.09-3.877 1.71q-.017.001-.005.397l.066.937q.037.542.08 1.134.055.574.1.951.008.132.056.574.064.442.122 1.033.074.573.152 1.228.08.656.154 1.245.075.59.122 1.032.047.426.073.573a.86.86 0 0 1-.128.521.8.8 0 0 1-.323.337.46.46 0 0 1-.396.011q-.189-.102-.267-.51m6.26-.721a1.5 1.5 0 0 1-.1-.24q-.063-.195-.128-.421a8 8 0 0 1-.114-.438 2 2 0 0 1-.055-.31l-.561-7.989a.23.23 0 0 1 .132-.241.8.8 0 0 1 .324-.089q.196-.03.345-.024l.182.004.622 8.844a.62.62 0 0 0 .213.447q.193.169.448.266.253.081.519.096.264-.002.441-.064.255.329.023.56-.216.213-.658.278-.427.046-.915-.101a1.3 1.3 0 0 1-.718-.578m-1.439-12.239q-.033-.477.336-.635a.96.96 0 0 1 .775-.021l.061.871a1 1 0 0 1-.178.045l-.264.019-.263.018a1 1 0 0 1-.166-.021.5.5 0 0 1-.19-.119q-.108-.108-.11-.157m5.474 12.534q-.379-.204-.592-.669a6.3 6.3 0 0 1-.319-1.002 8 8 0 0 1-.136-.998l-.048-.69q-.013-.181-.035-.725a81 81 0 0 1-.04-1.285l-.044-1.567q-.027-.84-.044-1.566a92 92 0 0 0-.041-1.286 15 15 0 0 0-.018-.725l-.06-.855a48 48 0 0 0-.181-2.581l-.06-.855a1.8 1.8 0 0 1 .41-.277.4.4 0 0 1 .294-.037q.135.024.15.254l.943 13.414a.8.8 0 0 0 .085.275q.093.142.216.249a.53.53 0 0 0 .273.13q.165.004.32-.155l1.87-1.833q.11.372.04.79a2.5 2.5 0 0 1-.275.796 2.8 2.8 0 0 1-1.171 1.206q-.368.174-.763.202a1.45 1.45 0 0 1-.774-.21m4.093-.288q-.379-.204-.592-.668a6.3 6.3 0 0 1-.318-1.002 8 8 0 0 1-.136-.998l-.049-.691q-.013-.18-.034-.724a81 81 0 0 1-.041-1.286l-.044-1.566a253 253 0 0 1-.044-1.567 92 92 0 0 0-.04-1.285q-.006-.545-.019-.726l-.06-.855a48 48 0 0 0-.181-2.581l-.06-.855q.234-.198.41-.276a.4.4 0 0 1 .294-.037q.135.023.15.253l.943 13.415a.8.8 0 0 0 .086.274q.092.142.215.25a.53.53 0 0 0 .274.129q.165.005.32-.155l1.87-1.833q.108.373.038.791a2.5 2.5 0 0 1-.274.795 2.8 2.8 0 0 1-1.17 1.206q-.369.175-.763.202a1.43 1.43 0 0 1-.775-.21m17.023-1.774q-.258-.378-.503-1.055a32 32 0 0 1-.774-2.787q-.142-.618-.197-.911-.028.298-.136.885a13.4 13.4 0 0 1-.788 2.649 5.5 5.5 0 0 1-.66 1.186q-.36.505-.809.718-.448.213-.963-.065-.033-.014-.09-.109a5 5 0 0 1-.116-.24l-.085-.275a1 1 0 0 1-.048-.211l-.482-6.855q-.278-.443-.332-.737-.055-.31.032-.481a.4.4 0 0 1 .25-.216.6.6 0 0 1 .362-.009.64.64 0 0 1 .326.176.55.55 0 0 1 .158.369l.48 6.838.357.834q.765-.615 1.203-1.456.436-.84.634-1.779a11 11 0 0 0 .23-1.916q.03-.977-.001-1.883.08-.023.211-.048a.8.8 0 0 1 .281-.003.44.44 0 0 1 .237.082q.12.058.163.204l1.555 5.904.656 1.11q.36-.29.51-.961.153-.671.17-1.581a22 22 0 0 0-.055-1.962 68 68 0 0 0-.148-2.104 117 117 0 0 1-.124-2.007 11 11 0 0 1 .049-1.656q.082-.699.322-1.063.255-.364.743-.234.336.075.339.356.002.264-.142.572a3.3 3.3 0 0 1-.308.55q-.165.243-.18.261l.542 7.709q.023.33-.095.767a4.3 4.3 0 0 1-.303.864 4.4 4.4 0 0 1-.475.76 1.5 1.5 0 0 1-.61.489.96.96 0 0 1-.677-.002q-.357-.14-.709-.677m4.866-.342a1.5 1.5 0 0 1-.1-.241 13 13 0 0 1-.128-.42 8 8 0 0 1-.113-.438 2 2 0 0 1-.055-.31l-.562-7.99a.23.23 0 0 1 .132-.24.8.8 0 0 1 .324-.089q.196-.03.346-.024.165.005.182.003l.621 8.845a.62.62 0 0 0 .213.447q.194.168.449.266.253.081.518.096.265-.003.442-.064.255.329.023.56-.217.214-.658.277a2.3 2.3 0 0 1-.916-.101 1.3 1.3 0 0 1-.718-.577m-1.438-12.239q-.033-.477.335-.635a.95.95 0 0 1 .775-.022l.062.872a1 1 0 0 1-.179.045l-.263.019-.263.018a1 1 0 0 1-.167-.021.5.5 0 0 1-.19-.119q-.106-.108-.11-.157m5.342 12.543q0-.214-.036-.741l-.157-2.236q-.036-.526-.068-.738l-.096-.423a17 17 0 0 0-.153-.766 45 45 0 0 0-.18-.929 65 65 0 0 0-.198-.927l-.17-.765a13 13 0 0 0-.08-.44 3.4 3.4 0 0 1-.066-.475q-.001-.248.068-.434a.45.45 0 0 1 .246-.265q.175-.095.528-.004.04.344.107.818.082.457.184.962.1.505.234.991.135.486.31.887.171-.623.336-1.097.18-.492.416-.905.235-.413.54-.781.303-.385.737-.796.542-.517.927-.445.4.055.68.514.296.442.512 1.17.216.729.407 1.557l.377 1.609q.203.78.459 1.356.254.56.586.818.347.24.823-.042.18.434.079.656-.084.204-.346.255-.245.034-.6-.09a4 4 0 0 1-.721-.379 3.4 3.4 0 0 1-.638-.616 2.3 2.3 0 0 1-.418-.78 8 8 0 0 1-.183-.961 27 27 0 0 0-.25-1.437 10 10 0 0 0-.419-1.49q-.25-.743-.66-1.16l-1.072 1.199q-.045.069-.205.609-.144.539-.325 1.245a41 41 0 0 0-.347 1.413q-.165.705-.234 1.139-.022.151-.043.565-.021.398-.038.862a32 32 0 0 0-.021.877q.01.395.023.56-.127.306-.407.326t-.448-.266m11.824-1.706a5.3 5.3 0 0 1-.655-1.326 11 11 0 0 1-.39-1.558 16 16 0 0 1-.194-1.589 50 50 0 0 1-.053-1.45.9.9 0 0 0-.523.07 5 5 0 0 0-.607.307q-.318.17-.65.376a3.3 3.3 0 0 1-.623.308 1.2 1.2 0 0 1-.54.071q-.25-.031-.42-.318-.166-.268-.014-.445.17-.177.492-.282.339-.123.78-.187.44-.081.83-.174t.663-.212q.27-.134.273-.349l.135-6.304a.3.3 0 0 1 .132-.24.6.6 0 0 1 .29-.103.47.47 0 0 1 .285.062q.136.056.148.221l.38 5.408a1 1 0 0 0 .444-.031q.21-.08.417-.178t.401-.16q.21-.064.444-.031a.29.29 0 0 1-.008.347q-.121.157-.247.249l-.283.202a10 10 0 0 0-.41.293 9 9 0 0 1-.41.276 3 3 0 0 1-.268.168q0 .23.023.808l.085 1.2.085 1.216q.056.558.088.787.12.768.396 1.393.275.624.695.959.42.333.962.296.56-.04 1.263-.601.141.369.031.675a1.06 1.06 0 0 1-.394.507q-.285.185-.692.263a2.5 2.5 0 0 1-.842.01 2.7 2.7 0 0 1-.83-.289 2.05 2.05 0 0 1-.689-.645m6.094.447a4.3 4.3 0 0 1-1.19-1.189 7 7 0 0 1-.72-1.535 1.6 1.6 0 0 1-.282.202q-.19.112-.4.193a2.6 2.6 0 0 1-.387.126q-.196.031-.3-.028-.088-.06-.064-.21.038-.168.279-.499.03-.052.182-.228l.354-.371.336-.388a3 3 0 0 0 .181-.244q.153-.423.15-.919.015-.497-.022-1.022a17 17 0 0 1-.01-1.074q.013-.53.178-1.003.096-.272.382-.671.301-.419.67-.807.387-.392.777-.699.408-.326.698-.413.308-.087.455.117.162.204.057.822-.13.736-.46 1.453-.314.699-.66 1.401-.35.685-.664 1.368-.3.682-.4 1.367a4 4 0 0 0-.02.893q.036.51.187 1.011.15.502.444.911.291.392.764.524.54.16 1.058.025.52-.136.993-.45a5.3 5.3 0 0 0 .921-.758q.43-.46.794-.932.363-.472.647-.904l.475-.761.3.277q.122.09-.108.569a6.5 6.5 0 0 1-.666 1.104q-.436.609-1.051 1.263-.615.655-1.293 1.116a3.7 3.7 0 0 1-1.345.606 1.54 1.54 0 0 1-1.24-.243m-1.061-7.112a3 3 0 0 0-.012.298l.03.428.03.427q.03.196.052.277.464-.94.852-1.992.389-1.052.579-2.106a2 2 0 0 0-.662.46q-.277.284-.466.66-.19.36-.293.764-.087.403-.11.784m7.89 6.731q-.225.56-.405.574-.18.029-.338-.34-.141-.353-.27-1.022a26 26 0 0 1-.204-1.489q-.075-.82-.121-1.726a83 83 0 0 1-.073-1.746 43 43 0 0 1 .007-1.537q.017-.711.055-1.11.053-.417.133-.456.08-.038.195.433.499-.432 1.083-.82.582-.405 1.207-.679a5.2 5.2 0 0 1 1.293-.405 3.4 3.4 0 0 1 1.307.024q.081.209.051.492a.43.43 0 0 1-.287.383 4 4 0 0 0-.693-.001q-.427.03-.9.13a6 6 0 0 0-.938.28q-.467.182-.844.456a2.1 2.1 0 0 0-.584.619q-.208.345-.175.806zm15.129-1.459a2.8 2.8 0 0 1-.965-1.039 4.3 4.3 0 0 1-.395-1.393 6.6 6.6 0 0 1 .054-1.59q.14-.82.399-1.598.26-.777.593-1.445.348-.686.711-1.157.363-.489.695-.693.332-.222.557-.073.045.179.162.666.132.471.254 1.023.136.536.237 1.024l.161.65q.048.212.049.459 0 .231-.069.434a.58.58 0 0 1-.259.299q-.175.096-.495.019a3 3 0 0 0-.126-.388 8 8 0 0 0-.206-.58 7 7 0 0 0-.224-.596l-.144-.403-.299-.259q-.485.38-.785 1.046-.284.664-.379 1.431-.096.75.023 1.502.134.733.471 1.288.351.537.915.795.578.24 1.386-.015.825-.256 1.889-1.091 1.063-.851 2.386-2.497l.04.575q.003.05-.176.31-.18.261-.437.609-.257.332-.531.665a7 7 0 0 1-.442.527 10 10 0 0 1-1.102 1.019 4.8 4.8 0 0 1-1.22.73 3.1 3.1 0 0 1-1.339.226q-.679-.018-1.389-.48m7.846-.254a3.6 3.6 0 0 1-.46-1.372 9.4 9.4 0 0 1-.019-1.453q0-.231.034-.696a167 167 0 0 1 .174-2.226q.055-.632.097-1.196.043-.565.079-.997.051-.45.069-.665.083-.7.197-1.187.13-.505.374-.787.26-.282.688-.329.442-.047 1.149.134.084.01.19.119.105.092.126.14.047.211.161.649.129.438.285 1.005.154.55.313 1.167.175.599.33 1.166.154.552.268.989.13.438.194.647.328 1.15.723 1.585.393.418.805.406t.82-.322q.423-.327.828-.669.405-.359.766-.616.363-.257.652-.128.023.312-.105.619a3 3 0 0 1-.323.584 3.5 3.5 0 0 1-.411.491 5 5 0 0 1-.435.394q-.877.674-1.5.75-.606.076-1.055-.207-.45-.282-.751-.806a14 14 0 0 1-.554-1.068 11 11 0 0 0-.464-.958q-.212-.432-.483-.528-.034.217-.162.755-.11.536-.25 1.14a207 207 0 0 1-.445 1.899q-.027.084-.126.322a5 5 0 0 1-.227.528 5 5 0 0 1-.341.553q-.18.26-.385.407a.53.53 0 0 1-.42.129q-.217-.035-.406-.368m.514-4.91q-.019.2.002.727l.078 1.118.079 1.118q.053.524.101.736.514-.912.894-2.095.378-1.2.521-2.449.159-1.267.024-2.479-.135-1.23-.65-2.201a7.4 7.4 0 0 0-.436 1.319 19 19 0 0 0-.316 1.608 36 36 0 0 0-.207 1.518q-.068.699-.09 1.08m12.391 4.003q-.014-.66-.064-1.383a22 22 0 0 0-.339-2.934q-.118-.735-.295-1.383-.315-1.184-.72-1.783-.39-.617-.787-.622-.382-.023-.688.56-.29.566-.389 1.746-.02.183-.043.564-.023.382-.055.863-.016.48-.044 1.028-.012.53-.044 1.01-.016.48-.022.861l-.01.562a.47.47 0 0 1-.357.339.9.9 0 0 1-.495.002l-1.16-8.509a.5.5 0 0 1 .074-.368.53.53 0 0 1 .248-.233.35.35 0 0 1 .295-.02q.153.054.219.282l.754 2.507q.422-1.269.815-1.808.406-.558.783-.6.377-.043.749.31.372.354.706.876.35.504.671 1.093.321.572.631.98.511-2.365 1.294-3.445.799-1.097 1.601-.971.817.123 1.522 1.445.703 1.306 1.072 3.741.06.376.12 1 .059.607.101 1.198.04.593.056 1.037.013.43-.017.464l-.26.299-.614-.518q.038-.863-.076-1.779a16 16 0 0 0-.312-1.862 24 24 0 0 0-.457-1.801 57 57 0 0 0-.511-1.633q-.277-.64-.613-.717-.336-.092-.665.163-.314.237-.563.7a4 4 0 0 0-.368.868 21 21 0 0 0-.2.675l-.206.841-.179.739-.09.37q-.045.3-.092 1.031a210 210 0 0 1-.073 1.558q-.024.828-.038 1.572-.015.728-.01 1.025.017.246-.112.288a.47.47 0 0 1-.299-.012 1.8 1.8 0 0 1-.444-.216m10.406-.731a4.3 4.3 0 0 1-1.191-1.189 7 7 0 0 1-.719-1.535 1.6 1.6 0 0 1-.283.201q-.19.113-.4.194a2.6 2.6 0 0 1-.387.126q-.197.03-.299-.028-.087-.06-.065-.211.037-.168.279-.498.03-.053.182-.228l.354-.372.336-.387q.152-.192.181-.244.153-.424.151-.919a10 10 0 0 0-.023-1.023 18 18 0 0 1-.009-1.073q.012-.53.177-1.003.097-.271.383-.672.3-.417.67-.807.386-.39.777-.698.406-.326.698-.413.307-.088.454.117.163.202.058.822a6 6 0 0 1-.46 1.453q-.314.699-.661 1.401-.35.686-.664 1.368-.3.682-.4 1.366a4 4 0 0 0-.02.894q.036.51.187 1.011t.444.91q.292.393.764.525.54.16 1.059.025a3.3 3.3 0 0 0 .992-.45 5.2 5.2 0 0 0 .922-.759q.43-.46.793-.931a14 14 0 0 0 .647-.904l.475-.761.301.277q.122.09-.109.569a6.6 6.6 0 0 1-.666 1.104q-.436.609-1.051 1.263-.615.655-1.293 1.115a3.7 3.7 0 0 1-1.345.607 1.54 1.54 0 0 1-1.239-.243m-1.062-7.112a3 3 0 0 0-.012.298l.06.855q.03.196.053.277.462-.94.851-1.992a12.5 12.5 0 0 0 .579-2.106 2 2 0 0 0-.662.459q-.277.285-.465.661-.19.36-.294.764-.087.403-.11.784"/></g><path stroke="#d6d6d6" stroke-dasharray="24 24" stroke-linecap="round" d="M4.5.5h150v200H4.5z"/></g><defs><pattern id="c" width="1" height="1" patternContentUnits="objectBoundingBox"><use xlink:href="#e" transform="scale(.00083)"/></pattern><pattern id="d" width="1" height="1" patternContentUnits="objectBoundingBox"><use xlink:href="#f" transform="matrix(.00173 0 0 .00159 -.54 0)"/></pattern><image xlink:href="/polaroid/polaroid-frame.assets/polaroid-frame-0.webp" id="e" width="1200" height="1200" preserveAspectRatio="none"/><image xlink:href="/polaroid/polaroid-frame.assets/polaroid-frame-1.webp" id="f" width="1200" height="630" preserveAspectRatio="none"/><clipPath id="b"><path fill="#fff" d="M4 0h151v201H4z"/></clipPath><filter id="a" width="159" height="209" x="0" y="0" color-interpolation-filters="sRGB" filterUnits="userSpaceOnUse"><feFlood flood-opacity="0" result="BackgroundImageFix"/><feColorMatrix in="SourceAlpha" result="hardAlpha" values="0 0 0 0 0 0 0 0 0 0 0 0 0 0 0 0 0 0 127 0"/><feOffset dy="4"/><feGaussianBlur stdDeviation="2"/><feComposite in2="hardAlpha" operator="out"/><feColorMatrix values="0 0 0 0 0 0 0 0 0 0 0 0 0 0 0 0 0 0 0.25 0"/><feBlend in2="BackgroundImageFix" result="effect1_dropShadow_7_961"/><feBlend in="SourceGraphic" in2="effect1_dropShadow_7_961" result="shape"/></filter></defs></svg>