<svg width="173" height="69" viewBox="0 0 173 69" fill="none" xmlns="http://www.w3.org/2000/svg">
<path d="M121.136 59.0657C122.717 66.1086 115.688 61.6148 111.935 61.8964L110.731 60.6547C111.199 60.55 119.683 52.5956 121.136 59.0657Z" fill="#748BDE" stroke="#485686" stroke-width="0.1" stroke-linecap="round" stroke-linejoin="round"/>
<path d="M112.98 53.1644C105.716 51.9513 108.46 57.7474 109.106 60.8476L112.98 61.252C112.98 60.8476 119.351 54.2284 112.98 53.1644Z" fill="#6C80C6" stroke="#485686" stroke-width="0.1" stroke-linecap="round" stroke-linejoin="round"/>
<path d="M116.325 68.142C109.412 70.3654 110.941 64.2648 110.948 61.118L114.684 60.1714C114.766 60.5699 122.388 66.192 116.325 68.142Z" fill="#6C80C6" stroke="#485686" stroke-width="0.1" stroke-linecap="round" stroke-linejoin="round"/>
<path d="M102.759 57.7969C100.851 63.774 107.579 61.8969 111.453 60.6837L112.419 59.4701C111.936 59.4446 104.432 52.5545 102.759 57.7969Z" fill="#748BDE" stroke="#485686" stroke-width="0.1" stroke-linecap="round" stroke-linejoin="round"/>
<path d="M104.181 65.8983C107.748 70.5194 110.667 65.2223 112.242 62.0964L110.964 60.125C110.625 60.4137 101.053 61.8454 104.181 65.8983Z" fill="#748BDE" stroke="#485686" stroke-width="0.1" stroke-linecap="round" stroke-linejoin="round"/>
<ellipse cx="111.935" cy="60.6832" rx="2.90553" ry="2.42627" fill="#9BAFF3"/>
<path d="M111.936 59.3157C112.911 59.3159 113.622 59.9682 113.622 60.6829C113.622 61.3977 112.911 62.0508 111.936 62.051C110.96 62.051 110.248 61.3978 110.248 60.6829C110.248 59.968 110.96 59.3157 111.936 59.3157Z" fill="#FCDC8A" stroke="#9BAFF3" stroke-width="0.5"/>
<path d="M131.27 55.7679C131.27 57.5176 133.662 59.487 134.859 60.7887C135.09 60.9747 135.653 61.235 136.055 60.7887C137.251 59.487 139.644 57.8693 139.644 55.7679C139.644 54.6521 137.251 52.4206 135.457 55.7679C133.662 52.4206 131.27 54.6521 131.27 55.7679Z" fill="#8F4FC2" stroke="#583276" stroke-width="0.1" stroke-linecap="round" stroke-linejoin="round"/>
<path d="M131.613 59.0158C132.19 60.1004 134.323 60.7642 135.495 61.2925C135.699 61.3539 136.134 61.3841 136.236 61.0139C136.548 59.9284 137.498 58.3685 136.804 57.0657C136.436 56.3741 134.217 55.5479 134.209 58.0408C131.992 56.3836 131.245 58.3241 131.613 59.0158Z" fill="#AC68E1" stroke="#583276" stroke-width="0.1" stroke-linecap="round" stroke-linejoin="round"/>
<path d="M129.354 64.412C131.437 64.412 133.782 62.402 135.331 61.397C135.552 61.2026 135.862 60.7294 135.331 60.3919C133.782 59.3869 131.856 57.3769 129.354 57.3769C128.026 57.3769 125.37 59.3869 129.354 60.8945C125.37 62.402 128.026 64.412 129.354 64.412Z" fill="#8F4FC2" stroke="#583276" stroke-width="0.1" stroke-linecap="round" stroke-linejoin="round"/>
<path d="M133.221 64.9466C134.512 64.4616 135.302 62.6696 135.931 61.6858C136.004 61.5138 136.04 61.1483 135.599 61.0628C134.307 60.8006 132.45 60.0029 130.899 60.5854C130.076 60.8947 129.093 62.7593 132.06 62.766C130.087 64.6283 132.397 65.2558 133.221 64.9466Z" fill="#AC68E1" stroke="#583276" stroke-width="0.1" stroke-linecap="round" stroke-linejoin="round"/>
<path d="M131.27 66.2321C131.27 64.4824 133.662 62.513 134.859 61.2113C135.09 61.0253 135.653 60.7649 136.055 61.2113C137.251 62.513 139.644 64.1307 139.644 66.2321C139.644 67.3479 137.251 69.5794 135.457 66.2321C133.662 69.5794 131.27 67.3479 131.27 66.2321Z" fill="#8F4FC2" stroke="#583276" stroke-width="0.1" stroke-linecap="round" stroke-linejoin="round"/>
<path d="M135.089 65.5462C134.512 64.4616 135.345 62.6836 135.657 61.598C135.739 61.4289 136.003 61.1363 136.399 61.3195C137.57 61.8478 139.587 62.2935 140.28 63.5962C140.649 64.2879 139.902 66.2283 137.685 64.5712C137.677 67.0641 135.457 66.2379 135.089 65.5462Z" fill="#AC68E1" stroke="#583276" stroke-width="0.1" stroke-linecap="round" stroke-linejoin="round"/>
<path d="M142.146 64.4121C140.063 64.4121 137.718 62.4021 136.169 61.397C135.948 61.2026 135.638 60.7295 136.169 60.392C137.718 59.387 139.644 57.3769 142.146 57.3769C143.474 57.3769 146.13 59.387 142.146 60.8945C146.13 62.4021 143.474 64.4121 142.146 64.4121Z" fill="#8F4FC2" stroke="#583276" stroke-width="0.1" stroke-linecap="round" stroke-linejoin="round"/>
<path d="M140.994 62.0266C139.703 62.5116 137.587 61.8114 136.295 61.5492C136.093 61.4803 135.745 61.2591 135.963 60.9262C136.592 59.9424 137.122 58.2479 138.673 57.6654C139.496 57.3562 141.806 57.9837 139.834 59.846C142.801 59.8527 141.818 61.7173 140.994 62.0266Z" fill="#AC68E1" stroke="#583276" stroke-width="0.1" stroke-linecap="round" stroke-linejoin="round"/>
<path d="M135.963 60.9262C135.745 61.2591 136.093 61.4803 136.294 61.5492C136.713 61.6343 137.219 61.7653 137.755 61.8871C137.19 61.5412 136.163 60.6426 136.577 59.8155C136.358 60.2189 136.165 60.6094 135.963 60.9262Z" fill="#F5CF6C" stroke="#F5CF6C" stroke-width="0.1" stroke-linecap="round" stroke-linejoin="round"/>
<path d="M135.599 61.0629C136.04 61.1483 136.004 61.5138 135.931 61.6859C135.727 62.0049 135.506 62.4088 135.257 62.8256C135.327 62.2412 135.214 60.9992 134.204 60.7069C134.708 60.8384 135.183 60.9784 135.599 61.0629Z" fill="#F5CF6C" stroke="#F5CF6C" stroke-width="0.1" stroke-linecap="round" stroke-linejoin="round"/>
<path d="M136.359 61.3346C135.969 61.1491 135.714 61.4384 135.636 61.6063C135.54 61.956 135.392 62.3778 135.255 62.8251C135.653 62.3555 136.691 61.5047 137.659 61.8588C137.187 61.6714 136.73 61.5069 136.359 61.3346Z" fill="#F5CF6C" stroke="#F5CF6C" stroke-width="0.1" stroke-linecap="round" stroke-linejoin="round"/>
<path d="M136.184 61.0335C136.1 61.3971 135.69 61.3576 135.495 61.2924C135.132 61.1147 134.674 60.9207 134.2 60.7027C134.857 60.7762 136.246 60.7154 136.546 59.8847C136.412 60.2998 136.268 60.6902 136.184 61.0335Z" fill="#F5CF6C" stroke="#F5CF6C" stroke-width="0.1" stroke-linecap="round" stroke-linejoin="round"/>
<ellipse cx="135.959" cy="61.3166" rx="0.418719" ry="0.351759" fill="#55794F"/>
<path d="M88.2702 55.1355C87.7736 54.2992 87.2357 54.7871 87.0288 55.1355C86.5323 55.9718 86.8219 57.9231 87.0288 58.7943H88.2702C88.4771 57.9231 88.7667 55.9718 88.2702 55.1355Z" fill="#FCF4E1" stroke="#76563F" stroke-width="0.1" stroke-linecap="round" stroke-linejoin="round"/>
<path d="M83.235 56.4588C82.1817 56.1631 82.2109 56.8284 82.3572 57.198C82.7083 58.085 84.5517 59.2923 85.4294 59.7851L86.3072 59.0459C85.722 58.3067 84.2883 56.7545 83.235 56.4588Z" fill="#FCF4E1" stroke="#76563F" stroke-width="0.1" stroke-linecap="round" stroke-linejoin="round"/>
<path d="M80.7859 60.3927C79.7928 60.8109 80.3721 61.2638 80.7859 61.4381C81.779 61.8562 84.0962 61.6123 85.1306 61.4381L85.1306 60.3927C84.0962 60.2185 81.779 59.9746 80.7859 60.3927Z" fill="#FCF4E1" stroke="#76563F" stroke-width="0.1" stroke-linecap="round" stroke-linejoin="round"/>
<path d="M82.3574 64.6328C82.0062 65.5198 82.7962 65.4952 83.2351 65.372C84.2885 65.0763 85.7221 63.524 86.3073 62.7849L85.4296 62.0457C84.5518 62.5385 82.7085 63.7458 82.3574 64.6328Z" fill="#FCF4E1" stroke="#76563F" stroke-width="0.1" stroke-linecap="round" stroke-linejoin="round"/>
<path d="M88.2702 66.6954C87.7736 67.5316 87.2357 67.0438 87.0288 66.6954C86.5323 65.8591 86.8219 63.9077 87.0288 63.0366H88.2702C88.4771 63.9077 88.7667 65.8591 88.2702 66.6954Z" fill="#FCF4E1" stroke="#76563F" stroke-width="0.1" stroke-linecap="round" stroke-linejoin="round"/>
<path d="M92.9417 64.6328C93.2928 65.5198 92.5028 65.4952 92.0639 65.372C91.0106 65.0763 89.5769 63.5241 88.9918 62.7849L89.8695 62.0457C90.7473 62.5385 92.5906 63.7458 92.9417 64.6328Z" fill="#FCF4E1" stroke="#76563F" stroke-width="0.1" stroke-linecap="round" stroke-linejoin="round"/>
<path d="M94.5132 60.3927C95.5063 60.8109 94.927 61.2638 94.5132 61.4381C93.5201 61.8562 91.2029 61.6123 90.1684 61.4381L90.1684 60.3927C91.2029 60.2185 93.5201 59.9746 94.5132 60.3927Z" fill="#FCF4E1" stroke="#76563F" stroke-width="0.1" stroke-linecap="round" stroke-linejoin="round"/>
<path d="M92.0638 56.4588C93.1172 56.1631 93.0879 56.8284 92.9416 57.198C92.5905 58.085 90.7472 59.2923 89.8694 59.7851L88.9916 59.0459C89.5768 58.3067 91.0105 56.7545 92.0638 56.4588Z" fill="#FCF4E1" stroke="#76563F" stroke-width="0.1" stroke-linecap="round" stroke-linejoin="round"/>
<path d="M85.905 55.3875C85.1069 54.7175 84.8456 55.3205 84.8147 55.7057C84.7405 56.6304 85.8395 58.4166 86.3982 59.1942L87.4885 58.876C87.2932 57.9924 86.7031 56.0576 85.905 55.3875Z" fill="#FFF9E9" stroke="#76563F" stroke-width="0.1" stroke-linecap="round" stroke-linejoin="round"/>
<path d="M81.737 58.0804C80.6327 58.0689 80.9616 58.6716 81.2641 58.9744C81.99 59.7011 84.2357 60.3536 85.2678 60.589L85.7408 59.695C84.8664 59.1616 82.8414 58.0919 81.737 58.0804Z" fill="#FFF9E9" stroke="#76563F" stroke-width="0.1" stroke-linecap="round" stroke-linejoin="round"/>
<path d="M81.0911 62.4177C80.3635 63.1035 81.1054 63.4011 81.5673 63.4642C82.6758 63.6155 84.7069 62.7477 85.5839 62.2949L85.1077 61.2484C84.072 61.3524 81.8187 61.7319 81.0911 62.4177Z" fill="#FFF9E9" stroke="#76563F" stroke-width="0.1" stroke-linecap="round" stroke-linejoin="round"/>
<path d="M84.2913 65.9755C84.3745 66.9144 85.1269 66.6876 85.4927 66.4569C86.3706 65.9031 87.0174 64.0493 87.2312 63.1916L86.0298 62.7102C85.4157 63.4074 84.2082 65.0366 84.2913 65.9755Z" fill="#FFF9E9" stroke="#76563F" stroke-width="0.1" stroke-linecap="round" stroke-linejoin="round"/>
<path d="M90.6852 66.2942C90.611 67.2188 89.9274 66.8916 89.5949 66.6124C88.7968 65.9423 88.2067 64.0076 88.0114 63.1239L89.1017 62.8058C89.6604 63.5833 90.7594 65.3696 90.6852 66.2942Z" fill="#FFF9E9" stroke="#76563F" stroke-width="0.1" stroke-linecap="round" stroke-linejoin="round"/>
<path d="M94.236 63.0255C94.9619 63.7522 94.2231 63.9243 93.763 63.9195C92.6586 63.9081 90.6337 62.8383 89.7592 62.3049L90.2322 61.4109C91.2643 61.6463 93.51 62.2989 94.236 63.0255Z" fill="#FFF9E9" stroke="#76563F" stroke-width="0.1" stroke-linecap="round" stroke-linejoin="round"/>
<path d="M93.9327 58.5358C95.0413 58.6871 94.7121 59.2965 94.4089 59.5822C93.6813 60.2681 91.428 60.6475 90.3923 60.7515L89.9161 59.705C90.793 59.2522 92.8241 58.3845 93.9327 58.5358Z" fill="#FFF9E9" stroke="#76563F" stroke-width="0.1" stroke-linecap="round" stroke-linejoin="round"/>
<path d="M90.0073 55.5431C90.8852 54.9893 91.174 55.6333 91.2086 56.0245C91.2918 56.9634 90.0843 58.5925 89.4701 59.2897L88.2688 58.8083C88.4825 57.9506 89.1294 56.0968 90.0073 55.5431Z" fill="#FFF9E9" stroke="#76563F" stroke-width="0.1" stroke-linecap="round" stroke-linejoin="round"/>
<ellipse cx="87.691" cy="60.9503" rx="2.48446" ry="2.09218" fill="#FCDC8A" stroke="#F5CF6C"/>
<path d="M102.856 12.7546C106.456 5.95463 115.69 9.9213 119.856 12.7546C123.953 14.1939 129.887 17.7364 131.066 23.0012C131.662 25.6621 131.042 28.763 128.356 32.2546C118.356 45.2546 121.856 37.2546 111.356 42.7546C104.698 46.2423 103.066 41.6877 101.361 36.7405C100.377 33.8861 99.3686 30.9011 97.3563 29.2546C91.8563 24.7546 98.3563 21.2546 102.856 12.7546Z" fill="#EE8E48"/>
<path d="M131.066 23.0012C128.233 25.3345 120.656 29.6546 113.856 27.2546C107.056 24.8546 102.69 32.588 101.356 36.7546M119.856 12.7546C115.69 9.9213 106.456 5.95463 102.856 12.7546C98.3563 21.2546 91.8563 24.7546 97.3563 29.2546C102.856 33.7546 100.856 48.2546 111.356 42.7546C121.856 37.2546 118.356 45.2546 128.356 32.2546C136.356 21.8546 126.023 14.9213 119.856 12.7546Z" stroke="#AF5E24" stroke-width="0.5" stroke-linecap="round" stroke-linejoin="round"/>
<path d="M112.856 20.7546C114.106 20.7546 115.884 21.3886 117.362 22.3835C118.095 22.8766 118.728 23.4423 119.174 24.032C119.621 24.6237 119.856 25.2087 119.856 25.7546C119.856 26.8311 118.915 27.8297 117.415 28.5945C115.951 29.3407 114.153 29.7546 112.856 29.7546C110.371 29.7546 108.356 27.7399 108.356 25.2546C108.356 22.7694 110.371 20.7546 112.856 20.7546Z" fill="#262925" stroke="#191A18"/>
<path d="M113.65 23.5C114.176 23.5001 114.977 23.7877 115.66 24.2666C115.994 24.5009 116.275 24.7646 116.469 25.0312C116.663 25.2997 116.75 25.5433 116.75 25.75C116.75 26.1466 116.41 26.5811 115.713 26.9512C115.046 27.3054 114.226 27.4999 113.65 27.5C112.62 27.5 111.75 26.624 111.75 25.5C111.75 24.376 112.62 23.5 113.65 23.5Z" fill="#A78268" stroke="#76563F"/>
<path fill-rule="evenodd" clip-rule="evenodd" d="M128.356 32.2546C131.042 28.763 131.662 25.6621 131.066 23.0012C128.233 25.3345 120.656 29.6546 113.856 27.2546C110.221 25.9717 107.282 27.5844 105.129 30C103.259 32.0982 101.983 34.8022 101.361 36.7405C103.066 41.6877 104.698 46.2423 111.356 42.7546C115.405 40.6336 117.373 40.5203 118.835 40.436C121.165 40.3018 122.213 40.2414 128.356 32.2546Z" fill="#E37526"/>
<path d="M128.356 32.2546C131.042 28.763 131.662 25.6621 131.066 23.0012C129.887 17.7364 123.953 14.1939 119.856 12.7546C115.69 9.9213 106.456 5.95463 102.856 12.7546C98.3563 21.2546 91.8563 24.7546 97.3563 29.2546C99.3686 30.9011 100.377 33.8861 101.361 36.7405M101.361 36.7405C103.066 41.6877 104.698 46.2423 111.356 42.7546C115.405 40.6336 117.373 40.5203 118.835 40.436C121.165 40.3018 122.213 40.2414 128.356 32.2546C136.356 21.8546 126.023 14.9213 119.856 12.7546M131.066 23.0012C128.233 25.3345 120.656 29.6546 113.856 27.2546C110.221 25.9717 107.282 27.5844 105.129 30C103.259 32.0982 101.983 34.8022 101.361 36.7405M101.356 36.7546C101.358 36.7499 101.359 36.7452 101.361 36.7405" stroke="#AF5E24" stroke-width="0.5" stroke-linecap="round" stroke-linejoin="round"/>
<path d="M66.3471 6.52156C64.962 4.06499 63.4615 5.49799 62.8844 6.52156C61.4993 8.97814 62.3073 14.7102 62.8844 17.2691H66.3471C66.9242 14.7102 67.7322 8.97814 66.3471 6.52156Z" fill="#DEC585" stroke="#76563F" stroke-width="0.5" stroke-linecap="round" stroke-linejoin="round"/>
<path d="M52.3018 10.4088C49.3636 9.54023 49.4452 11.4944 49.8533 12.5801C50.8327 15.1857 55.9746 18.7322 58.4231 20.1797L60.8716 18.0084C59.2393 15.8371 55.24 11.2773 52.3018 10.4088Z" fill="#DEC585" stroke="#76563F" stroke-width="0.5" stroke-linecap="round" stroke-linejoin="round"/>
<path d="M45.4697 21.9646C42.6996 23.1929 44.3155 24.5236 45.4697 25.0354C48.2399 26.2637 54.7037 25.5471 57.5893 25.0353L57.5893 21.9646C54.7037 21.4529 48.2399 20.7364 45.4697 21.9646Z" fill="#DEC585" stroke="#76563F" stroke-width="0.5" stroke-linecap="round" stroke-linejoin="round"/>
<path d="M49.8533 34.4199C48.8738 37.0255 51.0775 36.9531 52.3018 36.5912C55.24 35.7227 59.2392 31.1629 60.8716 28.9916L58.4231 26.8203C55.9746 28.2678 50.8327 31.8143 49.8533 34.4199Z" fill="#DEC585" stroke="#76563F" stroke-width="0.5" stroke-linecap="round" stroke-linejoin="round"/>
<path d="M66.3471 40.4784C64.962 42.935 63.4615 41.502 62.8844 40.4784C61.4993 38.0219 62.3073 32.2898 62.8844 29.7309H66.3471C66.9242 32.2898 67.7322 38.0219 66.3471 40.4784Z" fill="#DEC585" stroke="#76563F" stroke-width="0.5" stroke-linecap="round" stroke-linejoin="round"/>
<path d="M79.3782 34.4199C80.3576 37.0255 78.1539 36.9531 76.9297 36.5912C73.9915 35.7227 69.9922 31.1629 68.3599 28.9916L70.8084 26.8203C73.2569 28.2678 78.3988 31.8143 79.3782 34.4199Z" fill="#DEC585" stroke="#76563F" stroke-width="0.5" stroke-linecap="round" stroke-linejoin="round"/>
<path d="M83.7617 21.9646C86.5319 23.1929 84.9159 24.5236 83.7617 25.0354C80.9915 26.2637 74.5278 25.5471 71.6421 25.0354L71.6421 21.9646C74.5278 21.4529 80.9915 20.7364 83.7617 21.9646Z" fill="#DEC585" stroke="#76563F" stroke-width="0.5" stroke-linecap="round" stroke-linejoin="round"/>
<path d="M76.9296 10.4088C79.8679 9.54023 79.7862 11.4944 79.3781 12.5801C78.3987 15.1857 73.2568 18.7322 70.8083 20.1797L68.3598 18.0084C69.9922 15.8371 73.9914 11.2773 76.9296 10.4088Z" fill="#DEC585" stroke="#76563F" stroke-width="0.5" stroke-linecap="round" stroke-linejoin="round"/>
<path d="M58.6709 7.0155C56.4379 5.07025 55.6705 6.85035 55.566 7.98356C55.3151 10.7033 58.352 15.9198 59.9018 18.1881L63.0067 17.2201C62.4919 14.6291 60.9039 8.96075 58.6709 7.0155Z" fill="#E8CD88" stroke="#76563F" stroke-width="0.5" stroke-linecap="round" stroke-linejoin="round"/>
<path d="M47.0242 14.9264C43.9389 14.9233 44.8294 16.7052 45.6603 17.5966C47.6546 19.7359 53.8989 21.6123 56.7718 22.2831L58.1357 19.613C55.7174 18.0521 50.1095 14.9296 47.0242 14.9264Z" fill="#E8CD88" stroke="#76563F" stroke-width="0.5" stroke-linecap="round" stroke-linejoin="round"/>
<path d="M45.1726 27.7243C43.1121 29.7329 45.1699 30.5729 46.4563 30.7419C49.5439 31.1474 55.2504 28.573 57.7177 27.2351L56.434 24.2175C53.5387 24.5495 47.2331 25.7157 45.1726 27.7243Z" fill="#E8CD88" stroke="#76563F" stroke-width="0.5" stroke-linecap="round" stroke-linejoin="round"/>
<path d="M54.098 38.1512C54.2829 40.9056 56.3637 40.2192 57.3811 39.5317C59.8227 37.8816 61.6894 32.421 62.3176 29.8969L59.0345 28.5165C57.312 30.5804 53.9131 35.3968 54.098 38.1512Z" fill="#E8CD88" stroke="#76563F" stroke-width="0.5" stroke-linecap="round" stroke-linejoin="round"/>
<path d="M71.9341 39.0165C71.6832 41.7362 69.7596 40.795 68.8292 39.9845C66.5962 38.0393 65.0082 32.3709 64.4934 29.7799L67.5983 28.8119C69.1481 31.0802 72.185 36.2968 71.9341 39.0165Z" fill="#E8CD88" stroke="#76563F" stroke-width="0.5" stroke-linecap="round" stroke-linejoin="round"/>
<path d="M81.8397 29.4034C83.8339 31.5427 81.7613 32.0749 80.4758 32.0736C77.3905 32.0705 71.7826 28.9479 69.3643 27.3871L70.7282 24.7169C73.6011 25.3877 79.8455 27.2642 81.8397 29.4034Z" fill="#E8CD88" stroke="#76563F" stroke-width="0.5" stroke-linecap="round" stroke-linejoin="round"/>
<path d="M81.0437 16.2581C84.1312 16.6636 83.186 18.4388 82.3274 19.2757C80.2669 21.2843 73.9613 22.4505 71.0661 22.7825L69.7823 19.7649C72.2496 18.427 77.9562 15.8526 81.0437 16.2581Z" fill="#E8CD88" stroke="#76563F" stroke-width="0.5" stroke-linecap="round" stroke-linejoin="round"/>
<path d="M70.1188 7.46839C72.5604 5.81834 73.3248 7.70116 73.4019 8.84882C73.5868 11.6032 70.1878 16.4196 68.4653 18.4835L65.1822 17.1031C65.8104 14.579 67.6772 9.11843 70.1188 7.46839Z" fill="#E8CD88" stroke="#76563F" stroke-width="0.5" stroke-linecap="round" stroke-linejoin="round"/>
<path d="M64.0244 15.8556C68.6962 15.8558 72.4306 19.2082 72.4307 23.2823C72.4307 27.3566 68.6963 30.7089 64.0244 30.7091C59.3524 30.7091 55.6172 27.3567 55.6172 23.2823C55.6172 19.208 59.3524 15.8556 64.0244 15.8556Z" fill="#76563F" stroke="#76563F" stroke-width="0.5"/>
<path d="M64.05 17.7918C67.465 17.7918 70.1806 20.2405 70.1809 23.2C70.1809 26.1597 67.4652 28.6092 64.05 28.6092C60.635 28.6091 57.9192 26.1597 57.9192 23.2C57.9195 20.2405 60.6351 17.7919 64.05 17.7918Z" fill="#A78268" stroke="#76563F" stroke-width="0.5"/>
<path d="M162.363 10.9032C167.259 20.0703 167.976 24.36 166.911 30.9087C165.869 37.3138 161.188 40.4997 158.238 41.5069C150.581 42.6303 146.901 38.4661 143.941 34.374C142.463 32.3034 139.163 26.1579 137.782 18.1402C138.917 18.2068 140.774 18.3772 142.167 18.7209C142.154 17.1333 143.235 15.4083 143.777 14.7442C145.529 14.6823 147.083 15.6887 147.641 16.1997C148.353 14.0676 149.549 12.2452 150.319 11.3288C151.649 11.6493 152.987 12.513 154.171 13.5297C154.657 12.9819 156.463 11.5362 157.624 11.0707C158.036 11.233 159.16 11.8655 160.354 13.097C161.087 12.1546 161.788 11.4135 162.363 10.9032Z" fill="#C1495E"/>
<path d="M160.354 13.097C161.087 12.1546 161.788 11.4135 162.363 10.9032C167.259 20.0703 167.976 24.36 166.911 30.9087C165.869 37.3138 161.188 40.4997 158.238 41.5069C150.581 42.6303 146.901 38.4661 143.941 34.374C142.463 32.3034 139.163 26.1579 137.782 18.1402C138.917 18.2068 140.774 18.3772 142.167 18.7209C143.749 19.111 145.441 19.6995 147.111 20.5313M158.238 41.5069C158.61 35.867 157.447 31.4896 155.46 28.1293M160.354 13.097C159.451 14.257 158.5 15.722 157.677 17.4371C156.272 20.364 155.241 24.0191 155.46 28.1293M155.46 28.1293C153.332 24.5312 150.259 22.099 147.111 20.5313M157.677 17.4371C157.012 16.4572 155.723 14.8621 154.171 13.5297M154.171 13.5297C152.987 12.513 151.649 11.6493 150.319 11.3288C149.549 12.2452 148.353 14.0676 147.641 16.1997M154.171 13.5297C154.657 12.9819 156.463 11.5362 157.624 11.0707C158.036 11.233 159.16 11.8655 160.354 13.097M147.111 20.5313C146.927 19.0649 147.184 17.5685 147.641 16.1997M147.641 16.1997C147.083 15.6887 145.529 14.6823 143.777 14.7442C143.235 15.4083 142.154 17.1333 142.167 18.7209" stroke="#3B4B38" stroke-width="0.1" stroke-linecap="round" stroke-linejoin="round"/>
<path fill-rule="evenodd" clip-rule="evenodd" d="M166.911 30.9087C167.976 24.36 167.259 20.0703 162.363 10.9032C161.788 11.4135 161.087 12.1546 160.354 13.097C159.451 14.257 158.5 15.722 157.677 17.4371C156.272 20.364 155.241 24.0191 155.46 28.1293C153.332 24.5312 150.259 22.099 147.111 20.5313C145.441 19.6995 143.749 19.111 142.167 18.7209C140.774 18.3772 138.917 18.2068 137.782 18.1402C139.163 26.1579 142.463 32.3034 143.941 34.374C146.901 38.4661 150.581 42.6303 158.238 41.5069C161.188 40.4997 165.869 37.3138 166.911 30.9087Z" fill="#DC536C"/>
<path d="M160.354 13.097C161.087 12.1546 161.788 11.4135 162.363 10.9032C167.259 20.0703 167.976 24.36 166.911 30.9087C165.869 37.3138 161.188 40.4997 158.238 41.5069C150.581 42.6303 146.901 38.4661 143.941 34.374C142.463 32.3034 139.163 26.1579 137.782 18.1402C138.917 18.2068 140.774 18.3772 142.167 18.7209C143.749 19.111 145.441 19.6995 147.111 20.5313M158.238 41.5069C158.61 35.867 157.447 31.4896 155.46 28.1293M160.354 13.097C159.451 14.257 158.5 15.722 157.677 17.4371C156.272 20.364 155.241 24.0191 155.46 28.1293M155.46 28.1293C153.332 24.5312 150.259 22.099 147.111 20.5313M157.677 17.4371C157.012 16.4572 155.723 14.8621 154.171 13.5297M154.171 13.5297C152.987 12.513 151.649 11.6493 150.319 11.3288C149.549 12.2452 148.353 14.0676 147.641 16.1997M154.171 13.5297C154.657 12.9819 156.463 11.5362 157.624 11.0707C158.036 11.233 159.16 11.8655 160.354 13.097M147.111 20.5313C146.927 19.0649 147.184 17.5685 147.641 16.1997M147.641 16.1997C147.083 15.6887 145.529 14.6823 143.777 14.7442C143.235 15.4083 142.154 17.1333 142.167 18.7209" stroke="#3B4B38" stroke-width="0.5" stroke-linecap="round" stroke-linejoin="round"/>
<path d="M3.31787 8.25615C17.5998 -4.86122 29.9845 9.93999 31.8179 16.2544C30.9596 15.365 29.4161 14.7047 27.3179 15.1525C24.3183 17.5173 19.8183 25.0946 19.3182 36.8814C19.1201 41.5505 16.6473 53.7198 6.81824 50.3522C4.81824 49.6786 4.9849 47.2651 5.31824 46.1426C5.31824 46.1426 5.64729 44.141 6.75142 41.512C7.3367 36.2655 3.45406 29.6867 2.48915 27.4905C-0.775478 20.5497 -0.44583 11.713 3.31787 8.25615Z" fill="#FFFAED"/>
<path d="M27.3179 15.1525C24.3183 17.5173 19.8183 25.0946 19.3182 36.8814C19.1201 41.5505 16.6473 53.7198 6.81824 50.3522C4.81824 49.6786 4.9849 47.2651 5.31824 46.1426C5.31824 46.1426 6.26231 40.4002 10.3179 35.5924C11.9507 33.6567 12.6294 30.8844 14.3179 28.0413C19.6319 19.0933 24.1194 15.8353 27.3179 15.1525C29.4161 14.7047 30.9596 15.365 31.8179 16.2544C29.9845 9.93999 17.5998 -4.86122 3.31787 8.25615C-0.44583 11.713 -0.775478 20.5497 2.48915 27.4905M10.3179 35.5924C7.26621 33.9118 3.99521 30.6925 2.48915 27.4905M2.48915 27.4905C3.45406 29.6867 7.3367 36.2655 6.75142 41.512" stroke="#758672" stroke-width="0.5" stroke-linecap="round" stroke-linejoin="round"/>
<path d="M13.2613 22.4566C13.6167 26.3866 12.2249 37.4463 11.4846 42.4848C10.5963 46.5157 8.73074 52.1589 8.37539 42.4848C8.02005 32.8108 9.4118 25.1018 10.1521 22.4566C10.8289 20.0381 12.906 18.5265 13.2613 22.4566Z" fill="#F5CF6C" stroke="#EEB648" stroke-linecap="round" stroke-linejoin="round"/>
<path fill-rule="evenodd" clip-rule="evenodd" d="M10.3179 35.5924C7.26621 33.9118 3.99521 30.6924 2.48915 27.4905C2.64747 27.8508 2.88433 28.3292 3.16712 28.9002C4.60787 31.8097 7.24067 37.1263 6.75142 41.512C5.64729 44.141 5.31824 46.1426 5.31824 46.1426C4.9849 47.2651 4.81824 49.6786 6.81824 50.3522C16.6473 53.7198 19.1201 41.5505 19.3182 36.8814C19.8183 25.0946 24.3183 17.5173 27.3179 15.1525C24.1194 15.8353 19.6319 19.0933 14.3179 28.0413C13.602 29.2466 13.0677 30.4392 12.5652 31.5608C11.8825 33.0847 11.2585 34.4774 10.3179 35.5924Z" fill="#EDF5D7"/>
<path d="M10.3179 35.5924C7.26621 33.9118 3.99521 30.6925 2.48915 27.4905M2.48915 27.4905C-0.775478 20.5497 -0.44583 11.713 3.31787 8.25615C17.5998 -4.86122 29.9845 9.93999 31.8179 16.2544C30.9596 15.365 29.4161 14.7047 27.3179 15.1525C24.1194 15.8353 19.6319 19.0933 14.3179 28.0413C13.602 29.2466 13.0677 30.4392 12.5652 31.5608C11.8825 33.0847 11.2585 34.4774 10.3179 35.5924C6.26231 40.4002 5.31824 46.1426 5.31824 46.1426C4.9849 47.2651 4.81824 49.6786 6.81824 50.3522C16.6473 53.7198 19.1201 41.5505 19.3182 36.8814C19.8183 25.0946 24.3183 17.5173 27.3179 15.1525M2.48915 27.4905C2.64747 27.8508 2.88433 28.3292 3.16712 28.9002C4.60787 31.8097 7.24067 37.1263 6.75142 41.512C5.64729 44.141 5.31824 46.1426 5.31824 46.1426" stroke="#758672" stroke-width="0.5" stroke-linecap="round" stroke-linejoin="round"/>
<path d="M153.746 55.6755C151.962 57.5361 155.498 60.1295 156.374 60.8148L157.25 61.5L158.126 60.8148C159.002 60.1295 162.538 57.5361 160.754 55.6755C159.44 54.3051 157.396 55.3329 157.25 56.0181C157.104 55.3329 155.06 54.305 153.746 55.6755Z" fill="#9CCB7F"/>
<path d="M157.25 56.0181C157.104 55.3329 155.06 54.305 153.746 55.6755C151.962 57.5361 155.498 60.1295 156.374 60.8148L157.25 61.5L158.126 60.8148C159.002 60.1295 162.538 57.5361 160.754 55.6755C159.44 54.3051 157.396 55.3329 157.25 56.0181ZM157.25 56.0181C157.104 56.475 156.9 57.5942 157.25 58.4165" stroke="#55794F" stroke-width="0.1" stroke-linecap="round" stroke-linejoin="round"/>
<path d="M150.081 58.653C152.371 57.2035 155.563 60.0765 156.407 60.7883L157.25 61.5L156.407 62.2117C155.563 62.9235 152.371 65.7965 150.081 64.347C148.395 63.2794 149.66 61.6186 150.503 61.5C149.66 61.3814 148.395 59.7206 150.081 58.653Z" fill="#9CCB7F"/>
<path d="M150.503 61.5C149.66 61.3814 148.395 59.7206 150.081 58.653C152.371 57.2035 155.563 60.0765 156.407 60.7883L157.25 61.5L156.407 62.2117C155.563 62.9235 152.371 65.7965 150.081 64.347C148.395 63.2794 149.66 61.6186 150.503 61.5ZM150.503 61.5C151.065 61.3814 152.443 61.2153 153.455 61.5" stroke="#55794F" stroke-width="0.1" stroke-linecap="round" stroke-linejoin="round"/>
<path d="M153.746 67.3245C151.962 65.4639 155.498 62.8705 156.374 62.1852L157.25 61.5L158.126 62.1852C159.002 62.8705 162.538 65.4639 160.754 67.3245C159.44 68.6949 157.396 67.6671 157.25 66.9819C157.104 67.6671 155.06 68.695 153.746 67.3245Z" fill="#9CCB7F"/>
<path d="M157.25 66.9819C157.104 67.6671 155.06 68.695 153.746 67.3245C151.962 65.4639 155.498 62.8705 156.374 62.1852L157.25 61.5L158.126 62.1852C159.002 62.8705 162.538 65.4639 160.754 67.3245C159.44 68.6949 157.396 67.6671 157.25 66.9819ZM157.25 66.9819C157.104 66.525 156.9 65.4058 157.25 64.5835" stroke="#55794F" stroke-width="0.1" stroke-linecap="round" stroke-linejoin="round"/>
<path d="M164.419 58.653C162.129 57.2035 158.937 60.0765 158.093 60.7883L157.25 61.5L158.093 62.2117C158.937 62.9235 162.129 65.7965 164.419 64.347C166.105 63.2794 164.84 61.6186 163.997 61.5C164.84 61.3814 166.105 59.7206 164.419 58.653Z" fill="#9CCB7F"/>
<path d="M163.997 61.5C164.84 61.3814 166.105 59.7206 164.419 58.653C162.129 57.2035 158.937 60.0765 158.093 60.7883L157.25 61.5L158.093 62.2117C158.937 62.9235 162.129 65.7965 164.419 64.347C166.105 63.2794 164.84 61.6186 163.997 61.5ZM163.997 61.5C163.435 61.3814 162.057 61.2153 161.045 61.5" stroke="#55794F" stroke-width="0.1" stroke-linecap="round" stroke-linejoin="round"/>
</svg>
