<svg width="559" height="177" viewBox="0 0 559 177" fill="none" xmlns="http://www.w3.org/2000/svg">
<g clip-path="url(#clip0_41_2266)">
<path d="M64.0303 101.473L76.3045 103.001C76.3045 103.001 110.362 82.8187 114.708 94.8935C117.499 102.648 109.286 112.903 109.286 112.903C109.286 112.903 112.064 128.733 103.003 133.076C96.1639 136.355 89.0848 131.012 83.7708 124.953C90.0266 136.391 90.2099 145.243 89.1466 148.932L71.5801 148.736C77.1385 143.674 72.164 121.974 68.982 111.756C70.2172 123.197 54.8334 140.993 46.9871 148.46L32.816 138.696C44.0271 136.259 57.5065 119.211 62.8449 110.992C62.8449 110.992 31.6335 135.603 25.593 122.604C21.5274 113.855 28.8704 103.428 28.8704 103.428C28.8704 103.428 24.1806 91.0274 28.788 84.1947C35.9628 73.5544 64.0303 101.473 64.0303 101.473Z" fill="#ECB8D7"/>
<path d="M75.1191 112.52L76.3045 103.001M75.1191 112.52L68.982 111.756M76.3045 103.001C76.3045 103.001 110.362 82.8187 114.708 94.8935C117.499 102.648 109.286 112.903 109.286 112.903C109.286 112.903 112.064 128.733 103.003 133.076C96.1639 136.355 89.0848 131.012 83.7708 124.953C78.6138 119.074 75.1191 112.52 75.1191 112.52M62.8449 110.992L64.0303 101.473M62.8449 110.992C62.8449 110.992 31.6335 135.603 25.593 122.604C21.5274 113.855 28.8704 103.428 28.8704 103.428C28.8704 103.428 24.1806 91.0274 28.788 84.1947C35.9628 73.5544 64.0303 101.473 64.0303 101.473M62.8449 110.992C57.5065 119.211 44.0271 136.259 32.816 138.696L46.9871 148.46C54.8334 140.993 70.2172 123.197 68.982 111.756M62.8449 110.992L68.982 111.756M64.0303 101.473L76.3045 103.001M68.982 111.756C72.164 121.974 77.1385 143.674 71.5801 148.736L89.1466 148.932C90.2099 145.243 90.0266 136.391 83.7708 124.953" stroke="#A56A8D" stroke-linecap="round" stroke-linejoin="round"/>
<path d="M64.5667 99.365L75.7966 100.059C75.7966 100.059 105.03 83.9824 108.364 94.271C110.505 100.878 102.376 110.22 102.376 110.22C102.376 110.22 104.286 123.629 96.5371 127.042C90.6873 129.618 84.8694 124.926 80.5577 119.678C85.5169 129.482 85.4312 136.943 84.4356 140.022L69.6445 139.38C74.4636 135.267 70.862 116.854 68.4588 108.161C69.189 117.832 55.7485 132.404 48.937 138.481L37.2653 129.872C46.7746 128.124 58.5907 114.13 63.3101 107.351C63.3101 107.351 36.3531 127.235 31.6176 116.122C28.4303 108.642 34.8982 100.059 34.8982 100.059C34.8982 100.059 31.2841 89.4864 35.3502 83.856C41.6821 75.0882 64.5667 99.365 64.5667 99.365Z" fill="#CF83B1"/>
<path d="M73.6074 108.971L75.7966 100.059M73.6074 108.971L68.4588 108.161M75.7966 100.059C75.7966 100.059 105.03 83.9824 108.364 94.271C110.505 100.878 102.376 110.22 102.376 110.22C102.376 110.22 104.286 123.629 96.5371 127.042C90.6873 129.618 84.8694 124.926 80.5577 119.678C76.3733 114.586 73.6074 108.971 73.6074 108.971M63.3101 107.351L64.5667 99.365M63.3101 107.351C63.3101 107.351 36.3531 127.235 31.6176 116.122C28.4303 108.642 34.8982 100.059 34.8982 100.059C34.8982 100.059 31.2841 89.4864 35.3502 83.856C41.6821 75.0882 64.5667 99.365 64.5667 99.365M63.3101 107.351C58.5907 114.13 46.7746 128.124 37.2653 129.872L48.937 138.481C55.7485 132.404 69.189 117.832 68.4588 108.161M63.3101 107.351L68.4588 108.161M64.5667 99.365L75.7966 100.059M68.4588 108.161C70.862 116.854 74.4636 135.267 69.6445 139.38L84.4356 140.022C85.4312 136.943 85.5169 129.482 80.5577 119.678" stroke="#A56A8D" stroke-linecap="round" stroke-linejoin="round"/>
<path d="M232.655 109.914C225.28 107.501 209.155 105.183 203.654 115.215C198.154 125.246 220.696 115.861 232.655 109.914ZM232.655 109.914C240.192 108.066 256.446 106.976 261.171 117.395C265.896 127.814 244.129 116.749 232.655 109.914ZM232.655 109.914C226.214 121.355 210.646 143.254 199.902 139.323M232.655 109.914C232.569 120.634 235.01 142.42 245.466 143.808" stroke="#B1A2C0" stroke-width="0.1" stroke-linecap="round" stroke-linejoin="round"/>
<path d="M232.46 110.35C225.403 107.121 209.642 103 203.046 112.348C196.45 121.695 219.907 114.911 232.46 110.35ZM232.46 110.35C240.156 109.364 256.43 110.113 259.951 120.998C263.471 131.883 243.09 118.435 232.46 110.35ZM232.46 110.35C224.77 120.992 206.832 140.996 196.6 135.88M232.46 110.35C231.165 120.992 231.135 142.915 241.367 145.473" stroke="#42364E" stroke-width="0.5" stroke-linecap="round" stroke-linejoin="round"/>
<path d="M495.975 106.776C499.076 107.366 502.02 108.739 501.291 112.4C500.973 113.998 499.444 114.504 497.661 114.472C495.357 114.432 492.629 113.494 491.547 112.855C485.789 109.453 492.875 106.187 495.975 106.776Z" fill="#E0CEC1"/>
<path d="M497.661 114.472C495.357 114.432 492.629 113.494 491.547 112.855C485.789 109.453 492.875 106.187 495.975 106.776C499.076 107.366 502.02 108.739 501.291 112.4C500.973 113.998 499.444 114.504 497.661 114.472ZM491.547 112.855C485.052 118.54 469.05 128.878 457.002 124.742M497.661 114.472C498.872 119.164 505.546 129.818 522.555 134.897M489.319 108.538C485.332 101.629 475.32 88.3451 467.171 90.4867C456.985 93.1637 451.229 105.91 456.987 109.312C462.745 112.713 484.891 114.617 489.319 108.538ZM501.721 110.896C508.069 105.951 522.447 97.3047 529.18 102.276C537.597 108.489 538.042 122.415 531.398 123.459C524.755 124.502 503.494 118.154 501.721 110.896Z" stroke="#A78268" stroke-width="0.5" stroke-linecap="round" stroke-linejoin="round"/>
<path d="M365.789 115.036C365.789 115.036 325.792 108.168 354.143 109.462C382.495 110.757 365.789 115.036 365.789 115.036Z" stroke="#3F3B2C" stroke-width="0.5" stroke-linecap="round" stroke-linejoin="round"/>
<path d="M347.228 117.671C331.772 112.219 355.815 113.128 369.768 114.264M368.525 111.443C367.452 114.85 361.441 120.302 345.985 114.85M349.668 115.206C349.668 115.206 378.749 108.836 358.096 109.779C337.443 110.722 349.668 115.206 349.668 115.206Z" stroke="#3F3B2C" stroke-width="0.1" stroke-linecap="round" stroke-linejoin="round"/>
</g>
<rect x="0.5" y="61.5" width="557.746" height="114.083" rx="4.5" stroke="#A78268" stroke-dasharray="10 5"/>
<path d="M8.748 25.84V16.012H11.376C13.896 16.012 15.66 17.2 15.66 20.764C15.66 24.256 14.184 25.84 12.024 25.84H8.748ZM8.748 13.852V6.148H10.152C13.068 6.148 14.544 7.084 14.544 10.036C14.544 12.556 13.392 13.852 10.908 13.852H8.748ZM12.132 28C15.444 28 18.18 25.804 18.18 20.8C18.18 17.92 17.208 15.868 14.508 14.68C16.272 13.708 17.064 12.016 17.064 10.036C17.064 6.184 14.364 3.988 11.736 3.988H4.392V6.148H6.336V25.84H4.392V28H12.132ZM32.3859 8.92C29.2899 8.92 25.7259 11.152 25.7259 18.64C25.7259 26.164 29.3619 28.324 32.3859 28.324C38.9379 28.324 39.0459 20.152 39.0459 18.64C39.0459 11.08 35.3739 8.92 32.3859 8.92ZM32.3859 11.188C36.0219 11.188 36.5259 15.868 36.5259 18.64C36.5259 21.376 36.0219 26.056 32.3859 26.056C28.7499 26.056 28.2459 21.376 28.2459 18.64C28.2459 15.868 28.7499 11.188 32.3859 11.188ZM48.1039 9.244V23.032C48.1039 25.768 49.9039 28.324 53.9719 28.324C58.1119 28.324 59.8759 25.66 59.8759 23.176V9.244H57.4639V22.024C57.4639 24.724 56.8159 26.056 53.7919 26.056C51.3079 26.056 50.5159 24.76 50.5159 22.024V9.244H48.1039ZM80.6338 25.48C81.8938 23.608 82.2178 20.836 82.2178 18.64C82.2178 11.08 78.5458 8.92 75.5578 8.92C72.1738 8.92 68.8978 11.476 68.8978 18.64C68.8978 26.164 72.5698 28.324 75.5578 28.324C76.8898 28.324 78.1138 27.928 79.1578 27.136L81.2458 29.044L82.7578 27.424L80.6338 25.48ZM77.4298 25.552C76.8538 25.876 76.2058 26.056 75.5578 26.056C71.9218 26.056 71.4178 21.376 71.4178 18.64C71.4178 15.868 71.9218 11.188 75.5578 11.188C79.1938 11.188 79.6978 15.868 79.6978 18.64C79.6978 20.368 79.4818 22.204 78.7978 23.824L75.7738 21.052L74.2978 22.708L77.4298 25.552ZM91.2758 9.244V23.032C91.2758 25.768 93.0758 28.324 97.1438 28.324C101.284 28.324 103.048 25.66 103.048 23.176V9.244H100.636V22.024C100.636 24.724 99.9878 26.056 96.9638 26.056C94.4798 26.056 93.6878 24.76 93.6878 22.024V9.244H91.2758ZM113.582 28H125.282V25.84H115.994V19.18H123.662V17.02H115.994V11.404H125.282V9.244H113.582V28ZM139.164 28H141.576V11.404H146.652V9.244H133.98V11.404H139.164V28ZM182.336 28H184.748V6.148H189.824V3.988H177.152V6.148H182.336V28ZM201.221 28H208.925V25.84H206.261V11.404H208.925V9.244H201.221V11.404H203.849V25.84H201.221V28ZM221.511 28H233.211V25.84H223.923V19.18H231.591V17.02H223.923V11.404H233.211V9.244H221.511V28ZM242.161 22.744C242.737 26.092 244.933 28.324 248.425 28.324C251.881 28.324 254.365 26.308 254.365 22.744C254.365 20.8 253.465 19.288 251.773 18.352L247.777 16.588C246.337 15.94 245.257 15.436 245.257 13.672C245.257 11.98 246.769 11.188 248.317 11.188C250.369 11.188 251.341 12.484 251.773 14.32L254.077 13.636C253.321 10.72 251.485 8.92 248.353 8.92C245.401 8.92 242.845 10.684 242.845 13.852C242.845 17.38 245.437 18.1 248.173 19.252C250.009 20.008 251.953 20.584 251.953 22.888C251.953 24.976 250.405 26.056 248.425 26.056C245.905 26.056 244.789 24.364 244.321 22.06L242.161 22.744Z" fill="#76563F"/>
<defs>
<clipPath id="clip0_41_2266">
<rect y="61" width="558.746" height="115.083" rx="5" fill="white"/>
</clipPath>
</defs>
</svg>
