<svg width="831" height="539" viewBox="0 0 831 539" fill="none" xmlns="http://www.w3.org/2000/svg">
<g clip-path="url(#clip0_41_2264)">
<path d="M82.0721 461.419C82.0721 461.419 176.806 446.138 186.279 330C151.543 330 129.439 345.281 92.715 378.9C69.441 400.206 50.4942 406.406 25.232 412.519C30.1956 424.529 50.4943 455.306 66.2832 461.419C68.4346 462.198 74.6042 463.288 82.0721 461.419Z" fill="#ECB8D7"/>
<path d="M22.0742 330C18.9164 378.9 18.9164 397.238 25.232 412.519C50.4942 406.406 69.441 400.206 92.715 378.9C78.4933 378.9 39.6954 346.3 22.0742 330Z" fill="#ECB8D7"/>
<path fill-rule="evenodd" clip-rule="evenodd" d="M66.2832 461.419C59.9676 474.663 50.1574 495.165 35 502.5C16.0533 511.669 101.019 522.544 104.177 510.319C107.334 498.094 82.0721 461.419 82.0721 461.419C82.0721 461.419 176.806 446.138 186.279 330C151.543 330 129.439 345.281 92.715 378.9C78.4933 378.9 39.6954 346.3 22.0742 330C18.9164 378.9 18.9164 397.238 25.232 412.519C30.1956 424.529 50.4943 455.306 66.2832 461.419Z" fill="#ECB8D7"/>
<path d="M92.715 378.9C78.4933 378.9 39.6954 346.3 22.0742 330C18.9164 378.9 18.9164 397.238 25.232 412.519C30.1956 424.529 50.4943 455.306 66.2832 461.419M66.2832 461.419C68.4346 462.198 74.6042 463.288 82.0721 461.419M66.2832 461.419C59.9676 474.663 50.1574 495.165 35 502.5C16.0533 511.669 101.019 522.544 104.177 510.319C107.334 498.094 82.0721 461.419 82.0721 461.419M92.715 378.9C129.439 345.281 151.543 330 186.279 330C176.806 446.138 82.0721 461.419 82.0721 461.419C75.8042 462.931 68.9346 462.049 66.2832 461.419M25.232 412.519C50.4942 406.406 69.441 400.206 92.715 378.9" stroke="#A56A8D" stroke-linecap="round" stroke-linejoin="round"/>
<path d="M390.93 371.289L385.789 373.048L306.82 400.068C327.523 407.349 349.71 412.722 371.201 413.7C383.992 394.514 390.93 377.685 390.93 371.289Z" fill="#B1A2C0" stroke="#42364E" stroke-linecap="round" stroke-linejoin="round"/>
<path d="M224.651 358.498C250.827 376.953 318.172 413.861 378.14 413.861L288.902 465.763L321.028 510.744C283.905 527.353 255.587 513.051 246.068 503.824L288.902 465.763L256.777 412.131L224.651 358.498Z" fill="#805CA5"/>
<path d="M288.902 465.763L378.14 413.861C318.172 413.861 250.827 376.953 224.651 358.498L256.777 412.131L288.902 465.763ZM288.902 465.763L246.068 503.824C255.587 513.051 283.905 527.353 321.028 510.744L288.902 465.763Z" stroke="#42364E" stroke-linecap="round" stroke-linejoin="round"/>
<path d="M541.323 355.217L559.471 361.89L585.323 371.72L494.097 465.151C514.527 435.934 534.7 403.596 550.121 377.749L534.327 371.503L541.323 355.217Z" fill="#D9CB9B"/>
<path d="M454.795 351.844L474.459 349.085L476.074 366.263L458.672 368.465C465.422 396.705 474.761 432.376 485.356 465.035L426 354.826L454.795 351.844Z" fill="#D9CB9B"/>
<path d="M447.378 508.16L485.356 465.035L471.301 502.656L466.698 514.975L447.378 508.16Z" fill="#D9CB9B"/>
<path d="M485.356 465.035L494.097 465.151L484.457 504.752L471.301 502.656L485.356 465.035Z" fill="#D9CB9B"/>
<path d="M494.097 465.151L495.756 511.567H482.798L484.457 504.752L494.097 465.151Z" fill="#D9CB9B"/>
<path d="M494.097 465.151L513.072 508.16L495.999 518.382L495.756 511.567L494.097 465.151Z" fill="#D9CB9B"/>
<path d="M495.999 363.467L476.074 366.263L458.672 368.465C465.422 396.705 474.761 432.376 485.356 465.035L486.42 377.919L494.608 376.745L495.999 363.467Z" fill="#D9CB9B"/>
<path d="M513.072 377.919C506.619 376.432 498.074 376.516 494.608 376.745L486.42 377.919L485.356 465.035L494.097 465.151L518.62 380.153L513.072 377.919Z" fill="#D9CB9B"/>
<path d="M534.327 371.503L515.939 364.742L513.072 377.919L518.62 380.153L494.097 465.151C514.527 435.934 534.7 403.596 550.121 377.749L534.327 371.503Z" fill="#D9CB9B"/>
<path d="M494.097 465.151C514.527 435.934 534.7 403.596 550.121 377.749L534.327 371.503M494.097 465.151L585.323 371.72L559.471 361.89L541.323 355.217L534.327 371.503M494.097 465.151L485.356 465.035M495.756 511.567L494.097 465.151L513.072 508.16L495.999 518.382L495.756 511.567ZM494.097 465.151L484.457 504.752M494.097 465.151L518.62 380.153L513.072 377.919M534.327 371.503L515.939 364.742L513.072 377.919M494.608 376.745L495.999 363.467L476.074 366.263L458.672 368.465C465.422 396.705 474.761 432.376 485.356 465.035M485.356 465.035L426 354.826L454.795 351.844L474.459 349.085L476.074 366.263M485.356 465.035L447.378 508.16L466.698 514.975L471.301 502.656M485.356 465.035L471.301 502.656M485.356 465.035L486.42 377.919L494.608 376.745M494.608 376.745C498.074 376.516 506.619 376.432 513.072 377.919M495.756 511.567H482.798L484.457 504.752M484.457 504.752L471.301 502.656" stroke="#615B47" stroke-linecap="round" stroke-linejoin="round"/>
<path d="M637.291 375.683L692.888 459.461L766.694 394.805C766.694 394.805 741.588 406.34 734.343 390.025C727.099 373.709 716.602 369.308 701.993 385.244C687.383 401.18 682.345 403.153 669.642 380.463C656.939 357.774 637.291 375.683 637.291 375.683Z" fill="#E0CEC1" stroke="#A78268" stroke-linecap="round" stroke-linejoin="round"/>
<path d="M752.218 424.745L694.201 464.486L721.683 511.759C720.645 511.009 719.627 510.343 718.629 509.755C702.002 499.954 690.888 511.477 686.567 506.791C681.987 501.824 677.406 496.856 669.009 504.307C663.554 509.148 657.777 506.651 654.398 504.307C652.576 503.043 651.451 501.824 651.451 501.824L694.201 464.486L645.344 408.186C645.344 408.186 659.085 423.089 672.063 412.326C685.04 401.563 691.147 404.874 698.781 416.465C706.415 428.056 715.341 431.623 725.499 420.605C735.658 409.587 752.218 424.745 752.218 424.745Z" fill="#E0CEC1"/>
<path d="M694.201 464.486L752.218 424.745C752.218 424.745 735.658 409.587 725.499 420.605C715.341 431.623 706.415 428.056 698.781 416.465C691.147 404.874 685.04 401.563 672.063 412.326C659.085 423.089 645.344 408.186 645.344 408.186L694.201 464.486ZM694.201 464.486L651.451 501.824C651.451 501.824 652.576 503.043 654.398 504.307C657.777 506.651 663.554 509.148 669.009 504.307C677.406 496.856 681.987 501.824 686.567 506.791C690.888 511.477 702.002 499.954 718.629 509.755C719.627 510.343 720.645 511.009 721.683 511.759L694.201 464.486Z" stroke="#A78268" stroke-linecap="round" stroke-linejoin="round"/>
<path d="M669.009 504.307C677.406 496.856 681.987 501.823 686.567 506.791C690.888 511.477 702.002 499.954 718.629 509.755V518.382C718.629 518.382 709.468 518.382 705.294 514.627C698.739 508.728 694.201 508.447 683.513 513.415C672.826 518.382 672.826 508.447 664.442 512.84C658.623 515.889 648.398 508.447 648.398 508.447L654.398 504.307C657.777 506.651 663.554 509.148 669.009 504.307Z" fill="#E1B493"/>
<path d="M651.451 501.823C651.451 501.823 652.576 503.043 654.398 504.307M654.398 504.307C657.777 506.651 663.554 509.148 669.009 504.307C677.406 496.856 681.987 501.823 686.567 506.791C690.888 511.477 702.002 499.954 718.629 509.755C719.627 510.343 720.645 511.009 721.682 511.759M654.398 504.307L648.398 508.447C648.398 508.447 658.623 515.889 664.442 512.84C672.826 508.447 672.826 518.382 683.513 513.415C694.201 508.447 698.739 508.728 705.294 514.627C709.468 518.382 718.629 518.382 718.629 518.382V509.755" stroke="#A78268" stroke-linecap="round" stroke-linejoin="round"/>
</g>
<rect x="0.5" y="310.5" width="798.707" height="227.382" rx="4.5" stroke="#A78268" stroke-dasharray="10 5"/>
<g clip-path="url(#clip1_41_2264)">
<path d="M88.6408 171.75C125.365 138.132 147.469 122.85 182.205 122.85C116.523 47.0553 45.3675 91.2691 18 122.85C35.6212 139.15 74.4191 171.75 88.6408 171.75Z" fill="#CF83B1" stroke="#A56A8D" stroke-linecap="round" stroke-linejoin="round"/>
<path d="M88.3328 172.233C75.6661 169.066 49.1003 160.733 30.3003 134.733C6.80028 102.233 75.0382 115.03 94.3003 131.733C105.821 141.722 92.3607 96.3269 154.14 127.136C154.209 127.164 154.273 127.196 154.333 127.233C154.268 127.2 154.204 127.168 154.14 127.136C148.196 124.761 107.939 156.086 88.3328 172.233Z" fill="#738D6F"/>
<path d="M302.49 192.919L381.459 165.899L319.449 81L226 155.209C242.958 166.364 271.009 181.847 302.49 192.919Z" fill="#B1A2C0" stroke="#42364E" stroke-linecap="round" stroke-linejoin="round"/>
<path d="M336.964 133.657C361.419 139.624 372.396 157.788 375.077 167.733L302.577 192.733C275.077 183.233 260.577 174.733 235.577 160.925C229.689 157.673 270.286 121.061 294.061 120.233C298.173 122.221 312.51 127.691 336.964 133.657Z" fill="#758672"/>
<path d="M595.895 106.78C595.895 106.78 590.349 137.456 581.309 157.733C560.584 204.222 494.735 255.164 494.735 255.164C494.735 255.164 447.851 194.412 441.333 146.604C438.334 124.602 441.333 89.7426 441.333 89.7426C495.43 67.9343 566.914 92.0143 595.895 106.78Z" fill="#BBAB71" stroke="#615B47" stroke-linecap="round" stroke-linejoin="round"/>
<path d="M486.22 113.233C454.62 104.833 449.054 130.733 450.22 144.733C456.054 161.399 470.12 193.133 479.72 186.733C491.72 178.733 504.72 181.733 536.72 186.733C568.72 191.733 554.22 163.233 571.22 157.233C588.22 151.233 556.22 116.733 536.72 122.733C517.22 128.733 525.72 123.733 486.22 113.233Z" fill="#7E9256"/>
<path d="M811.07 124.735L774.427 187.658L705.285 228.439L654 168L632 102.593C707.728 54.9039 782.57 97.1374 811.07 124.735Z" fill="#E1B493" stroke="#A78268" stroke-linecap="round" stroke-linejoin="round"/>
<path d="M773.18 149.09C795.329 152.204 776.265 171.05 763.964 180.084C714.122 221.062 674.792 189.231 661.357 168.193C656.54 154.643 653.216 124.641 678.453 113.026C709.998 98.5066 707.037 130.969 722.427 127.325C737.816 123.682 745.495 145.196 773.18 149.09Z" fill="#5E7959"/>
</g>
<rect x="0.5" y="61.5" width="830" height="211" rx="4.5" stroke="#A78268" stroke-dasharray="10 5"/>
<path d="M8.748 25.84V16.012H11.376C13.896 16.012 15.66 17.2 15.66 20.764C15.66 24.256 14.184 25.84 12.024 25.84H8.748ZM8.748 13.852V6.148H10.152C13.068 6.148 14.544 7.084 14.544 10.036C14.544 12.556 13.392 13.852 10.908 13.852H8.748ZM12.132 28C15.444 28 18.18 25.804 18.18 20.8C18.18 17.92 17.208 15.868 14.508 14.68C16.272 13.708 17.064 12.016 17.064 10.036C17.064 6.184 14.364 3.988 11.736 3.988H4.392V6.148H6.336V25.84H4.392V28H12.132ZM32.3859 8.92C29.2899 8.92 25.7259 11.152 25.7259 18.64C25.7259 26.164 29.3619 28.324 32.3859 28.324C38.9379 28.324 39.0459 20.152 39.0459 18.64C39.0459 11.08 35.3739 8.92 32.3859 8.92ZM32.3859 11.188C36.0219 11.188 36.5259 15.868 36.5259 18.64C36.5259 21.376 36.0219 26.056 32.3859 26.056C28.7499 26.056 28.2459 21.376 28.2459 18.64C28.2459 15.868 28.7499 11.188 32.3859 11.188ZM48.1039 9.244V23.032C48.1039 25.768 49.9039 28.324 53.9719 28.324C58.1119 28.324 59.8759 25.66 59.8759 23.176V9.244H57.4639V22.024C57.4639 24.724 56.8159 26.056 53.7919 26.056C51.3079 26.056 50.5159 24.76 50.5159 22.024V9.244H48.1039ZM80.6338 25.48C81.8938 23.608 82.2178 20.836 82.2178 18.64C82.2178 11.08 78.5458 8.92 75.5578 8.92C72.1738 8.92 68.8978 11.476 68.8978 18.64C68.8978 26.164 72.5698 28.324 75.5578 28.324C76.8898 28.324 78.1138 27.928 79.1578 27.136L81.2458 29.044L82.7578 27.424L80.6338 25.48ZM77.4298 25.552C76.8538 25.876 76.2058 26.056 75.5578 26.056C71.9218 26.056 71.4178 21.376 71.4178 18.64C71.4178 15.868 71.9218 11.188 75.5578 11.188C79.1938 11.188 79.6978 15.868 79.6978 18.64C79.6978 20.368 79.4818 22.204 78.7978 23.824L75.7738 21.052L74.2978 22.708L77.4298 25.552ZM91.2758 9.244V23.032C91.2758 25.768 93.0758 28.324 97.1438 28.324C101.284 28.324 103.048 25.66 103.048 23.176V9.244H100.636V22.024C100.636 24.724 99.9878 26.056 96.9638 26.056C94.4798 26.056 93.6878 24.76 93.6878 22.024V9.244H91.2758ZM113.582 28H125.282V25.84H115.994V19.18H123.662V17.02H115.994V11.404H125.282V9.244H113.582V28ZM139.164 28H141.576V11.404H146.652V9.244H133.98V11.404H139.164V28ZM188.564 3.52L187.412 21.556H187.34L183.848 8.92H183.128L179.636 21.556H179.564L178.412 3.52L176 3.988L178.412 28.468H179.456L183.452 13.96H183.524L187.52 28.468H188.564L190.976 3.988L188.564 3.52ZM202.049 17.812V11.404H205.937C208.097 11.404 209.105 12.664 209.105 14.356C209.105 16.48 207.557 17.812 205.217 17.812H202.049ZM199.637 28H202.049V19.972H205.541L210.329 28.468L212.417 27.208L207.809 19.612C210.077 18.928 211.625 16.66 211.625 14.356C211.625 10.72 209.141 9.244 206.009 9.244H199.637V28ZM230.007 22.888L231.735 28.468L234.111 27.604L228.207 9.244H225.111L219.207 27.604L221.583 28.468L223.347 22.888H230.007ZM229.323 20.728H223.995L226.659 12.052L229.323 20.728ZM245.689 19.936H249.721C252.349 19.936 255.157 18.316 255.157 14.356C255.157 11.62 253.465 9.244 249.109 9.244H243.277V28H245.689V19.936ZM245.689 17.776V11.404H249.001C250.981 11.404 252.637 11.98 252.637 14.536C252.637 16.696 251.377 17.776 249.001 17.776H245.689ZM267.275 19.936H271.307C273.935 19.936 276.743 18.316 276.743 14.356C276.743 11.62 275.051 9.244 270.695 9.244H264.863V28H267.275V19.936ZM267.275 17.776V11.404H270.587C272.567 11.404 274.223 11.98 274.223 14.536C274.223 16.696 272.963 17.776 270.587 17.776H267.275ZM286.269 28H297.969V25.84H288.681V19.18H296.349V17.02H288.681V11.404H297.969V9.244H286.269V28ZM309.979 17.812V11.404H313.867C316.027 11.404 317.035 12.664 317.035 14.356C317.035 16.48 315.487 17.812 313.147 17.812H309.979ZM307.567 28H309.979V19.972H313.471L318.259 28.468L320.347 27.208L315.739 19.612C318.007 18.928 319.555 16.66 319.555 14.356C319.555 10.72 317.071 9.244 313.939 9.244H307.567V28ZM328.505 22.744C329.081 26.092 331.277 28.324 334.769 28.324C338.225 28.324 340.709 26.308 340.709 22.744C340.709 20.8 339.809 19.288 338.117 18.352L334.121 16.588C332.681 15.94 331.601 15.436 331.601 13.672C331.601 11.98 333.113 11.188 334.661 11.188C336.713 11.188 337.685 12.484 338.117 14.32L340.421 13.636C339.665 10.72 337.829 8.92 334.697 8.92C331.745 8.92 329.189 10.684 329.189 13.852C329.189 17.38 331.781 18.1 334.517 19.252C336.353 20.008 338.297 20.584 338.297 22.888C338.297 24.976 336.749 26.056 334.769 26.056C332.249 26.056 331.133 24.364 330.665 22.06L328.505 22.744Z" fill="#76563F"/>
<defs>
<clipPath id="clip0_41_2264">
<rect y="310" width="799.707" height="228.382" rx="5" fill="white"/>
</clipPath>
<clipPath id="clip1_41_2264">
<rect y="61" width="831" height="212" rx="5" fill="white"/>
</clipPath>
</defs>
</svg>
