<svg width="25" height="25" viewBox="0 0 25 25" fill="none" xmlns="http://www.w3.org/2000/svg">
<defs>
<linearGradient id="paint0_linear_1_100" x1="21.5707" y1="23.8752" x2="27.0707" y2="33.8752" gradientUnits="userSpaceOnUse">
<stop stop-color="#BC6869"/>
<stop offset="0.187957" stop-color="#792224"/>
<stop offset="0.645" stop-color="#822426"/>
<stop offset="1" stop-color="#7C2124"/>
</linearGradient>
</defs>
<g transform="translate(-12.0707 -17.3752)">
<rect x="12.0707" y="17.3752" width="25" height="25" rx="1" fill="#643724"/>
<g>
<rect x="14.0707" y="19.3752" width="21" height="21" fill="#794529"/>
</g>
<path d="M14.0707 25.3752V19.3752H20.0707" stroke="#B17E66" stroke-width="0.5" stroke-linecap="round"/>
<g>
<mask id="path-4-inside-1_1_100" fill="white">
<path fill-rule="evenodd" clip-rule="evenodd" d="M19.4949 30.5567L24.1285 35.1903C24.5149 35.5767 25.1413 35.5767 25.5276 35.1903C25.5302 35.1878 25.5327 35.1853 25.5353 35.1828L30.1613 30.5567C31.5002 29.2179 31.5002 27.0472 30.1613 25.7083C28.8225 24.3695 26.6518 24.3695 25.313 25.7083C25.0452 25.9761 24.611 25.9761 24.3432 25.7083C23.0044 24.3695 20.8337 24.3695 19.4949 25.7083C18.1561 27.0472 18.156 29.2179 19.4949 30.5567Z"/>
</mask>
<path fill-rule="evenodd" clip-rule="evenodd" d="M19.4949 30.5567L24.1285 35.1903C24.5149 35.5767 25.1413 35.5767 25.5276 35.1903C25.5302 35.1878 25.5327 35.1853 25.5353 35.1828L30.1613 30.5567C31.5002 29.2179 31.5002 27.0472 30.1613 25.7083C28.8225 24.3695 26.6518 24.3695 25.313 25.7083C25.0452 25.9761 24.611 25.9761 24.3432 25.7083C23.0044 24.3695 20.8337 24.3695 19.4949 25.7083C18.1561 27.0472 18.156 29.2179 19.4949 30.5567Z" fill="url(#paint0_linear_1_100)"/>
<path d="M24.4821 34.8368L19.8484 30.2031L19.1413 30.9102L23.775 35.5439L24.4821 34.8368ZM25.1817 34.8292C25.1804 34.8305 25.1791 34.8318 25.1778 34.8331L25.8775 35.5475C25.8812 35.5439 25.885 35.5401 25.8888 35.5363L25.1817 34.8292ZM29.8078 30.2031L25.1817 34.8292L25.8888 35.5363L30.5149 30.9103L29.8078 30.2031ZM29.8078 26.0619C30.9514 27.2055 30.9514 29.0596 29.8078 30.2031L30.5149 30.9103C32.049 29.3762 32.049 26.8889 30.5149 25.3548L29.8078 26.0619ZM25.6665 26.0619C26.8101 24.9183 28.6642 24.9183 29.8078 26.0619L30.5149 25.3548C28.9808 23.8207 26.4935 23.8207 24.9594 25.3548L25.6665 26.0619ZM19.8484 26.0619C20.992 24.9183 22.8461 24.9183 23.9897 26.0619L24.6968 25.3548C23.1627 23.8207 20.6754 23.8207 19.1413 25.3548L19.8484 26.0619ZM19.8484 30.2031C18.7049 29.0596 18.7049 27.2055 19.8484 26.0619L19.1413 25.3548C17.6072 26.8889 17.6072 29.3762 19.1413 30.9102L19.8484 30.2031ZM24.9594 25.3548C24.8869 25.4273 24.7693 25.4273 24.6968 25.3548L23.9897 26.0619C24.4527 26.525 25.2035 26.5249 25.6665 26.0619L24.9594 25.3548ZM23.775 35.5439C24.3566 36.1255 25.2996 36.1255 25.8812 35.5439L25.1741 34.8368C24.983 35.0279 24.6732 35.0279 24.4821 34.8368L23.775 35.5439Z" fill="#652017" mask="url(#path-4-inside-1_1_100)"/>
</g>
<g>
<path d="M25.0707 26.3752C25.7374 25.7085 27.4707 24.5752 29.0707 25.3752" stroke="white" stroke-opacity="0.3" stroke-width="0.2"/>
</g>
</g>
</svg>
