<svg width="25" height="25" viewBox="0 0 25 25" fill="none" xmlns="http://www.w3.org/2000/svg">
<g transform="scale(0.9615384615384616)">
<path d="M12.6011 3.22501C11.3511 1.97501 12.7747 0.620839 13.6428 0.100006H1.14167C0.308332 0.100006 0.0999985 0.794451 0.0999985 1.14167V24.0583C0.0999985 24.8917 0.794443 25.1 1.14167 25.1H24.0583C24.8917 25.1 25.1 24.4056 25.1 24.0583V13.6417C23.85 16.1417 21.8014 15.3778 20.9333 14.6833C19.2667 17.6 17.4611 15.5514 16.7667 14.1625C13.0167 15.8292 12.775 13.1208 13.1229 11.5583C9.37295 11.1417 10.5183 8.60695 11.5597 7.39167C9.47638 5.30834 11.3859 3.74584 12.6011 3.22501Z" fill="#643724" stroke="#643724" stroke-width="0.2"/>
</g>
</svg>
