<svg width="925" height="715" viewBox="0 0 925 715" fill="none" xmlns="http://www.w3.org/2000/svg">
<rect width="925" height="715" fill="#603C2C"/>
<rect x="25" y="20" width="875" height="675" fill="#CA9F68"/>
<rect x="50" y="40" width="210" height="215" fill="#A8744F"/>
<rect x="255" y="40" width="210" height="215" fill="#A8744F"/>
<rect x="460" y="40" width="210" height="215" fill="#A8744F"/>
<rect x="665" y="40" width="210" height="215" fill="#A8744F"/>
<rect x="50" y="250" width="210" height="215" fill="#A8744F"/>
<rect x="255" y="250" width="210" height="215" fill="#A8744F"/>
<rect x="460" y="250" width="210" height="215" fill="#A8744F"/>
<rect x="665" y="250" width="210" height="215" fill="#A8744F"/>
<rect x="50" y="460" width="210" height="215" fill="#A8744F"/>
<rect x="255" y="460" width="210" height="215" fill="#A8744F"/>
<rect x="460" y="460" width="210" height="215" fill="#A8744F"/>
<rect x="665" y="460" width="210" height="215" fill="#A8744F"/>
<rect x="55" y="45" width="200" height="205" fill="#CA9F68"/>
<rect x="260" y="45" width="200" height="205" fill="#CA9F68"/>
<rect x="465" y="45" width="200" height="205" fill="#CA9F68"/>
<rect x="670" y="45" width="200" height="205" fill="#CA9F68"/>
<rect x="55" y="255" width="200" height="205" fill="#CA9F68"/>
<rect x="260" y="255" width="200" height="205" fill="#CA9F68"/>
<rect x="465" y="255" width="200" height="205" fill="#CA9F68"/>
<rect x="670" y="255" width="200" height="205" fill="#CA9F68"/>
<rect x="55" y="465" width="200" height="205" fill="#CA9F68"/>
<rect x="260" y="465" width="200" height="205" fill="#CA9F68"/>
<rect x="465" y="465" width="200" height="205" fill="#CA9F68"/>
<rect x="670" y="465" width="200" height="205" fill="#CA9F68"/>
<rect x="60" y="50" width="190" height="195" rx="15" fill="#603C2C"/>
<rect x="265" y="50" width="190" height="195" rx="15" fill="#603C2C"/>
<rect x="470" y="50" width="190" height="195" rx="15" fill="#603C2C"/>
<rect x="60" y="260" width="190" height="195" rx="15" fill="#603C2C"/>
<rect x="60" y="470" width="190" height="195" rx="15" fill="#603C2C"/>
<rect x="265" y="470" width="190" height="195" rx="15" fill="#603C2C"/>
<rect x="470" y="470" width="190" height="195" rx="15" fill="#603C2C"/>
<rect x="675" y="470" width="190" height="195" rx="15" fill="#603C2C"/>
<rect x="470" y="260" width="190" height="195" rx="15" fill="#603C2C"/>
<rect x="675" y="50" width="190" height="195" rx="15" fill="#603C2C"/>
<rect x="265" y="260" width="190" height="195" rx="15" fill="#603C2C"/>
<rect x="675" y="260" width="190" height="195" rx="15" fill="#603C2C"/>
<g transform="translate(-410 0)">
<path d="M565 70L568.852 76.5009L573.362 70.4382L576.514 77.3061L581.633 71.7482L584.049 78.9079L589.721 73.9155L591.376 81.2885L597.539 76.9164L598.414 84.4219L605 80.718L605.085 88.2738L612.023 85.2786L611.318 92.8021L618.53 90.5484L617.043 97.9569L624.452 96.4696L622.198 103.682L629.721 102.977L626.726 109.915L634.282 110L630.578 116.586L638.084 117.461L633.712 123.624L641.085 125.279L636.092 130.951L643.252 133.367L637.694 138.486L644.562 141.638L638.499 146.148L645 150L638.499 153.852L644.562 158.362L637.694 161.514L643.252 166.633L636.092 169.049L641.085 174.721L633.712 176.376L638.084 182.539L630.578 183.414L634.282 190L626.726 190.085L629.721 197.023L622.198 196.318L624.452 203.53L617.043 202.043L618.53 209.452L611.318 207.198L612.023 214.721L605.085 211.726L605 219.282L598.414 215.578L597.539 223.084L591.376 218.712L589.721 226.085L584.049 221.092L581.633 228.252L576.514 222.694L573.362 229.562L568.852 223.499L565 230L561.148 223.499L556.638 229.562L553.486 222.694L548.367 228.252L545.951 221.092L540.279 226.085L538.624 218.712L532.461 223.084L531.586 215.578L525 219.282L524.915 211.726L517.977 214.721L518.682 207.198L511.47 209.452L512.957 202.043L505.548 203.53L507.802 196.318L500.279 197.023L503.274 190.085L495.718 190L499.422 183.414L491.916 182.539L496.288 176.376L488.915 174.721L493.908 169.049L486.748 166.633L492.306 161.514L485.438 158.362L491.501 153.852L485 150L491.501 146.148L485.438 141.638L492.306 138.486L486.748 133.367L493.908 130.951L488.915 125.279L496.288 123.624L491.916 117.461L499.422 116.586L495.718 110L503.274 109.915L500.279 102.977L507.802 103.682L505.548 96.4696L512.957 97.9569L511.47 90.5484L518.682 92.8021L517.977 85.2786L524.915 88.2738L525 80.718L531.586 84.4219L532.461 76.9164L538.624 81.2885L540.279 73.9155L545.951 78.9079L548.367 71.7482L553.486 77.3061L556.638 70.4382L561.148 76.5009L565 70Z" fill="#FFF8DC"/>
<path d="M565 80L568.37 85.6883L572.317 80.3835L575.074 86.3929L579.554 81.5297L581.668 87.7944L586.631 83.426L588.079 89.8774L593.472 86.0518L594.237 92.6192L600 89.3782L600.075 95.9896L606.145 93.3688L605.528 99.9518L611.839 97.9799L610.538 104.462L617.02 103.161L615.048 109.472L621.631 108.855L619.01 114.925L625.622 115L622.381 120.763L628.948 121.528L625.123 126.921L631.574 128.369L627.206 133.332L633.47 135.446L628.607 139.926L634.617 142.683L629.312 146.63L635 150L629.312 153.37L634.617 157.317L628.607 160.074L633.47 164.554L627.206 166.668L631.574 171.631L625.123 173.079L628.948 178.472L622.381 179.237L625.622 185L619.01 185.075L621.631 191.145L615.048 190.528L617.02 196.839L610.538 195.538L611.839 202.02L605.528 200.048L606.145 206.631L600.075 204.01L600 210.622L594.237 207.381L593.472 213.948L588.079 210.123L586.631 216.574L581.668 212.206L579.554 218.47L575.074 213.607L572.317 219.617L568.37 214.312L565 220L561.63 214.312L557.683 219.617L554.926 213.607L550.446 218.47L548.332 212.206L543.369 216.574L541.921 210.123L536.528 213.948L535.763 207.381L530 210.622L529.925 204.01L523.855 206.631L524.472 200.048L518.161 202.02L519.462 195.538L512.98 196.839L514.952 190.528L508.369 191.145L510.99 185.075L504.378 185L507.619 179.237L501.052 178.472L504.877 173.079L498.426 171.631L502.794 166.668L496.53 164.554L501.393 160.074L495.383 157.317L500.688 153.37L495 150L500.688 146.63L495.383 142.683L501.393 139.926L496.53 135.446L502.794 133.332L498.426 128.369L504.877 126.921L501.052 121.528L507.619 120.763L504.378 115L510.99 114.925L508.369 108.855L514.952 109.472L512.98 103.161L519.462 104.462L518.161 97.9799L524.472 99.9518L523.855 93.3688L529.925 95.9896L530 89.3782L535.763 92.6192L536.528 86.0518L541.921 89.8774L543.369 83.426L548.332 87.7944L550.446 81.5297L554.926 86.3929L557.683 80.3835L561.63 85.6883L565 80Z" fill="#D0C3A1"/>
</g>
<g transform="translate(-205 0)">
<path d="M565 70L568.852 76.5009L573.362 70.4382L576.514 77.3061L581.633 71.7482L584.049 78.9079L589.721 73.9155L591.376 81.2885L597.539 76.9164L598.414 84.4219L605 80.718L605.085 88.2738L612.023 85.2786L611.318 92.8021L618.53 90.5484L617.043 97.9569L624.452 96.4696L622.198 103.682L629.721 102.977L626.726 109.915L634.282 110L630.578 116.586L638.084 117.461L633.712 123.624L641.085 125.279L636.092 130.951L643.252 133.367L637.694 138.486L644.562 141.638L638.499 146.148L645 150L638.499 153.852L644.562 158.362L637.694 161.514L643.252 166.633L636.092 169.049L641.085 174.721L633.712 176.376L638.084 182.539L630.578 183.414L634.282 190L626.726 190.085L629.721 197.023L622.198 196.318L624.452 203.53L617.043 202.043L618.53 209.452L611.318 207.198L612.023 214.721L605.085 211.726L605 219.282L598.414 215.578L597.539 223.084L591.376 218.712L589.721 226.085L584.049 221.092L581.633 228.252L576.514 222.694L573.362 229.562L568.852 223.499L565 230L561.148 223.499L556.638 229.562L553.486 222.694L548.367 228.252L545.951 221.092L540.279 226.085L538.624 218.712L532.461 223.084L531.586 215.578L525 219.282L524.915 211.726L517.977 214.721L518.682 207.198L511.47 209.452L512.957 202.043L505.548 203.53L507.802 196.318L500.279 197.023L503.274 190.085L495.718 190L499.422 183.414L491.916 182.539L496.288 176.376L488.915 174.721L493.908 169.049L486.748 166.633L492.306 161.514L485.438 158.362L491.501 153.852L485 150L491.501 146.148L485.438 141.638L492.306 138.486L486.748 133.367L493.908 130.951L488.915 125.279L496.288 123.624L491.916 117.461L499.422 116.586L495.718 110L503.274 109.915L500.279 102.977L507.802 103.682L505.548 96.4696L512.957 97.9569L511.47 90.5484L518.682 92.8021L517.977 85.2786L524.915 88.2738L525 80.718L531.586 84.4219L532.461 76.9164L538.624 81.2885L540.279 73.9155L545.951 78.9079L548.367 71.7482L553.486 77.3061L556.638 70.4382L561.148 76.5009L565 70Z" fill="#FFF8DC"/>
<path d="M565 80L568.37 85.6883L572.317 80.3835L575.074 86.3929L579.554 81.5297L581.668 87.7944L586.631 83.426L588.079 89.8774L593.472 86.0518L594.237 92.6192L600 89.3782L600.075 95.9896L606.145 93.3688L605.528 99.9518L611.839 97.9799L610.538 104.462L617.02 103.161L615.048 109.472L621.631 108.855L619.01 114.925L625.622 115L622.381 120.763L628.948 121.528L625.123 126.921L631.574 128.369L627.206 133.332L633.47 135.446L628.607 139.926L634.617 142.683L629.312 146.63L635 150L629.312 153.37L634.617 157.317L628.607 160.074L633.47 164.554L627.206 166.668L631.574 171.631L625.123 173.079L628.948 178.472L622.381 179.237L625.622 185L619.01 185.075L621.631 191.145L615.048 190.528L617.02 196.839L610.538 195.538L611.839 202.02L605.528 200.048L606.145 206.631L600.075 204.01L600 210.622L594.237 207.381L593.472 213.948L588.079 210.123L586.631 216.574L581.668 212.206L579.554 218.47L575.074 213.607L572.317 219.617L568.37 214.312L565 220L561.63 214.312L557.683 219.617L554.926 213.607L550.446 218.47L548.332 212.206L543.369 216.574L541.921 210.123L536.528 213.948L535.763 207.381L530 210.622L529.925 204.01L523.855 206.631L524.472 200.048L518.161 202.02L519.462 195.538L512.98 196.839L514.952 190.528L508.369 191.145L510.99 185.075L504.378 185L507.619 179.237L501.052 178.472L504.877 173.079L498.426 171.631L502.794 166.668L496.53 164.554L501.393 160.074L495.383 157.317L500.688 153.37L495 150L500.688 146.63L495.383 142.683L501.393 139.926L496.53 135.446L502.794 133.332L498.426 128.369L504.877 126.921L501.052 121.528L507.619 120.763L504.378 115L510.99 114.925L508.369 108.855L514.952 109.472L512.98 103.161L519.462 104.462L518.161 97.9799L524.472 99.9518L523.855 93.3688L529.925 95.9896L530 89.3782L535.763 92.6192L536.528 86.0518L541.921 89.8774L543.369 83.426L548.332 87.7944L550.446 81.5297L554.926 86.3929L557.683 80.3835L561.63 85.6883L565 80Z" fill="#D0C3A1"/>
</g>
<g transform="translate(0 0)">
<path d="M565 70L568.852 76.5009L573.362 70.4382L576.514 77.3061L581.633 71.7482L584.049 78.9079L589.721 73.9155L591.376 81.2885L597.539 76.9164L598.414 84.4219L605 80.718L605.085 88.2738L612.023 85.2786L611.318 92.8021L618.53 90.5484L617.043 97.9569L624.452 96.4696L622.198 103.682L629.721 102.977L626.726 109.915L634.282 110L630.578 116.586L638.084 117.461L633.712 123.624L641.085 125.279L636.092 130.951L643.252 133.367L637.694 138.486L644.562 141.638L638.499 146.148L645 150L638.499 153.852L644.562 158.362L637.694 161.514L643.252 166.633L636.092 169.049L641.085 174.721L633.712 176.376L638.084 182.539L630.578 183.414L634.282 190L626.726 190.085L629.721 197.023L622.198 196.318L624.452 203.53L617.043 202.043L618.53 209.452L611.318 207.198L612.023 214.721L605.085 211.726L605 219.282L598.414 215.578L597.539 223.084L591.376 218.712L589.721 226.085L584.049 221.092L581.633 228.252L576.514 222.694L573.362 229.562L568.852 223.499L565 230L561.148 223.499L556.638 229.562L553.486 222.694L548.367 228.252L545.951 221.092L540.279 226.085L538.624 218.712L532.461 223.084L531.586 215.578L525 219.282L524.915 211.726L517.977 214.721L518.682 207.198L511.47 209.452L512.957 202.043L505.548 203.53L507.802 196.318L500.279 197.023L503.274 190.085L495.718 190L499.422 183.414L491.916 182.539L496.288 176.376L488.915 174.721L493.908 169.049L486.748 166.633L492.306 161.514L485.438 158.362L491.501 153.852L485 150L491.501 146.148L485.438 141.638L492.306 138.486L486.748 133.367L493.908 130.951L488.915 125.279L496.288 123.624L491.916 117.461L499.422 116.586L495.718 110L503.274 109.915L500.279 102.977L507.802 103.682L505.548 96.4696L512.957 97.9569L511.47 90.5484L518.682 92.8021L517.977 85.2786L524.915 88.2738L525 80.718L531.586 84.4219L532.461 76.9164L538.624 81.2885L540.279 73.9155L545.951 78.9079L548.367 71.7482L553.486 77.3061L556.638 70.4382L561.148 76.5009L565 70Z" fill="#FFF8DC"/>
<path d="M565 80L568.37 85.6883L572.317 80.3835L575.074 86.3929L579.554 81.5297L581.668 87.7944L586.631 83.426L588.079 89.8774L593.472 86.0518L594.237 92.6192L600 89.3782L600.075 95.9896L606.145 93.3688L605.528 99.9518L611.839 97.9799L610.538 104.462L617.02 103.161L615.048 109.472L621.631 108.855L619.01 114.925L625.622 115L622.381 120.763L628.948 121.528L625.123 126.921L631.574 128.369L627.206 133.332L633.47 135.446L628.607 139.926L634.617 142.683L629.312 146.63L635 150L629.312 153.37L634.617 157.317L628.607 160.074L633.47 164.554L627.206 166.668L631.574 171.631L625.123 173.079L628.948 178.472L622.381 179.237L625.622 185L619.01 185.075L621.631 191.145L615.048 190.528L617.02 196.839L610.538 195.538L611.839 202.02L605.528 200.048L606.145 206.631L600.075 204.01L600 210.622L594.237 207.381L593.472 213.948L588.079 210.123L586.631 216.574L581.668 212.206L579.554 218.47L575.074 213.607L572.317 219.617L568.37 214.312L565 220L561.63 214.312L557.683 219.617L554.926 213.607L550.446 218.47L548.332 212.206L543.369 216.574L541.921 210.123L536.528 213.948L535.763 207.381L530 210.622L529.925 204.01L523.855 206.631L524.472 200.048L518.161 202.02L519.462 195.538L512.98 196.839L514.952 190.528L508.369 191.145L510.99 185.075L504.378 185L507.619 179.237L501.052 178.472L504.877 173.079L498.426 171.631L502.794 166.668L496.53 164.554L501.393 160.074L495.383 157.317L500.688 153.37L495 150L500.688 146.63L495.383 142.683L501.393 139.926L496.53 135.446L502.794 133.332L498.426 128.369L504.877 126.921L501.052 121.528L507.619 120.763L504.378 115L510.99 114.925L508.369 108.855L514.952 109.472L512.98 103.161L519.462 104.462L518.161 97.9799L524.472 99.9518L523.855 93.3688L529.925 95.9896L530 89.3782L535.763 92.6192L536.528 86.0518L541.921 89.8774L543.369 83.426L548.332 87.7944L550.446 81.5297L554.926 86.3929L557.683 80.3835L561.63 85.6883L565 80Z" fill="#D0C3A1"/>
</g>
<g transform="translate(205 0)">
<path d="M565 70L568.852 76.5009L573.362 70.4382L576.514 77.3061L581.633 71.7482L584.049 78.9079L589.721 73.9155L591.376 81.2885L597.539 76.9164L598.414 84.4219L605 80.718L605.085 88.2738L612.023 85.2786L611.318 92.8021L618.53 90.5484L617.043 97.9569L624.452 96.4696L622.198 103.682L629.721 102.977L626.726 109.915L634.282 110L630.578 116.586L638.084 117.461L633.712 123.624L641.085 125.279L636.092 130.951L643.252 133.367L637.694 138.486L644.562 141.638L638.499 146.148L645 150L638.499 153.852L644.562 158.362L637.694 161.514L643.252 166.633L636.092 169.049L641.085 174.721L633.712 176.376L638.084 182.539L630.578 183.414L634.282 190L626.726 190.085L629.721 197.023L622.198 196.318L624.452 203.53L617.043 202.043L618.53 209.452L611.318 207.198L612.023 214.721L605.085 211.726L605 219.282L598.414 215.578L597.539 223.084L591.376 218.712L589.721 226.085L584.049 221.092L581.633 228.252L576.514 222.694L573.362 229.562L568.852 223.499L565 230L561.148 223.499L556.638 229.562L553.486 222.694L548.367 228.252L545.951 221.092L540.279 226.085L538.624 218.712L532.461 223.084L531.586 215.578L525 219.282L524.915 211.726L517.977 214.721L518.682 207.198L511.47 209.452L512.957 202.043L505.548 203.53L507.802 196.318L500.279 197.023L503.274 190.085L495.718 190L499.422 183.414L491.916 182.539L496.288 176.376L488.915 174.721L493.908 169.049L486.748 166.633L492.306 161.514L485.438 158.362L491.501 153.852L485 150L491.501 146.148L485.438 141.638L492.306 138.486L486.748 133.367L493.908 130.951L488.915 125.279L496.288 123.624L491.916 117.461L499.422 116.586L495.718 110L503.274 109.915L500.279 102.977L507.802 103.682L505.548 96.4696L512.957 97.9569L511.47 90.5484L518.682 92.8021L517.977 85.2786L524.915 88.2738L525 80.718L531.586 84.4219L532.461 76.9164L538.624 81.2885L540.279 73.9155L545.951 78.9079L548.367 71.7482L553.486 77.3061L556.638 70.4382L561.148 76.5009L565 70Z" fill="#FFF8DC"/>
<path d="M565 80L568.37 85.6883L572.317 80.3835L575.074 86.3929L579.554 81.5297L581.668 87.7944L586.631 83.426L588.079 89.8774L593.472 86.0518L594.237 92.6192L600 89.3782L600.075 95.9896L606.145 93.3688L605.528 99.9518L611.839 97.9799L610.538 104.462L617.02 103.161L615.048 109.472L621.631 108.855L619.01 114.925L625.622 115L622.381 120.763L628.948 121.528L625.123 126.921L631.574 128.369L627.206 133.332L633.47 135.446L628.607 139.926L634.617 142.683L629.312 146.63L635 150L629.312 153.37L634.617 157.317L628.607 160.074L633.47 164.554L627.206 166.668L631.574 171.631L625.123 173.079L628.948 178.472L622.381 179.237L625.622 185L619.01 185.075L621.631 191.145L615.048 190.528L617.02 196.839L610.538 195.538L611.839 202.02L605.528 200.048L606.145 206.631L600.075 204.01L600 210.622L594.237 207.381L593.472 213.948L588.079 210.123L586.631 216.574L581.668 212.206L579.554 218.47L575.074 213.607L572.317 219.617L568.37 214.312L565 220L561.63 214.312L557.683 219.617L554.926 213.607L550.446 218.47L548.332 212.206L543.369 216.574L541.921 210.123L536.528 213.948L535.763 207.381L530 210.622L529.925 204.01L523.855 206.631L524.472 200.048L518.161 202.02L519.462 195.538L512.98 196.839L514.952 190.528L508.369 191.145L510.99 185.075L504.378 185L507.619 179.237L501.052 178.472L504.877 173.079L498.426 171.631L502.794 166.668L496.53 164.554L501.393 160.074L495.383 157.317L500.688 153.37L495 150L500.688 146.63L495.383 142.683L501.393 139.926L496.53 135.446L502.794 133.332L498.426 128.369L504.877 126.921L501.052 121.528L507.619 120.763L504.378 115L510.99 114.925L508.369 108.855L514.952 109.472L512.98 103.161L519.462 104.462L518.161 97.9799L524.472 99.9518L523.855 93.3688L529.925 95.9896L530 89.3782L535.763 92.6192L536.528 86.0518L541.921 89.8774L543.369 83.426L548.332 87.7944L550.446 81.5297L554.926 86.3929L557.683 80.3835L561.63 85.6883L565 80Z" fill="#D0C3A1"/>
</g>
<g transform="translate(-410 210)">
<path d="M565 70L568.852 76.5009L573.362 70.4382L576.514 77.3061L581.633 71.7482L584.049 78.9079L589.721 73.9155L591.376 81.2885L597.539 76.9164L598.414 84.4219L605 80.718L605.085 88.2738L612.023 85.2786L611.318 92.8021L618.53 90.5484L617.043 97.9569L624.452 96.4696L622.198 103.682L629.721 102.977L626.726 109.915L634.282 110L630.578 116.586L638.084 117.461L633.712 123.624L641.085 125.279L636.092 130.951L643.252 133.367L637.694 138.486L644.562 141.638L638.499 146.148L645 150L638.499 153.852L644.562 158.362L637.694 161.514L643.252 166.633L636.092 169.049L641.085 174.721L633.712 176.376L638.084 182.539L630.578 183.414L634.282 190L626.726 190.085L629.721 197.023L622.198 196.318L624.452 203.53L617.043 202.043L618.53 209.452L611.318 207.198L612.023 214.721L605.085 211.726L605 219.282L598.414 215.578L597.539 223.084L591.376 218.712L589.721 226.085L584.049 221.092L581.633 228.252L576.514 222.694L573.362 229.562L568.852 223.499L565 230L561.148 223.499L556.638 229.562L553.486 222.694L548.367 228.252L545.951 221.092L540.279 226.085L538.624 218.712L532.461 223.084L531.586 215.578L525 219.282L524.915 211.726L517.977 214.721L518.682 207.198L511.47 209.452L512.957 202.043L505.548 203.53L507.802 196.318L500.279 197.023L503.274 190.085L495.718 190L499.422 183.414L491.916 182.539L496.288 176.376L488.915 174.721L493.908 169.049L486.748 166.633L492.306 161.514L485.438 158.362L491.501 153.852L485 150L491.501 146.148L485.438 141.638L492.306 138.486L486.748 133.367L493.908 130.951L488.915 125.279L496.288 123.624L491.916 117.461L499.422 116.586L495.718 110L503.274 109.915L500.279 102.977L507.802 103.682L505.548 96.4696L512.957 97.9569L511.47 90.5484L518.682 92.8021L517.977 85.2786L524.915 88.2738L525 80.718L531.586 84.4219L532.461 76.9164L538.624 81.2885L540.279 73.9155L545.951 78.9079L548.367 71.7482L553.486 77.3061L556.638 70.4382L561.148 76.5009L565 70Z" fill="#FFF8DC"/>
<path d="M565 80L568.37 85.6883L572.317 80.3835L575.074 86.3929L579.554 81.5297L581.668 87.7944L586.631 83.426L588.079 89.8774L593.472 86.0518L594.237 92.6192L600 89.3782L600.075 95.9896L606.145 93.3688L605.528 99.9518L611.839 97.9799L610.538 104.462L617.02 103.161L615.048 109.472L621.631 108.855L619.01 114.925L625.622 115L622.381 120.763L628.948 121.528L625.123 126.921L631.574 128.369L627.206 133.332L633.47 135.446L628.607 139.926L634.617 142.683L629.312 146.63L635 150L629.312 153.37L634.617 157.317L628.607 160.074L633.47 164.554L627.206 166.668L631.574 171.631L625.123 173.079L628.948 178.472L622.381 179.237L625.622 185L619.01 185.075L621.631 191.145L615.048 190.528L617.02 196.839L610.538 195.538L611.839 202.02L605.528 200.048L606.145 206.631L600.075 204.01L600 210.622L594.237 207.381L593.472 213.948L588.079 210.123L586.631 216.574L581.668 212.206L579.554 218.47L575.074 213.607L572.317 219.617L568.37 214.312L565 220L561.63 214.312L557.683 219.617L554.926 213.607L550.446 218.47L548.332 212.206L543.369 216.574L541.921 210.123L536.528 213.948L535.763 207.381L530 210.622L529.925 204.01L523.855 206.631L524.472 200.048L518.161 202.02L519.462 195.538L512.98 196.839L514.952 190.528L508.369 191.145L510.99 185.075L504.378 185L507.619 179.237L501.052 178.472L504.877 173.079L498.426 171.631L502.794 166.668L496.53 164.554L501.393 160.074L495.383 157.317L500.688 153.37L495 150L500.688 146.63L495.383 142.683L501.393 139.926L496.53 135.446L502.794 133.332L498.426 128.369L504.877 126.921L501.052 121.528L507.619 120.763L504.378 115L510.99 114.925L508.369 108.855L514.952 109.472L512.98 103.161L519.462 104.462L518.161 97.9799L524.472 99.9518L523.855 93.3688L529.925 95.9896L530 89.3782L535.763 92.6192L536.528 86.0518L541.921 89.8774L543.369 83.426L548.332 87.7944L550.446 81.5297L554.926 86.3929L557.683 80.3835L561.63 85.6883L565 80Z" fill="#D0C3A1"/>
</g>
<g transform="translate(-205 210)">
<path d="M565 70L568.852 76.5009L573.362 70.4382L576.514 77.3061L581.633 71.7482L584.049 78.9079L589.721 73.9155L591.376 81.2885L597.539 76.9164L598.414 84.4219L605 80.718L605.085 88.2738L612.023 85.2786L611.318 92.8021L618.53 90.5484L617.043 97.9569L624.452 96.4696L622.198 103.682L629.721 102.977L626.726 109.915L634.282 110L630.578 116.586L638.084 117.461L633.712 123.624L641.085 125.279L636.092 130.951L643.252 133.367L637.694 138.486L644.562 141.638L638.499 146.148L645 150L638.499 153.852L644.562 158.362L637.694 161.514L643.252 166.633L636.092 169.049L641.085 174.721L633.712 176.376L638.084 182.539L630.578 183.414L634.282 190L626.726 190.085L629.721 197.023L622.198 196.318L624.452 203.53L617.043 202.043L618.53 209.452L611.318 207.198L612.023 214.721L605.085 211.726L605 219.282L598.414 215.578L597.539 223.084L591.376 218.712L589.721 226.085L584.049 221.092L581.633 228.252L576.514 222.694L573.362 229.562L568.852 223.499L565 230L561.148 223.499L556.638 229.562L553.486 222.694L548.367 228.252L545.951 221.092L540.279 226.085L538.624 218.712L532.461 223.084L531.586 215.578L525 219.282L524.915 211.726L517.977 214.721L518.682 207.198L511.47 209.452L512.957 202.043L505.548 203.53L507.802 196.318L500.279 197.023L503.274 190.085L495.718 190L499.422 183.414L491.916 182.539L496.288 176.376L488.915 174.721L493.908 169.049L486.748 166.633L492.306 161.514L485.438 158.362L491.501 153.852L485 150L491.501 146.148L485.438 141.638L492.306 138.486L486.748 133.367L493.908 130.951L488.915 125.279L496.288 123.624L491.916 117.461L499.422 116.586L495.718 110L503.274 109.915L500.279 102.977L507.802 103.682L505.548 96.4696L512.957 97.9569L511.47 90.5484L518.682 92.8021L517.977 85.2786L524.915 88.2738L525 80.718L531.586 84.4219L532.461 76.9164L538.624 81.2885L540.279 73.9155L545.951 78.9079L548.367 71.7482L553.486 77.3061L556.638 70.4382L561.148 76.5009L565 70Z" fill="#FFF8DC"/>
<path d="M565 80L568.37 85.6883L572.317 80.3835L575.074 86.3929L579.554 81.5297L581.668 87.7944L586.631 83.426L588.079 89.8774L593.472 86.0518L594.237 92.6192L600 89.3782L600.075 95.9896L606.145 93.3688L605.528 99.9518L611.839 97.9799L610.538 104.462L617.02 103.161L615.048 109.472L621.631 108.855L619.01 114.925L625.622 115L622.381 120.763L628.948 121.528L625.123 126.921L631.574 128.369L627.206 133.332L633.47 135.446L628.607 139.926L634.617 142.683L629.312 146.63L635 150L629.312 153.37L634.617 157.317L628.607 160.074L633.47 164.554L627.206 166.668L631.574 171.631L625.123 173.079L628.948 178.472L622.381 179.237L625.622 185L619.01 185.075L621.631 191.145L615.048 190.528L617.02 196.839L610.538 195.538L611.839 202.02L605.528 200.048L606.145 206.631L600.075 204.01L600 210.622L594.237 207.381L593.472 213.948L588.079 210.123L586.631 216.574L581.668 212.206L579.554 218.47L575.074 213.607L572.317 219.617L568.37 214.312L565 220L561.63 214.312L557.683 219.617L554.926 213.607L550.446 218.47L548.332 212.206L543.369 216.574L541.921 210.123L536.528 213.948L535.763 207.381L530 210.622L529.925 204.01L523.855 206.631L524.472 200.048L518.161 202.02L519.462 195.538L512.98 196.839L514.952 190.528L508.369 191.145L510.99 185.075L504.378 185L507.619 179.237L501.052 178.472L504.877 173.079L498.426 171.631L502.794 166.668L496.53 164.554L501.393 160.074L495.383 157.317L500.688 153.37L495 150L500.688 146.63L495.383 142.683L501.393 139.926L496.53 135.446L502.794 133.332L498.426 128.369L504.877 126.921L501.052 121.528L507.619 120.763L504.378 115L510.99 114.925L508.369 108.855L514.952 109.472L512.98 103.161L519.462 104.462L518.161 97.9799L524.472 99.9518L523.855 93.3688L529.925 95.9896L530 89.3782L535.763 92.6192L536.528 86.0518L541.921 89.8774L543.369 83.426L548.332 87.7944L550.446 81.5297L554.926 86.3929L557.683 80.3835L561.63 85.6883L565 80Z" fill="#D0C3A1"/>
</g>
<g transform="translate(0 210)">
<path d="M565 70L568.852 76.5009L573.362 70.4382L576.514 77.3061L581.633 71.7482L584.049 78.9079L589.721 73.9155L591.376 81.2885L597.539 76.9164L598.414 84.4219L605 80.718L605.085 88.2738L612.023 85.2786L611.318 92.8021L618.53 90.5484L617.043 97.9569L624.452 96.4696L622.198 103.682L629.721 102.977L626.726 109.915L634.282 110L630.578 116.586L638.084 117.461L633.712 123.624L641.085 125.279L636.092 130.951L643.252 133.367L637.694 138.486L644.562 141.638L638.499 146.148L645 150L638.499 153.852L644.562 158.362L637.694 161.514L643.252 166.633L636.092 169.049L641.085 174.721L633.712 176.376L638.084 182.539L630.578 183.414L634.282 190L626.726 190.085L629.721 197.023L622.198 196.318L624.452 203.53L617.043 202.043L618.53 209.452L611.318 207.198L612.023 214.721L605.085 211.726L605 219.282L598.414 215.578L597.539 223.084L591.376 218.712L589.721 226.085L584.049 221.092L581.633 228.252L576.514 222.694L573.362 229.562L568.852 223.499L565 230L561.148 223.499L556.638 229.562L553.486 222.694L548.367 228.252L545.951 221.092L540.279 226.085L538.624 218.712L532.461 223.084L531.586 215.578L525 219.282L524.915 211.726L517.977 214.721L518.682 207.198L511.47 209.452L512.957 202.043L505.548 203.53L507.802 196.318L500.279 197.023L503.274 190.085L495.718 190L499.422 183.414L491.916 182.539L496.288 176.376L488.915 174.721L493.908 169.049L486.748 166.633L492.306 161.514L485.438 158.362L491.501 153.852L485 150L491.501 146.148L485.438 141.638L492.306 138.486L486.748 133.367L493.908 130.951L488.915 125.279L496.288 123.624L491.916 117.461L499.422 116.586L495.718 110L503.274 109.915L500.279 102.977L507.802 103.682L505.548 96.4696L512.957 97.9569L511.47 90.5484L518.682 92.8021L517.977 85.2786L524.915 88.2738L525 80.718L531.586 84.4219L532.461 76.9164L538.624 81.2885L540.279 73.9155L545.951 78.9079L548.367 71.7482L553.486 77.3061L556.638 70.4382L561.148 76.5009L565 70Z" fill="#FFF8DC"/>
<path d="M565 80L568.37 85.6883L572.317 80.3835L575.074 86.3929L579.554 81.5297L581.668 87.7944L586.631 83.426L588.079 89.8774L593.472 86.0518L594.237 92.6192L600 89.3782L600.075 95.9896L606.145 93.3688L605.528 99.9518L611.839 97.9799L610.538 104.462L617.02 103.161L615.048 109.472L621.631 108.855L619.01 114.925L625.622 115L622.381 120.763L628.948 121.528L625.123 126.921L631.574 128.369L627.206 133.332L633.47 135.446L628.607 139.926L634.617 142.683L629.312 146.63L635 150L629.312 153.37L634.617 157.317L628.607 160.074L633.47 164.554L627.206 166.668L631.574 171.631L625.123 173.079L628.948 178.472L622.381 179.237L625.622 185L619.01 185.075L621.631 191.145L615.048 190.528L617.02 196.839L610.538 195.538L611.839 202.02L605.528 200.048L606.145 206.631L600.075 204.01L600 210.622L594.237 207.381L593.472 213.948L588.079 210.123L586.631 216.574L581.668 212.206L579.554 218.47L575.074 213.607L572.317 219.617L568.37 214.312L565 220L561.63 214.312L557.683 219.617L554.926 213.607L550.446 218.47L548.332 212.206L543.369 216.574L541.921 210.123L536.528 213.948L535.763 207.381L530 210.622L529.925 204.01L523.855 206.631L524.472 200.048L518.161 202.02L519.462 195.538L512.98 196.839L514.952 190.528L508.369 191.145L510.99 185.075L504.378 185L507.619 179.237L501.052 178.472L504.877 173.079L498.426 171.631L502.794 166.668L496.53 164.554L501.393 160.074L495.383 157.317L500.688 153.37L495 150L500.688 146.63L495.383 142.683L501.393 139.926L496.53 135.446L502.794 133.332L498.426 128.369L504.877 126.921L501.052 121.528L507.619 120.763L504.378 115L510.99 114.925L508.369 108.855L514.952 109.472L512.98 103.161L519.462 104.462L518.161 97.9799L524.472 99.9518L523.855 93.3688L529.925 95.9896L530 89.3782L535.763 92.6192L536.528 86.0518L541.921 89.8774L543.369 83.426L548.332 87.7944L550.446 81.5297L554.926 86.3929L557.683 80.3835L561.63 85.6883L565 80Z" fill="#D0C3A1"/>
</g>
<g transform="translate(205 210)">
<path d="M565 70L568.852 76.5009L573.362 70.4382L576.514 77.3061L581.633 71.7482L584.049 78.9079L589.721 73.9155L591.376 81.2885L597.539 76.9164L598.414 84.4219L605 80.718L605.085 88.2738L612.023 85.2786L611.318 92.8021L618.53 90.5484L617.043 97.9569L624.452 96.4696L622.198 103.682L629.721 102.977L626.726 109.915L634.282 110L630.578 116.586L638.084 117.461L633.712 123.624L641.085 125.279L636.092 130.951L643.252 133.367L637.694 138.486L644.562 141.638L638.499 146.148L645 150L638.499 153.852L644.562 158.362L637.694 161.514L643.252 166.633L636.092 169.049L641.085 174.721L633.712 176.376L638.084 182.539L630.578 183.414L634.282 190L626.726 190.085L629.721 197.023L622.198 196.318L624.452 203.53L617.043 202.043L618.53 209.452L611.318 207.198L612.023 214.721L605.085 211.726L605 219.282L598.414 215.578L597.539 223.084L591.376 218.712L589.721 226.085L584.049 221.092L581.633 228.252L576.514 222.694L573.362 229.562L568.852 223.499L565 230L561.148 223.499L556.638 229.562L553.486 222.694L548.367 228.252L545.951 221.092L540.279 226.085L538.624 218.712L532.461 223.084L531.586 215.578L525 219.282L524.915 211.726L517.977 214.721L518.682 207.198L511.47 209.452L512.957 202.043L505.548 203.53L507.802 196.318L500.279 197.023L503.274 190.085L495.718 190L499.422 183.414L491.916 182.539L496.288 176.376L488.915 174.721L493.908 169.049L486.748 166.633L492.306 161.514L485.438 158.362L491.501 153.852L485 150L491.501 146.148L485.438 141.638L492.306 138.486L486.748 133.367L493.908 130.951L488.915 125.279L496.288 123.624L491.916 117.461L499.422 116.586L495.718 110L503.274 109.915L500.279 102.977L507.802 103.682L505.548 96.4696L512.957 97.9569L511.47 90.5484L518.682 92.8021L517.977 85.2786L524.915 88.2738L525 80.718L531.586 84.4219L532.461 76.9164L538.624 81.2885L540.279 73.9155L545.951 78.9079L548.367 71.7482L553.486 77.3061L556.638 70.4382L561.148 76.5009L565 70Z" fill="#FFF8DC"/>
<path d="M565 80L568.37 85.6883L572.317 80.3835L575.074 86.3929L579.554 81.5297L581.668 87.7944L586.631 83.426L588.079 89.8774L593.472 86.0518L594.237 92.6192L600 89.3782L600.075 95.9896L606.145 93.3688L605.528 99.9518L611.839 97.9799L610.538 104.462L617.02 103.161L615.048 109.472L621.631 108.855L619.01 114.925L625.622 115L622.381 120.763L628.948 121.528L625.123 126.921L631.574 128.369L627.206 133.332L633.47 135.446L628.607 139.926L634.617 142.683L629.312 146.63L635 150L629.312 153.37L634.617 157.317L628.607 160.074L633.47 164.554L627.206 166.668L631.574 171.631L625.123 173.079L628.948 178.472L622.381 179.237L625.622 185L619.01 185.075L621.631 191.145L615.048 190.528L617.02 196.839L610.538 195.538L611.839 202.02L605.528 200.048L606.145 206.631L600.075 204.01L600 210.622L594.237 207.381L593.472 213.948L588.079 210.123L586.631 216.574L581.668 212.206L579.554 218.47L575.074 213.607L572.317 219.617L568.37 214.312L565 220L561.63 214.312L557.683 219.617L554.926 213.607L550.446 218.47L548.332 212.206L543.369 216.574L541.921 210.123L536.528 213.948L535.763 207.381L530 210.622L529.925 204.01L523.855 206.631L524.472 200.048L518.161 202.02L519.462 195.538L512.98 196.839L514.952 190.528L508.369 191.145L510.99 185.075L504.378 185L507.619 179.237L501.052 178.472L504.877 173.079L498.426 171.631L502.794 166.668L496.53 164.554L501.393 160.074L495.383 157.317L500.688 153.37L495 150L500.688 146.63L495.383 142.683L501.393 139.926L496.53 135.446L502.794 133.332L498.426 128.369L504.877 126.921L501.052 121.528L507.619 120.763L504.378 115L510.99 114.925L508.369 108.855L514.952 109.472L512.98 103.161L519.462 104.462L518.161 97.9799L524.472 99.9518L523.855 93.3688L529.925 95.9896L530 89.3782L535.763 92.6192L536.528 86.0518L541.921 89.8774L543.369 83.426L548.332 87.7944L550.446 81.5297L554.926 86.3929L557.683 80.3835L561.63 85.6883L565 80Z" fill="#D0C3A1"/>
</g>
<g transform="translate(-410 420)">
<path d="M565 70L568.852 76.5009L573.362 70.4382L576.514 77.3061L581.633 71.7482L584.049 78.9079L589.721 73.9155L591.376 81.2885L597.539 76.9164L598.414 84.4219L605 80.718L605.085 88.2738L612.023 85.2786L611.318 92.8021L618.53 90.5484L617.043 97.9569L624.452 96.4696L622.198 103.682L629.721 102.977L626.726 109.915L634.282 110L630.578 116.586L638.084 117.461L633.712 123.624L641.085 125.279L636.092 130.951L643.252 133.367L637.694 138.486L644.562 141.638L638.499 146.148L645 150L638.499 153.852L644.562 158.362L637.694 161.514L643.252 166.633L636.092 169.049L641.085 174.721L633.712 176.376L638.084 182.539L630.578 183.414L634.282 190L626.726 190.085L629.721 197.023L622.198 196.318L624.452 203.53L617.043 202.043L618.53 209.452L611.318 207.198L612.023 214.721L605.085 211.726L605 219.282L598.414 215.578L597.539 223.084L591.376 218.712L589.721 226.085L584.049 221.092L581.633 228.252L576.514 222.694L573.362 229.562L568.852 223.499L565 230L561.148 223.499L556.638 229.562L553.486 222.694L548.367 228.252L545.951 221.092L540.279 226.085L538.624 218.712L532.461 223.084L531.586 215.578L525 219.282L524.915 211.726L517.977 214.721L518.682 207.198L511.47 209.452L512.957 202.043L505.548 203.53L507.802 196.318L500.279 197.023L503.274 190.085L495.718 190L499.422 183.414L491.916 182.539L496.288 176.376L488.915 174.721L493.908 169.049L486.748 166.633L492.306 161.514L485.438 158.362L491.501 153.852L485 150L491.501 146.148L485.438 141.638L492.306 138.486L486.748 133.367L493.908 130.951L488.915 125.279L496.288 123.624L491.916 117.461L499.422 116.586L495.718 110L503.274 109.915L500.279 102.977L507.802 103.682L505.548 96.4696L512.957 97.9569L511.47 90.5484L518.682 92.8021L517.977 85.2786L524.915 88.2738L525 80.718L531.586 84.4219L532.461 76.9164L538.624 81.2885L540.279 73.9155L545.951 78.9079L548.367 71.7482L553.486 77.3061L556.638 70.4382L561.148 76.5009L565 70Z" fill="#FFF8DC"/>
<path d="M565 80L568.37 85.6883L572.317 80.3835L575.074 86.3929L579.554 81.5297L581.668 87.7944L586.631 83.426L588.079 89.8774L593.472 86.0518L594.237 92.6192L600 89.3782L600.075 95.9896L606.145 93.3688L605.528 99.9518L611.839 97.9799L610.538 104.462L617.02 103.161L615.048 109.472L621.631 108.855L619.01 114.925L625.622 115L622.381 120.763L628.948 121.528L625.123 126.921L631.574 128.369L627.206 133.332L633.47 135.446L628.607 139.926L634.617 142.683L629.312 146.63L635 150L629.312 153.37L634.617 157.317L628.607 160.074L633.47 164.554L627.206 166.668L631.574 171.631L625.123 173.079L628.948 178.472L622.381 179.237L625.622 185L619.01 185.075L621.631 191.145L615.048 190.528L617.02 196.839L610.538 195.538L611.839 202.02L605.528 200.048L606.145 206.631L600.075 204.01L600 210.622L594.237 207.381L593.472 213.948L588.079 210.123L586.631 216.574L581.668 212.206L579.554 218.47L575.074 213.607L572.317 219.617L568.37 214.312L565 220L561.63 214.312L557.683 219.617L554.926 213.607L550.446 218.47L548.332 212.206L543.369 216.574L541.921 210.123L536.528 213.948L535.763 207.381L530 210.622L529.925 204.01L523.855 206.631L524.472 200.048L518.161 202.02L519.462 195.538L512.98 196.839L514.952 190.528L508.369 191.145L510.99 185.075L504.378 185L507.619 179.237L501.052 178.472L504.877 173.079L498.426 171.631L502.794 166.668L496.53 164.554L501.393 160.074L495.383 157.317L500.688 153.37L495 150L500.688 146.63L495.383 142.683L501.393 139.926L496.53 135.446L502.794 133.332L498.426 128.369L504.877 126.921L501.052 121.528L507.619 120.763L504.378 115L510.99 114.925L508.369 108.855L514.952 109.472L512.98 103.161L519.462 104.462L518.161 97.9799L524.472 99.9518L523.855 93.3688L529.925 95.9896L530 89.3782L535.763 92.6192L536.528 86.0518L541.921 89.8774L543.369 83.426L548.332 87.7944L550.446 81.5297L554.926 86.3929L557.683 80.3835L561.63 85.6883L565 80Z" fill="#D0C3A1"/>
</g>
<g transform="translate(-205 420)">
<path d="M565 70L568.852 76.5009L573.362 70.4382L576.514 77.3061L581.633 71.7482L584.049 78.9079L589.721 73.9155L591.376 81.2885L597.539 76.9164L598.414 84.4219L605 80.718L605.085 88.2738L612.023 85.2786L611.318 92.8021L618.53 90.5484L617.043 97.9569L624.452 96.4696L622.198 103.682L629.721 102.977L626.726 109.915L634.282 110L630.578 116.586L638.084 117.461L633.712 123.624L641.085 125.279L636.092 130.951L643.252 133.367L637.694 138.486L644.562 141.638L638.499 146.148L645 150L638.499 153.852L644.562 158.362L637.694 161.514L643.252 166.633L636.092 169.049L641.085 174.721L633.712 176.376L638.084 182.539L630.578 183.414L634.282 190L626.726 190.085L629.721 197.023L622.198 196.318L624.452 203.53L617.043 202.043L618.53 209.452L611.318 207.198L612.023 214.721L605.085 211.726L605 219.282L598.414 215.578L597.539 223.084L591.376 218.712L589.721 226.085L584.049 221.092L581.633 228.252L576.514 222.694L573.362 229.562L568.852 223.499L565 230L561.148 223.499L556.638 229.562L553.486 222.694L548.367 228.252L545.951 221.092L540.279 226.085L538.624 218.712L532.461 223.084L531.586 215.578L525 219.282L524.915 211.726L517.977 214.721L518.682 207.198L511.47 209.452L512.957 202.043L505.548 203.53L507.802 196.318L500.279 197.023L503.274 190.085L495.718 190L499.422 183.414L491.916 182.539L496.288 176.376L488.915 174.721L493.908 169.049L486.748 166.633L492.306 161.514L485.438 158.362L491.501 153.852L485 150L491.501 146.148L485.438 141.638L492.306 138.486L486.748 133.367L493.908 130.951L488.915 125.279L496.288 123.624L491.916 117.461L499.422 116.586L495.718 110L503.274 109.915L500.279 102.977L507.802 103.682L505.548 96.4696L512.957 97.9569L511.47 90.5484L518.682 92.8021L517.977 85.2786L524.915 88.2738L525 80.718L531.586 84.4219L532.461 76.9164L538.624 81.2885L540.279 73.9155L545.951 78.9079L548.367 71.7482L553.486 77.3061L556.638 70.4382L561.148 76.5009L565 70Z" fill="#FFF8DC"/>
<path d="M565 80L568.37 85.6883L572.317 80.3835L575.074 86.3929L579.554 81.5297L581.668 87.7944L586.631 83.426L588.079 89.8774L593.472 86.0518L594.237 92.6192L600 89.3782L600.075 95.9896L606.145 93.3688L605.528 99.9518L611.839 97.9799L610.538 104.462L617.02 103.161L615.048 109.472L621.631 108.855L619.01 114.925L625.622 115L622.381 120.763L628.948 121.528L625.123 126.921L631.574 128.369L627.206 133.332L633.47 135.446L628.607 139.926L634.617 142.683L629.312 146.63L635 150L629.312 153.37L634.617 157.317L628.607 160.074L633.47 164.554L627.206 166.668L631.574 171.631L625.123 173.079L628.948 178.472L622.381 179.237L625.622 185L619.01 185.075L621.631 191.145L615.048 190.528L617.02 196.839L610.538 195.538L611.839 202.02L605.528 200.048L606.145 206.631L600.075 204.01L600 210.622L594.237 207.381L593.472 213.948L588.079 210.123L586.631 216.574L581.668 212.206L579.554 218.47L575.074 213.607L572.317 219.617L568.37 214.312L565 220L561.63 214.312L557.683 219.617L554.926 213.607L550.446 218.47L548.332 212.206L543.369 216.574L541.921 210.123L536.528 213.948L535.763 207.381L530 210.622L529.925 204.01L523.855 206.631L524.472 200.048L518.161 202.02L519.462 195.538L512.98 196.839L514.952 190.528L508.369 191.145L510.99 185.075L504.378 185L507.619 179.237L501.052 178.472L504.877 173.079L498.426 171.631L502.794 166.668L496.53 164.554L501.393 160.074L495.383 157.317L500.688 153.37L495 150L500.688 146.63L495.383 142.683L501.393 139.926L496.53 135.446L502.794 133.332L498.426 128.369L504.877 126.921L501.052 121.528L507.619 120.763L504.378 115L510.99 114.925L508.369 108.855L514.952 109.472L512.98 103.161L519.462 104.462L518.161 97.9799L524.472 99.9518L523.855 93.3688L529.925 95.9896L530 89.3782L535.763 92.6192L536.528 86.0518L541.921 89.8774L543.369 83.426L548.332 87.7944L550.446 81.5297L554.926 86.3929L557.683 80.3835L561.63 85.6883L565 80Z" fill="#D0C3A1"/>
</g>
<g transform="translate(0 420)">
<path d="M565 70L568.852 76.5009L573.362 70.4382L576.514 77.3061L581.633 71.7482L584.049 78.9079L589.721 73.9155L591.376 81.2885L597.539 76.9164L598.414 84.4219L605 80.718L605.085 88.2738L612.023 85.2786L611.318 92.8021L618.53 90.5484L617.043 97.9569L624.452 96.4696L622.198 103.682L629.721 102.977L626.726 109.915L634.282 110L630.578 116.586L638.084 117.461L633.712 123.624L641.085 125.279L636.092 130.951L643.252 133.367L637.694 138.486L644.562 141.638L638.499 146.148L645 150L638.499 153.852L644.562 158.362L637.694 161.514L643.252 166.633L636.092 169.049L641.085 174.721L633.712 176.376L638.084 182.539L630.578 183.414L634.282 190L626.726 190.085L629.721 197.023L622.198 196.318L624.452 203.53L617.043 202.043L618.53 209.452L611.318 207.198L612.023 214.721L605.085 211.726L605 219.282L598.414 215.578L597.539 223.084L591.376 218.712L589.721 226.085L584.049 221.092L581.633 228.252L576.514 222.694L573.362 229.562L568.852 223.499L565 230L561.148 223.499L556.638 229.562L553.486 222.694L548.367 228.252L545.951 221.092L540.279 226.085L538.624 218.712L532.461 223.084L531.586 215.578L525 219.282L524.915 211.726L517.977 214.721L518.682 207.198L511.47 209.452L512.957 202.043L505.548 203.53L507.802 196.318L500.279 197.023L503.274 190.085L495.718 190L499.422 183.414L491.916 182.539L496.288 176.376L488.915 174.721L493.908 169.049L486.748 166.633L492.306 161.514L485.438 158.362L491.501 153.852L485 150L491.501 146.148L485.438 141.638L492.306 138.486L486.748 133.367L493.908 130.951L488.915 125.279L496.288 123.624L491.916 117.461L499.422 116.586L495.718 110L503.274 109.915L500.279 102.977L507.802 103.682L505.548 96.4696L512.957 97.9569L511.47 90.5484L518.682 92.8021L517.977 85.2786L524.915 88.2738L525 80.718L531.586 84.4219L532.461 76.9164L538.624 81.2885L540.279 73.9155L545.951 78.9079L548.367 71.7482L553.486 77.3061L556.638 70.4382L561.148 76.5009L565 70Z" fill="#FFF8DC"/>
<path d="M565 80L568.37 85.6883L572.317 80.3835L575.074 86.3929L579.554 81.5297L581.668 87.7944L586.631 83.426L588.079 89.8774L593.472 86.0518L594.237 92.6192L600 89.3782L600.075 95.9896L606.145 93.3688L605.528 99.9518L611.839 97.9799L610.538 104.462L617.02 103.161L615.048 109.472L621.631 108.855L619.01 114.925L625.622 115L622.381 120.763L628.948 121.528L625.123 126.921L631.574 128.369L627.206 133.332L633.47 135.446L628.607 139.926L634.617 142.683L629.312 146.63L635 150L629.312 153.37L634.617 157.317L628.607 160.074L633.47 164.554L627.206 166.668L631.574 171.631L625.123 173.079L628.948 178.472L622.381 179.237L625.622 185L619.01 185.075L621.631 191.145L615.048 190.528L617.02 196.839L610.538 195.538L611.839 202.02L605.528 200.048L606.145 206.631L600.075 204.01L600 210.622L594.237 207.381L593.472 213.948L588.079 210.123L586.631 216.574L581.668 212.206L579.554 218.47L575.074 213.607L572.317 219.617L568.37 214.312L565 220L561.63 214.312L557.683 219.617L554.926 213.607L550.446 218.47L548.332 212.206L543.369 216.574L541.921 210.123L536.528 213.948L535.763 207.381L530 210.622L529.925 204.01L523.855 206.631L524.472 200.048L518.161 202.02L519.462 195.538L512.98 196.839L514.952 190.528L508.369 191.145L510.99 185.075L504.378 185L507.619 179.237L501.052 178.472L504.877 173.079L498.426 171.631L502.794 166.668L496.53 164.554L501.393 160.074L495.383 157.317L500.688 153.37L495 150L500.688 146.63L495.383 142.683L501.393 139.926L496.53 135.446L502.794 133.332L498.426 128.369L504.877 126.921L501.052 121.528L507.619 120.763L504.378 115L510.99 114.925L508.369 108.855L514.952 109.472L512.98 103.161L519.462 104.462L518.161 97.9799L524.472 99.9518L523.855 93.3688L529.925 95.9896L530 89.3782L535.763 92.6192L536.528 86.0518L541.921 89.8774L543.369 83.426L548.332 87.7944L550.446 81.5297L554.926 86.3929L557.683 80.3835L561.63 85.6883L565 80Z" fill="#D0C3A1"/>
</g>
<g transform="translate(205 420)">
<path d="M565 70L568.852 76.5009L573.362 70.4382L576.514 77.3061L581.633 71.7482L584.049 78.9079L589.721 73.9155L591.376 81.2885L597.539 76.9164L598.414 84.4219L605 80.718L605.085 88.2738L612.023 85.2786L611.318 92.8021L618.53 90.5484L617.043 97.9569L624.452 96.4696L622.198 103.682L629.721 102.977L626.726 109.915L634.282 110L630.578 116.586L638.084 117.461L633.712 123.624L641.085 125.279L636.092 130.951L643.252 133.367L637.694 138.486L644.562 141.638L638.499 146.148L645 150L638.499 153.852L644.562 158.362L637.694 161.514L643.252 166.633L636.092 169.049L641.085 174.721L633.712 176.376L638.084 182.539L630.578 183.414L634.282 190L626.726 190.085L629.721 197.023L622.198 196.318L624.452 203.53L617.043 202.043L618.53 209.452L611.318 207.198L612.023 214.721L605.085 211.726L605 219.282L598.414 215.578L597.539 223.084L591.376 218.712L589.721 226.085L584.049 221.092L581.633 228.252L576.514 222.694L573.362 229.562L568.852 223.499L565 230L561.148 223.499L556.638 229.562L553.486 222.694L548.367 228.252L545.951 221.092L540.279 226.085L538.624 218.712L532.461 223.084L531.586 215.578L525 219.282L524.915 211.726L517.977 214.721L518.682 207.198L511.47 209.452L512.957 202.043L505.548 203.53L507.802 196.318L500.279 197.023L503.274 190.085L495.718 190L499.422 183.414L491.916 182.539L496.288 176.376L488.915 174.721L493.908 169.049L486.748 166.633L492.306 161.514L485.438 158.362L491.501 153.852L485 150L491.501 146.148L485.438 141.638L492.306 138.486L486.748 133.367L493.908 130.951L488.915 125.279L496.288 123.624L491.916 117.461L499.422 116.586L495.718 110L503.274 109.915L500.279 102.977L507.802 103.682L505.548 96.4696L512.957 97.9569L511.47 90.5484L518.682 92.8021L517.977 85.2786L524.915 88.2738L525 80.718L531.586 84.4219L532.461 76.9164L538.624 81.2885L540.279 73.9155L545.951 78.9079L548.367 71.7482L553.486 77.3061L556.638 70.4382L561.148 76.5009L565 70Z" fill="#FFF8DC"/>
<path d="M565 80L568.37 85.6883L572.317 80.3835L575.074 86.3929L579.554 81.5297L581.668 87.7944L586.631 83.426L588.079 89.8774L593.472 86.0518L594.237 92.6192L600 89.3782L600.075 95.9896L606.145 93.3688L605.528 99.9518L611.839 97.9799L610.538 104.462L617.02 103.161L615.048 109.472L621.631 108.855L619.01 114.925L625.622 115L622.381 120.763L628.948 121.528L625.123 126.921L631.574 128.369L627.206 133.332L633.47 135.446L628.607 139.926L634.617 142.683L629.312 146.63L635 150L629.312 153.37L634.617 157.317L628.607 160.074L633.47 164.554L627.206 166.668L631.574 171.631L625.123 173.079L628.948 178.472L622.381 179.237L625.622 185L619.01 185.075L621.631 191.145L615.048 190.528L617.02 196.839L610.538 195.538L611.839 202.02L605.528 200.048L606.145 206.631L600.075 204.01L600 210.622L594.237 207.381L593.472 213.948L588.079 210.123L586.631 216.574L581.668 212.206L579.554 218.47L575.074 213.607L572.317 219.617L568.37 214.312L565 220L561.63 214.312L557.683 219.617L554.926 213.607L550.446 218.47L548.332 212.206L543.369 216.574L541.921 210.123L536.528 213.948L535.763 207.381L530 210.622L529.925 204.01L523.855 206.631L524.472 200.048L518.161 202.02L519.462 195.538L512.98 196.839L514.952 190.528L508.369 191.145L510.99 185.075L504.378 185L507.619 179.237L501.052 178.472L504.877 173.079L498.426 171.631L502.794 166.668L496.53 164.554L501.393 160.074L495.383 157.317L500.688 153.37L495 150L500.688 146.63L495.383 142.683L501.393 139.926L496.53 135.446L502.794 133.332L498.426 128.369L504.877 126.921L501.052 121.528L507.619 120.763L504.378 115L510.99 114.925L508.369 108.855L514.952 109.472L512.98 103.161L519.462 104.462L518.161 97.9799L524.472 99.9518L523.855 93.3688L529.925 95.9896L530 89.3782L535.763 92.6192L536.528 86.0518L541.921 89.8774L543.369 83.426L548.332 87.7944L550.446 81.5297L554.926 86.3929L557.683 80.3835L561.63 85.6883L565 80Z" fill="#D0C3A1"/>
</g>
<defs>
<filter id="filter0_f_1_3" x="720" y="109.999" width="30.0002" height="35.0009" filterUnits="userSpaceOnUse" color-interpolation-filters="sRGB">
<feFlood flood-opacity="0" result="BackgroundImageFix"/>
<feBlend mode="normal" in="SourceGraphic" in2="BackgroundImageFix" result="shape"/>
<feGaussianBlur stdDeviation="1.25" result="effect1_foregroundBlur_1_3"/>
</filter>
<filter id="filter1_f_1_3" x="305" y="309.999" width="47.7739" height="60.0009" filterUnits="userSpaceOnUse" color-interpolation-filters="sRGB">
<feFlood flood-opacity="0" result="BackgroundImageFix"/>
<feBlend mode="normal" in="SourceGraphic" in2="BackgroundImageFix" result="shape"/>
<feGaussianBlur stdDeviation="1.25" result="effect1_foregroundBlur_1_3"/>
</filter>
</defs>
</svg>
