<svg width="925" height="715" viewBox="0 0 925 715" fill="none" xmlns="http://www.w3.org/2000/svg">
<rect width="925" height="715" fill="#603C2C"/>
<rect x="25" y="20" width="875" height="675" fill="#CA9F68"/>
<rect x="50" y="40" width="210" height="215" fill="#A8744F"/>
<rect x="255" y="40" width="210" height="215" fill="#A8744F"/>
<rect x="460" y="40" width="210" height="215" fill="#A8744F"/>
<rect x="665" y="40" width="210" height="215" fill="#A8744F"/>
<rect x="50" y="250" width="210" height="215" fill="#A8744F"/>
<rect x="255" y="250" width="210" height="215" fill="#A8744F"/>
<rect x="460" y="250" width="210" height="215" fill="#A8744F"/>
<rect x="665" y="250" width="210" height="215" fill="#A8744F"/>
<rect x="50" y="460" width="210" height="215" fill="#A8744F"/>
<rect x="255" y="460" width="210" height="215" fill="#A8744F"/>
<rect x="460" y="460" width="210" height="215" fill="#A8744F"/>
<rect x="665" y="460" width="210" height="215" fill="#A8744F"/>
<rect x="55" y="45" width="200" height="205" fill="#CA9F68"/>
<rect x="260" y="45" width="200" height="205" fill="#CA9F68"/>
<rect x="465" y="45" width="200" height="205" fill="#CA9F68"/>
<rect x="670" y="45" width="200" height="205" fill="#CA9F68"/>
<rect x="55" y="255" width="200" height="205" fill="#CA9F68"/>
<rect x="260" y="255" width="200" height="205" fill="#CA9F68"/>
<rect x="465" y="255" width="200" height="205" fill="#CA9F68"/>
<rect x="670" y="255" width="200" height="205" fill="#CA9F68"/>
<rect x="55" y="465" width="200" height="205" fill="#CA9F68"/>
<rect x="260" y="465" width="200" height="205" fill="#CA9F68"/>
<rect x="465" y="465" width="200" height="205" fill="#CA9F68"/>
<rect x="670" y="465" width="200" height="205" fill="#CA9F68"/>
<rect x="60" y="50" width="190" height="195" rx="15" fill="#603C2C"/>
<rect x="265" y="50" width="190" height="195" rx="15" fill="#603C2C"/>
<rect x="470" y="50" width="190" height="195" rx="15" fill="#603C2C"/>
<rect x="60" y="260" width="190" height="195" rx="15" fill="#603C2C"/>
<rect x="60" y="470" width="190" height="195" rx="15" fill="#603C2C"/>
<rect x="265" y="470" width="190" height="195" rx="15" fill="#603C2C"/>
<rect x="470" y="470" width="190" height="195" rx="15" fill="#603C2C"/>
<rect x="675" y="470" width="190" height="195" rx="15" fill="#603C2C"/>
<rect x="470" y="260" width="190" height="195" rx="15" fill="#603C2C"/>
<rect x="675" y="50" width="190" height="195" rx="15" fill="#603C2C"/>
<rect x="265" y="260" width="190" height="195" rx="15" fill="#603C2C"/>
<rect x="675" y="260" width="190" height="195" rx="15" fill="#603C2C"/>
<path d="M565 485L568.852 491.704L573.362 485.452L576.514 492.534L581.633 486.803L584.049 494.186L589.721 489.038L591.376 496.641L597.539 492.132L598.414 499.873L605 496.053L605.085 503.845L612.023 500.756L611.318 508.515L618.53 506.191L617.043 513.831L624.452 512.297L622.198 519.735L629.721 519.008L626.726 526.162L634.282 526.25L630.578 533.042L638.084 533.944L633.712 540.3L641.085 542.006L636.092 547.856L643.252 550.347L637.694 555.627L644.562 558.876L638.499 563.528L645 567.5L638.499 571.472L644.562 576.124L637.694 579.373L643.252 584.653L636.092 587.144L641.085 592.994L633.712 594.7L638.084 601.056L630.578 601.958L634.282 608.75L626.726 608.838L629.721 615.992L622.198 615.265L624.452 622.703L617.043 621.169L618.53 628.809L611.318 626.485L612.023 634.244L605.085 631.155L605 638.947L598.414 635.127L597.539 642.867L591.376 638.359L589.721 645.962L584.049 640.814L581.633 648.197L576.514 642.466L573.362 649.548L568.852 643.296L565 650L561.148 643.296L556.638 649.548L553.486 642.466L548.367 648.197L545.951 640.814L540.279 645.962L538.624 638.359L532.461 642.867L531.586 635.127L525 638.947L524.915 631.155L517.977 634.244L518.682 626.485L511.47 628.809L512.957 621.169L505.548 622.703L507.802 615.265L500.279 615.992L503.274 608.838L495.718 608.75L499.422 601.958L491.916 601.056L496.288 594.7L488.915 592.994L493.908 587.144L486.748 584.653L492.306 579.373L485.438 576.124L491.501 571.472L485 567.5L491.501 563.528L485.438 558.876L492.306 555.627L486.748 550.347L493.908 547.856L488.915 542.006L496.288 540.3L491.916 533.944L499.422 533.042L495.718 526.25L503.274 526.162L500.279 519.008L507.802 519.735L505.548 512.297L512.957 513.831L511.47 506.191L518.682 508.515L517.977 500.756L524.915 503.845L525 496.053L531.586 499.873L532.461 492.132L538.624 496.641L540.279 489.038L545.951 494.186L548.367 486.803L553.486 492.534L556.638 485.452L561.148 491.704L565 485Z" fill="#FFF8DC"/>
<path d="M770 65L773.852 71.704L778.362 65.4519L781.514 72.5345L786.633 66.8028L789.049 74.1862L794.721 69.0378L796.376 76.6413L802.539 72.1325L803.414 79.8726L810 76.0529L810.085 83.8449L817.023 80.7561L816.318 88.5146L823.53 86.1906L822.043 93.8306L829.452 92.2967L827.198 99.7346L834.721 99.0077L831.726 106.162L839.282 106.25L835.578 113.042L843.084 113.944L838.712 120.3L846.085 122.006L841.092 127.856L848.252 130.347L842.694 135.627L849.562 138.876L843.499 143.528L850 147.5L843.499 151.472L849.562 156.124L842.694 159.373L848.252 164.653L841.092 167.144L846.085 172.994L838.712 174.7L843.084 181.056L835.578 181.958L839.282 188.75L831.726 188.838L834.721 195.992L827.198 195.265L829.452 202.703L822.043 201.169L823.53 208.809L816.318 206.485L817.023 214.244L810.085 211.155L810 218.947L803.414 215.127L802.539 222.867L796.376 218.359L794.721 225.962L789.049 220.814L786.633 228.197L781.514 222.466L778.362 229.548L773.852 223.296L770 230L766.148 223.296L761.638 229.548L758.486 222.466L753.367 228.197L750.951 220.814L745.279 225.962L743.624 218.359L737.461 222.867L736.586 215.127L730 218.947L729.915 211.155L722.977 214.244L723.682 206.485L716.47 208.809L717.957 201.169L710.548 202.703L712.802 195.265L705.279 195.992L708.274 188.838L700.718 188.75L704.422 181.958L696.916 181.056L701.288 174.7L693.915 172.994L698.908 167.144L691.748 164.653L697.306 159.373L690.438 156.124L696.501 151.472L690 147.5L696.501 143.528L690.438 138.876L697.306 135.627L691.748 130.347L698.908 127.856L693.915 122.006L701.288 120.3L696.916 113.944L704.422 113.042L700.718 106.25L708.274 106.162L705.279 99.0077L712.802 99.7346L710.548 92.2967L717.957 93.8306L716.47 86.1906L723.682 88.5146L722.977 80.7561L729.915 83.8449L730 76.0529L736.586 79.8726L737.461 72.1325L743.624 76.6413L745.279 69.0378L750.951 74.1862L753.367 66.8028L758.486 72.5345L761.638 65.4519L766.148 71.704L770 65Z" fill="#FFF8DC"/>
<path d="M565 70L568.852 76.5009L573.362 70.4382L576.514 77.3061L581.633 71.7482L584.049 78.9079L589.721 73.9155L591.376 81.2885L597.539 76.9164L598.414 84.4219L605 80.718L605.085 88.2738L612.023 85.2786L611.318 92.8021L618.53 90.5484L617.043 97.9569L624.452 96.4696L622.198 103.682L629.721 102.977L626.726 109.915L634.282 110L630.578 116.586L638.084 117.461L633.712 123.624L641.085 125.279L636.092 130.951L643.252 133.367L637.694 138.486L644.562 141.638L638.499 146.148L645 150L638.499 153.852L644.562 158.362L637.694 161.514L643.252 166.633L636.092 169.049L641.085 174.721L633.712 176.376L638.084 182.539L630.578 183.414L634.282 190L626.726 190.085L629.721 197.023L622.198 196.318L624.452 203.53L617.043 202.043L618.53 209.452L611.318 207.198L612.023 214.721L605.085 211.726L605 219.282L598.414 215.578L597.539 223.084L591.376 218.712L589.721 226.085L584.049 221.092L581.633 228.252L576.514 222.694L573.362 229.562L568.852 223.499L565 230L561.148 223.499L556.638 229.562L553.486 222.694L548.367 228.252L545.951 221.092L540.279 226.085L538.624 218.712L532.461 223.084L531.586 215.578L525 219.282L524.915 211.726L517.977 214.721L518.682 207.198L511.47 209.452L512.957 202.043L505.548 203.53L507.802 196.318L500.279 197.023L503.274 190.085L495.718 190L499.422 183.414L491.916 182.539L496.288 176.376L488.915 174.721L493.908 169.049L486.748 166.633L492.306 161.514L485.438 158.362L491.501 153.852L485 150L491.501 146.148L485.438 141.638L492.306 138.486L486.748 133.367L493.908 130.951L488.915 125.279L496.288 123.624L491.916 117.461L499.422 116.586L495.718 110L503.274 109.915L500.279 102.977L507.802 103.682L505.548 96.4696L512.957 97.9569L511.47 90.5484L518.682 92.8021L517.977 85.2786L524.915 88.2738L525 80.718L531.586 84.4219L532.461 76.9164L538.624 81.2885L540.279 73.9155L545.951 78.9079L548.367 71.7482L553.486 77.3061L556.638 70.4382L561.148 76.5009L565 70Z" fill="#FFF8DC"/>
<path d="M155 490L158.852 496.501L163.362 490.438L166.514 497.306L171.633 491.748L174.049 498.908L179.721 493.915L181.376 501.288L187.539 496.916L188.414 504.422L195 500.718L195.085 508.274L202.023 505.279L201.318 512.802L208.53 510.548L207.043 517.957L214.452 516.47L212.198 523.682L219.721 522.977L216.726 529.915L224.282 530L220.578 536.586L228.084 537.461L223.712 543.624L231.085 545.279L226.092 550.951L233.252 553.367L227.694 558.486L234.562 561.638L228.499 566.148L235 570L228.499 573.852L234.562 578.362L227.694 581.514L233.252 586.633L226.092 589.049L231.085 594.721L223.712 596.376L228.084 602.539L220.578 603.414L224.282 610L216.726 610.085L219.721 617.023L212.198 616.318L214.452 623.53L207.043 622.043L208.53 629.452L201.318 627.198L202.023 634.721L195.085 631.726L195 639.282L188.414 635.578L187.539 643.084L181.376 638.712L179.721 646.085L174.049 641.092L171.633 648.252L166.514 642.694L163.362 649.562L158.852 643.499L155 650L151.148 643.499L146.638 649.562L143.486 642.694L138.367 648.252L135.951 641.092L130.279 646.085L128.624 638.712L122.461 643.084L121.586 635.578L115 639.282L114.915 631.726L107.977 634.721L108.682 627.198L101.47 629.452L102.957 622.043L95.5484 623.53L97.8021 616.318L90.2786 617.023L93.2738 610.085L85.718 610L89.4219 603.414L81.9164 602.539L86.2885 596.376L78.9155 594.721L83.9079 589.049L76.7482 586.633L82.3061 581.514L75.4382 578.362L81.5009 573.852L75 570L81.5009 566.148L75.4382 561.638L82.3061 558.486L76.7482 553.367L83.9079 550.951L78.9155 545.279L86.2885 543.624L81.9164 537.461L89.4219 536.586L85.718 530L93.2738 529.915L90.2786 522.977L97.8021 523.682L95.5484 516.47L102.957 517.957L101.47 510.548L108.682 512.802L107.977 505.279L114.915 508.274L115 500.718L121.586 504.422L122.461 496.916L128.624 501.288L130.279 493.915L135.951 498.908L138.367 491.748L143.486 497.306L146.638 490.438L151.148 496.501L155 490Z" fill="#FFF8DC"/>
<path d="M355 280L358.852 286.501L363.362 280.438L366.514 287.306L371.633 281.748L374.049 288.908L379.721 283.915L381.376 291.288L387.539 286.916L388.414 294.422L395 290.718L395.085 298.274L402.023 295.279L401.318 302.802L408.53 300.548L407.043 307.957L414.452 306.47L412.198 313.682L419.721 312.977L416.726 319.915L424.282 320L420.578 326.586L428.084 327.461L423.712 333.624L431.085 335.279L426.092 340.951L433.252 343.367L427.694 348.486L434.562 351.638L428.499 356.148L435 360L428.499 363.852L434.562 368.362L427.694 371.514L433.252 376.633L426.092 379.049L431.085 384.721L423.712 386.376L428.084 392.539L420.578 393.414L424.282 400L416.726 400.085L419.721 407.023L412.198 406.318L414.452 413.53L407.043 412.043L408.53 419.452L401.318 417.198L402.023 424.721L395.085 421.726L395 429.282L388.414 425.578L387.539 433.084L381.376 428.712L379.721 436.085L374.049 431.092L371.633 438.252L366.514 432.694L363.362 439.562L358.852 433.499L355 440L351.148 433.499L346.638 439.562L343.486 432.694L338.367 438.252L335.951 431.092L330.279 436.085L328.624 428.712L322.461 433.084L321.586 425.578L315 429.282L314.915 421.726L307.977 424.721L308.682 417.198L301.47 419.452L302.957 412.043L295.548 413.53L297.802 406.318L290.279 407.023L293.274 400.085L285.718 400L289.422 393.414L281.916 392.539L286.288 386.376L278.915 384.721L283.908 379.049L276.748 376.633L282.306 371.514L275.438 368.362L281.501 363.852L275 360L281.501 356.148L275.438 351.638L282.306 348.486L276.748 343.367L283.908 340.951L278.915 335.279L286.288 333.624L281.916 327.461L289.422 326.586L285.718 320L293.274 319.915L290.279 312.977L297.802 313.682L295.548 306.47L302.957 307.957L301.47 300.548L308.682 302.802L307.977 295.279L314.915 298.274L315 290.718L321.586 294.422L322.461 286.916L328.624 291.288L330.279 283.915L335.951 288.908L338.367 281.748L343.486 287.306L346.638 280.438L351.148 286.501L355 280Z" fill="#FFF8DC"/>
<path d="M770 490L773.852 496.501L778.362 490.438L781.514 497.306L786.633 491.748L789.049 498.908L794.721 493.915L796.376 501.288L802.539 496.916L803.414 504.422L810 500.718L810.085 508.274L817.023 505.279L816.318 512.802L823.53 510.548L822.043 517.957L829.452 516.47L827.198 523.682L834.721 522.977L831.726 529.915L839.282 530L835.578 536.586L843.084 537.461L838.712 543.624L846.085 545.279L841.092 550.951L848.252 553.367L842.694 558.486L849.562 561.638L843.499 566.148L850 570L843.499 573.852L849.562 578.362L842.694 581.514L848.252 586.633L841.092 589.049L846.085 594.721L838.712 596.376L843.084 602.539L835.578 603.414L839.282 610L831.726 610.085L834.721 617.023L827.198 616.318L829.452 623.53L822.043 622.043L823.53 629.452L816.318 627.198L817.023 634.721L810.085 631.726L810 639.282L803.414 635.578L802.539 643.084L796.376 638.712L794.721 646.085L789.049 641.092L786.633 648.252L781.514 642.694L778.362 649.562L773.852 643.499L770 650L766.148 643.499L761.638 649.562L758.486 642.694L753.367 648.252L750.951 641.092L745.279 646.085L743.624 638.712L737.461 643.084L736.586 635.578L730 639.282L729.915 631.726L722.977 634.721L723.682 627.198L716.47 629.452L717.957 622.043L710.548 623.53L712.802 616.318L705.279 617.023L708.274 610.085L700.718 610L704.422 603.414L696.916 602.539L701.288 596.376L693.915 594.721L698.908 589.049L691.748 586.633L697.306 581.514L690.438 578.362L696.501 573.852L690 570L696.501 566.148L690.438 561.638L697.306 558.486L691.748 553.367L698.908 550.951L693.915 545.279L701.288 543.624L696.916 537.461L704.422 536.586L700.718 530L708.274 529.915L705.279 522.977L712.802 523.682L710.548 516.47L717.957 517.957L716.47 510.548L723.682 512.802L722.977 505.279L729.915 508.274L730 500.718L736.586 504.422L737.461 496.916L743.624 501.288L745.279 493.915L750.951 498.908L753.367 491.748L758.486 497.306L761.638 490.438L766.148 496.501L770 490Z" fill="#FFF8DC"/>
<path d="M565 495L568.37 500.891L572.317 495.397L575.074 501.621L579.554 496.584L581.668 503.073L586.631 498.548L588.079 505.23L593.472 501.268L594.237 508.07L600 504.713L600.075 511.561L606.145 508.846L605.528 515.664L611.839 513.622L610.538 520.336L617.02 518.988L615.048 525.524L621.631 524.886L619.01 531.173L625.622 531.25L622.381 537.219L628.948 538.012L625.123 543.597L631.574 545.096L627.206 550.237L633.47 552.426L628.607 557.066L634.617 559.922L629.312 564.009L635 567.5L629.312 570.991L634.617 575.078L628.607 577.934L633.47 582.574L627.206 584.763L631.574 589.904L625.123 591.403L628.948 596.988L622.381 597.781L625.622 603.75L619.01 603.827L621.631 610.114L615.048 609.476L617.02 616.012L610.538 614.664L611.839 621.378L605.528 619.336L606.145 626.154L600.075 623.439L600 630.287L594.237 626.93L593.472 633.732L588.079 629.77L586.631 636.452L581.668 631.927L579.554 638.416L575.074 633.379L572.317 639.603L568.37 634.109L565 640L561.63 634.109L557.683 639.603L554.926 633.379L550.446 638.416L548.332 631.927L543.369 636.452L541.921 629.77L536.528 633.732L535.763 626.93L530 630.287L529.925 623.439L523.855 626.154L524.472 619.336L518.161 621.378L519.462 614.664L512.98 616.012L514.952 609.476L508.369 610.114L510.99 603.827L504.378 603.75L507.619 597.781L501.052 596.988L504.877 591.403L498.426 589.904L502.794 584.763L496.53 582.574L501.393 577.934L495.383 575.078L500.688 570.991L495 567.5L500.688 564.009L495.383 559.922L501.393 557.066L496.53 552.426L502.794 550.237L498.426 545.096L504.877 543.597L501.052 538.012L507.619 537.219L504.378 531.25L510.99 531.173L508.369 524.886L514.952 525.524L512.98 518.988L519.462 520.336L518.161 513.622L524.472 515.664L523.855 508.846L529.925 511.561L530 504.713L535.763 508.07L536.528 501.268L541.921 505.23L543.369 498.548L548.332 503.073L550.446 496.584L554.926 501.621L557.683 495.397L561.63 500.891L565 495Z" fill="#D0C3A1"/>
<path d="M770 75L773.37 80.8914L777.317 75.3972L780.074 81.6212L784.554 76.5843L786.668 83.0728L791.631 78.5484L793.079 85.2302L798.472 81.268L799.237 88.0699L805 84.7132L805.075 91.5607L811.145 88.8463L810.528 95.6644L816.839 93.622L815.538 100.336L822.02 98.988L820.048 105.524L826.631 104.886L824.01 111.173L830.622 111.25L827.381 117.219L833.948 118.012L830.123 123.597L836.574 125.096L832.206 130.237L838.47 132.426L833.607 137.066L839.617 139.922L834.312 144.009L840 147.5L834.312 150.991L839.617 155.078L833.607 157.934L838.47 162.574L832.206 164.763L836.574 169.904L830.123 171.403L833.948 176.988L827.381 177.781L830.622 183.75L824.01 183.827L826.631 190.114L820.048 189.476L822.02 196.012L815.538 194.664L816.839 201.378L810.528 199.336L811.145 206.154L805.075 203.439L805 210.287L799.237 206.93L798.472 213.732L793.079 209.77L791.631 216.452L786.668 211.927L784.554 218.416L780.074 213.379L777.317 219.603L773.37 214.109L770 220L766.63 214.109L762.683 219.603L759.926 213.379L755.446 218.416L753.332 211.927L748.369 216.452L746.921 209.77L741.528 213.732L740.763 206.93L735 210.287L734.925 203.439L728.855 206.154L729.472 199.336L723.161 201.378L724.462 194.664L717.98 196.012L719.952 189.476L713.369 190.114L715.99 183.827L709.378 183.75L712.619 177.781L706.052 176.988L709.877 171.403L703.426 169.904L707.794 164.763L701.53 162.574L706.393 157.934L700.383 155.078L705.688 150.991L700 147.5L705.688 144.009L700.383 139.922L706.393 137.066L701.53 132.426L707.794 130.237L703.426 125.096L709.877 123.597L706.052 118.012L712.619 117.219L709.378 111.25L715.99 111.173L713.369 104.886L719.952 105.524L717.98 98.988L724.462 100.336L723.161 93.622L729.472 95.6644L728.855 88.8463L734.925 91.5607L735 84.7132L740.763 88.0699L741.528 81.268L746.921 85.2302L748.369 78.5484L753.332 83.0728L755.446 76.5843L759.926 81.6212L762.683 75.3972L766.63 80.8914L770 75Z" fill="#D0C3A1"/>
<path d="M565 80L568.37 85.6883L572.317 80.3835L575.074 86.3929L579.554 81.5297L581.668 87.7944L586.631 83.426L588.079 89.8774L593.472 86.0518L594.237 92.6192L600 89.3782L600.075 95.9896L606.145 93.3688L605.528 99.9518L611.839 97.9799L610.538 104.462L617.02 103.161L615.048 109.472L621.631 108.855L619.01 114.925L625.622 115L622.381 120.763L628.948 121.528L625.123 126.921L631.574 128.369L627.206 133.332L633.47 135.446L628.607 139.926L634.617 142.683L629.312 146.63L635 150L629.312 153.37L634.617 157.317L628.607 160.074L633.47 164.554L627.206 166.668L631.574 171.631L625.123 173.079L628.948 178.472L622.381 179.237L625.622 185L619.01 185.075L621.631 191.145L615.048 190.528L617.02 196.839L610.538 195.538L611.839 202.02L605.528 200.048L606.145 206.631L600.075 204.01L600 210.622L594.237 207.381L593.472 213.948L588.079 210.123L586.631 216.574L581.668 212.206L579.554 218.47L575.074 213.607L572.317 219.617L568.37 214.312L565 220L561.63 214.312L557.683 219.617L554.926 213.607L550.446 218.47L548.332 212.206L543.369 216.574L541.921 210.123L536.528 213.948L535.763 207.381L530 210.622L529.925 204.01L523.855 206.631L524.472 200.048L518.161 202.02L519.462 195.538L512.98 196.839L514.952 190.528L508.369 191.145L510.99 185.075L504.378 185L507.619 179.237L501.052 178.472L504.877 173.079L498.426 171.631L502.794 166.668L496.53 164.554L501.393 160.074L495.383 157.317L500.688 153.37L495 150L500.688 146.63L495.383 142.683L501.393 139.926L496.53 135.446L502.794 133.332L498.426 128.369L504.877 126.921L501.052 121.528L507.619 120.763L504.378 115L510.99 114.925L508.369 108.855L514.952 109.472L512.98 103.161L519.462 104.462L518.161 97.9799L524.472 99.9518L523.855 93.3688L529.925 95.9896L530 89.3782L535.763 92.6192L536.528 86.0518L541.921 89.8774L543.369 83.426L548.332 87.7944L550.446 81.5297L554.926 86.3929L557.683 80.3835L561.63 85.6883L565 80Z" fill="#D0C3A1"/>
<path d="M155 500L158.37 505.688L162.317 500.383L165.074 506.393L169.554 501.53L171.668 507.794L176.631 503.426L178.079 509.877L183.472 506.052L184.237 512.619L190 509.378L190.075 515.99L196.145 513.369L195.528 519.952L201.839 517.98L200.538 524.462L207.02 523.161L205.048 529.472L211.631 528.855L209.01 534.925L215.622 535L212.381 540.763L218.948 541.528L215.123 546.921L221.574 548.369L217.206 553.332L223.47 555.446L218.607 559.926L224.617 562.683L219.312 566.63L225 570L219.312 573.37L224.617 577.317L218.607 580.074L223.47 584.554L217.206 586.668L221.574 591.631L215.123 593.079L218.948 598.472L212.381 599.237L215.622 605L209.01 605.075L211.631 611.145L205.048 610.528L207.02 616.839L200.538 615.538L201.839 622.02L195.528 620.048L196.145 626.631L190.075 624.01L190 630.622L184.237 627.381L183.472 633.948L178.079 630.123L176.631 636.574L171.668 632.206L169.554 638.47L165.074 633.607L162.317 639.617L158.37 634.312L155 640L151.63 634.312L147.683 639.617L144.926 633.607L140.446 638.47L138.332 632.206L133.369 636.574L131.921 630.123L126.528 633.948L125.763 627.381L120 630.622L119.925 624.01L113.855 626.631L114.472 620.048L108.161 622.02L109.462 615.538L102.98 616.839L104.952 610.528L98.3688 611.145L100.99 605.075L94.3782 605L97.6192 599.237L91.0518 598.472L94.8774 593.079L88.426 591.631L92.7944 586.668L86.5297 584.554L91.3929 580.074L85.3835 577.317L90.6883 573.37L85 570L90.6883 566.63L85.3835 562.683L91.3929 559.926L86.5297 555.446L92.7944 553.332L88.426 548.369L94.8774 546.921L91.0518 541.528L97.6192 540.763L94.3782 535L100.99 534.925L98.3688 528.855L104.952 529.472L102.98 523.161L109.462 524.462L108.161 517.98L114.472 519.952L113.855 513.369L119.925 515.99L120 509.378L125.763 512.619L126.528 506.052L131.921 509.877L133.369 503.426L138.332 507.794L140.446 501.53L144.926 506.393L147.683 500.383L151.63 505.688L155 500Z" fill="#D0C3A1"/>
<path d="M355 290L358.37 295.688L362.317 290.383L365.074 296.393L369.554 291.53L371.668 297.794L376.631 293.426L378.079 299.877L383.472 296.052L384.237 302.619L390 299.378L390.075 305.99L396.145 303.369L395.528 309.952L401.839 307.98L400.538 314.462L407.02 313.161L405.048 319.472L411.631 318.855L409.01 324.925L415.622 325L412.381 330.763L418.948 331.528L415.123 336.921L421.574 338.369L417.206 343.332L423.47 345.446L418.607 349.926L424.617 352.683L419.312 356.63L425 360L419.312 363.37L424.617 367.317L418.607 370.074L423.47 374.554L417.206 376.668L421.574 381.631L415.123 383.079L418.948 388.472L412.381 389.237L415.622 395L409.01 395.075L411.631 401.145L405.048 400.528L407.02 406.839L400.538 405.538L401.839 412.02L395.528 410.048L396.145 416.631L390.075 414.01L390 420.622L384.237 417.381L383.472 423.948L378.079 420.123L376.631 426.574L371.668 422.206L369.554 428.47L365.074 423.607L362.317 429.617L358.37 424.312L355 430L351.63 424.312L347.683 429.617L344.926 423.607L340.446 428.47L338.332 422.206L333.369 426.574L331.921 420.123L326.528 423.948L325.763 417.381L320 420.622L319.925 414.01L313.855 416.631L314.472 410.048L308.161 412.02L309.462 405.538L302.98 406.839L304.952 400.528L298.369 401.145L300.99 395.075L294.378 395L297.619 389.237L291.052 388.472L294.877 383.079L288.426 381.631L292.794 376.668L286.53 374.554L291.393 370.074L285.383 367.317L290.688 363.37L285 360L290.688 356.63L285.383 352.683L291.393 349.926L286.53 345.446L292.794 343.332L288.426 338.369L294.877 336.921L291.052 331.528L297.619 330.763L294.378 325L300.99 324.925L298.369 318.855L304.952 319.472L302.98 313.161L309.462 314.462L308.161 307.98L314.472 309.952L313.855 303.369L319.925 305.99L320 299.378L325.763 302.619L326.528 296.052L331.921 299.877L333.369 293.426L338.332 297.794L340.446 291.53L344.926 296.393L347.683 290.383L351.63 295.688L355 290Z" fill="#D0C3A1"/>
<path d="M770 500L773.37 505.688L777.317 500.383L780.074 506.393L784.554 501.53L786.668 507.794L791.631 503.426L793.079 509.877L798.472 506.052L799.237 512.619L805 509.378L805.075 515.99L811.145 513.369L810.528 519.952L816.839 517.98L815.538 524.462L822.02 523.161L820.048 529.472L826.631 528.855L824.01 534.925L830.622 535L827.381 540.763L833.948 541.528L830.123 546.921L836.574 548.369L832.206 553.332L838.47 555.446L833.607 559.926L839.617 562.683L834.312 566.63L840 570L834.312 573.37L839.617 577.317L833.607 580.074L838.47 584.554L832.206 586.668L836.574 591.631L830.123 593.079L833.948 598.472L827.381 599.237L830.622 605L824.01 605.075L826.631 611.145L820.048 610.528L822.02 616.839L815.538 615.538L816.839 622.02L810.528 620.048L811.145 626.631L805.075 624.01L805 630.622L799.237 627.381L798.472 633.948L793.079 630.123L791.631 636.574L786.668 632.206L784.554 638.47L780.074 633.607L777.317 639.617L773.37 634.312L770 640L766.63 634.312L762.683 639.617L759.926 633.607L755.446 638.47L753.332 632.206L748.369 636.574L746.921 630.123L741.528 633.948L740.763 627.381L735 630.622L734.925 624.01L728.855 626.631L729.472 620.048L723.161 622.02L724.462 615.538L717.98 616.839L719.952 610.528L713.369 611.145L715.99 605.075L709.378 605L712.619 599.237L706.052 598.472L709.877 593.079L703.426 591.631L707.794 586.668L701.53 584.554L706.393 580.074L700.383 577.317L705.688 573.37L700 570L705.688 566.63L700.383 562.683L706.393 559.926L701.53 555.446L707.794 553.332L703.426 548.369L709.877 546.921L706.052 541.528L712.619 540.763L709.378 535L715.99 534.925L713.369 528.855L719.952 529.472L717.98 523.161L724.462 524.462L723.161 517.98L729.472 519.952L728.855 513.369L734.925 515.99L735 509.378L740.763 512.619L741.528 506.052L746.921 509.877L748.369 503.426L753.332 507.794L755.446 501.53L759.926 506.393L762.683 500.383L766.63 505.688L770 500Z" fill="#D0C3A1"/>
<g filter="url(#filter0_f_1_3)">
<path d="M725.145 140C724.262 133.333 726.998 119 745 115" stroke="#F9E0CF" stroke-width="5" stroke-linecap="round"/>
</g>
<path d="M155 275L158.852 281.704L163.362 275.452L166.514 282.534L171.633 276.803L174.049 284.186L179.721 279.038L181.376 286.641L187.539 282.132L188.414 289.873L195 286.053L195.085 293.845L202.023 290.756L201.318 298.515L208.53 296.191L207.043 303.831L214.452 302.297L212.198 309.735L219.721 309.008L216.726 316.162L224.282 316.25L220.578 323.042L228.084 323.944L223.712 330.3L231.085 332.006L226.092 337.856L233.252 340.347L227.694 345.627L234.562 348.876L228.499 353.528L235 357.5L228.499 361.472L234.562 366.124L227.694 369.373L233.252 374.653L226.092 377.144L231.085 382.994L223.712 384.7L228.084 391.056L220.578 391.958L224.282 398.75L216.726 398.838L219.721 405.992L212.198 405.265L214.452 412.703L207.043 411.169L208.53 418.809L201.318 416.485L202.023 424.244L195.085 421.155L195 428.947L188.414 425.127L187.539 432.867L181.376 428.359L179.721 435.962L174.049 430.814L171.633 438.197L166.514 432.466L163.362 439.548L158.852 433.296L155 440L151.148 433.296L146.638 439.548L143.486 432.466L138.367 438.197L135.951 430.814L130.279 435.962L128.624 428.359L122.461 432.867L121.586 425.127L115 428.947L114.915 421.155L107.977 424.244L108.682 416.485L101.47 418.809L102.957 411.169L95.5484 412.703L97.8021 405.265L90.2786 405.992L93.2738 398.838L85.718 398.75L89.4219 391.958L81.9164 391.056L86.2885 384.7L78.9155 382.994L83.9079 377.144L76.7482 374.653L82.3061 369.373L75.4382 366.124L81.5009 361.472L75 357.5L81.5009 353.528L75.4382 348.876L82.3061 345.627L76.7482 340.347L83.9079 337.856L78.9155 332.006L86.2885 330.3L81.9164 323.944L89.4219 323.042L85.718 316.25L93.2738 316.162L90.2786 309.008L97.8021 309.735L95.5484 302.297L102.957 303.831L101.47 296.191L108.682 298.515L107.977 290.756L114.915 293.845L115 286.053L121.586 289.873L122.461 282.132L128.624 286.641L130.279 279.038L135.951 284.186L138.367 276.803L143.486 282.534L146.638 275.452L151.148 281.704L155 275Z" fill="#FFF8DC"/>
<path d="M155 285L158.37 290.891L162.317 285.397L165.074 291.621L169.554 286.584L171.668 293.073L176.631 288.548L178.079 295.23L183.472 291.268L184.237 298.07L190 294.713L190.075 301.561L196.145 298.846L195.528 305.664L201.839 303.622L200.538 310.336L207.02 308.988L205.048 315.524L211.631 314.886L209.01 321.173L215.622 321.25L212.381 327.219L218.948 328.012L215.123 333.597L221.574 335.096L217.206 340.237L223.47 342.426L218.607 347.066L224.617 349.922L219.312 354.009L225 357.5L219.312 360.991L224.617 365.078L218.607 367.934L223.47 372.574L217.206 374.763L221.574 379.904L215.123 381.403L218.948 386.988L212.381 387.781L215.622 393.75L209.01 393.827L211.631 400.114L205.048 399.476L207.02 406.012L200.538 404.664L201.839 411.378L195.528 409.336L196.145 416.154L190.075 413.439L190 420.287L184.237 416.93L183.472 423.732L178.079 419.77L176.631 426.452L171.668 421.927L169.554 428.416L165.074 423.379L162.317 429.603L158.37 424.109L155 430L151.63 424.109L147.683 429.603L144.926 423.379L140.446 428.416L138.332 421.927L133.369 426.452L131.921 419.77L126.528 423.732L125.763 416.93L120 420.287L119.925 413.439L113.855 416.154L114.472 409.336L108.161 411.378L109.462 404.664L102.98 406.012L104.952 399.476L98.3688 400.114L100.99 393.827L94.3782 393.75L97.6192 387.781L91.0518 386.988L94.8774 381.403L88.426 379.904L92.7944 374.763L86.5297 372.574L91.3929 367.934L85.3835 365.078L90.6883 360.991L85 357.5L90.6883 354.009L85.3835 349.922L91.3929 347.066L86.5297 342.426L92.7944 340.237L88.426 335.096L94.8774 333.597L91.0518 328.012L97.6192 327.219L94.3782 321.25L100.99 321.173L98.3688 314.886L104.952 315.524L102.98 308.988L109.462 310.336L108.161 303.622L114.472 305.664L113.855 298.846L119.925 301.561L120 294.713L125.763 298.07L126.528 291.268L131.921 295.23L133.369 288.548L138.332 293.073L140.446 286.584L144.926 291.621L147.683 285.397L151.63 290.891L155 285Z" fill="#D0C3A1"/>
<g filter="url(#filter1_f_1_3)">
<path d="M310.274 365C308.607 351.667 313.774 323 347.774 315" stroke="#F9E0CF" stroke-width="5" stroke-linecap="round"/>
</g>
<path d="M771.2 270L764 279.474L759.2 270L752 279.474L744.8 270L740 279.474L732.8 272.368L730.4 281.842L720.8 274.737V284.211L711.2 279.474V288.947L704 284.211V296.053L696.8 291.316L699.2 303.158L692 300.789L694.4 312.632L687.2 310.263L692 322.105H682.4L689.6 333.947H680L689.6 343.421L680 348.158L689.6 355.263L680 360L689.6 367.105L680 376.579L689.6 378.947L682.4 388.421L689.6 390.789L684.8 397.895L692 400.263L687.2 409.737H696.8L692 419.211H701.6L696.8 428.684L706.4 426.316L704 433.421L713.6 431.053V440.526L720.8 435.789L723.2 445.263L730.4 440.526L732.8 450L742.4 442.895L744.8 450L754.4 442.895L759.2 450L766.4 442.895L771.2 450L778.4 442.895L783.2 450L788 440.526L795.2 447.632L800 438.158L807.2 447.632L809.6 435.789L819.2 442.895V433.421L828.8 438.158V431.053L836 433.421V423.947L843.2 426.316L840.8 416.842H850.4L845.6 407.368H852.8L848 397.895H857.6L850.4 388.421L860 386.053L852.8 378.947L860 374.211L852.8 367.105L860 360L852.8 355.263L860 348.158L852.8 343.421L860 336.316L850.4 331.579L857.6 324.474L848 322.105L855.2 315L845.6 312.632L850.4 303.158L840.8 305.526L845.6 296.053L836 298.421L838.4 288.947L828.8 293.684V281.842L819.2 286.579V277.105L809.6 281.842V272.368L800 279.474L797.6 270L788 279.474L783.2 270L776 279.474L771.2 270Z" fill="#FFF8DC"/>
<path d="M771.067 280L764.667 288.421L760.4 280L754 288.421L747.6 280L743.333 288.421L736.933 282.105L734.8 290.526L726.267 284.211V292.632L717.733 288.421V296.842L711.333 292.632L710 302.5L705 300L707.067 309.474L700.667 307.368L702.8 317.895L696.4 315.789L700.667 326.316H692.133L698.533 336.842H690L698.533 345.263L690 349.474L698.533 355.789L690 360L698.533 366.316L690 374.737L698.533 376.842L692.133 385.263L698.533 387.368L694.267 393.684L700.667 395.789L696.4 404.211H704.933L700.667 412.632H709.2L702.5 422.5L712.5 420L710 427.5L719.867 423.158V431.579L726.267 427.368L728.4 435.789L734.8 431.579L736.933 440L745.467 433.684L747.6 440L756.133 433.684L760.4 440L766.8 433.684L771.067 440L777.467 433.684L781.733 440L786 431.579L792.4 437.895L796.667 429.474L803.067 437.895L805.2 427.368L813.733 433.684V425.263L822.267 429.474V423.158L830 427.5V418.947L837.5 422.5L835 412.5L841.467 410.526L837.2 402.105H843.6L839.333 393.684H847.867L841.467 385.263L850 383.158L843.6 376.842L850 372.632L843.6 366.316L850 360L843.6 355.789L850 349.474L843.6 345.263L850 338.947L841.467 334.737L847.867 328.421L839.333 326.316L845.733 320L837.2 317.895L841.467 309.474L832.933 311.579L837.2 303.158H830.8L832.5 295L825 297.5L823.661 288.421L813.733 294.737V286.316L805.2 290.526V282.105L796.667 288.421L794.533 280L786 288.421L781.733 280L775.333 288.421L771.067 280Z" fill="#C4B798"/>
<path d="M361.2 480L354 489.474L349.2 480L342 489.474L334.8 480L330 489.474L322.8 482.368L320.4 491.842L310.8 484.737V494.211L301.2 489.474V498.947L294 494.211V506.053L286.8 501.316L289.2 513.158L282 510.789L284.4 522.632L277.2 520.263L282 532.105H272.4L279.6 543.947H270L279.6 553.421L270 558.158L279.6 565.263L270 570L279.6 577.105L270 586.579L279.6 588.947L272.4 598.421L279.6 600.789L274.8 607.895L282 610.263L277.2 619.737H286.8L282 629.211H291.6L286.8 638.684L296.4 636.316L294 643.421L303.6 641.053V650.526L310.8 645.789L313.2 655.263L320.4 650.526L322.8 660L332.4 652.895L334.8 660L344.4 652.895L349.2 660L356.4 652.895L361.2 660L368.4 652.895L373.2 660L378 650.526L385.2 657.632L390 648.158L397.2 657.632L399.6 645.789L409.2 652.895V643.421L418.8 648.158V641.053L426 643.421V633.947L433.2 636.316L430.8 626.842H440.4L435.6 617.368H442.8L438 607.895H447.6L440.4 598.421L450 596.053L442.8 588.947L450 584.211L442.8 577.105L450 570L442.8 565.263L450 558.158L442.8 553.421L450 546.316L440.4 541.579L447.6 534.474L438 532.105L445.2 525L435.6 522.632L440.4 513.158L430.8 515.526L435.6 506.053L426 508.421L428.4 498.947L418.8 503.684V491.842L409.2 496.579V487.105L399.6 491.842V482.368L390 489.474L387.6 480L378 489.474L373.2 480L366 489.474L361.2 480Z" fill="#FFF8DC"/>
<path d="M566.2 270L559 279.474L554.2 270L547 279.474L539.8 270L535 279.474L527.8 272.368L525.4 281.842L515.8 274.737V284.211L506.2 279.474V288.947L499 284.211V296.053L491.8 291.316L494.2 303.158L487 300.789L489.4 312.632L482.2 310.263L487 322.105H477.4L484.6 333.947H475L484.6 343.421L475 348.158L484.6 355.263L475 360L484.6 367.105L475 376.579L484.6 378.947L477.4 388.421L484.6 390.789L479.8 397.895L487 400.263L482.2 409.737H491.8L487 419.211H496.6L491.8 428.684L501.4 426.316L499 433.421L508.6 431.053V440.526L515.8 435.789L518.2 445.263L525.4 440.526L527.8 450L537.4 442.895L539.8 450L549.4 442.895L554.2 450L561.4 442.895L566.2 450L573.4 442.895L578.2 450L583 440.526L590.2 447.632L595 438.158L602.2 447.632L604.6 435.789L614.2 442.895V433.421L623.8 438.158V431.053L631 433.421V423.947L638.2 426.316L635.8 416.842H645.4L640.6 407.368H647.8L643 397.895H652.6L645.4 388.421L655 386.053L647.8 378.947L655 374.211L647.8 367.105L655 360L647.8 355.263L655 348.158L647.8 343.421L655 336.316L645.4 331.579L652.6 324.474L643 322.105L650.2 315L640.6 312.632L645.4 303.158L635.8 305.526L640.6 296.053L631 298.421L633.4 288.947L623.8 293.684V281.842L614.2 286.579V277.105L604.6 281.842V272.368L595 279.474L592.6 270L583 279.474L578.2 270L571 279.474L566.2 270Z" fill="#FFF8DC"/>
<path d="M361.067 490L354.667 498.421L350.4 490L344 498.421L337.6 490L333.333 498.421L326.933 492.105L324.8 500.526L316.267 494.211V502.632L307.733 498.421V506.842L301.333 502.632L300 512.5L295 510L297.067 519.474L290.667 517.368L292.8 527.895L286.4 525.789L290.667 536.316H282.133L288.533 546.842H280L288.533 555.263L280 559.474L288.533 565.789L280 570L288.533 576.316L280 584.737L288.533 586.842L282.133 595.263L288.533 597.368L284.267 603.684L290.667 605.789L286.4 614.211H294.933L290.667 622.632H299.2L292.5 632.5L302.5 630L300 637.5L309.867 633.158V641.579L316.267 637.368L318.4 645.789L324.8 641.579L326.933 650L335.467 643.684L337.6 650L346.133 643.684L350.4 650L356.8 643.684L361.067 650L367.467 643.684L371.733 650L376 641.579L382.4 647.895L386.667 639.474L393.067 647.895L395.2 637.368L403.733 643.684V635.263L412.267 639.474V633.158L420 637.5V628.947L427.5 632.5L425 622.5L431.467 620.526L427.2 612.105H433.6L429.333 603.684H437.867L431.467 595.263L440 593.158L433.6 586.842L440 582.632L433.6 576.316L440 570L433.6 565.789L440 559.474L433.6 555.263L440 548.947L431.467 544.737L437.867 538.421L429.333 536.316L435.733 530L427.2 527.895L431.467 519.474L422.933 521.579L427.2 513.158H420.8L422.5 505L415 507.5L413.661 498.421L403.733 504.737V496.316L395.2 500.526V492.105L386.667 498.421L384.533 490L376 498.421L371.733 490L365.333 498.421L361.067 490Z" fill="#C4B798"/>
<path d="M566.067 280L559.667 288.421L555.4 280L549 288.421L542.6 280L538.333 288.421L531.933 282.105L529.8 290.526L521.267 284.211V292.632L512.733 288.421V296.842L506.333 292.632L505 302.5L500 300L502.067 309.474L495.667 307.368L497.8 317.895L491.4 315.789L495.667 326.316H487.133L493.533 336.842H485L493.533 345.263L485 349.474L493.533 355.789L485 360L493.533 366.316L485 374.737L493.533 376.842L487.133 385.263L493.533 387.368L489.267 393.684L495.667 395.789L491.4 404.211H499.933L495.667 412.632H504.2L497.5 422.5L507.5 420L505 427.5L514.867 423.158V431.579L521.267 427.368L523.4 435.789L529.8 431.579L531.933 440L540.467 433.684L542.6 440L551.133 433.684L555.4 440L561.8 433.684L566.067 440L572.467 433.684L576.733 440L581 431.579L587.4 437.895L591.667 429.474L598.067 437.895L600.2 427.368L608.733 433.684V425.263L617.267 429.474V423.158L625 427.5V418.947L632.5 422.5L630 412.5L636.467 410.526L632.2 402.105H638.6L634.333 393.684H642.867L636.467 385.263L645 383.158L638.6 376.842L645 372.632L638.6 366.316L645 360L638.6 355.789L645 349.474L638.6 345.263L645 338.947L636.467 334.737L642.867 328.421L634.333 326.316L640.733 320L632.2 317.895L636.467 309.474L627.933 311.579L632.2 303.158H625.8L627.5 295L620 297.5L618.661 288.421L608.733 294.737V286.316L600.2 290.526V282.105L591.667 288.421L589.533 280L581 288.421L576.733 280L570.333 288.421L566.067 280Z" fill="#C4B798"/>
<path d="M361.2 57L354 66.4737L349.2 57L342 66.4737L334.8 57L330 66.4737L322.8 59.3684L320.4 68.8421L310.8 61.7368V71.2105L301.2 66.4737V75.9474L294 71.2105V83.0526L286.8 78.3158L289.2 90.1579L282 87.7895L284.4 99.6316L277.2 97.2632L282 109.105H272.4L279.6 120.947H270L279.6 130.421L270 135.158L279.6 142.263L270 147L279.6 154.105L270 163.579L279.6 165.947L272.4 175.421L279.6 177.789L274.8 184.895L282 187.263L277.2 196.737H286.8L282 206.211H291.6L286.8 215.684L296.4 213.316L294 220.421L303.6 218.053V227.526L310.8 222.789L313.2 232.263L320.4 227.526L322.8 237L332.4 229.895L334.8 237L344.4 229.895L349.2 237L356.4 229.895L361.2 237L368.4 229.895L373.2 237L378 227.526L385.2 234.632L390 225.158L397.2 234.632L399.6 222.789L409.2 229.895V220.421L418.8 225.158V218.053L426 220.421V210.947L433.2 213.316L430.8 203.842H440.4L435.6 194.368H442.8L438 184.895H447.6L440.4 175.421L450 173.053L442.8 165.947L450 161.211L442.8 154.105L450 147L442.8 142.263L450 135.158L442.8 130.421L450 123.316L440.4 118.579L447.6 111.474L438 109.105L445.2 102L435.6 99.6316L440.4 90.1579L430.8 92.5263L435.6 83.0526L426 85.4211L428.4 75.9474L418.8 80.6842V68.8421L409.2 73.5789V64.1053L399.6 68.8421V59.3684L390 66.4737L387.6 57L378 66.4737L373.2 57L366 66.4737L361.2 57Z" fill="#FFF8DC"/>
<path d="M361.067 67L354.667 75.4211L350.4 67L344 75.4211L337.6 67L333.333 75.4211L326.933 69.1053L324.8 77.5263L316.267 71.2105V79.6316L307.733 75.4211V83.8421L301.333 79.6316L300 89.5L295 87L297.067 96.4737L290.667 94.3684L292.8 104.895L286.4 102.789L290.667 113.316H282.133L288.533 123.842H280L288.533 132.263L280 136.474L288.533 142.789L280 147L288.533 153.316L280 161.737L288.533 163.842L282.133 172.263L288.533 174.368L284.267 180.684L290.667 182.789L286.4 191.211H294.933L290.667 199.632H299.2L292.5 209.5L302.5 207L300 214.5L309.867 210.158V218.579L316.267 214.368L318.4 222.789L324.8 218.579L326.933 227L335.467 220.684L337.6 227L346.133 220.684L350.4 227L356.8 220.684L361.067 227L367.467 220.684L371.733 227L376 218.579L382.4 224.895L386.667 216.474L393.067 224.895L395.2 214.368L403.733 220.684V212.263L412.267 216.474V210.158L420 214.5V205.947L427.5 209.5L425 199.5L431.467 197.526L427.2 189.105H433.6L429.333 180.684H437.867L431.467 172.263L440 170.158L433.6 163.842L440 159.632L433.6 153.316L440 147L433.6 142.789L440 136.474L433.6 132.263L440 125.947L431.467 121.737L437.867 115.421L429.333 113.316L435.733 107L427.2 104.895L431.467 96.4737L422.933 98.5789L427.2 90.1579H420.8L422.5 82L415 84.5L413.661 75.4211L403.733 81.7368V73.3158L395.2 77.5263V69.1053L386.667 75.4211L384.533 67L376 75.4211L371.733 67L365.333 75.4211L361.067 67Z" fill="#C4B798"/>
<path d="M156.2 60L149 69.4737L144.2 60L137 69.4737L129.8 60L125 69.4737L117.8 62.3684L115.4 71.8421L105.8 64.7368V74.2105L96.2 69.4737V78.9474L89 74.2105V86.0526L81.8 81.3158L84.2 93.1579L77 90.7895L79.4 102.632L72.2 100.263L77 112.105H67.4L74.6 123.947H65L74.6 133.421L65 138.158L74.6 145.263L65 150L74.6 157.105L65 166.579L74.6 168.947L67.4 178.421L74.6 180.789L69.8 187.895L77 190.263L72.2 199.737H81.8L77 209.211H86.6L81.8 218.684L91.4 216.316L89 223.421L98.6 221.053V230.526L105.8 225.789L108.2 235.263L115.4 230.526L117.8 240L127.4 232.895L129.8 240L139.4 232.895L144.2 240L151.4 232.895L156.2 240L163.4 232.895L168.2 240L173 230.526L180.2 237.632L185 228.158L192.2 237.632L194.6 225.789L204.2 232.895V223.421L213.8 228.158V221.053L221 223.421V213.947L228.2 216.316L225.8 206.842H235.4L230.6 197.368H237.8L233 187.895H242.6L235.4 178.421L245 176.053L237.8 168.947L245 164.211L237.8 157.105L245 150L237.8 145.263L245 138.158L237.8 133.421L245 126.316L235.4 121.579L242.6 114.474L233 112.105L240.2 105L230.6 102.632L235.4 93.1579L225.8 95.5263L230.6 86.0526L221 88.4211L223.4 78.9474L213.8 83.6842V71.8421L204.2 76.5789V67.1053L194.6 71.8421V62.3684L185 69.4737L182.6 60L173 69.4737L168.2 60L161 69.4737L156.2 60Z" fill="#FFF8DC"/>
<path d="M156.067 70L149.667 78.4211L145.4 70L139 78.4211L132.6 70L128.333 78.4211L121.933 72.1053L119.8 80.5263L111.267 74.2105V82.6316L102.733 78.4211V86.8421L96.3333 82.6316L95 92.5L90 90L92.0667 99.4737L85.6667 97.3684L87.8 107.895L81.4 105.789L85.6667 116.316H77.1333L83.5333 126.842H75L83.5333 135.263L75 139.474L83.5333 145.789L75 150L83.5333 156.316L75 164.737L83.5333 166.842L77.1333 175.263L83.5333 177.368L79.2667 183.684L85.6667 185.789L81.4 194.211H89.9333L85.6667 202.632H94.2L87.5 212.5L97.5 210L95 217.5L104.867 213.158V221.579L111.267 217.368L113.4 225.789L119.8 221.579L121.933 230L130.467 223.684L132.6 230L141.133 223.684L145.4 230L151.8 223.684L156.067 230L162.467 223.684L166.733 230L171 221.579L177.4 227.895L181.667 219.474L188.067 227.895L190.2 217.368L198.733 223.684V215.263L207.267 219.474V213.158L215 217.5V208.947L222.5 212.5L220 202.5L226.467 200.526L222.2 192.105H228.6L224.333 183.684H232.867L226.467 175.263L235 173.158L228.6 166.842L235 162.632L228.6 156.316L235 150L228.6 145.789L235 139.474L228.6 135.263L235 128.947L226.467 124.737L232.867 118.421L224.333 116.316L230.733 110L222.2 107.895L226.467 99.4737L217.933 101.579L222.2 93.1579H215.8L217.5 85L210 87.5L208.661 78.4211L198.733 84.7368V76.3158L190.2 80.5263V72.1053L181.667 78.4211L179.533 70L171 78.4211L166.733 70L160.333 78.4211L156.067 70Z" fill="#C4B798"/>
<path d="M752.924 27.18C752.338 27.18 751.804 26.9867 751.324 26.6C750.858 26.2 750.484 25.6333 750.204 24.9C749.924 24.1667 749.784 23.2933 749.784 22.28C749.784 21.1467 749.951 20.16 750.284 19.32C750.631 18.48 751.098 17.8333 751.684 17.38C752.271 16.9133 752.924 16.68 753.644 16.68C754.258 16.68 754.738 16.8 755.084 17.04C755.218 17.1333 755.284 17.28 755.284 17.48L755.324 19.92C755.324 20.12 755.244 20.22 755.084 20.22C754.938 20.22 754.844 20.1333 754.804 19.96C754.618 19.2267 754.438 18.66 754.264 18.26C754.091 17.86 753.911 17.5867 753.724 17.44C753.538 17.28 753.331 17.2 753.104 17.2C752.838 17.2 752.558 17.3533 752.264 17.66C751.984 17.9667 751.744 18.4667 751.544 19.16C751.358 19.84 751.264 20.74 751.264 21.86C751.264 23.2867 751.444 24.36 751.804 25.08C752.178 25.8 752.658 26.16 753.244 26.16C753.711 26.16 754.098 25.9667 754.404 25.58C754.724 25.1933 754.998 24.4933 755.224 23.48C755.264 23.3333 755.344 23.26 755.464 23.26C755.624 23.26 755.684 23.3933 755.644 23.66C755.498 24.5933 755.291 25.32 755.024 25.84C754.771 26.3467 754.464 26.7 754.104 26.9C753.758 27.0867 753.364 27.18 752.924 27.18ZM756.502 27C756.342 27 756.262 26.9267 756.262 26.78C756.262 26.6467 756.335 26.5667 756.482 26.54L756.762 26.5C757.042 26.46 757.248 26.38 757.382 26.26C757.515 26.14 757.582 25.94 757.582 25.66V14.2C757.582 13.96 757.542 13.7933 757.462 13.7C757.395 13.6067 757.268 13.5533 757.082 13.54L756.622 13.48C756.475 13.4533 756.402 13.3733 756.402 13.24C756.402 13.1067 756.475 13.0267 756.622 13C756.995 12.92 757.315 12.8267 757.582 12.72C757.848 12.6133 758.068 12.5067 758.242 12.4C758.455 12.2667 758.615 12.2 758.722 12.2C758.868 12.2 758.942 12.3067 758.942 12.52V25.66C758.942 25.94 758.982 26.14 759.062 26.26C759.155 26.3667 759.342 26.44 759.622 26.48L760.082 26.54C760.228 26.5667 760.302 26.6467 760.302 26.78C760.302 26.9267 760.222 27 760.062 27H756.502ZM762.776 14.9C762.496 14.9 762.256 14.8 762.056 14.6C761.869 14.4 761.776 14.1467 761.776 13.84C761.776 13.5333 761.869 13.2867 762.056 13.1C762.256 12.9 762.496 12.8 762.776 12.8C763.056 12.8 763.289 12.9 763.476 13.1C763.663 13.2867 763.756 13.5333 763.756 13.84C763.756 14.1467 763.663 14.4 763.476 14.6C763.289 14.8 763.056 14.9 762.776 14.9ZM761.096 27C760.896 27 760.796 26.9267 760.796 26.78C760.796 26.66 760.883 26.58 761.056 26.54L761.296 26.5C761.629 26.4467 761.843 26.3667 761.936 26.26C762.029 26.14 762.076 25.94 762.076 25.66V18.94C762.076 18.7 762.036 18.54 761.956 18.46C761.889 18.3667 761.763 18.3067 761.576 18.28L761.156 18.22C760.983 18.2067 760.896 18.1333 760.896 18C760.896 17.8933 761.003 17.82 761.216 17.78C761.629 17.7133 761.963 17.6067 762.216 17.46C762.469 17.3133 762.716 17.1333 762.956 16.92C763.076 16.8 763.176 16.74 763.256 16.74C763.376 16.74 763.436 16.82 763.436 16.98V25.66C763.436 25.94 763.476 26.14 763.556 26.26C763.636 26.38 763.789 26.4533 764.016 26.48L764.516 26.54C764.663 26.5667 764.736 26.64 764.736 26.76C764.736 26.92 764.636 27 764.436 27H761.096ZM768.549 27.18C767.963 27.18 767.429 26.9867 766.949 26.6C766.483 26.2 766.109 25.6333 765.829 24.9C765.549 24.1667 765.409 23.2933 765.409 22.28C765.409 21.1467 765.576 20.16 765.909 19.32C766.256 18.48 766.723 17.8333 767.309 17.38C767.896 16.9133 768.549 16.68 769.269 16.68C769.883 16.68 770.363 16.8 770.709 17.04C770.843 17.1333 770.909 17.28 770.909 17.48L770.949 19.92C770.949 20.12 770.869 20.22 770.709 20.22C770.563 20.22 770.469 20.1333 770.429 19.96C770.243 19.2267 770.063 18.66 769.889 18.26C769.716 17.86 769.536 17.5867 769.349 17.44C769.163 17.28 768.956 17.2 768.729 17.2C768.463 17.2 768.183 17.3533 767.889 17.66C767.609 17.9667 767.369 18.4667 767.169 19.16C766.983 19.84 766.889 20.74 766.889 21.86C766.889 23.2867 767.069 24.36 767.429 25.08C767.803 25.8 768.283 26.16 768.869 26.16C769.336 26.16 769.723 25.9667 770.029 25.58C770.349 25.1933 770.623 24.4933 770.849 23.48C770.889 23.3333 770.969 23.26 771.089 23.26C771.249 23.26 771.309 23.3933 771.269 23.66C771.123 24.5933 770.916 25.32 770.649 25.84C770.396 26.3467 770.089 26.7 769.729 26.9C769.383 27.0867 768.989 27.18 768.549 27.18ZM772.267 27C772.107 27 772.027 26.9267 772.027 26.78C772.027 26.6467 772.1 26.5667 772.247 26.54L772.527 26.5C772.807 26.46 772.987 26.38 773.067 26.26C773.16 26.14 773.207 25.94 773.207 25.66V14.2C773.207 13.96 773.167 13.8 773.087 13.72C773.02 13.6267 772.893 13.5667 772.707 13.54L772.287 13.48C772.14 13.4533 772.067 13.3733 772.067 13.24C772.067 13.1067 772.14 13.0267 772.287 13C772.66 12.92 772.973 12.8267 773.227 12.72C773.48 12.6133 773.693 12.5067 773.867 12.4C774.08 12.2667 774.24 12.2 774.347 12.2C774.493 12.2 774.567 12.3067 774.567 12.52V20.9C774.567 21.0333 774.62 21.12 774.727 21.16C774.847 21.1867 774.96 21.14 775.067 21.02L777.407 18.5C777.687 18.1933 777.8 17.94 777.747 17.74C777.707 17.5267 777.553 17.3933 777.287 17.34L776.827 17.26C776.653 17.22 776.567 17.1333 776.567 17C776.567 16.8667 776.66 16.8 776.847 16.8H780.287C780.473 16.8 780.567 16.8733 780.567 17.02C780.567 17.1667 780.48 17.2467 780.307 17.26L780.127 17.28C779.82 17.3067 779.513 17.4267 779.207 17.64C778.9 17.84 778.533 18.16 778.107 18.6L776.867 19.92C776.587 20.2267 776.52 20.5267 776.667 20.82L779.187 25.66C779.333 25.9267 779.493 26.12 779.667 26.24C779.84 26.36 780.053 26.4467 780.307 26.5L780.507 26.54C780.667 26.58 780.747 26.66 780.747 26.78C780.747 26.9267 780.653 27 780.467 27H776.987C776.8 27 776.707 26.9267 776.707 26.78C776.707 26.6467 776.793 26.5667 776.967 26.54L777.307 26.5C777.813 26.4333 777.92 26.1067 777.627 25.52L775.727 21.82C775.66 21.6867 775.56 21.6133 775.427 21.6C775.307 21.5867 775.193 21.6333 775.087 21.74L774.867 21.96C774.747 22.08 774.667 22.2 774.627 22.32C774.587 22.44 774.567 22.5733 774.567 22.72V25.66C774.567 25.94 774.607 26.14 774.687 26.26C774.78 26.38 774.967 26.4533 775.247 26.48L775.787 26.54C775.933 26.5667 776.007 26.6467 776.007 26.78C776.007 26.9267 775.927 27 775.767 27H772.267ZM787.088 27.18C786.622 27.18 786.235 27.02 785.928 26.7C785.635 26.3667 785.488 25.8267 785.488 25.08V17.6C785.488 17.44 785.408 17.36 785.248 17.36H784.668C784.455 17.36 784.348 17.28 784.348 17.12C784.348 17.0133 784.408 16.92 784.528 16.84C784.968 16.5333 785.322 16.2067 785.588 15.86C785.855 15.5 786.088 15.0133 786.288 14.4C786.382 14.12 786.495 13.98 786.628 13.98C786.775 13.98 786.848 14.0867 786.848 14.3V16.52C786.848 16.7067 786.942 16.8 787.128 16.8H788.428C788.642 16.8 788.748 16.8933 788.748 17.08C788.748 17.2667 788.642 17.36 788.428 17.36H787.128C786.942 17.36 786.848 17.4533 786.848 17.64V25.1C786.848 25.3933 786.895 25.6267 786.988 25.8C787.082 25.96 787.255 26.04 787.508 26.04C787.788 26.04 788.015 25.9 788.188 25.62C788.375 25.34 788.495 24.8867 788.548 24.26C788.575 24.0733 788.662 23.98 788.808 23.98C788.968 23.98 789.048 24.08 789.048 24.28C789.008 25.3067 788.795 26.0467 788.408 26.5C788.035 26.9533 787.595 27.18 787.088 27.18ZM793.384 27.18C792.704 27.18 792.091 26.9533 791.544 26.5C791.011 26.0333 790.584 25.4 790.264 24.6C789.944 23.8 789.784 22.9067 789.784 21.92C789.784 20.9333 789.944 20.0467 790.264 19.26C790.584 18.4733 791.018 17.8467 791.564 17.38C792.111 16.9133 792.718 16.68 793.384 16.68C794.064 16.68 794.671 16.9133 795.204 17.38C795.751 17.8467 796.184 18.4733 796.504 19.26C796.824 20.0467 796.984 20.9333 796.984 21.92C796.984 22.9067 796.824 23.8 796.504 24.6C796.198 25.4 795.771 26.0333 795.224 26.5C794.678 26.9533 794.064 27.18 793.384 27.18ZM793.384 26.68C794.771 26.68 795.464 25.0933 795.464 21.92C795.464 18.76 794.771 17.18 793.384 17.18C791.998 17.18 791.304 18.76 791.304 21.92C791.304 25.0933 791.998 26.68 793.384 26.68ZM803.827 27.18C803.36 27.18 802.973 27.02 802.667 26.7C802.373 26.3667 802.227 25.8267 802.227 25.08V17.6C802.227 17.44 802.147 17.36 801.987 17.36H801.407C801.193 17.36 801.087 17.28 801.087 17.12C801.087 17.0133 801.147 16.92 801.267 16.84C801.707 16.5333 802.06 16.2067 802.327 15.86C802.593 15.5 802.827 15.0133 803.027 14.4C803.12 14.12 803.233 13.98 803.367 13.98C803.513 13.98 803.587 14.0867 803.587 14.3V16.52C803.587 16.7067 803.68 16.8 803.867 16.8H805.167C805.38 16.8 805.487 16.8933 805.487 17.08C805.487 17.2667 805.38 17.36 805.167 17.36H803.867C803.68 17.36 803.587 17.4533 803.587 17.64V25.1C803.587 25.3933 803.633 25.6267 803.727 25.8C803.82 25.96 803.993 26.04 804.247 26.04C804.527 26.04 804.753 25.9 804.927 25.62C805.113 25.34 805.233 24.8867 805.287 24.26C805.313 24.0733 805.4 23.98 805.547 23.98C805.707 23.98 805.787 24.08 805.787 24.28C805.747 25.3067 805.533 26.0467 805.147 26.5C804.773 26.9533 804.333 27.18 803.827 27.18ZM808.463 27.18C807.903 27.18 807.443 27.0067 807.083 26.66C806.723 26.3 806.543 25.8267 806.543 25.24C806.543 24.6667 806.723 24.1267 807.083 23.62C807.443 23.1 807.936 22.6333 808.562 22.22C809.189 21.8067 809.903 21.4733 810.703 21.22C810.876 21.1667 810.963 21.0533 810.963 20.88V19.06C810.963 18.42 810.863 17.9667 810.663 17.7C810.463 17.42 810.189 17.28 809.843 17.28C809.509 17.28 809.203 17.4333 808.923 17.74C808.656 18.0333 808.463 18.5333 808.343 19.24C808.276 19.6667 808.129 19.98 807.903 20.18C807.689 20.3667 807.469 20.46 807.243 20.46C806.869 20.46 806.683 20.2733 806.683 19.9C806.683 19.5133 806.789 19.1333 807.003 18.76C807.229 18.3733 807.523 18.0267 807.883 17.72C808.243 17.4 808.636 17.1467 809.063 16.96C809.489 16.7733 809.916 16.68 810.343 16.68C811.663 16.68 812.323 17.4467 812.323 18.98V25.1C812.323 25.66 812.463 25.94 812.743 25.94C812.916 25.94 813.076 25.8267 813.223 25.6C813.369 25.36 813.443 24.96 813.443 24.4C813.443 24.1867 813.529 24.08 813.703 24.08C813.863 24.08 813.943 24.1933 813.943 24.42C813.943 25.3933 813.769 26.1 813.423 26.54C813.089 26.9667 812.709 27.18 812.283 27.18C811.963 27.18 811.709 27.0533 811.523 26.8C811.336 26.5333 811.209 26.22 811.143 25.86C811.129 25.7267 811.069 25.66 810.963 25.66C810.869 25.6467 810.776 25.7067 810.683 25.84C810.363 26.28 810.036 26.6133 809.703 26.84C809.369 27.0667 808.956 27.18 808.463 27.18ZM809.002 26.26C809.349 26.26 809.669 26.14 809.963 25.9C810.256 25.6467 810.496 25.3133 810.683 24.9C810.869 24.4867 810.963 24.02 810.963 23.5V22.04C810.963 21.7867 810.823 21.7133 810.543 21.82C809.729 22.1133 809.096 22.52 808.643 23.04C808.203 23.5467 807.983 24.16 807.983 24.88C807.983 25.8 808.323 26.26 809.002 26.26ZM814.591 27C814.431 27 814.351 26.9267 814.351 26.78C814.351 26.6467 814.424 26.5667 814.571 26.54L814.851 26.5C815.131 26.46 815.311 26.38 815.391 26.26C815.484 26.14 815.531 25.94 815.531 25.66V14.2C815.531 13.96 815.491 13.8 815.411 13.72C815.344 13.6267 815.217 13.5667 815.031 13.54L814.611 13.48C814.464 13.4533 814.391 13.3733 814.391 13.24C814.391 13.1067 814.464 13.0267 814.611 13C814.984 12.92 815.297 12.8267 815.551 12.72C815.804 12.6133 816.017 12.5067 816.191 12.4C816.404 12.2667 816.564 12.2 816.671 12.2C816.817 12.2 816.891 12.3067 816.891 12.52V20.9C816.891 21.0333 816.944 21.12 817.051 21.16C817.171 21.1867 817.284 21.14 817.391 21.02L819.731 18.5C820.011 18.1933 820.124 17.94 820.071 17.74C820.031 17.5267 819.877 17.3933 819.611 17.34L819.151 17.26C818.977 17.22 818.891 17.1333 818.891 17C818.891 16.8667 818.984 16.8 819.171 16.8H822.611C822.797 16.8 822.891 16.8733 822.891 17.02C822.891 17.1667 822.804 17.2467 822.631 17.26L822.451 17.28C822.144 17.3067 821.837 17.4267 821.531 17.64C821.224 17.84 820.857 18.16 820.431 18.6L819.191 19.92C818.911 20.2267 818.844 20.5267 818.991 20.82L821.511 25.66C821.657 25.9267 821.817 26.12 821.991 26.24C822.164 26.36 822.377 26.4467 822.631 26.5L822.831 26.54C822.991 26.58 823.071 26.66 823.071 26.78C823.071 26.9267 822.977 27 822.791 27H819.311C819.124 27 819.031 26.9267 819.031 26.78C819.031 26.6467 819.117 26.5667 819.291 26.54L819.631 26.5C820.137 26.4333 820.244 26.1067 819.951 25.52L818.051 21.82C817.984 21.6867 817.884 21.6133 817.751 21.6C817.631 21.5867 817.517 21.6333 817.411 21.74L817.191 21.96C817.071 22.08 816.991 22.2 816.951 22.32C816.911 22.44 816.891 22.5733 816.891 22.72V25.66C816.891 25.94 816.931 26.14 817.011 26.26C817.104 26.38 817.291 26.4533 817.571 26.48L818.111 26.54C818.257 26.5667 818.331 26.6467 818.331 26.78C818.331 26.9267 818.251 27 818.091 27H814.591ZM826.27 27.18C825.63 27.18 825.056 26.9667 824.55 26.54C824.043 26.1133 823.636 25.5133 823.33 24.74C823.036 23.9533 822.89 23.0467 822.89 22.02C822.89 20.9667 823.043 20.04 823.35 19.24C823.656 18.44 824.076 17.8133 824.61 17.36C825.143 16.9067 825.736 16.68 826.39 16.68C827.176 16.68 827.81 17.0067 828.29 17.66C828.783 18.3 829.03 19.3467 829.03 20.8C829.03 21.24 828.863 21.46 828.53 21.46H824.73C824.463 21.46 824.33 21.6133 824.33 21.92C824.33 23.3333 824.536 24.3933 824.95 25.1C825.363 25.8067 825.89 26.16 826.53 26.16C827.036 26.16 827.45 25.98 827.77 25.62C828.09 25.26 828.35 24.6533 828.55 23.8C828.59 23.6533 828.676 23.58 828.81 23.58C828.97 23.58 829.03 23.7133 828.99 23.98C828.776 25.1667 828.436 26 827.97 26.48C827.503 26.9467 826.936 27.18 826.27 27.18ZM824.67 20.96H826.69C827.33 20.96 827.65 20.6267 827.65 19.96C827.65 19.0933 827.543 18.4133 827.33 17.92C827.116 17.4267 826.796 17.18 826.37 17.18C825.85 17.18 825.41 17.48 825.05 18.08C824.703 18.68 824.476 19.5333 824.37 20.64C824.343 20.8533 824.443 20.96 824.67 20.96ZM835.338 27.18C834.778 27.18 834.318 27.0067 833.958 26.66C833.598 26.3 833.418 25.8267 833.418 25.24C833.418 24.6667 833.598 24.1267 833.958 23.62C834.318 23.1 834.811 22.6333 835.438 22.22C836.064 21.8067 836.778 21.4733 837.578 21.22C837.751 21.1667 837.838 21.0533 837.838 20.88V19.06C837.838 18.42 837.738 17.9667 837.538 17.7C837.338 17.42 837.064 17.28 836.718 17.28C836.384 17.28 836.078 17.4333 835.798 17.74C835.531 18.0333 835.338 18.5333 835.218 19.24C835.151 19.6667 835.004 19.98 834.778 20.18C834.564 20.3667 834.344 20.46 834.118 20.46C833.744 20.46 833.558 20.2733 833.558 19.9C833.558 19.5133 833.664 19.1333 833.878 18.76C834.104 18.3733 834.398 18.0267 834.758 17.72C835.118 17.4 835.511 17.1467 835.938 16.96C836.364 16.7733 836.791 16.68 837.218 16.68C838.538 16.68 839.198 17.4467 839.198 18.98V25.1C839.198 25.66 839.338 25.94 839.618 25.94C839.791 25.94 839.951 25.8267 840.098 25.6C840.244 25.36 840.318 24.96 840.318 24.4C840.318 24.1867 840.404 24.08 840.578 24.08C840.738 24.08 840.818 24.1933 840.818 24.42C840.818 25.3933 840.644 26.1 840.298 26.54C839.964 26.9667 839.584 27.18 839.158 27.18C838.838 27.18 838.584 27.0533 838.398 26.8C838.211 26.5333 838.084 26.22 838.018 25.86C838.004 25.7267 837.944 25.66 837.838 25.66C837.744 25.6467 837.651 25.7067 837.558 25.84C837.238 26.28 836.911 26.6133 836.578 26.84C836.244 27.0667 835.831 27.18 835.338 27.18ZM835.877 26.26C836.224 26.26 836.544 26.14 836.838 25.9C837.131 25.6467 837.371 25.3133 837.558 24.9C837.744 24.4867 837.838 24.02 837.838 23.5V22.04C837.838 21.7867 837.698 21.7133 837.418 21.82C836.604 22.1133 835.971 22.52 835.518 23.04C835.078 23.5467 834.858 24.16 834.858 24.88C834.858 25.8 835.198 26.26 835.877 26.26ZM848.444 27.18C847.898 27.18 847.371 27.0067 846.864 26.66C846.571 26.46 846.304 26.5133 846.064 26.82C845.931 26.9667 845.831 27.06 845.764 27.1C845.698 27.1533 845.631 27.18 845.564 27.18C845.418 27.18 845.364 27.0867 845.404 26.9C845.458 26.5933 845.498 26.2 845.524 25.72C845.551 25.24 845.564 24.6 845.564 23.8V14.2C845.564 13.96 845.524 13.8 845.444 13.72C845.378 13.6267 845.251 13.5667 845.064 13.54L844.644 13.48C844.498 13.4533 844.424 13.3733 844.424 13.24C844.424 13.1067 844.498 13.0267 844.644 13C845.018 12.92 845.331 12.8267 845.584 12.72C845.838 12.6133 846.051 12.5067 846.224 12.4C846.438 12.2667 846.598 12.2 846.704 12.2C846.851 12.2 846.924 12.3067 846.924 12.52V17.46C846.924 17.5667 846.964 17.64 847.044 17.68C847.138 17.7067 847.238 17.6667 847.344 17.56C847.918 16.9733 848.544 16.68 849.224 16.68C849.838 16.68 850.378 16.8867 850.844 17.3C851.324 17.7 851.698 18.26 851.964 18.98C852.244 19.7 852.384 20.5467 852.384 21.52C852.384 22.6267 852.211 23.6067 851.864 24.46C851.518 25.3133 851.044 25.98 850.444 26.46C849.858 26.94 849.191 27.18 848.444 27.18ZM848.404 26.68C849.151 26.68 849.751 26.24 850.204 25.36C850.671 24.48 850.904 23.2933 850.904 21.8C850.904 20.4267 850.704 19.38 850.304 18.66C849.904 17.94 849.338 17.58 848.604 17.58C848.151 17.58 847.758 17.7667 847.424 18.14C847.091 18.5133 846.924 19.0333 846.924 19.7V24.74C846.924 25.34 847.058 25.8133 847.324 26.16C847.604 26.5067 847.964 26.68 848.404 26.68ZM855.471 14.9C855.191 14.9 854.951 14.8 854.751 14.6C854.565 14.4 854.471 14.1467 854.471 13.84C854.471 13.5333 854.565 13.2867 854.751 13.1C854.951 12.9 855.191 12.8 855.471 12.8C855.751 12.8 855.985 12.9 856.171 13.1C856.358 13.2867 856.451 13.5333 856.451 13.84C856.451 14.1467 856.358 14.4 856.171 14.6C855.985 14.8 855.751 14.9 855.471 14.9ZM853.791 27C853.591 27 853.491 26.9267 853.491 26.78C853.491 26.66 853.578 26.58 853.751 26.54L853.991 26.5C854.325 26.4467 854.538 26.3667 854.631 26.26C854.725 26.14 854.771 25.94 854.771 25.66V18.94C854.771 18.7 854.731 18.54 854.651 18.46C854.585 18.3667 854.458 18.3067 854.271 18.28L853.851 18.22C853.678 18.2067 853.591 18.1333 853.591 18C853.591 17.8933 853.698 17.82 853.911 17.78C854.325 17.7133 854.658 17.6067 854.911 17.46C855.165 17.3133 855.411 17.1333 855.651 16.92C855.771 16.8 855.871 16.74 855.951 16.74C856.071 16.74 856.131 16.82 856.131 16.98V25.66C856.131 25.94 856.171 26.14 856.251 26.26C856.331 26.38 856.485 26.4533 856.711 26.48L857.211 26.54C857.358 26.5667 857.431 26.64 857.431 26.76C857.431 26.92 857.331 27 857.131 27H853.791ZM860.585 27.18C860.118 27.18 859.731 27.02 859.425 26.7C859.131 26.3667 858.985 25.8267 858.985 25.08V17.6C858.985 17.44 858.905 17.36 858.745 17.36H858.165C857.951 17.36 857.845 17.28 857.845 17.12C857.845 17.0133 857.905 16.92 858.025 16.84C858.465 16.5333 858.818 16.2067 859.085 15.86C859.351 15.5 859.585 15.0133 859.785 14.4C859.878 14.12 859.991 13.98 860.125 13.98C860.271 13.98 860.345 14.0867 860.345 14.3V16.52C860.345 16.7067 860.438 16.8 860.625 16.8H861.925C862.138 16.8 862.245 16.8933 862.245 17.08C862.245 17.2667 862.138 17.36 861.925 17.36H860.625C860.438 17.36 860.345 17.4533 860.345 17.64V25.1C860.345 25.3933 860.391 25.6267 860.485 25.8C860.578 25.96 860.751 26.04 861.005 26.04C861.285 26.04 861.511 25.9 861.685 25.62C861.871 25.34 861.991 24.8867 862.045 24.26C862.071 24.0733 862.158 23.98 862.305 23.98C862.465 23.98 862.545 24.08 862.545 24.28C862.505 25.3067 862.291 26.0467 861.905 26.5C861.531 26.9533 861.091 27.18 860.585 27.18ZM866.66 27.18C866.02 27.18 865.447 26.9667 864.94 26.54C864.434 26.1133 864.027 25.5133 863.72 24.74C863.427 23.9533 863.28 23.0467 863.28 22.02C863.28 20.9667 863.434 20.04 863.74 19.24C864.047 18.44 864.467 17.8133 865 17.36C865.534 16.9067 866.127 16.68 866.78 16.68C867.567 16.68 868.2 17.0067 868.68 17.66C869.174 18.3 869.42 19.3467 869.42 20.8C869.42 21.24 869.254 21.46 868.92 21.46H865.12C864.854 21.46 864.72 21.6133 864.72 21.92C864.72 23.3333 864.927 24.3933 865.34 25.1C865.754 25.8067 866.28 26.16 866.92 26.16C867.427 26.16 867.84 25.98 868.16 25.62C868.48 25.26 868.74 24.6533 868.94 23.8C868.98 23.6533 869.067 23.58 869.2 23.58C869.36 23.58 869.42 23.7133 869.38 23.98C869.167 25.1667 868.827 26 868.36 26.48C867.894 26.9467 867.327 27.18 866.66 27.18ZM865.06 20.96H867.08C867.72 20.96 868.04 20.6267 868.04 19.96C868.04 19.0933 867.934 18.4133 867.72 17.92C867.507 17.4267 867.187 17.18 866.76 17.18C866.24 17.18 865.8 17.48 865.44 18.08C865.094 18.68 864.867 19.5333 864.76 20.64C864.734 20.8533 864.834 20.96 865.06 20.96ZM872.27 23.42C872.11 23.42 872.03 23.3133 872.03 23.1C872.016 22.3933 871.983 21.64 871.93 20.84C871.89 20.0267 871.836 19.2133 871.77 18.4C871.703 17.5867 871.636 16.82 871.57 16.1C871.516 15.38 871.463 14.76 871.41 14.24C871.37 13.7067 871.35 13.3333 871.35 13.12C871.35 12.7867 871.43 12.52 871.59 12.32C871.75 12.1067 871.976 12 872.27 12C872.563 12 872.79 12.1067 872.95 12.32C873.11 12.52 873.19 12.7867 873.19 13.12C873.19 13.3467 873.163 13.72 873.11 14.24C873.07 14.76 873.016 15.38 872.95 16.1C872.896 16.82 872.836 17.5867 872.77 18.4C872.703 19.2133 872.643 20.0267 872.59 20.84C872.55 21.64 872.523 22.3933 872.51 23.1C872.51 23.3133 872.43 23.42 872.27 23.42ZM872.27 27.18C871.976 27.18 871.723 27.0867 871.51 26.9C871.31 26.7 871.21 26.44 871.21 26.12C871.21 25.8133 871.31 25.5667 871.51 25.38C871.723 25.18 871.976 25.08 872.27 25.08C872.536 25.08 872.776 25.18 872.99 25.38C873.203 25.5667 873.31 25.8133 873.31 26.12C873.31 26.44 873.203 26.7 872.99 26.9C872.776 27.0867 872.536 27.18 872.27 27.18Z" fill="#FBF4D9"/>
<defs>
<filter id="filter0_f_1_3" x="720" y="109.999" width="30.0002" height="35.0009" filterUnits="userSpaceOnUse" color-interpolation-filters="sRGB">
<feFlood flood-opacity="0" result="BackgroundImageFix"/>
<feBlend mode="normal" in="SourceGraphic" in2="BackgroundImageFix" result="shape"/>
<feGaussianBlur stdDeviation="1.25" result="effect1_foregroundBlur_1_3"/>
</filter>
<filter id="filter1_f_1_3" x="305" y="309.999" width="47.7739" height="60.0009" filterUnits="userSpaceOnUse" color-interpolation-filters="sRGB">
<feFlood flood-opacity="0" result="BackgroundImageFix"/>
<feBlend mode="normal" in="SourceGraphic" in2="BackgroundImageFix" result="shape"/>
<feGaussianBlur stdDeviation="1.25" result="effect1_foregroundBlur_1_3"/>
</filter>
</defs>
</svg>
