<svg width="925" height="715" viewBox="0 0 925 715" fill="none" xmlns="http://www.w3.org/2000/svg">
<g filter="url(#filter0_i_1_81)">
<rect width="925" height="715" fill="#CA9F68"/>
<rect x="391" width="143" height="715" fill="#B03739"/>
<rect y="429" width="143" height="925" transform="rotate(-90 0 429)" fill="#B03739"/>
<rect x="405" width="115" height="715" fill="#7E2426"/>
<rect y="415" width="115" height="925" transform="rotate(-90 0 415)" fill="#7E2426"/>
<g filter="url(#filter1_d_1_81)">
<path d="M197 506.425C200.905 485.6 271.301 425.078 306.01 397.42L380.853 360L452.442 366.508C460.035 373.016 470.99 390.261 454.069 407.181C432.918 428.332 387.361 556.86 359.702 591.026C337.574 618.359 316.857 657.731 309.264 674C276.724 650.572 220.863 552.522 197 506.425Z" fill="#B03739" stroke="#571214" stroke-width="4"/>
<path d="M729 506.425C725.095 485.6 654.699 425.078 619.99 397.42L545.147 360L473.558 366.508C465.965 373.016 455.01 390.261 471.931 407.181C493.082 428.332 538.639 556.86 566.298 591.026C588.426 618.359 609.143 657.731 616.736 674C649.276 650.572 705.137 552.522 729 506.425Z" fill="#B03739" stroke="#571214" stroke-width="4"/>
<path d="M416.011 310.548C417.557 313.331 424.739 320.648 425.446 325.374C425.446 327.557 413.772 399.056 410.62 399.056C408.996 399.056 405.508 399.93 403.881 400.653C398.997 402.824 391.642 402.629 386.309 403.598C372.617 406.088 357.924 410.687 343.739 410.687C326.567 410.687 314.255 414.331 297.239 414.331C288.679 414.331 281.616 412.578 273.239 414.331C264.737 416.111 251.336 414.331 242.59 414.331C225.979 414.331 208.39 413.627 192.221 410.687C183.906 409.175 175.73 406.348 167.56 404.247C161.533 402.697 162.846 406.119 163.916 401.302C164.563 398.391 164.447 394.762 164.815 391.817C165.694 384.784 166.309 377.362 166.662 370.302C167.201 359.517 170.256 348.701 170.256 337.854C170.256 313.151 171.072 288.392 176.097 264.272C178.527 252.606 180.427 240.862 183.335 229.229C184.14 226.01 187.027 213.044 190.024 211.457C191.716 210.562 195.314 211.258 197.213 211.258C201.329 211.258 206.926 212.168 211.14 213.105C217.124 214.434 223.922 213.754 229.76 215.551C233.324 216.647 237.324 215.171 240.793 217.098C242.879 218.257 246.567 218.066 248.93 218.496C255.14 219.625 261.954 222.04 268.199 222.04C272.68 222.04 279.984 224.794 283.923 226.982C289.195 229.911 295.923 230.761 301.445 233.522C312.818 239.208 322 243.5 333.993 250.605C337.5 252.5 339.346 252.901 342.329 254C345.543 255.184 349.646 258.986 352.263 261.127C357.101 265.085 363.423 268.253 368.837 271.261C381.31 278.19 394.1 286.729 404.579 296.82C408.682 300.77 413.257 305.591 416.011 310.548Z" fill="#B03739" stroke="#571214" stroke-width="4" stroke-linecap="round"/>
<path d="M510.435 317.548C508.889 320.331 501.706 327.648 501 332.374C501 334.557 512.674 406.056 515.826 406.056C517.45 406.056 520.938 406.93 522.565 407.653C527.449 409.824 534.804 409.629 540.137 410.598C553.829 413.088 568.522 417.687 582.706 417.687C599.879 417.687 612.191 421.331 629.206 421.331C637.767 421.331 644.83 419.578 653.206 421.331C661.708 423.111 675.109 421.331 683.856 421.331C700.467 421.331 718.056 420.627 734.225 417.687C742.54 416.175 750.716 413.348 758.885 411.247C764.913 409.697 763.6 413.119 762.53 408.302C761.883 405.391 761.999 401.762 761.631 398.817C760.752 391.784 760.137 384.362 759.784 377.302C759.245 366.517 756.19 355.701 756.19 344.854C756.19 320.151 755.374 295.392 750.349 271.272C747.919 259.606 746.019 247.862 743.111 236.229C742.306 233.01 739.419 220.044 736.421 218.457C734.73 217.562 731.132 218.258 729.233 218.258C725.117 218.258 719.52 219.168 715.305 220.105C709.322 221.434 702.524 220.754 696.685 222.551C693.122 223.647 689.121 222.171 685.653 224.098C683.567 225.257 679.879 225.066 677.516 225.496C671.306 226.625 664.492 229.04 658.247 229.04C653.766 229.04 646.462 231.794 642.522 233.982C637.251 236.911 630.523 237.761 625.001 240.522C613.627 246.208 601.937 249.957 592.453 258.493C589.968 260.729 587.1 260.788 584.116 261.887C580.903 263.071 576.8 265.986 574.182 268.127C569.345 272.085 563.023 275.253 557.609 278.261C545.136 285.19 532.346 293.729 521.866 303.82C517.764 307.77 513.189 312.591 510.435 317.548Z" fill="#B03739" stroke="#571214" stroke-width="4" stroke-linecap="round"/>
<path d="M415.488 326.357C416.081 319.551 416.067 312.773 416.067 305.914C418 305 425.137 308.975 426.804 308.975H432.632C435.878 308.975 440.426 308.895 443.368 310.2C446.977 311.8 449.166 315.71 453.491 315.71C460.684 315.71 467.564 308.48 474.963 312.173C477.86 313.618 479.585 318.159 483.245 318.159C487.776 318.159 491.359 315.708 494.595 312.649C496.904 310.465 511.956 302.277 512.387 309.587C512.875 317.883 513 326.278 513 334.69C513 340.485 512.387 346.523 512.387 352.14C512.387 356.883 510.546 361.681 510.546 366.528C510.546 377.069 510.912 387.809 511.16 398.162C511.242 401.609 511.006 406.595 511.909 409.863C512.072 410.451 514 416 512 414.5C511.623 414.029 507.869 413.772 507.138 413.639C504.933 413.239 502.981 412.12 500.866 411.36C492.54 408.369 486.696 398.979 477.554 398.979C473.604 398.979 471.964 400.513 468.521 402.04C465.288 403.474 460.833 405.228 457.172 403.401C454.53 402.082 446.726 399.305 444.288 402.346C442.527 404.543 439.184 406.394 437.063 408.299C431.488 413.306 423.264 409.562 418.658 404.965C416.478 402.79 414.84 397.963 414.84 394.965C414.84 391.971 413 389.146 413 386.155V378.91C413 368.644 413.613 358.31 413.613 348.16C413.613 340.805 414.855 333.627 415.488 326.357Z" fill="#B03739" stroke="#571214" stroke-width="3" stroke-linecap="round"/>
</g>
<g filter="url(#filter2_f_1_81)">
<path d="M197.274 286C195.607 272.667 200.774 244 234.774 236" stroke="#F9E0CF" stroke-width="5" stroke-linecap="round"/>
</g>
<g filter="url(#filter3_f_1_81)">
<path d="M538.899 312.706C559.469 293.749 587.441 284.166 592.513 280.584" stroke="#F9E0CF" stroke-width="5" stroke-linecap="round"/>
</g>
</g>
<defs>
<filter id="filter0_i_1_81" x="0" y="0" width="925" height="719" filterUnits="userSpaceOnUse" color-interpolation-filters="sRGB">
<feFlood flood-opacity="0" result="BackgroundImageFix"/>
<feBlend mode="normal" in="SourceGraphic" in2="BackgroundImageFix" result="shape"/>
<feColorMatrix in="SourceAlpha" type="matrix" values="0 0 0 0 0 0 0 0 0 0 0 0 0 0 0 0 0 0 127 0" result="hardAlpha"/>
<feOffset dy="4"/>
<feGaussianBlur stdDeviation="10"/>
<feComposite in2="hardAlpha" operator="arithmetic" k2="-1" k3="1"/>
<feColorMatrix type="matrix" values="0 0 0 0 0 0 0 0 0 0 0 0 0 0 0 0 0 0 0.25 0"/>
<feBlend mode="normal" in2="shape" result="effect1_innerShadow_1_81"/>
</filter>
<filter id="filter1_d_1_81" x="151" y="207" width="624.445" height="488.034" filterUnits="userSpaceOnUse" color-interpolation-filters="sRGB">
<feFlood flood-opacity="0" result="BackgroundImageFix"/>
<feColorMatrix in="SourceAlpha" type="matrix" values="0 0 0 0 0 0 0 0 0 0 0 0 0 0 0 0 0 0 127 0" result="hardAlpha"/>
<feOffset dy="8"/>
<feGaussianBlur stdDeviation="5"/>
<feComposite in2="hardAlpha" operator="out"/>
<feColorMatrix type="matrix" values="0 0 0 0 0 0 0 0 0 0 0 0 0 0 0 0 0 0 0.25 0"/>
<feBlend mode="normal" in2="BackgroundImageFix" result="effect1_dropShadow_1_81"/>
<feBlend mode="normal" in="SourceGraphic" in2="effect1_dropShadow_1_81" result="shape"/>
</filter>
<filter id="filter2_f_1_81" x="192" y="230.999" width="47.7739" height="60.0008" filterUnits="userSpaceOnUse" color-interpolation-filters="sRGB">
<feFlood flood-opacity="0" result="BackgroundImageFix"/>
<feBlend mode="normal" in="SourceGraphic" in2="BackgroundImageFix" result="shape"/>
<feGaussianBlur stdDeviation="1.25" result="effect1_foregroundBlur_1_81"/>
</filter>
<filter id="filter3_f_1_81" x="533.899" y="275.584" width="63.6141" height="42.1218" filterUnits="userSpaceOnUse" color-interpolation-filters="sRGB">
<feFlood flood-opacity="0" result="BackgroundImageFix"/>
<feBlend mode="normal" in="SourceGraphic" in2="BackgroundImageFix" result="shape"/>
<feGaussianBlur stdDeviation="1.25" result="effect1_foregroundBlur_1_81"/>
</filter>
</defs>
</svg>
