<svg xmlns="http://www.w3.org/2000/svg" xmlns:xlink="http://www.w3.org/1999/xlink" width="1158" height="1141" fill="none"><path fill="url(#a)" d="M1148.41 1068.87h1135.41v663.449H1148.41z" transform="rotate(179.799 1148.41 1068.87)"/><g filter="url(#b)"><path fill="url(#c)" d="M1153.14 458.442 4 453.607l19.212-66.66 55.845-70.797c132.351-15.268 178.23-62.341 222.716-197.11L576.028 2.021l268.3 115.114c49.381 127.256 95.729 173.934 225.062 195.538l66.98 70.365z" shape-rendering="crispEdges"/></g><path fill="url(#d)" d="m1153.02 457.634-89.94-.316-368.526 287.879-227.273-.798L91.119 453.905 4.078 453.6 1.68 1136.39l1148.94 4.03z"/><defs><pattern id="a" width="1" height="1" patternContentUnits="objectBoundingBox"><use xlink:href="#e" transform="matrix(.00024 0 0 .00042 0 -.09)"/></pattern><pattern id="c" width="1" height="1" patternContentUnits="objectBoundingBox"><use xlink:href="#e" transform="matrix(.00024 0 0 .00061 0 -.365)"/></pattern><pattern id="d" width="1" height="1" patternContentUnits="objectBoundingBox"><use xlink:href="#e" transform="matrix(.00024 0 0 .00041 0 -.08)"/></pattern><filter id="b" width="1157.14" height="464.421" x="0" y="2.021" color-interpolation-filters="sRGB" filterUnits="userSpaceOnUse"><feFlood flood-opacity="0" result="BackgroundImageFix"/><feColorMatrix in="SourceAlpha" result="hardAlpha" values="0 0 0 0 0 0 0 0 0 0 0 0 0 0 0 0 0 0 127 0"/><feOffset dy="4"/><feGaussianBlur stdDeviation="2"/><feComposite in2="hardAlpha" operator="out"/><feColorMatrix values="0 0 0 0 0 0 0 0 0 0 0 0 0 0 0 0 0 0 0.25 0"/><feBlend in2="BackgroundImageFix" result="effect1_dropShadow_5_1532"/><feBlend in="SourceGraphic" in2="effect1_dropShadow_5_1532" result="shape"/></filter><image xlink:href="/letter/envelopes/midnight-open.assets/midnight-open-0.webp" id="e" width="4096" height="2828" preserveAspectRatio="none"/></defs></svg>