<svg xmlns="http://www.w3.org/2000/svg" xmlns:xlink="http://www.w3.org/1999/xlink" width="1160" height="693" fill="none"><path fill="url(#a)" d="m1159.78 5.031-90.6-.318-371.226 289.99-228.94-.804L90.094 1.275 2.415.967 0 688.761l1157.36 4.064z"/><g filter="url(#b)"><path fill="url(#c)" d="M1153.07 4.016 9.344 0l12.347 90.646 56.254 71.316c133.322 15.38 179.537 62.798 224.349 198.555L578.56 478.394l270.267-115.958c49.743-128.189 96.431-175.209 226.713-196.971l67.47-70.881z"/></g><defs><pattern id="a" width="1" height="1" patternContentUnits="objectBoundingBox"><use xlink:href="#d" transform="matrix(.00024 0 0 .00041 0 -.08)"/></pattern><pattern id="c" width="1" height="1" patternContentUnits="objectBoundingBox"><use xlink:href="#d" transform="matrix(.00024 0 0 .00059 0 -.329)"/></pattern><filter id="b" width="1151.73" height="486.395" x="5.344" y="0" color-interpolation-filters="sRGB" filterUnits="userSpaceOnUse"><feFlood flood-opacity="0" result="BackgroundImageFix"/><feColorMatrix in="SourceAlpha" result="hardAlpha" values="0 0 0 0 0 0 0 0 0 0 0 0 0 0 0 0 0 0 127 0"/><feOffset dy="4"/><feGaussianBlur stdDeviation="2"/><feComposite in2="hardAlpha" operator="out"/><feColorMatrix values="0 0 0 0 0 0 0 0 0 0 0 0 0 0 0 0 0 0 0.25 0"/><feBlend in2="BackgroundImageFix" result="effect1_dropShadow_5_1507"/><feBlend in="SourceGraphic" in2="effect1_dropShadow_5_1507" result="shape"/></filter><image xlink:href="/letter/envelopes/sage-closed.assets/sage-closed-0.webp" id="d" width="4096" height="2828" preserveAspectRatio="none"/></defs></svg>