<svg xmlns="http://www.w3.org/2000/svg" width="64" height="64" viewBox="0 0 64 64" fill="none">
  <path fill="rgba(255, 190, 200, 0.11)" d="M32 46.5c-.6 0-1.2-.3-1.6-.7-5.2-4.8-14-12.5-14-20.3 0-5.8 4.6-10.5 10.3-10.5 3.4 0 6.6 1.7 8.3 4.4 1.7-2.7 4.9-4.4 8.3-4.4 5.7 0 10.3 4.7 10.3 10.5 0 7.8-8.8 15.5-14 20.3-.4.4-1 .7-1.6.7z"/>
  <path fill="rgba(255, 210, 218, 0.07)" d="M16 22.5c-.5 0-1-.2-1.3-.6-4-3.7-10.7-9.6-10.7-15.6 0-4.5 3.6-8.1 8-8.1 2.6 0 5.1 1.3 6.4 3.4 1.3-2.1 3.8-3.4 6.4-3.4 4.4 0 8 3.6 8 8.1 0 6-6.7 11.9-10.7 15.6-.3.4-.8.6-1.3.6z"/>
  <path fill="rgba(255, 210, 218, 0.07)" d="M48 54.5c-.5 0-1-.2-1.3-.6-4-3.7-10.7-9.6-10.7-15.6 0-4.5 3.6-8.1 8-8.1 2.6 0 5.1 1.3 6.4 3.4 1.3-2.1 3.8-3.4 6.4-3.4 4.4 0 8 3.6 8 8.1 0 6-6.7 11.9-10.7 15.6-.3.4-.8.6-1.3.6z"/>
</svg>
