<svg xmlns="http://www.w3.org/2000/svg" viewBox="115 35 95 210" width="95" height="210">
<rect x="50" y="40" width="210" height="215" fill="#A8744F"/>
<rect x="255" y="40" width="210" height="215" fill="#A8744F"/>
<rect x="460" y="40" width="210" height="215" fill="#A8744F"/>
<rect x="665" y="40" width="210" height="215" fill="#A8744F"/>
<rect x="50" y="250" width="210" height="215" fill="#A8744F"/>
<rect x="255" y="250" width="210" height="215" fill="#A8744F"/>
<rect x="460" y="250" width="210" height="215" fill="#A8744F"/>
<rect x="665" y="250" width="210" height="215" fill="#A8744F"/>
<rect x="50" y="460" width="210" height="215" fill="#A8744F"/>
<rect x="255" y="460" width="210" height="215" fill="#A8744F"/>
<rect x="460" y="460" width="210" height="215" fill="#A8744F"/>
<rect x="665" y="460" width="210" height="215" fill="#A8744F"/>
<rect x="55" y="45" width="200" height="205" fill="#CA9F68"/>
<rect x="260" y="45" width="200" height="205" fill="#CA9F68"/>
<rect x="465" y="45" width="200" height="205" fill="#CA9F68"/>
<rect x="670" y="45" width="200" height="205" fill="#CA9F68"/>
<rect x="55" y="255" width="200" height="205" fill="#CA9F68"/>
<rect x="260" y="255" width="200" height="205" fill="#CA9F68"/>
<rect x="465" y="255" width="200" height="205" fill="#CA9F68"/>
<rect x="670" y="255" width="200" height="205" fill="#CA9F68"/>
<rect x="55" y="465" width="200" height="205" fill="#CA9F68"/>
<rect x="260" y="465" width="200" height="205" fill="#CA9F68"/>
<rect x="465" y="465" width="200" height="205" fill="#CA9F68"/>
<rect x="670" y="465" width="200" height="205" fill="#CA9F68"/>
<path d="M156.2 60L149 69.4737L144.2 60L137 69.4737L129.8 60L125 69.4737L117.8 62.3684L115.4 71.8421L105.8 64.7368V74.2105L96.2 69.4737V78.9474L89 74.2105V86.0526L81.8 81.3158L84.2 93.1579L77 90.7895L79.4 102.632L72.2 100.263L77 112.105H67.4L74.6 123.947H65L74.6 133.421L65 138.158L74.6 145.263L65 150L74.6 157.105L65 166.579L74.6 168.947L67.4 178.421L74.6 180.789L69.8 187.895L77 190.263L72.2 199.737H81.8L77 209.211H86.6L81.8 218.684L91.4 216.316L89 223.421L98.6 221.053V230.526L105.8 225.789L108.2 235.263L115.4 230.526L117.8 240L127.4 232.895L129.8 240L139.4 232.895L144.2 240L151.4 232.895L156.2 240L163.4 232.895L168.2 240L173 230.526L180.2 237.632L185 228.158L192.2 237.632L194.6 225.789L204.2 232.895V223.421L213.8 228.158V221.053L221 223.421V213.947L228.2 216.316L225.8 206.842H235.4L230.6 197.368H237.8L233 187.895H242.6L235.4 178.421L245 176.053L237.8 168.947L245 164.211L237.8 157.105L245 150L237.8 145.263L245 138.158L237.8 133.421L245 126.316L235.4 121.579L242.6 114.474L233 112.105L240.2 105L230.6 102.632L235.4 93.1579L225.8 95.5263L230.6 86.0526L221 88.4211L223.4 78.9474L213.8 83.6842V71.8421L204.2 76.5789V67.1053L194.6 71.8421V62.3684L185 69.4737L182.6 60L173 69.4737L168.2 60L161 69.4737L156.2 60Z" fill="#FFF8DC"/>
<path d="M156.067 70L149.667 78.4211L145.4 70L139 78.4211L132.6 70L128.333 78.4211L121.933 72.1053L119.8 80.5263L111.267 74.2105V82.6316L102.733 78.4211V86.8421L96.3333 82.6316L95 92.5L90 90L92.0667 99.4737L85.6667 97.3684L87.8 107.895L81.4 105.789L85.6667 116.316H77.1333L83.5333 126.842H75L83.5333 135.263L75 139.474L83.5333 145.789L75 150L83.5333 156.316L75 164.737L83.5333 166.842L77.1333 175.263L83.5333 177.368L79.2667 183.684L85.6667 185.789L81.4 194.211H89.9333L85.6667 202.632H94.2L87.5 212.5L97.5 210L95 217.5L104.867 213.158V221.579L111.267 217.368L113.4 225.789L119.8 221.579L121.933 230L130.467 223.684L132.6 230L141.133 223.684L145.4 230L151.8 223.684L156.067 230L162.467 223.684L166.733 230L171 221.579L177.4 227.895L181.667 219.474L188.067 227.895L190.2 217.368L198.733 223.684V215.263L207.267 219.474V213.158L215 217.5V208.947L222.5 212.5L220 202.5L226.467 200.526L222.2 192.105H228.6L224.333 183.684H232.867L226.467 175.263L235 173.158L228.6 166.842L235 162.632L228.6 156.316L235 150L228.6 145.789L235 139.474L228.6 135.263L235 128.947L226.467 124.737L232.867 118.421L224.333 116.316L230.733 110L222.2 107.895L226.467 99.4737L217.933 101.579L222.2 93.1579H215.8L217.5 85L210 87.5L208.661 78.4211L198.733 84.7368V76.3158L190.2 80.5263V72.1053L181.667 78.4211L179.533 70L171 78.4211L166.733 70L160.333 78.4211L156.067 70Z" fill="#C4B798"/>
</svg>