<svg xmlns="http://www.w3.org/2000/svg" viewBox="500 252 132 205" width="132" height="205">
<path d="M361.2 480L354 489.474L349.2 480L342 489.474L334.8 480L330 489.474L322.8 482.368L320.4 491.842L310.8 484.737V494.211L301.2 489.474V498.947L294 494.211V506.053L286.8 501.316L289.2 513.158L282 510.789L284.4 522.632L277.2 520.263L282 532.105H272.4L279.6 543.947H270L279.6 553.421L270 558.158L279.6 565.263L270 570L279.6 577.105L270 586.579L279.6 588.947L272.4 598.421L279.6 600.789L274.8 607.895L282 610.263L277.2 619.737H286.8L282 629.211H291.6L286.8 638.684L296.4 636.316L294 643.421L303.6 641.053V650.526L310.8 645.789L313.2 655.263L320.4 650.526L322.8 660L332.4 652.895L334.8 660L344.4 652.895L349.2 660L356.4 652.895L361.2 660L368.4 652.895L373.2 660L378 650.526L385.2 657.632L390 648.158L397.2 657.632L399.6 645.789L409.2 652.895V643.421L418.8 648.158V641.053L426 643.421V633.947L433.2 636.316L430.8 626.842H440.4L435.6 617.368H442.8L438 607.895H447.6L440.4 598.421L450 596.053L442.8 588.947L450 584.211L442.8 577.105L450 570L442.8 565.263L450 558.158L442.8 553.421L450 546.316L440.4 541.579L447.6 534.474L438 532.105L445.2 525L435.6 522.632L440.4 513.158L430.8 515.526L435.6 506.053L426 508.421L428.4 498.947L418.8 503.684V491.842L409.2 496.579V487.105L399.6 491.842V482.368L390 489.474L387.6 480L378 489.474L373.2 480L366 489.474L361.2 480Z" fill="#FFF8DC"/>
<path d="M566.2 270L559 279.474L554.2 270L547 279.474L539.8 270L535 279.474L527.8 272.368L525.4 281.842L515.8 274.737V284.211L506.2 279.474V288.947L499 284.211V296.053L491.8 291.316L494.2 303.158L487 300.789L489.4 312.632L482.2 310.263L487 322.105H477.4L484.6 333.947H475L484.6 343.421L475 348.158L484.6 355.263L475 360L484.6 367.105L475 376.579L484.6 378.947L477.4 388.421L484.6 390.789L479.8 397.895L487 400.263L482.2 409.737H491.8L487 419.211H496.6L491.8 428.684L501.4 426.316L499 433.421L508.6 431.053V440.526L515.8 435.789L518.2 445.263L525.4 440.526L527.8 450L537.4 442.895L539.8 450L549.4 442.895L554.2 450L561.4 442.895L566.2 450L573.4 442.895L578.2 450L583 440.526L590.2 447.632L595 438.158L602.2 447.632L604.6 435.789L614.2 442.895V433.421L623.8 438.158V431.053L631 433.421V423.947L638.2 426.316L635.8 416.842H645.4L640.6 407.368H647.8L643 397.895H652.6L645.4 388.421L655 386.053L647.8 378.947L655 374.211L647.8 367.105L655 360L647.8 355.263L655 348.158L647.8 343.421L655 336.316L645.4 331.579L652.6 324.474L643 322.105L650.2 315L640.6 312.632L645.4 303.158L635.8 305.526L640.6 296.053L631 298.421L633.4 288.947L623.8 293.684V281.842L614.2 286.579V277.105L604.6 281.842V272.368L595 279.474L592.6 270L583 279.474L578.2 270L571 279.474L566.2 270Z" fill="#FFF8DC"/>
<path d="M361.067 490L354.667 498.421L350.4 490L344 498.421L337.6 490L333.333 498.421L326.933 492.105L324.8 500.526L316.267 494.211V502.632L307.733 498.421V506.842L301.333 502.632L300 512.5L295 510L297.067 519.474L290.667 517.368L292.8 527.895L286.4 525.789L290.667 536.316H282.133L288.533 546.842H280L288.533 555.263L280 559.474L288.533 565.789L280 570L288.533 576.316L280 584.737L288.533 586.842L282.133 595.263L288.533 597.368L284.267 603.684L290.667 605.789L286.4 614.211H294.933L290.667 622.632H299.2L292.5 632.5L302.5 630L300 637.5L309.867 633.158V641.579L316.267 637.368L318.4 645.789L324.8 641.579L326.933 650L335.467 643.684L337.6 650L346.133 643.684L350.4 650L356.8 643.684L361.067 650L367.467 643.684L371.733 650L376 641.579L382.4 647.895L386.667 639.474L393.067 647.895L395.2 637.368L403.733 643.684V635.263L412.267 639.474V633.158L420 637.5V628.947L427.5 632.5L425 622.5L431.467 620.526L427.2 612.105H433.6L429.333 603.684H437.867L431.467 595.263L440 593.158L433.6 586.842L440 582.632L433.6 576.316L440 570L433.6 565.789L440 559.474L433.6 555.263L440 548.947L431.467 544.737L437.867 538.421L429.333 536.316L435.733 530L427.2 527.895L431.467 519.474L422.933 521.579L427.2 513.158H420.8L422.5 505L415 507.5L413.661 498.421L403.733 504.737V496.316L395.2 500.526V492.105L386.667 498.421L384.533 490L376 498.421L371.733 490L365.333 498.421L361.067 490Z" fill="#C4B798"/>
<path d="M566.067 280L559.667 288.421L555.4 280L549 288.421L542.6 280L538.333 288.421L531.933 282.105L529.8 290.526L521.267 284.211V292.632L512.733 288.421V296.842L506.333 292.632L505 302.5L500 300L502.067 309.474L495.667 307.368L497.8 317.895L491.4 315.789L495.667 326.316H487.133L493.533 336.842H485L493.533 345.263L485 349.474L493.533 355.789L485 360L493.533 366.316L485 374.737L493.533 376.842L487.133 385.263L493.533 387.368L489.267 393.684L495.667 395.789L491.4 404.211H499.933L495.667 412.632H504.2L497.5 422.5L507.5 420L505 427.5L514.867 423.158V431.579L521.267 427.368L523.4 435.789L529.8 431.579L531.933 440L540.467 433.684L542.6 440L551.133 433.684L555.4 440L561.8 433.684L566.067 440L572.467 433.684L576.733 440L581 431.579L587.4 437.895L591.667 429.474L598.067 437.895L600.2 427.368L608.733 433.684V425.263L617.267 429.474V423.158L625 427.5V418.947L632.5 422.5L630 412.5L636.467 410.526L632.2 402.105H638.6L634.333 393.684H642.867L636.467 385.263L645 383.158L638.6 376.842L645 372.632L638.6 366.316L645 360L638.6 355.789L645 349.474L638.6 345.263L645 338.947L636.467 334.737L642.867 328.421L634.333 326.316L640.733 320L632.2 317.895L636.467 309.474L627.933 311.579L632.2 303.158H625.8L627.5 295L620 297.5L618.661 288.421L608.733 294.737V286.316L600.2 290.526V282.105L591.667 288.421L589.533 280L581 288.421L576.733 280L570.333 288.421L566.067 280Z" fill="#C4B798"/>
</svg>