<svg xmlns="http://www.w3.org/2000/svg" viewBox="723 52 95 188" width="95" height="188">
<path d="M770 65L773.852 71.704L778.362 65.4519L781.514 72.5345L786.633 66.8028L789.049 74.1862L794.721 69.0378L796.376 76.6413L802.539 72.1325L803.414 79.8726L810 76.0529L810.085 83.8449L817.023 80.7561L816.318 88.5146L823.53 86.1906L822.043 93.8306L829.452 92.2967L827.198 99.7346L834.721 99.0077L831.726 106.162L839.282 106.25L835.578 113.042L843.084 113.944L838.712 120.3L846.085 122.006L841.092 127.856L848.252 130.347L842.694 135.627L849.562 138.876L843.499 143.528L850 147.5L843.499 151.472L849.562 156.124L842.694 159.373L848.252 164.653L841.092 167.144L846.085 172.994L838.712 174.7L843.084 181.056L835.578 181.958L839.282 188.75L831.726 188.838L834.721 195.992L827.198 195.265L829.452 202.703L822.043 201.169L823.53 208.809L816.318 206.485L817.023 214.244L810.085 211.155L810 218.947L803.414 215.127L802.539 222.867L796.376 218.359L794.721 225.962L789.049 220.814L786.633 228.197L781.514 222.466L778.362 229.548L773.852 223.296L770 230L766.148 223.296L761.638 229.548L758.486 222.466L753.367 228.197L750.951 220.814L745.279 225.962L743.624 218.359L737.461 222.867L736.586 215.127L730 218.947L729.915 211.155L722.977 214.244L723.682 206.485L716.47 208.809L717.957 201.169L710.548 202.703L712.802 195.265L705.279 195.992L708.274 188.838L700.718 188.75L704.422 181.958L696.916 181.056L701.288 174.7L693.915 172.994L698.908 167.144L691.748 164.653L697.306 159.373L690.438 156.124L696.501 151.472L690 147.5L696.501 143.528L690.438 138.876L697.306 135.627L691.748 130.347L698.908 127.856L693.915 122.006L701.288 120.3L696.916 113.944L704.422 113.042L700.718 106.25L708.274 106.162L705.279 99.0077L712.802 99.7346L710.548 92.2967L717.957 93.8306L716.47 86.1906L723.682 88.5146L722.977 80.7561L729.915 83.8449L730 76.0529L736.586 79.8726L737.461 72.1325L743.624 76.6413L745.279 69.0378L750.951 74.1862L753.367 66.8028L758.486 72.5345L761.638 65.4519L766.148 71.704L770 65Z" fill="#FFF8DC"/>
<path d="M770 75L773.37 80.8914L777.317 75.3972L780.074 81.6212L784.554 76.5843L786.668 83.0728L791.631 78.5484L793.079 85.2302L798.472 81.268L799.237 88.0699L805 84.7132L805.075 91.5607L811.145 88.8463L810.528 95.6644L816.839 93.622L815.538 100.336L822.02 98.988L820.048 105.524L826.631 104.886L824.01 111.173L830.622 111.25L827.381 117.219L833.948 118.012L830.123 123.597L836.574 125.096L832.206 130.237L838.47 132.426L833.607 137.066L839.617 139.922L834.312 144.009L840 147.5L834.312 150.991L839.617 155.078L833.607 157.934L838.47 162.574L832.206 164.763L836.574 169.904L830.123 171.403L833.948 176.988L827.381 177.781L830.622 183.75L824.01 183.827L826.631 190.114L820.048 189.476L822.02 196.012L815.538 194.664L816.839 201.378L810.528 199.336L811.145 206.154L805.075 203.439L805 210.287L799.237 206.93L798.472 213.732L793.079 209.77L791.631 216.452L786.668 211.927L784.554 218.416L780.074 213.379L777.317 219.603L773.37 214.109L770 220L766.63 214.109L762.683 219.603L759.926 213.379L755.446 218.416L753.332 211.927L748.369 216.452L746.921 209.77L741.528 213.732L740.763 206.93L735 210.287L734.925 203.439L728.855 206.154L729.472 199.336L723.161 201.378L724.462 194.664L717.98 196.012L719.952 189.476L713.369 190.114L715.99 183.827L709.378 183.75L712.619 177.781L706.052 176.988L709.877 171.403L703.426 169.904L707.794 164.763L701.53 162.574L706.393 157.934L700.383 155.078L705.688 150.991L700 147.5L705.688 144.009L700.383 139.922L706.393 137.066L701.53 132.426L707.794 130.237L703.426 125.096L709.877 123.597L706.052 118.012L712.619 117.219L709.378 111.25L715.99 111.173L713.369 104.886L719.952 105.524L717.98 98.988L724.462 100.336L723.161 93.622L729.472 95.6644L728.855 88.8463L734.925 91.5607L735 84.7132L740.763 88.0699L741.528 81.268L746.921 85.2302L748.369 78.5484L753.332 83.0728L755.446 76.5843L759.926 81.6212L762.683 75.3972L766.63 80.8914L770 75Z" fill="#D0C3A1"/>
<path d="M725.145 140C724.262 133.333 726.998 119 745 115" stroke="#F9E0CF" stroke-width="5" stroke-linecap="round"/>
</svg>