<svg xmlns="http://www.w3.org/2000/svg" viewBox="697 252 138 205" width="138" height="205">
<path d="M771.2 270L764 279.474L759.2 270L752 279.474L744.8 270L740 279.474L732.8 272.368L730.4 281.842L720.8 274.737V284.211L711.2 279.474V288.947L704 284.211V296.053L696.8 291.316L699.2 303.158L692 300.789L694.4 312.632L687.2 310.263L692 322.105H682.4L689.6 333.947H680L689.6 343.421L680 348.158L689.6 355.263L680 360L689.6 367.105L680 376.579L689.6 378.947L682.4 388.421L689.6 390.789L684.8 397.895L692 400.263L687.2 409.737H696.8L692 419.211H701.6L696.8 428.684L706.4 426.316L704 433.421L713.6 431.053V440.526L720.8 435.789L723.2 445.263L730.4 440.526L732.8 450L742.4 442.895L744.8 450L754.4 442.895L759.2 450L766.4 442.895L771.2 450L778.4 442.895L783.2 450L788 440.526L795.2 447.632L800 438.158L807.2 447.632L809.6 435.789L819.2 442.895V433.421L828.8 438.158V431.053L836 433.421V423.947L843.2 426.316L840.8 416.842H850.4L845.6 407.368H852.8L848 397.895H857.6L850.4 388.421L860 386.053L852.8 378.947L860 374.211L852.8 367.105L860 360L852.8 355.263L860 348.158L852.8 343.421L860 336.316L850.4 331.579L857.6 324.474L848 322.105L855.2 315L845.6 312.632L850.4 303.158L840.8 305.526L845.6 296.053L836 298.421L838.4 288.947L828.8 293.684V281.842L819.2 286.579V277.105L809.6 281.842V272.368L800 279.474L797.6 270L788 279.474L783.2 270L776 279.474L771.2 270Z" fill="#FFF8DC"/>
<path d="M771.067 280L764.667 288.421L760.4 280L754 288.421L747.6 280L743.333 288.421L736.933 282.105L734.8 290.526L726.267 284.211V292.632L717.733 288.421V296.842L711.333 292.632L710 302.5L705 300L707.067 309.474L700.667 307.368L702.8 317.895L696.4 315.789L700.667 326.316H692.133L698.533 336.842H690L698.533 345.263L690 349.474L698.533 355.789L690 360L698.533 366.316L690 374.737L698.533 376.842L692.133 385.263L698.533 387.368L694.267 393.684L700.667 395.789L696.4 404.211H704.933L700.667 412.632H709.2L702.5 422.5L712.5 420L710 427.5L719.867 423.158V431.579L726.267 427.368L728.4 435.789L734.8 431.579L736.933 440L745.467 433.684L747.6 440L756.133 433.684L760.4 440L766.8 433.684L771.067 440L777.467 433.684L781.733 440L786 431.579L792.4 437.895L796.667 429.474L803.067 437.895L805.2 427.368L813.733 433.684V425.263L822.267 429.474V423.158L830 427.5V418.947L837.5 422.5L835 412.5L841.467 410.526L837.2 402.105H843.6L839.333 393.684H847.867L841.467 385.263L850 383.158L843.6 376.842L850 372.632L843.6 366.316L850 360L843.6 355.789L850 349.474L843.6 345.263L850 338.947L841.467 334.737L847.867 328.421L839.333 326.316L845.733 320L837.2 317.895L841.467 309.474L832.933 311.579L837.2 303.158H830.8L832.5 295L825 297.5L823.661 288.421L813.733 294.737V286.316L805.2 290.526V282.105L796.667 288.421L794.533 280L786 288.421L781.733 280L775.333 288.421L771.067 280Z" fill="#C4B798"/>
</svg>