<svg xmlns="http://www.w3.org/2000/svg" viewBox="697 458 138 205" width="138" height="205">
<path d="M770 490L773.852 496.501L778.362 490.438L781.514 497.306L786.633 491.748L789.049 498.908L794.721 493.915L796.376 501.288L802.539 496.916L803.414 504.422L810 500.718L810.085 508.274L817.023 505.279L816.318 512.802L823.53 510.548L822.043 517.957L829.452 516.47L827.198 523.682L834.721 522.977L831.726 529.915L839.282 530L835.578 536.586L843.084 537.461L838.712 543.624L846.085 545.279L841.092 550.951L848.252 553.367L842.694 558.486L849.562 561.638L843.499 566.148L850 570L843.499 573.852L849.562 578.362L842.694 581.514L848.252 586.633L841.092 589.049L846.085 594.721L838.712 596.376L843.084 602.539L835.578 603.414L839.282 610L831.726 610.085L834.721 617.023L827.198 616.318L829.452 623.53L822.043 622.043L823.53 629.452L816.318 627.198L817.023 634.721L810.085 631.726L810 639.282L803.414 635.578L802.539 643.084L796.376 638.712L794.721 646.085L789.049 641.092L786.633 648.252L781.514 642.694L778.362 649.562L773.852 643.499L770 650L766.148 643.499L761.638 649.562L758.486 642.694L753.367 648.252L750.951 641.092L745.279 646.085L743.624 638.712L737.461 643.084L736.586 635.578L730 639.282L729.915 631.726L722.977 634.721L723.682 627.198L716.47 629.452L717.957 622.043L710.548 623.53L712.802 616.318L705.279 617.023L708.274 610.085L700.718 610L704.422 603.414L696.916 602.539L701.288 596.376L693.915 594.721L698.908 589.049L691.748 586.633L697.306 581.514L690.438 578.362L696.501 573.852L690 570L696.501 566.148L690.438 561.638L697.306 558.486L691.748 553.367L698.908 550.951L693.915 545.279L701.288 543.624L696.916 537.461L704.422 536.586L700.718 530L708.274 529.915L705.279 522.977L712.802 523.682L710.548 516.47L717.957 517.957L716.47 510.548L723.682 512.802L722.977 505.279L729.915 508.274L730 500.718L736.586 504.422L737.461 496.916L743.624 501.288L745.279 493.915L750.951 498.908L753.367 491.748L758.486 497.306L761.638 490.438L766.148 496.501L770 490Z" fill="#FFF8DC"/>
<path d="M770 500L773.37 505.688L777.317 500.383L780.074 506.393L784.554 501.53L786.668 507.794L791.631 503.426L793.079 509.877L798.472 506.052L799.237 512.619L805 509.378L805.075 515.99L811.145 513.369L810.528 519.952L816.839 517.98L815.538 524.462L822.02 523.161L820.048 529.472L826.631 528.855L824.01 534.925L830.622 535L827.381 540.763L833.948 541.528L830.123 546.921L836.574 548.369L832.206 553.332L838.47 555.446L833.607 559.926L839.617 562.683L834.312 566.63L840 570L834.312 573.37L839.617 577.317L833.607 580.074L838.47 584.554L832.206 586.668L836.574 591.631L830.123 593.079L833.948 598.472L827.381 599.237L830.622 605L824.01 605.075L826.631 611.145L820.048 610.528L822.02 616.839L815.538 615.538L816.839 622.02L810.528 620.048L811.145 626.631L805.075 624.01L805 630.622L799.237 627.381L798.472 633.948L793.079 630.123L791.631 636.574L786.668 632.206L784.554 638.47L780.074 633.607L777.317 639.617L773.37 634.312L770 640L766.63 634.312L762.683 639.617L759.926 633.607L755.446 638.47L753.332 632.206L748.369 636.574L746.921 630.123L741.528 633.948L740.763 627.381L735 630.622L734.925 624.01L728.855 626.631L729.472 620.048L723.161 622.02L724.462 615.538L717.98 616.839L719.952 610.528L713.369 611.145L715.99 605.075L709.378 605L712.619 599.237L706.052 598.472L709.877 593.079L703.426 591.631L707.794 586.668L701.53 584.554L706.393 580.074L700.383 577.317L705.688 573.37L700 570L705.688 566.63L700.383 562.683L706.393 559.926L701.53 555.446L707.794 553.332L703.426 548.369L709.877 546.921L706.052 541.528L712.619 540.763L709.378 535L715.99 534.925L713.369 528.855L719.952 529.472L717.98 523.161L724.462 524.462L723.161 517.98L729.472 519.952L728.855 513.369L734.925 515.99L735 509.378L740.763 512.619L741.528 506.052L746.921 509.877L748.369 503.426L753.332 507.794L755.446 501.53L759.926 506.393L762.683 500.383L766.63 505.688L770 500Z" fill="#D0C3A1"/>
</svg>