<svg xmlns="http://www.w3.org/2000/svg" viewBox="310 235 120 230" width="120" height="230">
<path d="M355 280L358.852 286.501L363.362 280.438L366.514 287.306L371.633 281.748L374.049 288.908L379.721 283.915L381.376 291.288L387.539 286.916L388.414 294.422L395 290.718L395.085 298.274L402.023 295.279L401.318 302.802L408.53 300.548L407.043 307.957L414.452 306.47L412.198 313.682L419.721 312.977L416.726 319.915L424.282 320L420.578 326.586L428.084 327.461L423.712 333.624L431.085 335.279L426.092 340.951L433.252 343.367L427.694 348.486L434.562 351.638L428.499 356.148L435 360L428.499 363.852L434.562 368.362L427.694 371.514L433.252 376.633L426.092 379.049L431.085 384.721L423.712 386.376L428.084 392.539L420.578 393.414L424.282 400L416.726 400.085L419.721 407.023L412.198 406.318L414.452 413.53L407.043 412.043L408.53 419.452L401.318 417.198L402.023 424.721L395.085 421.726L395 429.282L388.414 425.578L387.539 433.084L381.376 428.712L379.721 436.085L374.049 431.092L371.633 438.252L366.514 432.694L363.362 439.562L358.852 433.499L355 440L351.148 433.499L346.638 439.562L343.486 432.694L338.367 438.252L335.951 431.092L330.279 436.085L328.624 428.712L322.461 433.084L321.586 425.578L315 429.282L314.915 421.726L307.977 424.721L308.682 417.198L301.47 419.452L302.957 412.043L295.548 413.53L297.802 406.318L290.279 407.023L293.274 400.085L285.718 400L289.422 393.414L281.916 392.539L286.288 386.376L278.915 384.721L283.908 379.049L276.748 376.633L282.306 371.514L275.438 368.362L281.501 363.852L275 360L281.501 356.148L275.438 351.638L282.306 348.486L276.748 343.367L283.908 340.951L278.915 335.279L286.288 333.624L281.916 327.461L289.422 326.586L285.718 320L293.274 319.915L290.279 312.977L297.802 313.682L295.548 306.47L302.957 307.957L301.47 300.548L308.682 302.802L307.977 295.279L314.915 298.274L315 290.718L321.586 294.422L322.461 286.916L328.624 291.288L330.279 283.915L335.951 288.908L338.367 281.748L343.486 287.306L346.638 280.438L351.148 286.501L355 280Z" fill="#FFF8DC"/>
<path d="M355 290L358.37 295.688L362.317 290.383L365.074 296.393L369.554 291.53L371.668 297.794L376.631 293.426L378.079 299.877L383.472 296.052L384.237 302.619L390 299.378L390.075 305.99L396.145 303.369L395.528 309.952L401.839 307.98L400.538 314.462L407.02 313.161L405.048 319.472L411.631 318.855L409.01 324.925L415.622 325L412.381 330.763L418.948 331.528L415.123 336.921L421.574 338.369L417.206 343.332L423.47 345.446L418.607 349.926L424.617 352.683L419.312 356.63L425 360L419.312 363.37L424.617 367.317L418.607 370.074L423.47 374.554L417.206 376.668L421.574 381.631L415.123 383.079L418.948 388.472L412.381 389.237L415.622 395L409.01 395.075L411.631 401.145L405.048 400.528L407.02 406.839L400.538 405.538L401.839 412.02L395.528 410.048L396.145 416.631L390.075 414.01L390 420.622L384.237 417.381L383.472 423.948L378.079 420.123L376.631 426.574L371.668 422.206L369.554 428.47L365.074 423.607L362.317 429.617L358.37 424.312L355 430L351.63 424.312L347.683 429.617L344.926 423.607L340.446 428.47L338.332 422.206L333.369 426.574L331.921 420.123L326.528 423.948L325.763 417.381L320 420.622L319.925 414.01L313.855 416.631L314.472 410.048L308.161 412.02L309.462 405.538L302.98 406.839L304.952 400.528L298.369 401.145L300.99 395.075L294.378 395L297.619 389.237L291.052 388.472L294.877 383.079L288.426 381.631L292.794 376.668L286.53 374.554L291.393 370.074L285.383 367.317L290.688 363.37L285 360L290.688 356.63L285.383 352.683L291.393 349.926L286.53 345.446L292.794 343.332L288.426 338.369L294.877 336.921L291.052 331.528L297.619 330.763L294.378 325L300.99 324.925L298.369 318.855L304.952 319.472L302.98 313.161L309.462 314.462L308.161 307.98L314.472 309.952L313.855 303.369L319.925 305.99L320 299.378L325.763 302.619L326.528 296.052L331.921 299.877L333.369 293.426L338.332 297.794L340.446 291.53L344.926 296.393L347.683 290.383L351.63 295.688L355 290Z" fill="#D0C3A1"/>
<path d="M771.067 280L764.667 288.421L760.4 280L754 288.421L747.6 280L743.333 288.421L736.933 282.105L734.8 290.526L726.267 284.211V292.632L717.733 288.421V296.842L711.333 292.632L710 302.5L705 300L707.067 309.474L700.667 307.368L702.8 317.895L696.4 315.789L700.667 326.316H692.133L698.533 336.842H690L698.533 345.263L690 349.474L698.533 355.789L690 360L698.533 366.316L690 374.737L698.533 376.842L692.133 385.263L698.533 387.368L694.267 393.684L700.667 395.789L696.4 404.211H704.933L700.667 412.632H709.2L702.5 422.5L712.5 420L710 427.5L719.867 423.158V431.579L726.267 427.368L728.4 435.789L734.8 431.579L736.933 440L745.467 433.684L747.6 440L756.133 433.684L760.4 440L766.8 433.684L771.067 440L777.467 433.684L781.733 440L786 431.579L792.4 437.895L796.667 429.474L803.067 437.895L805.2 427.368L813.733 433.684V425.263L822.267 429.474V423.158L830 427.5V418.947L837.5 422.5L835 412.5L841.467 410.526L837.2 402.105H843.6L839.333 393.684H847.867L841.467 385.263L850 383.158L843.6 376.842L850 372.632L843.6 366.316L850 360L843.6 355.789L850 349.474L843.6 345.263L850 338.947L841.467 334.737L847.867 328.421L839.333 326.316L845.733 320L837.2 317.895L841.467 309.474L832.933 311.579L837.2 303.158H830.8L832.5 295L825 297.5L823.661 288.421L813.733 294.737V286.316L805.2 290.526V282.105L796.667 288.421L794.533 280L786 288.421L781.733 280L775.333 288.421L771.067 280Z" fill="#C4B798"/>
<path d="M361.067 490L354.667 498.421L350.4 490L344 498.421L337.6 490L333.333 498.421L326.933 492.105L324.8 500.526L316.267 494.211V502.632L307.733 498.421V506.842L301.333 502.632L300 512.5L295 510L297.067 519.474L290.667 517.368L292.8 527.895L286.4 525.789L290.667 536.316H282.133L288.533 546.842H280L288.533 555.263L280 559.474L288.533 565.789L280 570L288.533 576.316L280 584.737L288.533 586.842L282.133 595.263L288.533 597.368L284.267 603.684L290.667 605.789L286.4 614.211H294.933L290.667 622.632H299.2L292.5 632.5L302.5 630L300 637.5L309.867 633.158V641.579L316.267 637.368L318.4 645.789L324.8 641.579L326.933 650L335.467 643.684L337.6 650L346.133 643.684L350.4 650L356.8 643.684L361.067 650L367.467 643.684L371.733 650L376 641.579L382.4 647.895L386.667 639.474L393.067 647.895L395.2 637.368L403.733 643.684V635.263L412.267 639.474V633.158L420 637.5V628.947L427.5 632.5L425 622.5L431.467 620.526L427.2 612.105H433.6L429.333 603.684H437.867L431.467 595.263L440 593.158L433.6 586.842L440 582.632L433.6 576.316L440 570L433.6 565.789L440 559.474L433.6 555.263L440 548.947L431.467 544.737L437.867 538.421L429.333 536.316L435.733 530L427.2 527.895L431.467 519.474L422.933 521.579L427.2 513.158H420.8L422.5 505L415 507.5L413.661 498.421L403.733 504.737V496.316L395.2 500.526V492.105L386.667 498.421L384.533 490L376 498.421L371.733 490L365.333 498.421L361.067 490Z" fill="#C4B798"/>
<path d="M566.067 280L559.667 288.421L555.4 280L549 288.421L542.6 280L538.333 288.421L531.933 282.105L529.8 290.526L521.267 284.211V292.632L512.733 288.421V296.842L506.333 292.632L505 302.5L500 300L502.067 309.474L495.667 307.368L497.8 317.895L491.4 315.789L495.667 326.316H487.133L493.533 336.842H485L493.533 345.263L485 349.474L493.533 355.789L485 360L493.533 366.316L485 374.737L493.533 376.842L487.133 385.263L493.533 387.368L489.267 393.684L495.667 395.789L491.4 404.211H499.933L495.667 412.632H504.2L497.5 422.5L507.5 420L505 427.5L514.867 423.158V431.579L521.267 427.368L523.4 435.789L529.8 431.579L531.933 440L540.467 433.684L542.6 440L551.133 433.684L555.4 440L561.8 433.684L566.067 440L572.467 433.684L576.733 440L581 431.579L587.4 437.895L591.667 429.474L598.067 437.895L600.2 427.368L608.733 433.684V425.263L617.267 429.474V423.158L625 427.5V418.947L632.5 422.5L630 412.5L636.467 410.526L632.2 402.105H638.6L634.333 393.684H642.867L636.467 385.263L645 383.158L638.6 376.842L645 372.632L638.6 366.316L645 360L638.6 355.789L645 349.474L638.6 345.263L645 338.947L636.467 334.737L642.867 328.421L634.333 326.316L640.733 320L632.2 317.895L636.467 309.474L627.933 311.579L632.2 303.158H625.8L627.5 295L620 297.5L618.661 288.421L608.733 294.737V286.316L600.2 290.526V282.105L591.667 288.421L589.533 280L581 288.421L576.733 280L570.333 288.421L566.067 280Z" fill="#C4B798"/>
<path d="M361.2 57L354 66.4737L349.2 57L342 66.4737L334.8 57L330 66.4737L322.8 59.3684L320.4 68.8421L310.8 61.7368V71.2105L301.2 66.4737V75.9474L294 71.2105V83.0526L286.8 78.3158L289.2 90.1579L282 87.7895L284.4 99.6316L277.2 97.2632L282 109.105H272.4L279.6 120.947H270L279.6 130.421L270 135.158L279.6 142.263L270 147L279.6 154.105L270 163.579L279.6 165.947L272.4 175.421L279.6 177.789L274.8 184.895L282 187.263L277.2 196.737H286.8L282 206.211H291.6L286.8 215.684L296.4 213.316L294 220.421L303.6 218.053V227.526L310.8 222.789L313.2 232.263L320.4 227.526L322.8 237L332.4 229.895L334.8 237L344.4 229.895L349.2 237L356.4 229.895L361.2 237L368.4 229.895L373.2 237L378 227.526L385.2 234.632L390 225.158L397.2 234.632L399.6 222.789L409.2 229.895V220.421L418.8 225.158V218.053L426 220.421V210.947L433.2 213.316L430.8 203.842H440.4L435.6 194.368H442.8L438 184.895H447.6L440.4 175.421L450 173.053L442.8 165.947L450 161.211L442.8 154.105L450 147L442.8 142.263L450 135.158L442.8 130.421L450 123.316L440.4 118.579L447.6 111.474L438 109.105L445.2 102L435.6 99.6316L440.4 90.1579L430.8 92.5263L435.6 83.0526L426 85.4211L428.4 75.9474L418.8 80.6842V68.8421L409.2 73.5789V64.1053L399.6 68.8421V59.3684L390 66.4737L387.6 57L378 66.4737L373.2 57L366 66.4737L361.2 57Z" fill="#FFF8DC"/>
<path d="M361.067 67L354.667 75.4211L350.4 67L344 75.4211L337.6 67L333.333 75.4211L326.933 69.1053L324.8 77.5263L316.267 71.2105V79.6316L307.733 75.4211V83.8421L301.333 79.6316L300 89.5L295 87L297.067 96.4737L290.667 94.3684L292.8 104.895L286.4 102.789L290.667 113.316H282.133L288.533 123.842H280L288.533 132.263L280 136.474L288.533 142.789L280 147L288.533 153.316L280 161.737L288.533 163.842L282.133 172.263L288.533 174.368L284.267 180.684L290.667 182.789L286.4 191.211H294.933L290.667 199.632H299.2L292.5 209.5L302.5 207L300 214.5L309.867 210.158V218.579L316.267 214.368L318.4 222.789L324.8 218.579L326.933 227L335.467 220.684L337.6 227L346.133 220.684L350.4 227L356.8 220.684L361.067 227L367.467 220.684L371.733 227L376 218.579L382.4 224.895L386.667 216.474L393.067 224.895L395.2 214.368L403.733 220.684V212.263L412.267 216.474V210.158L420 214.5V205.947L427.5 209.5L425 199.5L431.467 197.526L427.2 189.105H433.6L429.333 180.684H437.867L431.467 172.263L440 170.158L433.6 163.842L440 159.632L433.6 153.316L440 147L433.6 142.789L440 136.474L433.6 132.263L440 125.947L431.467 121.737L437.867 115.421L429.333 113.316L435.733 107L427.2 104.895L431.467 96.4737L422.933 98.5789L427.2 90.1579H420.8L422.5 82L415 84.5L413.661 75.4211L403.733 81.7368V73.3158L395.2 77.5263V69.1053L386.667 75.4211L384.533 67L376 75.4211L371.733 67L365.333 75.4211L361.067 67Z" fill="#C4B798"/>
</svg>