<svg xmlns="http://www.w3.org/2000/svg" viewBox="518 52 95 188" width="130" height="190">
<path d="M565 70L568.852 76.5009L573.362 70.4382L576.514 77.3061L581.633 71.7482L584.049 78.9079L589.721 73.9155L591.376 81.2885L597.539 76.9164L598.414 84.4219L605 80.718L605.085 88.2738L612.023 85.2786L611.318 92.8021L618.53 90.5484L617.043 97.9569L624.452 96.4696L622.198 103.682L629.721 102.977L626.726 109.915L634.282 110L630.578 116.586L638.084 117.461L633.712 123.624L641.085 125.279L636.092 130.951L643.252 133.367L637.694 138.486L644.562 141.638L638.499 146.148L645 150L638.499 153.852L644.562 158.362L637.694 161.514L643.252 166.633L636.092 169.049L641.085 174.721L633.712 176.376L638.084 182.539L630.578 183.414L634.282 190L626.726 190.085L629.721 197.023L622.198 196.318L624.452 203.53L617.043 202.043L618.53 209.452L611.318 207.198L612.023 214.721L605.085 211.726L605 219.282L598.414 215.578L597.539 223.084L591.376 218.712L589.721 226.085L584.049 221.092L581.633 228.252L576.514 222.694L573.362 229.562L568.852 223.499L565 230L561.148 223.499L556.638 229.562L553.486 222.694L548.367 228.252L545.951 221.092L540.279 226.085L538.624 218.712L532.461 223.084L531.586 215.578L525 219.282L524.915 211.726L517.977 214.721L518.682 207.198L511.47 209.452L512.957 202.043L505.548 203.53L507.802 196.318L500.279 197.023L503.274 190.085L495.718 190L499.422 183.414L491.916 182.539L496.288 176.376L488.915 174.721L493.908 169.049L486.748 166.633L492.306 161.514L485.438 158.362L491.501 153.852L485 150L491.501 146.148L485.438 141.638L492.306 138.486L486.748 133.367L493.908 130.951L488.915 125.279L496.288 123.624L491.916 117.461L499.422 116.586L495.718 110L503.274 109.915L500.279 102.977L507.802 103.682L505.548 96.4696L512.957 97.9569L511.47 90.5484L518.682 92.8021L517.977 85.2786L524.915 88.2738L525 80.718L531.586 84.4219L532.461 76.9164L538.624 81.2885L540.279 73.9155L545.951 78.9079L548.367 71.7482L553.486 77.3061L556.638 70.4382L561.148 76.5009L565 70Z" fill="#FFF8DC"/>
<path d="M565 80L568.37 85.6883L572.317 80.3835L575.074 86.3929L579.554 81.5297L581.668 87.7944L586.631 83.426L588.079 89.8774L593.472 86.0518L594.237 92.6192L600 89.3782L600.075 95.9896L606.145 93.3688L605.528 99.9518L611.839 97.9799L610.538 104.462L617.02 103.161L615.048 109.472L621.631 108.855L619.01 114.925L625.622 115L622.381 120.763L628.948 121.528L625.123 126.921L631.574 128.369L627.206 133.332L633.47 135.446L628.607 139.926L634.617 142.683L629.312 146.63L635 150L629.312 153.37L634.617 157.317L628.607 160.074L633.47 164.554L627.206 166.668L631.574 171.631L625.123 173.079L628.948 178.472L622.381 179.237L625.622 185L619.01 185.075L621.631 191.145L615.048 190.528L617.02 196.839L610.538 195.538L611.839 202.02L605.528 200.048L606.145 206.631L600.075 204.01L600 210.622L594.237 207.381L593.472 213.948L588.079 210.123L586.631 216.574L581.668 212.206L579.554 218.47L575.074 213.607L572.317 219.617L568.37 214.312L565 220L561.63 214.312L557.683 219.617L554.926 213.607L550.446 218.47L548.332 212.206L543.369 216.574L541.921 210.123L536.528 213.948L535.763 207.381L530 210.622L529.925 204.01L523.855 206.631L524.472 200.048L518.161 202.02L519.462 195.538L512.98 196.839L514.952 190.528L508.369 191.145L510.99 185.075L504.378 185L507.619 179.237L501.052 178.472L504.877 173.079L498.426 171.631L502.794 166.668L496.53 164.554L501.393 160.074L495.383 157.317L500.688 153.37L495 150L500.688 146.63L495.383 142.683L501.393 139.926L496.53 135.446L502.794 133.332L498.426 128.369L504.877 126.921L501.052 121.528L507.619 120.763L504.378 115L510.99 114.925L508.369 108.855L514.952 109.472L512.98 103.161L519.462 104.462L518.161 97.9799L524.472 99.9518L523.855 93.3688L529.925 95.9896L530 89.3782L535.763 92.6192L536.528 86.0518L541.921 89.8774L543.369 83.426L548.332 87.7944L550.446 81.5297L554.926 86.3929L557.683 80.3835L561.63 85.6883L565 80Z" fill="#D0C3A1"/>
<g transform="translate(478 42) scale(1.35)">
<path d="M82 117V111H88" stroke="#B17E66" stroke-width="0.5" stroke-linecap="round"/>
<path fill-rule="evenodd" clip-rule="evenodd" d="M87.4242 122.182L92.0578 126.815C92.4442 127.202 93.0706 127.202 93.4569 126.815C93.4595 126.813 93.462 126.81 93.4645 126.808L98.0906 122.182C99.4295 120.843 99.4295 118.672 98.0906 117.333C96.7518 115.994 94.5811 115.994 93.2423 117.333C92.9745 117.601 92.5403 117.601 92.2725 117.333C90.9337 115.994 88.763 115.994 87.4242 117.333C86.0853 118.672 86.0853 120.843 87.4242 122.182Z"/>
<path fill-rule="evenodd" clip-rule="evenodd" d="M87.4242 122.182L92.0578 126.815C92.4442 127.202 93.0706 127.202 93.4569 126.815C93.4595 126.813 93.462 126.81 93.4645 126.808L98.0906 122.182C99.4295 120.843 99.4295 118.672 98.0906 117.333C96.7518 115.994 94.5811 115.994 93.2423 117.333C92.9745 117.601 92.5403 117.601 92.2725 117.333C90.9337 115.994 88.763 115.994 87.4242 117.333C86.0853 118.672 86.0853 120.843 87.4242 122.182Z" fill="url(#paint0_linear_0_1)"/>
<path d="M92.4114 126.462L87.7777 121.828L87.0706 122.535L91.7042 127.169L92.4114 126.462ZM93.111 126.454C93.1097 126.455 93.1084 126.457 93.1071 126.458L93.8068 127.172C93.8105 127.169 93.8143 127.165 93.8181 127.161L93.111 126.454ZM97.7371 121.828L93.111 126.454L93.8181 127.161L98.4442 122.535L97.7371 121.828ZM97.7371 117.687C98.8806 118.83 98.8806 120.684 97.7371 121.828L98.4442 122.535C99.9783 121.001 99.9783 118.514 98.4442 116.98L97.7371 117.687ZM93.5958 117.687C94.7394 116.543 96.5935 116.543 97.7371 117.687L98.4442 116.98C96.9101 115.446 94.4228 115.446 92.8887 116.98L93.5958 117.687ZM87.7777 117.687C88.9213 116.543 90.7754 116.543 91.919 117.687L92.6261 116.98C91.092 115.446 88.6047 115.446 87.0706 116.98L87.7777 117.687ZM87.7777 121.828C86.6342 120.684 86.6342 118.83 87.7777 117.687L87.0706 116.98C85.5365 118.514 85.5365 121.001 87.0706 122.535L87.7777 121.828ZM92.8887 116.98C92.8162 117.052 92.6986 117.052 92.6261 116.98L91.919 117.687C92.382 118.15 93.1328 118.15 93.5958 117.687L92.8887 116.98ZM91.7042 127.169C92.2859 127.75 93.2289 127.75 93.8105 127.169L93.1034 126.462C92.9123 126.653 92.6024 126.653 92.4114 126.462L91.7042 127.169Z" fill="#652017" mask="url(#path-7-inside-1_0_1)"/>
<path d="M93 118C93.6667 117.333 95.4 116.2 97 117" stroke="white" stroke-opacity="0.3" stroke-width="0.2"/>
<path d="M87.5786 164.497C87.5307 164.501 87.4873 164.493 87.4483 164.471C87.3827 164.433 87.332 164.384 87.2962 164.327C87.265 164.273 87.2446 164.211 87.2352 164.139C87.22 164.024 87.2292 163.896 87.2627 163.753C87.2962 163.61 87.3397 163.466 87.3932 163.322C87.4461 163.174 87.4966 163.038 87.5447 162.914C87.5968 162.789 87.6296 162.687 87.6431 162.606C87.6576 162.532 87.6625 162.478 87.6577 162.442C87.6525 162.403 87.6359 162.384 87.608 162.386C87.5761 162.388 87.5317 162.418 87.4746 162.474C87.4211 162.527 87.3704 162.585 87.3224 162.648C87.2744 162.712 87.2403 162.759 87.22 162.789C87.1448 162.891 87.0823 163.012 87.0323 163.152C86.9863 163.291 86.952 163.428 86.9294 163.562C86.9068 163.696 86.891 163.806 86.882 163.89C86.8807 163.911 86.8794 163.947 86.8782 163.999C86.8771 164.051 86.8623 164.076 86.8338 164.074C86.7889 164.07 86.7588 164.04 86.7435 163.985C86.7276 163.926 86.7154 163.879 86.7067 163.844C86.6985 163.812 86.6926 163.783 86.6889 163.755C86.6847 163.723 86.6808 163.694 86.6771 163.666C86.651 163.468 86.6451 163.286 86.6595 163.12C86.6774 162.951 86.6956 162.799 86.7143 162.665C86.7329 162.532 86.7362 162.419 86.7241 162.328C86.7131 162.245 86.6825 162.181 86.6324 162.137C86.6138 162.118 86.5906 162.11 86.5627 162.112C86.5108 162.116 86.4565 162.163 86.3997 162.251C86.3469 162.339 86.2997 162.455 86.2582 162.599C86.2202 162.738 86.192 162.89 86.1736 163.056C86.1591 163.221 86.1627 163.385 86.1841 163.548C86.1888 163.584 86.1936 163.619 86.1983 163.655C86.207 163.69 86.2154 163.724 86.2236 163.755C86.2312 163.783 86.2432 163.828 86.2596 163.891C86.2754 163.949 86.2867 164.005 86.2936 164.056C86.3004 164.108 86.2994 164.146 86.2905 164.171L86.2853 164.177C86.256 164.199 86.2254 164.212 86.1935 164.214C86.1537 164.217 86.1199 164.206 86.0923 164.18C86.0547 164.139 86.0234 164.085 85.9986 164.019C85.9777 163.952 85.9596 163.892 85.9443 163.837C85.9137 163.727 85.8802 163.595 85.8438 163.442C85.8069 163.285 85.7683 163.129 85.7279 162.976C85.691 162.819 85.6498 162.69 85.6043 162.589C85.581 162.535 85.5538 162.481 85.5225 162.427C85.4907 162.37 85.4451 162.329 85.3856 162.306C85.3811 162.302 85.3783 162.296 85.3772 162.288C85.3757 162.276 85.3886 162.267 85.416 162.261C85.4474 162.255 85.4676 162.255 85.4766 162.263C85.5385 162.274 85.5997 162.325 85.6601 162.417C85.7205 162.508 85.7751 162.616 85.8237 162.74C85.8758 162.861 85.9215 162.977 85.9606 163.09C86.0037 163.203 86.0369 163.287 86.0601 163.341C86.0627 163.269 86.0652 163.196 86.0678 163.124C86.0703 163.052 86.0748 162.979 86.0814 162.907C86.0984 162.761 86.122 162.619 86.152 162.481C86.1815 162.338 86.2339 162.216 86.3091 162.114C86.3877 162.008 86.5015 161.939 86.6504 161.907C86.7052 161.895 86.7744 161.916 86.858 161.969C86.9416 162.023 86.9916 162.111 87.0078 162.234C87.0099 162.25 87.0103 162.268 87.0089 162.288C87.011 162.304 87.0114 162.322 87.01 162.342C87.0086 162.362 86.9968 162.425 86.9745 162.531C86.9562 162.637 86.9343 162.761 86.9088 162.903C86.8827 163.041 86.8621 163.175 86.8469 163.304C86.9108 163.147 86.9889 162.991 87.0812 162.835C87.1769 162.676 87.2781 162.542 87.3846 162.433C87.4123 162.399 87.46 162.363 87.5276 162.326C87.5992 162.288 87.6669 162.267 87.7307 162.262C87.7745 162.259 87.812 162.268 87.8431 162.29C87.8781 162.311 87.8996 162.351 87.9074 162.411C87.909 162.423 87.9108 162.437 87.9129 162.452C87.9145 162.464 87.9143 162.478 87.9124 162.495C87.9042 162.615 87.8724 162.756 87.8171 162.917C87.7612 163.073 87.6999 163.234 87.6331 163.4C87.5703 163.565 87.5179 163.717 87.4758 163.856C87.4373 163.992 87.4315 164.1 87.4584 164.182C87.4833 164.248 87.5155 164.294 87.555 164.319C87.5986 164.344 87.6403 164.354 87.6802 164.351C87.736 164.347 87.7761 164.33 87.8003 164.3C87.8072 164.291 87.8176 164.279 87.8315 164.262C87.8499 164.248 87.8648 164.239 87.8762 164.234C87.8882 164.233 87.8905 164.251 87.8833 164.288C87.8814 164.304 87.8715 164.321 87.8537 164.338C87.8363 164.359 87.8242 164.374 87.8173 164.383C87.7499 164.452 87.6703 164.49 87.5786 164.497ZM88.566 166.44C88.4105 166.452 88.2794 166.42 88.1726 166.344C88.0665 166.272 88.0045 166.169 87.9867 166.034C87.971 165.915 87.9891 165.794 88.0412 165.669C88.0899 165.55 88.155 165.432 88.2365 165.318C88.3226 165.207 88.4103 165.108 88.4995 165.021C88.6567 164.869 88.8468 164.722 89.0698 164.58C89.2968 164.439 89.5577 164.324 89.8524 164.237C89.8507 164.193 89.8466 164.148 89.8404 164.1C89.8346 164.056 89.8288 164.013 89.8231 163.969C89.7807 163.648 89.7202 163.358 89.6418 163.1C89.5629 162.837 89.4829 162.613 89.4019 162.427C89.2943 162.832 89.1959 163.17 89.1068 163.442C89.0172 163.709 88.978 163.93 88.989 164.106C88.9887 164.134 88.9747 164.165 88.947 164.199C88.9238 164.237 88.8942 164.257 88.8583 164.26C88.8344 164.262 88.8086 164.25 88.781 164.224C88.758 164.202 88.7382 164.159 88.7219 164.096C88.7198 164.081 88.7149 164.059 88.7073 164.031C88.7036 164.004 88.6971 163.954 88.6876 163.883C88.6782 163.811 88.6641 163.704 88.6452 163.562C88.6285 163.435 88.6075 163.306 88.5822 163.176C88.5604 163.041 88.53 162.917 88.4908 162.804C88.4517 162.691 88.4035 162.601 88.3463 162.533C88.293 162.465 88.2264 162.434 88.1467 162.44C88.0829 162.445 88.0262 162.474 87.9766 162.526C87.9311 162.577 87.8935 162.628 87.8639 162.679C87.8337 162.725 87.8087 162.749 87.7888 162.751C87.7728 162.752 87.7641 162.746 87.7625 162.735C87.7614 162.727 87.7658 162.714 87.7757 162.697C87.7811 162.677 87.787 162.661 87.7934 162.648C87.8224 162.594 87.8615 162.539 87.9105 162.483C87.9635 162.427 88.0196 162.378 88.0787 162.337C88.1413 162.293 88.1985 162.268 88.2503 162.264C88.358 162.256 88.4491 162.305 88.5235 162.411C88.5975 162.514 88.6574 162.647 88.7034 162.812C88.7533 162.976 88.7897 163.146 88.8128 163.32C88.8227 163.396 88.8308 163.487 88.8369 163.595C88.8431 163.702 88.8452 163.794 88.8432 163.871C88.9036 163.718 88.9783 163.506 89.0674 163.234C89.1564 162.963 89.253 162.657 89.3571 162.317L89.2828 162.166L89.2805 162.148C89.2753 162.109 89.2833 162.078 89.3046 162.056C89.3299 162.034 89.3565 162.022 89.3844 162.02C89.4084 162.018 89.4331 162.022 89.4586 162.032C89.4841 162.042 89.5024 162.059 89.5135 162.082C89.5755 162.186 89.6347 162.329 89.6913 162.513C89.7518 162.697 89.8044 162.897 89.8491 163.114C89.8974 163.326 89.9353 163.538 89.9631 163.748C89.984 163.907 89.9977 164.056 90.004 164.195C90.1011 164.168 90.2047 164.144 90.3148 164.123C90.4289 164.102 90.5278 164.089 90.6116 164.082C90.6634 164.078 90.6904 164.084 90.6925 164.1C90.6967 164.132 90.6574 164.155 90.5747 164.169C90.48 164.185 90.3836 164.202 90.2855 164.222C90.1919 164.245 90.0968 164.272 90.0002 164.304C89.9767 164.766 89.8933 165.141 89.7499 165.429C89.6111 165.72 89.4571 165.942 89.288 166.096C89.1655 166.205 89.0414 166.287 88.9155 166.341C88.7942 166.398 88.6777 166.431 88.566 166.44ZM88.5017 166.319C88.5695 166.314 88.6454 166.294 88.7295 166.259C88.8175 166.224 88.9075 166.173 88.9993 166.106C89.2938 165.895 89.5099 165.64 89.6476 165.341C89.7859 165.046 89.8552 164.716 89.8554 164.351C89.6285 164.433 89.4032 164.542 89.1797 164.68C88.9606 164.821 88.7641 164.981 88.5901 165.158C88.5124 165.24 88.4359 165.332 88.3607 165.434C88.2895 165.536 88.2326 165.639 88.1898 165.742C88.1476 165.85 88.1328 165.951 88.1453 166.046C88.1574 166.137 88.1947 166.206 88.2574 166.254C88.3205 166.305 88.402 166.327 88.5017 166.319ZM92.4286 164.831C92.3369 164.838 92.2621 164.806 92.2043 164.734C92.1505 164.662 92.117 164.577 92.1039 164.478C92.0882 164.359 92.0921 164.22 92.1155 164.062C92.1435 163.908 92.1809 163.748 92.2278 163.585C92.2741 163.417 92.3232 163.255 92.3751 163.098C92.431 162.942 92.479 162.802 92.5191 162.679C92.5632 162.555 92.591 162.461 92.6026 162.396C92.6171 162.323 92.622 162.268 92.6173 162.232C92.612 162.193 92.5955 162.174 92.5676 162.176C92.5356 162.179 92.4912 162.208 92.4342 162.265C92.3807 162.317 92.3279 162.375 92.2759 162.439C92.228 162.503 92.1938 162.55 92.1736 162.579C92.0648 162.732 91.9701 162.899 91.8894 163.082C91.8128 163.264 91.7706 163.418 91.7629 163.542C91.7615 163.563 91.7583 163.599 91.7531 163.651C91.7519 163.704 91.7371 163.729 91.7087 163.727C91.6678 163.722 91.6367 163.7 91.6155 163.662C91.5978 163.619 91.5846 163.58 91.5759 163.545C91.5733 163.525 91.5687 163.505 91.5621 163.486C91.5589 163.462 91.5558 163.438 91.5526 163.415C91.527 163.22 91.5198 162.998 91.5313 162.749C91.5427 162.5 91.5652 162.244 91.599 161.981C91.6368 161.717 91.6808 161.472 91.7313 161.243C91.7817 161.015 91.8331 160.825 91.8856 160.673C91.912 160.598 91.943 160.528 91.9785 160.461C92.0135 160.39 92.0529 160.353 92.0968 160.35C92.1247 160.348 92.1504 160.36 92.174 160.386C92.2016 160.412 92.2167 160.435 92.2194 160.454C92.2214 160.47 92.2019 160.536 92.1607 160.651C92.123 160.762 92.0741 160.91 92.0139 161.095C91.9532 161.276 91.8939 161.483 91.836 161.716C91.7821 161.949 91.7383 162.196 91.7045 162.459C91.6707 162.722 91.6594 162.988 91.6706 163.255C91.6711 163.259 91.6717 163.279 91.6725 163.315C91.6732 163.351 91.6739 163.387 91.6746 163.423C91.6793 163.459 91.6817 163.477 91.6817 163.477L91.6809 163.471L91.6869 163.47C91.6886 163.422 91.6965 163.375 91.7107 163.33C91.7289 163.285 91.7473 163.241 91.766 163.2C91.8542 162.952 91.9777 162.713 92.1363 162.48C92.2144 162.37 92.2983 162.273 92.3881 162.19C92.4773 162.103 92.5758 162.055 92.6834 162.047C92.7273 162.044 92.7668 162.053 92.8018 162.074C92.8369 162.095 92.8588 162.14 92.8677 162.207C92.8793 162.294 92.863 162.4 92.8189 162.523C92.7782 162.643 92.7244 162.769 92.6574 162.902C92.5939 163.031 92.5355 163.154 92.4824 163.27C92.4111 163.432 92.3491 163.603 92.2963 163.784C92.2471 163.96 92.2347 164.141 92.2593 164.327C92.2667 164.383 92.2785 164.442 92.2949 164.505C92.3152 164.567 92.3402 164.619 92.3699 164.661C92.4041 164.707 92.4451 164.728 92.493 164.724C92.5249 164.721 92.5535 164.709 92.5788 164.687C92.6086 164.669 92.6324 164.651 92.6503 164.634C92.6815 164.595 92.703 164.575 92.715 164.574C92.727 164.573 92.7337 164.579 92.7353 164.591C92.7384 164.615 92.7314 164.637 92.714 164.659C92.6972 164.684 92.6797 164.703 92.6613 164.717C92.6365 164.743 92.6015 164.767 92.5563 164.791C92.515 164.814 92.4725 164.828 92.4286 164.831ZM93.5598 163.77C93.4163 163.781 93.2796 163.707 93.15 163.549C93.0238 163.387 92.9366 163.123 92.8884 162.758C92.857 162.52 92.8618 162.328 92.9027 162.18C92.9432 162.029 93.0028 161.916 93.0817 161.842C93.1605 161.768 93.2398 161.727 93.3196 161.721C93.3993 161.715 93.4708 161.738 93.5339 161.789C93.5966 161.836 93.6344 161.909 93.6475 162.008C93.6601 162.104 93.6455 162.207 93.6038 162.318C93.5616 162.426 93.5064 162.526 93.4382 162.619C93.3734 162.709 93.3049 162.77 93.2328 162.804C93.2179 162.813 93.1985 162.818 93.1746 162.82C93.1586 162.821 93.1499 162.816 93.1483 162.804C93.1441 162.772 93.1713 162.734 93.2299 162.69C93.3023 162.628 93.3671 162.539 93.4242 162.422C93.4808 162.302 93.5033 162.198 93.4918 162.111C93.485 162.059 93.4678 162.02 93.4402 161.994C93.4121 161.965 93.3821 161.951 93.3502 161.953C93.2904 161.958 93.2308 162.011 93.1716 162.111C93.1159 162.208 93.087 162.37 93.0849 162.599C93.0853 162.663 93.0855 162.725 93.0853 162.785C93.0887 162.841 93.094 162.897 93.1013 162.952C93.1307 163.174 93.1876 163.346 93.2722 163.468C93.3562 163.585 93.454 163.64 93.5657 163.631C93.6614 163.624 93.7618 163.56 93.8667 163.44C93.9712 163.315 94.0653 163.128 94.149 162.877C94.1685 162.811 94.1962 162.777 94.2321 162.774C94.2561 162.772 94.2701 162.787 94.2743 162.819C94.278 162.847 94.2739 162.877 94.2622 162.91C94.192 163.172 94.0923 163.378 93.963 163.528C93.8338 163.679 93.6994 163.759 93.5598 163.77ZM94.4062 163.578C94.3344 163.584 94.2786 163.558 94.2389 163.501C94.1986 163.44 94.173 163.368 94.162 163.285C94.1478 163.177 94.1493 163.051 94.1663 162.906C94.1874 162.76 94.2198 162.609 94.2637 162.453C94.3071 162.294 94.3603 162.147 94.4233 162.014C94.4898 161.877 94.5637 161.765 94.6449 161.679C94.7256 161.588 94.8099 161.54 94.8976 161.533C94.9774 161.527 95.0499 161.557 95.1151 161.624C95.1839 161.687 95.224 161.762 95.2355 161.849C95.2423 161.901 95.2401 161.945 95.2289 161.982C95.2171 162.015 95.2012 162.032 95.1813 162.034C95.1654 162.035 95.1498 162.024 95.1347 162.001C95.0828 161.913 95.0303 161.851 94.9772 161.815C94.9281 161.779 94.8796 161.763 94.8318 161.766C94.752 161.773 94.6783 161.824 94.6105 161.922C94.5463 162.015 94.4978 162.121 94.4651 162.24C94.4368 162.33 94.4128 162.438 94.3931 162.564C94.3769 162.685 94.3647 162.806 94.3565 162.927C94.3517 163.044 94.3543 163.139 94.3643 163.215C94.3821 163.35 94.4229 163.415 94.4867 163.41C94.5665 163.403 94.6566 163.308 94.7572 163.124C94.8322 162.99 94.8946 162.837 94.9444 162.665C94.9981 162.493 95.0428 162.343 95.0785 162.216C95.0932 162.175 95.1117 162.147 95.1341 162.134C95.1564 162.12 95.1776 162.112 95.1975 162.111C95.2454 162.107 95.2779 162.124 95.2951 162.163C95.3163 162.202 95.3287 162.235 95.3324 162.262C95.346 162.366 95.3483 162.46 95.3394 162.544C95.3299 162.625 95.3328 162.723 95.3479 162.838C95.3589 162.921 95.3751 162.998 95.3965 163.069C95.4214 163.135 95.4517 163.167 95.4876 163.164C95.5315 163.16 95.58 163.101 95.6331 162.984C95.6449 162.951 95.6667 162.934 95.6986 162.931C95.7345 162.928 95.7548 162.945 95.7596 162.981C95.7664 163.032 95.7378 163.09 95.6739 163.155C95.6094 163.217 95.5413 163.25 95.4695 163.255C95.3738 163.263 95.3008 163.228 95.2504 163.152C95.1653 163.027 95.116 162.912 95.1024 162.809C95.0882 162.702 95.0766 162.629 95.0673 162.589C95.0537 162.639 95.0257 162.717 94.9835 162.824C94.9408 162.928 94.8888 163.038 94.8277 163.155C94.7661 163.268 94.6984 163.365 94.6246 163.447C94.5508 163.529 94.478 163.573 94.4062 163.578ZM96.6095 163.756C96.4819 163.766 96.3763 163.714 96.2928 163.6C96.2098 163.491 96.1591 163.366 96.1408 163.227C96.1235 163.097 96.1274 162.958 96.1524 162.812C96.1775 162.666 96.2127 162.521 96.2582 162.377C96.3077 162.233 96.3607 162.101 96.4173 161.98C96.3492 162.013 96.2832 162.033 96.2194 162.038C96.1875 162.04 96.1591 162.038 96.1341 162.032C96.1091 162.026 96.0884 162.022 96.0719 162.019C96.0582 162.068 96.0328 162.15 95.9956 162.265C95.9624 162.38 95.926 162.501 95.8864 162.628C95.8503 162.751 95.8178 162.856 95.7889 162.942C95.7429 163.082 95.696 163.154 95.6481 163.157C95.6242 163.159 95.6101 163.144 95.6059 163.113C95.6028 163.089 95.6086 163.056 95.6233 163.015C95.6925 162.838 95.756 162.662 95.8138 162.49C95.8755 162.317 95.9301 162.15 95.9775 161.99C95.9669 161.971 95.9555 161.946 95.9433 161.915C95.9306 161.88 95.9217 161.842 95.9164 161.803C95.9107 161.759 95.9086 161.713 95.9103 161.665C95.9155 161.612 95.9249 161.562 95.9386 161.512C95.9469 161.484 95.9635 161.442 95.9886 161.388C96.0132 161.33 96.0426 161.278 96.0767 161.231C96.1103 161.181 96.145 161.154 96.1809 161.151C96.2487 161.146 96.2873 161.179 96.2968 161.25C96.3057 161.318 96.2939 161.397 96.2616 161.487C96.2332 161.578 96.2021 161.662 96.1682 161.741C96.1337 161.816 96.1189 161.871 96.1236 161.907C96.1278 161.938 96.1458 161.953 96.1777 161.951C96.2216 161.947 96.2725 161.921 96.3306 161.873C96.3921 161.82 96.4402 161.772 96.4748 161.729C96.4921 161.708 96.5201 161.676 96.5588 161.633C96.5969 161.586 96.6359 161.561 96.6757 161.558C96.7156 161.554 96.7431 161.564 96.7582 161.587C96.7773 161.61 96.789 161.637 96.7931 161.669C96.7979 161.704 96.7879 161.751 96.7633 161.809C96.7383 161.863 96.7072 161.918 96.6701 161.973C96.637 162.027 96.6089 162.073 96.5857 162.111C96.5409 162.199 96.4909 162.309 96.4359 162.441C96.3809 162.574 96.3371 162.715 96.3046 162.866C96.2716 163.013 96.2638 163.152 96.2811 163.283C96.2926 163.37 96.3266 163.459 96.383 163.551C96.4394 163.643 96.5055 163.686 96.5813 163.68C96.6491 163.675 96.7162 163.634 96.7825 163.556C96.8529 163.479 96.9154 163.388 96.9701 163.283C97.0288 163.179 97.078 163.079 97.1178 162.984C97.1616 162.888 97.1911 162.822 97.2064 162.784C97.2117 162.764 97.2225 162.739 97.2388 162.71C97.2546 162.676 97.2764 162.659 97.3043 162.657C97.3282 162.655 97.3418 162.666 97.3449 162.69C97.3475 162.709 97.3447 162.734 97.3364 162.762C97.3316 162.787 97.3265 162.809 97.3211 162.83C97.2962 162.916 97.2639 163.006 97.2241 163.101C97.1843 163.197 97.1565 163.261 97.1407 163.294C97.0969 163.39 97.0252 163.487 96.9256 163.587C96.8305 163.691 96.7251 163.747 96.6095 163.756ZM97.9571 164.313C97.9172 164.316 97.8719 164.293 97.8213 164.245C97.7751 164.201 97.7283 164.136 97.6809 164.052C97.6022 163.913 97.5405 163.766 97.4956 163.609C97.4512 163.456 97.4186 163.301 97.3977 163.142C97.3746 162.968 97.3641 162.796 97.366 162.628C97.3679 162.459 97.374 162.307 97.3841 162.17C97.3914 162.073 97.402 161.97 97.4158 161.861C97.4296 161.752 97.4442 161.664 97.4598 161.599C97.4364 161.605 97.4003 161.622 97.3516 161.649C97.3029 161.677 97.2522 161.705 97.1995 161.733C97.1508 161.761 97.1065 161.777 97.0667 161.78C97.0068 161.784 96.9725 161.753 96.9636 161.685C96.9589 161.65 96.9666 161.617 96.9869 161.588C97.0112 161.558 97.0422 161.533 97.08 161.514C97.155 161.472 97.2393 161.44 97.333 161.416C97.4261 161.389 97.4873 161.364 97.5165 161.342L97.6202 160.938C97.631 160.897 97.6505 160.831 97.6789 160.741C97.7107 160.646 97.7477 160.545 97.7899 160.438C97.8361 160.33 97.8816 160.232 97.9265 160.145C97.962 160.078 97.9973 160.025 98.0325 159.986C98.0671 159.943 98.1084 159.92 98.1562 159.917C98.228 159.911 98.2676 159.936 98.2749 159.991C98.2791 160.023 98.2714 160.072 98.2519 160.137C98.2363 160.203 98.2015 160.29 98.1473 160.398C98.0872 160.523 98.0252 160.648 97.9611 160.773C97.9005 160.894 97.8507 161.02 97.8116 161.151C97.8097 161.167 97.8031 161.194 97.7919 161.231C97.7841 161.263 97.7768 161.284 97.7698 161.293L97.8871 161.265C97.9185 161.259 97.9541 161.254 97.994 161.251C98.0334 161.244 98.077 161.239 98.1248 161.235C98.1926 161.23 98.257 161.229 98.3178 161.232C98.3822 161.231 98.4353 161.237 98.4773 161.25C98.4983 161.256 98.5175 161.265 98.5351 161.275C98.5561 161.282 98.5671 161.289 98.5681 161.297C98.5702 161.313 98.5194 161.325 98.4157 161.333C98.3559 161.337 98.2715 161.354 98.1624 161.382C98.0574 161.41 97.9379 161.452 97.8041 161.506C97.7389 161.531 97.6967 161.563 97.6775 161.6C97.6583 161.638 97.6376 161.725 97.6156 161.863C97.584 162.082 97.5634 162.292 97.5537 162.493C97.5434 162.69 97.5417 162.891 97.5485 163.094C97.5497 163.134 97.5512 163.176 97.553 163.22C97.5588 163.264 97.565 163.311 97.5719 163.363C97.5897 163.498 97.6202 163.638 97.6635 163.783C97.7108 163.927 97.7674 164.051 97.8334 164.154C97.8485 164.177 97.8634 164.198 97.8779 164.217C97.8965 164.235 97.9163 164.248 97.9373 164.254C97.9668 164.264 97.9826 164.277 97.9847 164.293C97.9862 164.304 97.977 164.311 97.9571 164.313Z" fill="#F9E5CA"/>
<path d="M104 156V178H82" stroke="#FFF1E5" stroke-opacity="0.3" stroke-width="1.5" stroke-linecap="round"/>
<path d="M92.5011 382.125C91.2511 380.875 92.6747 379.521 93.5428 379H81.0417C80.2083 379 80 379.694 80 380.042V402.958C80 403.792 80.6944 404 81.0417 404H103.958C104.792 404 105 403.306 105 402.958V392.542C103.75 395.042 101.701 394.278 100.833 393.583C99.1667 396.5 97.3611 394.451 96.6667 393.062C92.9167 394.729 92.675 392.021 93.023 390.458C89.273 390.042 90.4183 387.507 91.4597 386.292C89.3764 384.208 91.2859 382.646 92.5011 382.125Z" fill="#643724" stroke="#643724" stroke-width="0.2"/>
<path d="M92.5011 247.125C91.2511 245.875 92.6747 244.521 93.5428 244H81.0417C80.2083 244 80 244.694 80 245.042V267.958C80 268.792 80.6944 269 81.0417 269H103.958C104.792 269 105 268.306 105 267.958V257.542C103.75 260.042 101.701 259.278 100.833 258.583C99.1667 261.5 97.3611 259.451 96.6667 258.062C92.9167 259.729 92.675 257.021 93.023 255.458C89.273 255.042 90.4183 252.507 91.4597 251.292C89.3764 249.208 91.2859 247.646 92.5011 247.125Z" fill="#643724" stroke="#643724" stroke-width="0.2"/>
<path d="M92.5011 292.125C91.2511 290.875 92.6747 289.521 93.5428 289H81.0417C80.2083 289 80 289.694 80 290.042V312.958C80 313.792 80.6944 314 81.0417 314H103.958C104.792 314 105 313.306 105 312.958V302.542C103.75 305.042 101.701 304.278 100.833 303.583C99.1667 306.5 97.3611 304.451 96.6667 303.062C92.9167 304.729 92.675 302.021 93.023 300.458C89.273 300.042 90.4183 297.507 91.4597 296.292C89.3764 294.208 91.2859 292.646 92.5011 292.125Z" fill="#643724" stroke="#643724" stroke-width="0.2"/>
<path d="M53.4063 16.5H52.4375C52.3802 16.2214 52.2799 15.9766 52.1367 15.7656C51.9961 15.5547 51.8242 15.3776 51.6211 15.2344C51.4206 15.0885 51.1979 14.9792 50.9531 14.9062C50.7083 14.8333 50.4531 14.7969 50.1875 14.7969C49.7031 14.7969 49.2643 14.9193 48.8711 15.1641C48.4805 15.4089 48.1693 15.7695 47.9375 16.2461C47.7083 16.7227 47.5938 17.3073 47.5938 18C47.5938 18.6927 47.7083 19.2773 47.9375 19.7539C48.1693 20.2305 48.4805 20.5911 48.8711 20.8359C49.2643 21.0807 49.7031 21.2031 50.1875 21.2031C50.4531 21.2031 50.7083 21.1667 50.9531 21.0937C51.1979 21.0208 51.4206 20.9128 51.6211 20.7695C51.8242 20.6237 51.9961 20.4453 52.1367 20.2344C52.2799 20.0208 52.3802 19.776 52.4375 19.5H53.4063C53.3333 19.9089 53.2005 20.2747 53.0078 20.5977C52.8151 20.9206 52.5755 21.1953 52.2891 21.4219C52.0026 21.6458 51.681 21.8164 51.3242 21.9336C50.9701 22.0508 50.5911 22.1094 50.1875 22.1094C49.5052 22.1094 48.8984 21.9427 48.3672 21.6094C47.8359 21.276 47.418 20.8021 47.1133 20.1875C46.8086 19.5729 46.6563 18.8437 46.6563 18C46.6563 17.1562 46.8086 16.4271 47.1133 15.8125C47.418 15.1979 47.8359 14.724 48.3672 14.3906C48.8984 14.0573 49.5052 13.8906 50.1875 13.8906C50.5911 13.8906 50.9701 13.9492 51.3242 14.0664C51.681 14.1836 52.0026 14.3555 52.2891 14.582C52.5755 14.806 52.8151 15.0794 53.0078 15.4023C53.2005 15.7227 53.3333 16.0885 53.4063 16.5ZM57.2842 22.125C56.7425 22.125 56.2673 21.9961 55.8584 21.7383C55.4521 21.4805 55.1344 21.1198 54.9053 20.6562C54.6787 20.1927 54.5654 19.651 54.5654 19.0312C54.5654 18.4062 54.6787 17.8607 54.9053 17.3945C55.1344 16.9284 55.4521 16.5664 55.8584 16.3086C56.2673 16.0508 56.7425 15.9219 57.2842 15.9219C57.8258 15.9219 58.2998 16.0508 58.7061 16.3086C59.1149 16.5664 59.4326 16.9284 59.6592 17.3945C59.8883 17.8607 60.0029 18.4062 60.0029 19.0312C60.0029 19.651 59.8883 20.1927 59.6592 20.6562C59.4326 21.1198 59.1149 21.4805 58.7061 21.7383C58.2998 21.9961 57.8258 22.125 57.2842 22.125ZM57.2842 21.2969C57.6956 21.2969 58.0342 21.1914 58.2998 20.9805C58.5654 20.7695 58.762 20.4922 58.8896 20.1484C59.0173 19.8047 59.0811 19.4323 59.0811 19.0312C59.0811 18.6302 59.0173 18.2565 58.8896 17.9102C58.762 17.5638 58.5654 17.2839 58.2998 17.0703C58.0342 16.8568 57.6956 16.75 57.2842 16.75C56.8727 16.75 56.5342 16.8568 56.2686 17.0703C56.0029 17.2839 55.8063 17.5638 55.6787 17.9102C55.5511 18.2565 55.4873 18.6302 55.4873 19.0312C55.4873 19.4323 55.5511 19.8047 55.6787 20.1484C55.8063 20.4922 56.0029 20.7695 56.2686 20.9805C56.5342 21.1914 56.8727 21.2969 57.2842 21.2969ZM61.4102 22V16H62.3008V16.9375H62.3789C62.5039 16.6172 62.7057 16.3685 62.9844 16.1914C63.263 16.0117 63.5977 15.9219 63.9883 15.9219C64.3841 15.9219 64.7135 16.0117 64.9766 16.1914C65.2422 16.3685 65.4492 16.6172 65.5977 16.9375H65.6602C65.8138 16.6276 66.0443 16.3815 66.3516 16.1992C66.6589 16.0143 67.0273 15.9219 67.457 15.9219C67.9935 15.9219 68.4323 16.0898 68.7734 16.4258C69.1146 16.7591 69.2852 17.2786 69.2852 17.9844V22H68.3633V17.9844C68.3633 17.5417 68.2422 17.2253 68 17.0352C67.7578 16.8451 67.4727 16.75 67.1445 16.75C66.7227 16.75 66.3958 16.8776 66.1641 17.1328C65.9323 17.3854 65.8164 17.7057 65.8164 18.0937V22H64.8789V17.8906C64.8789 17.5495 64.7682 17.2747 64.5469 17.0664C64.3255 16.8555 64.0404 16.75 63.6914 16.75C63.4518 16.75 63.2279 16.8138 63.0195 16.9414C62.8138 17.069 62.6471 17.2461 62.5195 17.4727C62.3945 17.6966 62.332 17.9557 62.332 18.25V22H61.4102ZM70.9707 24.25V16H71.8613V16.9531H71.9707C72.0384 16.849 72.1322 16.7161 72.252 16.5547C72.3743 16.3906 72.5488 16.2448 72.7754 16.1172C73.0046 15.987 73.3145 15.9219 73.7051 15.9219C74.2103 15.9219 74.6556 16.0482 75.041 16.3008C75.4264 16.5534 75.7272 16.9115 75.9434 17.375C76.1595 17.8385 76.2676 18.3854 76.2676 19.0156C76.2676 19.651 76.1595 20.2018 75.9434 20.668C75.7272 21.1315 75.4277 21.4909 75.0449 21.7461C74.6621 21.9987 74.2207 22.125 73.7207 22.125C73.3353 22.125 73.0267 22.0612 72.7949 21.9336C72.5632 21.8034 72.3848 21.6562 72.2598 21.4922C72.1348 21.3255 72.0384 21.1875 71.9707 21.0781H71.8926V24.25H70.9707ZM71.877 19C71.877 19.4531 71.9434 19.8529 72.0762 20.1992C72.209 20.543 72.403 20.8125 72.6582 21.0078C72.9134 21.2005 73.2259 21.2969 73.5957 21.2969C73.9811 21.2969 74.3027 21.1953 74.5605 20.9922C74.821 20.7865 75.0163 20.5104 75.1465 20.1641C75.2793 19.8151 75.3457 19.4271 75.3457 19C75.3457 18.5781 75.2806 18.1979 75.1504 17.8594C75.0228 17.5182 74.8288 17.2487 74.5684 17.0508C74.3105 16.8503 73.9863 16.75 73.5957 16.75C73.2207 16.75 72.9056 16.8451 72.6504 17.0352C72.3952 17.2227 72.2025 17.4857 72.0723 17.8242C71.9421 18.1602 71.877 18.5521 71.877 19ZM80.1113 22.125C79.5697 22.125 79.0944 21.9961 78.6855 21.7383C78.2793 21.4805 77.9616 21.1198 77.7324 20.6562C77.5059 20.1927 77.3926 19.651 77.3926 19.0312C77.3926 18.4062 77.5059 17.8607 77.7324 17.3945C77.9616 16.9284 78.2793 16.5664 78.6855 16.3086C79.0944 16.0508 79.5697 15.9219 80.1113 15.9219C80.653 15.9219 81.127 16.0508 81.5332 16.3086C81.9421 16.5664 82.2598 16.9284 82.4863 17.3945C82.7155 17.8607 82.8301 18.4062 82.8301 19.0312C82.8301 19.651 82.7155 20.1927 82.4863 20.6562C82.2598 21.1198 81.9421 21.4805 81.5332 21.7383C81.127 21.9961 80.653 22.125 80.1113 22.125ZM80.1113 21.2969C80.5228 21.2969 80.8613 21.1914 81.127 20.9805C81.3926 20.7695 81.5892 20.4922 81.7168 20.1484C81.8444 19.8047 81.9082 19.4323 81.9082 19.0312C81.9082 18.6302 81.8444 18.2565 81.7168 17.9102C81.5892 17.5638 81.3926 17.2839 81.127 17.0703C80.8613 16.8568 80.5228 16.75 80.1113 16.75C79.6999 16.75 79.3613 16.8568 79.0957 17.0703C78.8301 17.2839 78.6335 17.5638 78.5059 17.9102C78.3783 18.2565 78.3145 18.6302 78.3145 19.0312C78.3145 19.4323 78.3783 19.8047 78.5059 20.1484C78.6335 20.4922 78.8301 20.7695 79.0957 20.9805C79.3613 21.1914 79.6999 21.2969 80.1113 21.2969ZM85.1592 18.3906V22H84.2373V16H85.1279V16.9375H85.2061C85.3467 16.6328 85.5602 16.388 85.8467 16.2031C86.1331 16.0156 86.5029 15.9219 86.9561 15.9219C87.3623 15.9219 87.7178 16.0052 88.0225 16.1719C88.3271 16.3359 88.5641 16.5859 88.7334 16.9219C88.9027 17.2552 88.9873 17.6771 88.9873 18.1875V22H88.0654V18.25C88.0654 17.7786 87.943 17.4115 87.6982 17.1484C87.4535 16.8828 87.1175 16.75 86.6904 16.75C86.3962 16.75 86.1331 16.8138 85.9014 16.9414C85.6722 17.069 85.4912 17.2552 85.3584 17.5C85.2256 17.7448 85.1592 18.0417 85.1592 18.3906ZM93.1875 22.125C92.6094 22.125 92.1107 21.9974 91.6914 21.7422C91.2747 21.4844 90.9531 21.125 90.7266 20.6641C90.5026 20.2005 90.3906 19.6615 90.3906 19.0469C90.3906 18.4323 90.5026 17.8906 90.7266 17.4219C90.9531 16.9505 91.2682 16.5833 91.6719 16.3203C92.0781 16.0547 92.5521 15.9219 93.0938 15.9219C93.4063 15.9219 93.7148 15.974 94.0195 16.0781C94.3242 16.1823 94.6016 16.3516 94.8516 16.5859C95.1016 16.8177 95.3008 17.125 95.4492 17.5078C95.5977 17.8906 95.6719 18.362 95.6719 18.9219V19.3125H91.0469V18.5156H94.7344C94.7344 18.1771 94.6667 17.875 94.5313 17.6094C94.3984 17.3437 94.2083 17.1341 93.9609 16.9805C93.7161 16.8268 93.4271 16.75 93.0938 16.75C92.7266 16.75 92.4089 16.8411 92.1406 17.0234C91.875 17.2031 91.6706 17.4375 91.5273 17.7266C91.3841 18.0156 91.3125 18.3255 91.3125 18.6562V19.1875C91.3125 19.6406 91.3906 20.0247 91.5469 20.3398C91.7057 20.6523 91.9258 20.8906 92.207 21.0547C92.4883 21.2161 92.8151 21.2969 93.1875 21.2969C93.4297 21.2969 93.6484 21.263 93.8438 21.1953C94.0417 21.125 94.2122 21.0208 94.3555 20.8828C94.4987 20.7422 94.6094 20.5677 94.6875 20.3594L95.5781 20.6094C95.4844 20.9115 95.3268 21.1771 95.1055 21.4062C94.8841 21.6328 94.6107 21.8099 94.2852 21.9375C93.9596 22.0625 93.5938 22.125 93.1875 22.125ZM97.9961 18.3906V22H97.0742V16H97.9648V16.9375H98.043C98.1836 16.6328 98.3971 16.388 98.6836 16.2031C98.9701 16.0156 99.3398 15.9219 99.793 15.9219C100.199 15.9219 100.555 16.0052 100.859 16.1719C101.164 16.3359 101.401 16.5859 101.57 16.9219C101.74 17.2552 101.824 17.6771 101.824 18.1875V22H100.902V18.25C100.902 17.7786 100.78 17.4115 100.535 17.1484C100.29 16.8828 99.9544 16.75 99.5273 16.75C99.2331 16.75 98.9701 16.8138 98.7383 16.9414C98.5091 17.069 98.3281 17.2552 98.1953 17.5C98.0625 17.7448 97.9961 18.0417 97.9961 18.3906ZM106.118 16V16.7812H103.009V16H106.118ZM103.915 14.5625H104.837V20.2812C104.837 20.5417 104.875 20.737 104.95 20.8672C105.028 20.9948 105.127 21.0807 105.247 21.125C105.369 21.1667 105.498 21.1875 105.634 21.1875C105.735 21.1875 105.819 21.1823 105.884 21.1719C105.949 21.1589 106.001 21.1484 106.04 21.1406L106.228 21.9687C106.165 21.9922 106.078 22.0156 105.966 22.0391C105.854 22.0651 105.712 22.0781 105.54 22.0781C105.28 22.0781 105.024 22.0221 104.774 21.9102C104.527 21.7982 104.321 21.6276 104.157 21.3984C103.996 21.1693 103.915 20.8802 103.915 20.5312V14.5625ZM111.647 17.3437L110.819 17.5781C110.767 17.4401 110.69 17.306 110.589 17.1758C110.49 17.043 110.354 16.9336 110.183 16.8477C110.011 16.7617 109.791 16.7187 109.522 16.7187C109.155 16.7187 108.849 16.8034 108.604 16.9727C108.362 17.1393 108.241 17.3516 108.241 17.6094C108.241 17.8385 108.325 18.0195 108.491 18.1523C108.658 18.2852 108.918 18.3958 109.272 18.4844L110.163 18.7031C110.7 18.8333 111.099 19.0326 111.362 19.3008C111.625 19.5664 111.757 19.9089 111.757 20.3281C111.757 20.6719 111.658 20.9792 111.46 21.25C111.265 21.5208 110.991 21.7344 110.64 21.8906C110.288 22.0469 109.879 22.125 109.413 22.125C108.801 22.125 108.295 21.9922 107.894 21.7266C107.493 21.4609 107.239 21.0729 107.132 20.5625L108.007 20.3437C108.09 20.6667 108.248 20.9089 108.479 21.0703C108.714 21.2318 109.02 21.3125 109.397 21.3125C109.827 21.3125 110.168 21.2214 110.421 21.0391C110.676 20.8542 110.804 20.6328 110.804 20.375C110.804 20.1667 110.731 19.9922 110.585 19.8516C110.439 19.7083 110.215 19.6016 109.913 19.5312L108.913 19.2969C108.364 19.1667 107.96 18.9648 107.702 18.6914C107.447 18.4154 107.319 18.0703 107.319 17.6562C107.319 17.3177 107.414 17.0182 107.604 16.7578C107.797 16.4974 108.059 16.293 108.39 16.1445C108.723 15.9961 109.101 15.9219 109.522 15.9219C110.116 15.9219 110.582 16.0521 110.921 16.3125C111.262 16.5729 111.504 16.9167 111.647 17.3437Z" fill="black"/>
<rect x="80" y="109" width="25" height="25" rx="1" fill="#643724"/>
<rect x="82" y="111" width="21" height="21" fill="#794529"/>
<rect x="80" y="154" width="25" height="25" rx="1" fill="#643724"/>
</g>
</svg>