<svg width="49" height="69" viewBox="0 0 49 69" fill="none" xmlns="http://www.w3.org/2000/svg">
<path fill-rule="evenodd" clip-rule="evenodd" d="M30.1876 50.7599C30.2946 50.9011 30.3303 51.0069 30.4017 51.0304C30.4611 51.0422 30.6157 50.9834 30.6276 50.9246C30.8179 50.4777 30.9725 50.0073 31.1509 49.5486C30.9844 49.5016 30.7941 49.4428 30.6157 49.3957C30.4611 49.8661 30.3303 50.3366 30.1876 50.7599ZM15.715 45.0327C15.8696 44.9033 16.0361 44.774 16.2026 44.6564C15.8577 44.2448 15.5247 43.8449 15.1798 43.4333C15.049 43.5274 14.9182 43.6215 14.7874 43.7156C15.0966 44.1507 15.4058 44.5858 15.715 45.0327ZM25.8232 56.1814C26.4059 56.9575 26.7508 57.428 27.1194 57.8866C27.3573 57.6984 27.7497 57.522 27.8092 57.2868C27.9757 56.3578 27.393 56.0873 25.8232 56.1814ZM27.2384 50.2425C25.6805 51.195 25.1573 51.983 26.2394 53.6529C26.62 52.3828 26.8578 51.5361 27.2384 50.2425ZM43.9942 8.74071C44.2559 8.77599 44.5175 8.81127 44.7791 8.84655C44.9099 7.44709 46.8721 6.30635 44.8505 4.26007C44.5294 5.9653 44.2678 7.35301 43.9942 8.74071ZM12.4685 37.5532C12.2187 37.6473 11.969 37.7531 11.7074 37.8472C12.3377 39.2114 12.956 40.5873 13.5863 41.9633C14.5615 39.9523 12.7063 39.0703 12.4685 37.5532ZM14.1452 14.3268C13.9788 14.4091 13.8004 14.5032 13.6339 14.5855C13.8836 16.5965 15.6317 17.5726 16.6782 19.0191C16.8447 18.9015 17.0112 18.7957 17.1658 18.6898C16.155 17.2316 15.1442 15.7733 14.1452 14.3268ZM7.98516 9.1876C7.08137 8.87007 6.30838 8.56431 5.51162 8.34086C4.67917 8.0939 3.81106 7.52941 3.03808 8.47022C2.33645 9.34048 2.4197 10.199 2.97863 11.3632C4.26297 9.65801 6.68892 11.6337 7.97326 9.1876H7.98516ZM22.5291 58.0983C22.3032 58.2629 22.0653 58.4276 21.8275 58.5922C22.5529 60.6973 23.2783 62.8141 23.9918 64.9074C24.2297 64.9427 24.4675 64.9662 24.7054 64.9898C25.2167 64.0607 26.3346 62.9082 26.1086 62.2144C25.514 60.4738 24.3129 58.945 22.5291 58.0983ZM36.6093 35.7774C36.4071 35.6833 36.2169 35.601 36.0147 35.5069C33.8147 39.5407 32.1498 43.7508 31.4482 48.302C31.6265 48.3726 31.8168 48.4314 31.9952 48.502C33.5292 44.2565 35.0633 40.0229 36.6093 35.7774ZM14.3593 25.84C14.5496 25.746 14.7398 25.6519 14.9301 25.5578C13.8717 21.9709 13.7885 17.9019 9.53112 15.8556C11.1365 19.1838 12.7539 22.5119 14.3593 25.84ZM44.9575 17.3021C42.1034 21.2889 40.2601 25.5931 42.2342 28.3567C43.471 24.6052 44.8624 21.1242 44.9575 17.3021ZM17.9626 24.0407C17.7842 24.0995 17.6058 24.1466 17.4274 24.2054C18.1766 27.6629 18.9139 31.1321 19.7226 34.8248C20.6264 34.3897 21.3042 34.0604 22.0891 33.6841C21.3399 30.0737 19.8891 26.9573 17.9626 24.0407ZM37.6439 14.4797C37.0374 16.5142 36.6212 18.3253 35.9671 20.0423C34.2785 24.4053 32.4233 28.686 30.7584 33.0608C30.0925 34.8366 29.7476 36.7418 29.26 38.5881C30.1876 38.0824 30.7109 37.4003 31.0795 36.6242C31.4601 35.8245 31.6503 34.9424 31.9476 34.0957C33.339 30.2619 34.7422 26.4398 36.1098 22.606C36.6925 20.9596 37.2277 19.3014 37.7985 17.6549C39.1542 13.7388 40.5099 9.81089 41.8656 5.88298C41.9488 5.64778 41.9607 5.38905 42.0677 4.80104C39.3088 7.32948 35.4201 12.9861 35.6103 13.8917C36.1217 14.0446 36.6331 14.1857 37.6439 14.4797ZM8.18733 31.0145C8.38949 30.7441 8.80572 30.4148 8.74626 30.2031C8.36572 28.6155 7.9257 27.0513 7.42624 25.499C7.36678 25.3108 6.84352 25.252 6.53433 25.1227C6.67703 24.5464 7.12894 23.8526 6.93867 23.4174C5.9873 21.2065 6.07056 18.8898 5.88028 16.5848C5.80893 15.7851 5.46405 15.0207 5.24999 14.2327C5.02405 14.2798 4.80999 14.3386 4.59593 14.3974C3.25213 18.2782 5.09539 21.6652 6.62947 25.0874C7.16461 27.0631 7.68787 29.0388 8.21112 31.0145C9.19816 33.0726 10.1733 35.1189 11.4101 37.6826C11.7787 34.7543 10.1019 33.0843 9.17436 31.1792C9.09111 31.0028 8.52031 31.0733 8.18733 31.0145ZM12.2187 28.4155C12.1117 29.4151 11.9928 30.3913 13.3485 31.4732C13.0155 30.062 13.3247 28.98 12.1236 28.4508C12.6112 26.9455 11.9095 25.9106 10.649 24.6523C10.3398 26.5809 11.2674 27.51 12.2187 28.4155ZM24.1464 69C23.0761 67.6358 22.3389 66.5774 21.4707 65.6013C17.7485 61.3911 15.6555 56.2167 12.7895 51.5008C11.4933 49.3722 10.4111 47.0907 8.9603 45.0562C6.49865 41.5752 5.5473 37.4827 3.91809 33.6488C1.37319 27.6276 1.28994 21.1712 0.231547 14.8795C-0.137107 12.7039 -0.0538487 10.6811 0.398047 8.62311C0.945082 6.0829 3.18079 4.61288 5.59487 5.55369C8.12787 6.55331 10.9225 7.2354 12.6706 9.70505C13.2652 10.54 14.3593 10.9987 15.0847 11.7396C18.2718 15.0089 19.8891 19.125 21.4469 23.2763C21.9702 24.6405 22.6124 25.9459 23.3378 27.5688C24.2416 25.4167 24.9432 23.5586 25.7875 21.771C26.62 20.0305 27.6427 18.3841 28.4989 16.6553C29.1887 15.3147 29.593 13.8094 30.4017 12.551C33.2082 8.17622 36.4428 4.17775 40.7715 1.1201C44.2559 -1.32603 46.5867 0.590888 47.7997 3.44862C48.7273 5.57721 49.203 7.88222 48.9176 10.246C48.537 13.4918 48.3824 16.7965 47.6808 19.9835C46.8721 23.6056 45.6829 27.1454 44.4937 30.6735C42.0677 37.8237 39.4277 44.9269 35.9671 51.6302C33.2795 56.8164 30.6157 62.1085 26.6319 66.5303C25.9778 67.2595 25.2524 67.9063 24.1583 69H24.1464Z" fill="#E0CACB"/>
</svg>
