<svg width="63" height="81" viewBox="0 0 63 81" fill="none" xmlns="http://www.w3.org/2000/svg">
<mask id="mask0_121_1419" style="mask-type:luminance" maskUnits="userSpaceOnUse" x="0" y="0" width="63" height="81">
<path d="M0 0H63V81H0V0Z" fill="white"/>
</mask>
<g mask="url(#mask0_121_1419)">
<path d="M32.621 80.8744C24.7269 80.7336 17.5789 78.2853 11.9419 73.7774C6.72639 69.6215 3.01809 63.9877 1.20871 57.4574C-0.582019 50.942 -0.279834 43.9154 2.07796 37.6815C4.66705 30.8513 9.59901 25.0396 16.3403 20.9022C16.5157 20.8133 16.7097 20.6726 16.9074 20.5503C17.5081 20.1281 18.202 19.6688 19.0003 19.917C19.4592 20.0577 19.7987 20.3577 20.1158 20.6578C20.3658 20.8837 20.5971 21.08 20.8806 21.2208C21.1082 21.3245 21.4626 21.3949 21.7125 21.2541C21.8356 21.1837 21.9774 21.08 21.9774 20.9726C21.9774 20.6726 21.3208 20.2318 21.0932 20.0762H21.0559C18.3064 18.4724 15.736 16.5166 13.27 14.635C12.2068 13.8238 11.1062 12.9978 10.0057 12.2051C9.88254 12.1162 9.50947 11.8533 9.58036 11.5014C9.65124 11.1643 10.043 11.0421 10.3787 10.9532C11.2853 10.742 12.2068 10.4976 13.1096 10.2679C13.1991 9.77528 13.4826 9.28265 13.9975 8.79001L10.0057 9.75676C9.74078 9.82714 9.38636 9.89752 9.19236 9.66787C8.97972 9.44192 9.10283 9.10485 9.1364 9.00114L9.19236 8.86039C9.84896 7.06392 10.7518 4.59703 12.7738 3.89326C15.2734 3.0117 17.8998 2.36349 20.4366 1.74492C21.3917 1.44489 22.1751 1.43008 22.7758 1.67454C23.895 0.989294 25.1373 0.511472 26.7303 0.459616C27.1407 0.459616 27.4429 0.459616 27.6182 0.63741C27.7973 0.83002 27.7413 1.07819 27.6891 1.50045V1.58565C27.4764 2.73019 27.2451 3.91178 26.9616 5.10819C26.9616 5.10819 26.9803 5.10819 26.9989 5.10819C27.1742 5.07485 27.3347 5.01929 27.5137 4.98596C27.8495 3.6488 28.2039 2.29312 28.6292 0.970774C28.7187 0.670747 28.9127 0.441096 29.1963 0.318863C29.9238 0.00401923 31.0765 0.478137 31.6809 0.796684C32.6546 1.28932 33.3299 2.08199 33.9678 2.85613C34.1469 3.06726 34.3409 3.29691 34.5162 3.50804C34.7662 3.75251 34.8557 4.00068 34.7662 4.19329C34.6766 4.36738 34.5013 4.45628 34.1805 4.45628C32.0689 4.45628 29.976 4.91558 27.954 5.40822C27.5995 6.90465 27.2638 8.41961 26.9429 9.89752C26.4318 12.294 25.8984 14.7943 25.2082 17.1871C25.2082 17.1871 25.2082 17.2056 25.2082 17.2241C25.0664 17.539 24.8687 17.7168 24.6225 17.7686C24.089 17.8575 23.5555 17.2945 23.1861 16.887C23.1302 16.8352 23.078 16.7833 23.0444 16.7315C22.2274 15.8314 21.3917 14.9498 20.5784 14.0868C19.6196 13.0867 18.6273 12.0644 17.7058 11.0087C16.9596 10.0568 16.553 9.82714 15.4151 10.2161L14.8854 10.3568C14.475 10.4605 14.0684 10.5865 13.6431 10.6902C13.6766 11.2347 14.1057 11.7829 14.8854 12.3274L21.3917 17.2241C21.7312 17.4871 22.0856 17.7501 22.4214 18.0316C23.0593 18.5428 23.7159 19.0724 24.3912 19.4947C25.0664 19.917 25.6671 19.7577 26.2341 19.0021C26.2528 18.9835 26.2714 18.9465 26.2901 18.9317C26.4841 16.587 27.1034 13.7349 27.6555 11.2013C27.9913 9.59749 28.2935 8.22699 28.3793 7.39729C28.4352 6.99355 28.5583 6.25274 29.2336 6.06013C29.2336 6.06013 29.2336 6.06013 29.2485 6.06013C30.2782 5.83048 31.3414 5.70825 32.3524 5.58231C32.8486 5.53045 33.3634 5.46007 33.8596 5.3897C33.9305 5.3897 33.9865 5.3897 34.0574 5.37118C34.3931 5.31932 34.8371 5.26746 35.1206 5.54897C35.1206 5.54897 35.1206 5.54897 35.1392 5.56749C35.2997 5.77862 35.2624 6.09347 34.9975 6.51573C34.0387 7.9603 33.1172 9.45674 32.2107 10.9013C30.5095 13.6497 28.7374 16.4648 26.7863 19.1243C26.6445 20.9541 26.7489 22.4357 27.372 23.0172C27.9913 23.6136 28.965 23.5951 29.9051 23.5247C34.4304 23.1913 39.1124 24.1433 43.4736 26.2731C47.6781 28.3325 51.3677 31.3624 54.1508 35.0776C60.0042 43.5265 60.8175 52.5422 56.4899 60.5022C51.5953 69.4659 40.795 75.5924 30.0133 75.5924C29.782 75.5924 29.5507 75.5924 29.3194 75.5924C19.3174 75.3443 11.3002 69.9919 6.74504 60.5355C3.78288 54.0386 3.67469 46.875 6.44285 40.3596C9.45724 33.2811 15.5569 27.6473 23.2011 24.9174C23.4324 24.81 23.7159 24.6878 23.9286 24.4951C24.1599 24.284 24.283 23.947 24.2494 23.6506C24.2494 23.4914 24.1599 23.2802 23.9286 23.1395C23.0444 22.7691 22.0483 23.1395 21.0746 23.4914C20.7537 23.6136 20.418 23.7358 20.0822 23.8247C11.2144 26.9954 4.73793 34.5294 2.71963 43.9525C0.697605 53.4237 3.58515 62.9653 10.4496 69.4659C17.1014 76.2962 27.7413 79.378 38.2059 77.4926C47.5699 75.8036 54.8596 70.4142 58.2284 62.7024C62.1494 54.2349 61.7054 44.9192 57.0234 37.1556C51.8788 28.6511 42.5857 23.1913 32.1584 22.5765C32.1584 22.5765 32.1398 22.5765 32.1249 22.5765C31.804 22.5209 31.3787 22.5209 30.9348 22.5061C29.8342 22.5061 28.5956 22.4876 28.0435 21.7467C27.4055 20.78 28.0957 19.2317 28.4166 18.5946C28.9501 17.6612 29.9238 17.1871 31.431 17.1352C31.431 17.1352 31.4496 17.1352 31.4683 17.1352C41.1345 17.9464 49.2897 21.906 55.02 28.5622C60.1796 34.5479 63 42.2597 62.9664 50.3086C62.9291 57.9649 60.2505 65.1841 55.4267 70.592C50.0023 76.6666 42.1268 80.2743 32.621 80.9966C32.621 80.9966 32.621 80.9966 32.6024 80.9966L32.621 80.8744ZM16.6239 21.3615C3.73065 29.266 -2.12279 43.3858 1.72354 57.3167C5.50272 71.0327 17.6349 80.0632 32.621 80.3447C53.1584 78.7594 62.3993 64.0395 62.4516 50.1679C62.5038 35.711 52.8189 19.3354 31.4496 17.5204C30.1364 17.576 29.3194 17.9464 28.8941 18.702C28.4539 19.5651 28.1144 20.6911 28.4874 21.306C28.8941 21.8171 29.976 21.8356 30.9534 21.8542C31.4123 21.8542 31.8563 21.8542 32.2107 21.9245C42.817 22.5579 52.2519 28.1029 57.486 36.7666C59.7916 40.5892 61.1011 44.7415 61.3883 49.0937C61.6868 53.7238 60.7839 58.3353 58.7097 62.7913C55.2663 70.6623 47.8385 76.1554 38.2954 77.8815C33.2403 78.7964 27.9913 78.5482 23.078 77.1926C17.952 75.785 13.464 73.1959 10.0765 69.7104C3.10762 63.0913 0.164117 53.3719 2.2048 43.7043C4.24175 34.0923 10.8749 26.4138 19.9032 23.1728C19.9032 23.1728 19.9032 23.1728 19.9218 23.1728C20.224 23.0876 20.5411 22.9802 20.8806 22.858C21.8916 22.4876 23.0593 22.0838 24.1412 22.5209C24.1412 22.5209 24.1599 22.5209 24.1785 22.5209C24.5143 22.7172 24.7269 23.0506 24.7792 23.4395C24.8351 23.8951 24.6374 24.3877 24.283 24.7248C24.0181 24.9693 23.6823 25.1285 23.3801 25.2508C15.8777 27.9473 9.88254 33.4552 6.92038 40.4114C4.20818 46.7861 4.31263 53.8126 7.20391 60.1688C11.6733 69.4289 19.5301 74.6775 29.3194 74.922C40.1234 75.185 51.0991 69.1104 56.0124 60.1317C60.2505 52.3681 59.4372 43.545 53.7068 35.2702C48.0661 27.751 38.7394 23.2987 29.9424 23.947C28.8792 24.0173 27.7786 24.0358 26.9989 23.2987C26.3237 22.6616 26.1297 21.3615 26.1819 19.6873C25.5439 20.2503 24.7978 20.3022 24.0554 19.8281C23.3428 19.3873 22.6862 18.8428 22.0334 18.3316C21.6939 18.0686 21.3581 17.7871 21.0224 17.539L14.531 12.6607C13.6431 12.0459 13.1655 11.4125 13.076 10.742C12.2254 10.9717 11.3562 11.2013 10.4869 11.394C10.2556 11.4458 10.1474 11.5014 10.0952 11.5347C10.1138 11.5717 10.1661 11.6236 10.2892 11.7125C11.3897 12.5052 12.4903 13.3497 13.5535 14.1572C16.0195 16.024 18.575 17.9612 21.3059 19.528L21.3581 19.5651C21.7834 19.8466 22.5109 20.3392 22.4922 20.9207C22.4922 21.2023 22.3169 21.4467 21.9625 21.643C21.5894 21.8542 21.0932 21.8542 20.6306 21.643C20.2949 21.4838 20.0113 21.2356 19.7427 21.0096C19.4443 20.743 19.157 20.4985 18.8213 20.3911C18.2728 20.217 17.7207 20.5874 17.1909 20.9541C16.9783 21.0948 16.7806 21.2356 16.5679 21.343L16.6239 21.3615ZM29.3753 6.50091C29.0918 6.5861 28.9836 6.90465 28.9127 7.39729C28.8232 8.24181 28.5248 9.63453 28.1666 11.2347C27.7264 13.2608 27.1929 15.7795 26.928 17.9797C28.6665 15.5684 30.2446 13.0163 31.7854 10.5309C32.6919 9.08633 33.6134 7.5899 34.5722 6.13051C34.6766 5.97123 34.714 5.849 34.7289 5.77862C34.6058 5.72677 34.3409 5.7601 34.1618 5.77862C34.0909 5.77862 34.02 5.79714 33.9492 5.81196C33.453 5.88234 32.9381 5.95271 32.442 6.00827C31.431 6.13051 30.4013 6.25274 29.3903 6.46387L29.3753 6.50091ZM16.2695 9.45674C17.0305 9.45674 17.5267 9.879 18.1124 10.6198C19.0152 11.6569 20.0113 12.6793 20.9664 13.683C21.7834 14.5461 22.634 15.4277 23.451 16.324C23.4846 16.3611 23.5406 16.4129 23.5928 16.4833C23.8241 16.7315 24.3016 17.2389 24.5516 17.2056C24.6374 17.2056 24.6933 17.0834 24.7269 16.9945C25.4022 14.6165 25.9319 12.1533 26.4468 9.75676C26.7489 8.36775 27.0511 6.94169 27.3869 5.51193C27.2974 5.53045 27.2265 5.54897 27.1407 5.56749L26.8385 5.63787C26.1632 8.34923 25.2418 11.2347 24.0367 14.4757C23.9994 14.5646 23.9286 14.6165 23.839 14.635C23.7532 14.6535 23.6637 14.635 23.5928 14.5646C22.6527 13.683 21.7125 12.7682 20.8097 11.8866C19.9032 11.0087 18.963 10.0901 18.0229 9.21227C17.952 9.14189 17.9184 9.053 17.952 8.94558C17.9707 8.86038 18.0415 8.79001 18.146 8.75297C20.1345 8.20847 21.8356 7.74917 23.7346 7.32691C24.4956 7.1343 24.5665 6.92317 24.4098 6.20088L15.0794 8.45294C14.9749 8.54184 14.8854 8.63073 14.7772 8.71963C14.2288 9.17523 13.8744 9.63453 13.7326 10.0383C14.0684 9.94937 14.4041 9.86418 14.725 9.77528L15.2585 9.63453C15.6464 9.5123 15.9822 9.44192 16.2695 9.44192V9.45674ZM18.7317 9.15671C19.5674 9.93456 20.3807 10.742 21.179 11.5162C21.9961 12.3088 22.8317 13.12 23.6823 13.9127C24.7792 10.9532 25.6335 8.27885 26.2714 5.7601C26.2192 5.7601 26.1632 5.79714 26.111 5.79714L24.9396 6.07865C25.1186 6.95651 25.0478 7.55656 23.8577 7.83807C22.1192 8.22699 20.5411 8.64925 18.7504 9.14189L18.7317 9.15671ZM21.8543 1.97457C21.4999 1.97457 21.0932 2.04495 20.612 2.20422C20.612 2.20422 20.612 2.20422 20.5971 2.20422C18.0751 2.81909 15.4711 3.45248 12.9865 4.33404C11.1957 4.96744 10.3787 7.20468 9.72212 8.98262L9.66989 9.12337C9.65124 9.17523 9.63632 9.21227 9.63632 9.22709C9.68855 9.22709 9.75943 9.22709 9.90119 9.17523L14.8481 7.97882C15.8964 7.06392 16.9783 6.18236 18.0938 5.35636C18.8213 4.82668 19.4965 4.24515 20.1345 3.68213C20.8246 3.08208 21.4999 2.48573 22.2274 1.97457C22.1192 1.95605 21.9961 1.94123 21.8543 1.94123V1.97457ZM22.8317 2.23756C22.0147 2.78575 21.2499 3.43767 20.4702 4.10439C19.8136 4.66741 19.1421 5.26746 18.396 5.79714C17.564 6.41201 16.747 7.0454 15.9673 7.71584L24.283 5.70824C24.2307 5.47859 24.1785 5.24894 24.1076 5.01929C23.8241 3.82289 23.5406 2.69686 22.8317 2.22274V2.23756ZM23.3093 1.94123C24.0554 2.57462 24.3389 3.71917 24.6225 4.91558C24.6747 5.14523 24.7269 5.37118 24.7978 5.60083L25.9692 5.31932C26.111 5.28598 26.2528 5.24894 26.4132 5.21561C26.7154 3.93031 26.9803 2.69686 27.1742 1.46341V1.37451C27.2116 1.21895 27.2451 1.04115 27.2451 0.952254C27.1742 0.952254 27.0138 0.937438 26.7863 0.952254C25.4208 0.989294 24.3203 1.37452 23.3279 1.95605L23.3093 1.94123ZM29.7633 0.689267C29.6216 0.689267 29.5171 0.707787 29.4089 0.741123C29.2672 0.796684 29.1963 0.900397 29.144 1.05967C28.7523 2.2746 28.4166 3.52286 28.0957 4.77483C30.0842 4.297 32.1062 3.87474 34.1991 3.87474C34.1991 3.85993 34.1618 3.84141 34.1469 3.80437C33.9492 3.57842 33.7552 3.34877 33.5612 3.13764C32.9195 2.36349 32.3002 1.64121 31.431 1.20042C30.9012 0.937438 30.2259 0.689267 29.7484 0.689267H29.7633Z" fill="black"/>
</g>
</svg>
