<svg width="450" height="117" viewBox="0 0 450 117" fill="none" xmlns="http://www.w3.org/2000/svg">
<mask id="mask0_121_1381" style="mask-type:luminance" maskUnits="userSpaceOnUse" x="0" y="0" width="450" height="117">
<path d="M0 0H450V117H0V0Z" fill="white"/>
</mask>
<g mask="url(#mask0_121_1381)">
<path d="M426.904 116.048C426.941 116.398 426.941 116.755 426.941 117.141H24.6318C22.1175 115.275 19.6328 113.342 17.2891 111.163C21.9395 107.438 27.0127 104.561 32.1526 101.542C33.7992 100.591 33.903 97.9585 32.1526 97.0068C31.3813 96.6871 30.647 96.2707 29.9498 95.8841C31.4183 95.0067 32.924 94.122 34.4593 93.319C35.2306 92.9323 36.0391 92.5085 36.8401 92.1591C38.5905 91.3486 38.4496 88.501 36.8401 87.6608C36.18 87.3113 35.5125 86.9544 34.882 86.605C30.2984 84.1811 25.8927 81.5491 21.5909 78.6345C21.7986 78.3148 21.9766 77.995 22.1843 77.6828C23.2004 76.5601 23.3042 74.3444 21.6577 73.6083C20.4339 73.0432 19.2472 72.4484 18.0234 71.8833C28.4812 73.1845 38.7982 75.8909 49.5008 74.9392C52.1932 74.6938 52.8607 71.6751 50.8284 70.0914C43.6934 64.5745 34.1478 62.3291 25.8556 59.2361C21.1385 57.4814 13.0911 55.5111 9.66448 51.3697C6.6532 47.7116 5.88926 35.9045 8.19593 33.1981C9.07112 32.2166 9.34555 30.4619 8.19593 29.5102C6.16369 27.7927 4.5913 25.6811 2.98182 23.577L7.03888 20.3055C8.15884 19.391 7.91408 17.5693 7.03888 16.6176C2.24755 11.4204 -0.548635 5.30128 1.69128 0H439.602C442.153 1.3309 444.675 2.70641 447.085 4.31984C444.356 6.35708 441.842 8.71403 438.764 10.3646C437.362 11.1007 437.013 13.3833 438.237 14.4391C441.701 17.4578 445.164 19.7107 448.94 21.4282C443.866 22.3799 438.83 23.3316 434.113 25.577C432.222 26.4915 432.533 30.0381 434.736 30.3578C436.872 30.6329 438.934 31.1608 440.966 31.7928C437.08 33.555 433.268 35.3766 429.455 37.28C427.571 38.2243 427.846 41.7411 430.049 42.0534C436.175 42.9679 441.871 44.0609 447.575 46.0981C443.273 48.8045 438.66 50.5221 433.69 52.2098C433.653 52.2098 433.587 52.247 433.549 52.247C431.903 52.8047 430.783 55.3029 432.43 56.604C432.748 56.8494 433.023 57.0948 433.342 57.3029C437.814 60.7082 442.746 62.5373 447.924 64.0838C445.899 64.8199 443.829 65.5932 441.738 66.2995C439.216 67.1397 439.283 70.4781 441.738 71.3554C443.065 71.8164 444.43 72.3071 445.758 72.7979C432.392 75.5043 418.827 78.2776 407.946 86.8875C406.374 88.1143 407.353 90.791 409.066 91.2445C422.394 94.6498 436.034 93.6684 449.57 95.0067C437.436 100.591 423.195 100.836 410.253 103.788C407.279 104.457 408.124 108.777 410.92 108.918C414.102 109.059 417.247 109.022 420.362 108.918C419.732 109.163 419.072 109.372 418.404 109.654C416.238 110.502 415.675 114.048 418.404 114.68C421.237 115.312 424.071 115.699 426.904 116.048Z" fill="#A58E72"/>
</g>
<path d="M37.9369 16.9515C33.6203 10.9662 27.9093 14.721 28.5249 20.1784C29.1627 25.8291 33.5906 33.3907 38.0408 33.0115C41.8531 32.6918 52.222 16.8325 44.0707 14.1113C40.6664 12.9737 38.8492 15.5611 37.9369 16.9515Z" fill="#EFE6DA"/>
<path d="M107.612 16.9518C103.295 10.9664 97.5841 14.7212 98.1997 20.1786C98.8375 25.8294 103.265 33.3909 107.723 33.0117C111.528 32.692 121.904 16.8328 113.746 14.1115C110.341 12.9739 108.524 15.5614 107.612 16.9518Z" fill="#EFE6DA"/>
<path d="M177.287 16.9515C172.97 10.9662 167.266 14.721 167.882 20.1784C168.512 25.8291 172.94 33.3907 177.398 33.0115C181.203 32.6918 191.579 16.8325 183.42 14.1113C180.023 12.9737 178.199 15.5611 177.287 16.9515Z" fill="#EFE6DA"/>
<path d="M246.968 16.9518C242.652 10.9664 236.941 14.7212 237.556 20.1786C238.194 25.8294 242.614 33.3909 247.072 33.0117C250.884 32.692 261.253 16.8328 253.102 14.1115C249.698 12.9739 247.88 15.5614 246.968 16.9518Z" fill="#EFE6DA"/>
<path d="M316.643 16.9518C312.326 10.9664 306.615 14.7212 307.231 20.1786C307.869 25.8294 312.297 33.3909 316.747 33.0117C320.559 32.692 330.935 16.8328 322.777 14.1115C319.372 12.9739 317.555 15.5614 316.643 16.9518Z" fill="#EFE6DA"/>
<path d="M386.317 16.9515C382.001 10.9662 376.297 14.721 376.913 20.1784C377.543 25.8291 381.971 33.3907 386.429 33.0115C390.233 32.6918 400.61 16.8325 392.451 14.1113C389.054 12.9737 387.23 15.5611 386.317 16.9515Z" fill="#EFE6DA"/>
<path d="M43.4839 103.609C39.6345 103.929 35.8593 98.449 34.4575 93.3188C35.2289 92.9321 36.0373 92.5083 36.8384 92.1589C38.5887 91.3484 38.4478 88.5008 36.8384 87.6606C36.1782 87.3111 35.5107 86.9542 34.8803 86.6048C36.5565 83.9727 40.3021 83.3407 43.3801 87.5565C44.2924 86.1512 46.1095 83.5861 49.4991 84.7088C57.6503 87.4152 47.2962 103.297 43.4839 103.609Z" fill="#EFE6DA"/>
<path d="M113.049 87.5492C108.733 81.5639 103.029 85.3187 103.645 90.7761C104.275 96.4268 108.703 103.988 113.16 103.609C116.965 103.29 127.342 87.4228 119.183 84.7016C115.786 83.5714 113.961 86.1589 113.049 87.5492Z" fill="#EFE6DA"/>
<path d="M182.73 87.5492C178.414 81.5639 172.703 85.3187 173.318 90.7761C173.956 96.4268 178.377 103.988 182.834 103.609C186.647 103.29 197.015 87.4228 188.864 84.7016C185.46 83.5714 183.643 86.1589 182.73 87.5492Z" fill="#EFE6DA"/>
<path d="M252.405 87.5492C248.089 81.5639 242.378 85.3187 242.993 90.7761C243.631 96.4268 248.059 103.988 252.509 103.609C256.321 103.29 266.698 87.4228 258.539 84.7016C255.135 83.5714 253.317 86.1589 252.405 87.5492Z" fill="#EFE6DA"/>
<path d="M322.079 87.5492C317.763 81.5639 312.059 85.3187 312.675 90.7761C313.305 96.4268 317.733 103.988 322.191 103.609C325.996 103.29 336.372 87.4228 328.213 84.7016C324.816 83.5714 322.992 86.1589 322.079 87.5492Z" fill="#EFE6DA"/>
<path d="M391.762 87.549C387.445 81.5637 381.734 85.3184 382.35 90.7759C382.988 96.4266 387.408 103.988 391.866 103.609C395.678 103.289 406.047 87.4226 397.889 84.7013C394.492 83.5712 392.674 86.1586 391.762 87.549Z" fill="#EFE6DA"/>
<path d="M76.3569 52.2543C72.0402 46.2689 66.3292 50.0163 66.9448 55.4811C67.5826 61.1319 72.0105 68.686 76.4681 68.3142C80.273 67.9945 90.6493 52.1279 82.4907 49.4066C79.0863 48.269 77.2691 50.8639 76.3569 52.2543Z" fill="#EFE6DA"/>
<path d="M146.032 52.2545C141.715 46.2692 136.011 50.0165 136.627 55.4814C137.257 61.1321 141.685 68.6862 146.143 68.3145C149.948 67.9948 160.324 52.1281 152.165 49.4068C148.768 48.2692 146.944 50.8641 146.032 52.2545Z" fill="#EFE6DA"/>
<path d="M215.713 52.2543C211.397 46.2689 205.686 50.0163 206.301 55.4811C206.939 61.1319 211.36 68.686 215.817 68.3142C219.629 67.9945 229.998 52.1279 221.847 49.4066C218.443 48.269 216.626 50.8639 215.713 52.2543Z" fill="#EFE6DA"/>
<path d="M285.389 52.2543C281.072 46.2689 275.361 50.0163 275.977 55.4811C276.614 61.1319 281.042 68.686 285.492 68.3142C289.305 67.9945 299.681 52.1279 291.522 49.4066C288.118 48.269 286.301 50.8639 285.389 52.2543Z" fill="#EFE6DA"/>
<path d="M355.063 52.2545C350.746 46.2692 345.043 50.0165 345.658 55.4814C346.289 61.1321 350.717 68.6862 355.174 68.3145C358.979 67.9948 369.355 52.1281 361.197 49.4068C357.8 48.2692 355.975 50.8641 355.063 52.2545Z" fill="#EFE6DA"/>
<path d="M432.429 56.6037C432.748 56.8491 433.023 57.0944 433.342 57.3026C431.695 62.4329 427.111 68.0911 424.842 68.2993C420.399 68.6859 415.956 61.1318 415.326 55.4736C414.733 50.031 420.436 46.2688 424.738 52.2467C425.643 50.8712 427.46 48.2763 430.894 49.399C432.467 49.9269 433.342 50.9084 433.69 52.2095C433.653 52.2095 433.586 52.2467 433.549 52.2467C431.903 52.8043 430.783 55.3026 432.429 56.6037Z" fill="#EFE6DA"/>
</svg>
