<svg width="25" height="25" viewBox="0 0 25 25" fill="none" xmlns="http://www.w3.org/2000/svg">
<g transform="scale(1)">
<path d="M12.1011 3.10001C10.9011 1.90001 12.2677 0.600006 13.1011 0.100006H1.10001C0.300006 0.100006 0.100006 0.766673 0.100006 1.10001V23.1C0.100006 23.9 0.766673 24.1 1.10001 24.1H23.1C23.9 24.1 24.1 23.4333 24.1 23.1V13.1C22.9 15.5 20.9333 14.7667 20.1 14.1C18.5 16.9 16.7667 14.9333 16.1 13.6C12.5 15.2 12.268 12.6 12.602 11.1C9.00204 10.7 10.1016 8.26667 11.1013 7.10001C9.10133 5.10001 10.9345 3.60001 12.1011 3.10001Z" fill="#593221" stroke="#593221" stroke-width="0.2"/>
</g>
</svg>
