<svg width="209" height="66" viewBox="0 0 209 66" fill="none" xmlns="http://www.w3.org/2000/svg">
<path d="M5.13854 36.2286C10.1533 31.2607 15.7981 26.9708 21.9289 23.4684C25.8023 21.1539 30.2027 18.7594 34.9664 16.3554C40.0519 13.7538 45.3119 11.5078 50.7087 9.63369C53.6179 8.63526 56.5897 7.82901 59.6048 7.22018C62.7274 6.55073 65.9039 6.16329 69.096 6.06255C72.3655 5.92173 75.6403 6.16826 78.8517 6.797C82.105 7.3859 85.2629 8.41398 88.2388 9.85299L88.7247 10.1044C88.5961 10.2399 88.4339 10.3598 88.2887 10.4957C82.8299 15.6592 79.1972 22.4537 77.9369 29.8571C77.3382 33.6188 77.5123 37.4629 78.4487 41.1552C79.4268 45.0235 81.3812 48.5766 84.1253 51.4755C85.5257 53.0477 87.168 54.387 88.9904 55.4429C91.0239 56.6412 93.3042 57.3607 95.6579 57.5466C97.9476 57.6696 100.238 57.3085 102.378 56.4868C104.518 55.6651 106.461 54.4013 108.079 52.7781C111.009 49.836 112.814 45.9614 113.18 41.8279C113.538 38.0445 113.146 34.2279 112.026 30.5961C110.956 27.0155 109.339 23.6213 107.232 20.5334C104.594 16.6856 101.319 13.3149 97.5476 10.5662C98.4492 10.0177 99.3862 9.52964 100.353 9.10534C106.036 6.5608 112.214 5.30986 118.44 5.443C124.246 5.52779 130.007 6.48992 135.525 8.29672C140.352 9.84967 144.971 11.9853 149.28 14.6562C152.89 17.0102 156.279 19.6845 159.408 22.6467C164.351 27.2303 168.776 32.3414 172.603 37.8885C175.201 41.5888 177.513 45.4805 179.521 49.5302C181.111 52.7911 182.15 55.2078 182.911 57.1033C183.599 58.7366 184.007 59.8322 184.36 60.6651L183.233 59.9186C180.02 57.7903 177.078 55.919 174.558 54.4C169.52 51.3783 166.168 49.6664 165.77 50.2383C165.372 50.8103 167.917 53.2864 172.41 56.9664C174.658 58.8229 177.375 60.9478 180.444 63.2615L181.608 64.1392C182.105 64.5223 182.634 64.862 183.189 65.1545C183.548 65.3364 183.922 65.4868 184.308 65.604C184.798 65.754 185.306 65.8351 185.819 65.845C186.874 65.8654 187.908 65.549 188.77 64.9418C189.82 64.1003 190.701 63.0688 191.368 61.9011L193.136 59.3282C202.674 44.8761 209.51 32.6253 208.336 31.9791C207.162 31.3329 198.463 42.5098 188.908 56.9623L187.669 58.8773C187.525 57.9179 187.318 56.969 187.049 56.0368C186.304 53.2413 185.348 50.5062 184.189 47.8553C182.326 43.4722 180.063 39.2698 177.428 35.3012C173.536 29.3283 168.953 23.8341 163.774 18.9321C160.379 15.6925 156.688 12.7765 152.751 10.222C148.006 7.24336 142.907 4.86985 137.572 3.15684C131.422 1.14091 125 0.0788916 118.528 0.00780195C111.325 -0.121776 104.185 1.36371 97.6324 4.35494C95.7407 5.20898 93.9404 6.25216 92.2591 7.46852C91.6054 7.1224 90.9516 6.77629 90.2826 6.48012C86.924 4.9152 83.3698 3.80887 79.7158 3.19091C76.1752 2.57768 72.5751 2.37856 68.9884 2.59759C65.5642 2.77453 62.1632 3.26186 58.8273 4.05354C55.6925 4.75019 52.6072 5.65322 49.5917 6.75671C44.1057 8.78588 38.777 11.2164 33.6489 14.0286C28.8568 16.6095 24.5154 19.1511 20.6249 21.6532C14.5114 25.441 8.99134 30.1099 4.24352 35.509C3.00468 36.9583 1.87912 38.5005 0.876794 40.1221C0.228562 41.2455 -0.0709972 41.7983 0.0142001 41.8951C0.0993974 41.992 1.74321 39.7525 5.17159 36.2277L5.13854 36.2286ZM92.5565 14.3798C92.9595 13.9894 93.3964 13.6311 93.8333 13.2729C97.5116 15.893 100.674 19.1688 103.162 22.9357C104.973 25.6909 106.351 28.7063 107.249 31.8776C108.159 34.9814 108.447 38.2343 108.096 41.4496C107.778 44.5068 106.403 47.3577 104.208 49.5111C103.142 50.5815 101.863 51.4156 100.453 51.9591C99.0432 52.5026 97.5346 52.7433 96.0255 52.6655C93.0013 52.2094 90.2554 50.645 88.3227 48.2772C86.1759 45.9509 84.6615 43.114 83.9239 40.0371C83.2152 36.9773 83.1319 33.8062 83.679 30.7135C84.2099 27.6048 85.2479 24.6041 86.7517 21.8312C88.2416 19.0405 90.193 16.5215 92.5234 14.3806" fill="#C52929"/>
</svg>
