<svg width="76" height="51" viewBox="0 0 76 51" fill="none" xmlns="http://www.w3.org/2000/svg">
<path d="M3.5625 28.8125C2.70833 28.4792 2.01042 27.8854 1.46875 27.0312C0.947917 26.1562 0.572917 25.1458 0.34375 24C0.114583 22.8333 0.03125 21.5729 0.09375 20.2188C0.15625 18.8646 0.333333 17.5104 0.625 16.1562C0.9375 14.8021 1.35417 13.5104 1.875 12.2812C2.39583 11.0521 3.01042 9.98958 3.71875 9.09375C4.42708 8.17708 5.21875 7.48958 6.09375 7.03125C6.98958 6.55208 7.94792 6.39583 8.96875 6.5625C9.01042 6.77083 9.08333 7.13542 9.1875 7.65625C9.3125 8.15625 9.42708 8.69792 9.53125 9.28125C9.65625 9.86458 9.76042 10.4167 9.84375 10.9375C9.94792 11.4375 10.0208 11.7917 10.0625 12C10.1042 12.2292 10.0312 12.4792 9.84375 12.75C9.65625 13.0208 9.42708 13.2396 9.15625 13.4062C8.90625 13.5729 8.65625 13.6562 8.40625 13.6562C8.15625 13.6354 7.98958 13.4479 7.90625 13.0938C7.84375 12.8854 7.79167 12.5833 7.75 12.1875C7.70833 11.7917 7.65625 11.375 7.59375 10.9375C7.53125 10.5 7.44792 10.0938 7.34375 9.71875C7.23958 9.32292 7.09375 9.04167 6.90625 8.875C6.71875 8.70833 6.47917 8.6875 6.1875 8.8125C5.91667 8.91667 5.58333 9.25 5.1875 9.8125C5.0625 9.97917 4.90625 10.2083 4.71875 10.5C4.55208 10.7708 4.375 11.0521 4.1875 11.3438C4.02083 11.6354 3.875 11.8958 3.75 12.125C3.625 12.3542 3.5625 12.4896 3.5625 12.5312L1.9375 21.2188C1.75 22.1771 1.76042 23.0417 1.96875 23.8125C2.17708 24.5625 2.51042 25.2083 2.96875 25.75C3.42708 26.2708 3.98958 26.6875 4.65625 27C5.32292 27.2917 6.02083 27.4583 6.75 27.5C7.5 27.5208 8.25 27.4271 9 27.2188C9.77083 26.9896 10.4896 26.6146 11.1562 26.0938C11.4062 25.9062 11.7292 25.5521 12.125 25.0312C12.5417 24.5104 12.9792 23.9271 13.4375 23.2812C13.8958 22.6146 14.375 21.9271 14.875 21.2188C15.375 20.4896 15.8438 19.8438 16.2812 19.2812C16.7188 18.6979 17.1042 18.2292 17.4375 17.875C17.7708 17.5208 18.0208 17.3646 18.1875 17.4062C18.5 18.3229 18.4792 19.2917 18.125 20.3125C17.7917 21.3333 17.2292 22.3333 16.4375 23.3125C15.6667 24.2708 14.7292 25.1667 13.625 26C12.5417 26.8333 11.4062 27.5208 10.2188 28.0625C9.03125 28.6042 7.85417 28.9583 6.6875 29.125C5.52083 29.2917 4.47917 29.1875 3.5625 28.8125ZM21.4688 28.8125C21.0104 28.5208 20.6667 28.0729 20.4375 27.4688C20.2292 26.8438 20.0729 26.1979 19.9688 25.5312C19.8854 24.8438 19.8438 24.2083 19.8438 23.625V22.3125C19.8438 22.0833 19.8542 21.625 19.875 20.9375C19.8958 20.2292 19.9271 19.4167 19.9688 18.5C20.0104 17.5625 20.0521 16.5729 20.0938 15.5312C20.1354 14.4688 20.1771 13.4792 20.2188 12.5625C20.2604 11.625 20.2917 10.8125 20.3125 10.125C20.3542 9.4375 20.375 8.97917 20.375 8.75C20.375 8.4375 20.375 7.89583 20.375 7.125C20.3958 6.35417 20.4062 5.54167 20.4062 4.6875C20.4062 3.8125 20.3958 2.98958 20.375 2.21875C20.375 1.44792 20.375 0.90625 20.375 0.59375C20.6875 0.364583 20.9583 0.208333 21.1875 0.125C21.3958 0.0416667 21.5833 0.03125 21.75 0.09375C21.9167 0.135417 22 0.302083 22 0.59375V26.0938C22 26.2396 22.0417 26.4167 22.125 26.625C22.2292 26.8125 22.3542 26.9792 22.5 27.125C22.6458 27.2708 22.8125 27.3646 23 27.4062C23.2083 27.4271 23.4167 27.3438 23.625 27.1562L27.4062 23.9375C27.5104 24.4167 27.5 24.9167 27.375 25.4375C27.25 25.9583 27.0417 26.4479 26.75 26.9062C26.4792 27.3646 26.1354 27.7812 25.7188 28.1562C25.3021 28.5312 24.8542 28.8229 24.375 29.0312C23.8958 29.2188 23.4062 29.3125 22.9062 29.3125C22.4062 29.2917 21.9271 29.125 21.4688 28.8125ZM27.9062 27.7188C27.8646 27.6354 27.8125 27.4792 27.75 27.25C27.6875 27 27.625 26.7292 27.5625 26.4375C27.5 26.1458 27.4479 25.8646 27.4062 25.5938C27.3646 25.3229 27.3438 25.125 27.3438 25V9.8125C27.3438 9.60417 27.4375 9.45833 27.625 9.375C27.8125 9.29167 28.0208 9.25 28.25 9.25C28.5 9.22917 28.7188 9.22917 28.9062 9.25C29.1146 9.27083 29.2292 9.28125 29.25 9.28125V26.0938C29.25 26.4479 29.3646 26.7396 29.5938 26.9688C29.8229 27.1979 30.0938 27.3854 30.4062 27.5312C30.7188 27.6562 31.0417 27.7396 31.375 27.7812C31.7083 27.8021 31.9896 27.7812 32.2188 27.7188C32.5104 28.1562 32.5 28.5104 32.1875 28.7812C31.8958 29.0312 31.4688 29.1771 30.9062 29.2188C30.3646 29.2396 29.7917 29.1354 29.1875 28.9062C28.6042 28.6562 28.1771 28.2604 27.9062 27.7188ZM26.8125 4.375C26.8125 3.77083 27.0521 3.38542 27.5312 3.21875C28.0104 3.03125 28.5 3.05208 29 3.28125V4.9375C28.9375 4.95833 28.8229 4.97917 28.6562 5C28.5104 5 28.3438 5 28.1562 5C27.9896 5 27.8229 5 27.6562 5C27.5104 4.97917 27.4062 4.95833 27.3438 4.9375C27.2604 4.91667 27.1458 4.83333 27 4.6875C26.875 4.54167 26.8125 4.4375 26.8125 4.375ZM46.0938 48.875C45.5312 48.0625 45.0521 47.1979 44.6562 46.2812C44.2604 45.3854 43.9375 44.5 43.6875 43.625C43.4375 42.75 43.2604 41.9167 43.1562 41.125C43.0729 40.3333 43.0625 39.6562 43.125 39.0938C42.9375 37.8438 42.4479 36.8646 41.6562 36.1562C40.8854 35.4479 39.9792 34.9167 38.9375 34.5625C37.9167 34.2292 36.8229 34.0104 35.6562 33.9062C34.5104 33.8021 33.4688 33.7292 32.5312 33.6875C32.4271 33.5208 32.4375 33.3021 32.5625 33.0312C32.6875 32.7604 32.8542 32.6146 33.0625 32.5938C33.7083 32.5104 34.3854 32.4792 35.0938 32.5C35.8021 32.5417 36.5 32.6146 37.1875 32.7188C37.8958 32.8229 38.5833 32.9583 39.25 33.125C39.9375 33.3125 40.5833 33.5 41.1875 33.6875C41.2708 33 41.2812 32.2292 41.2188 31.375C41.1562 30.5208 41.0625 29.6771 40.9375 28.8438C40.8125 27.9896 40.6667 27.1771 40.5 26.4062C40.3542 25.6354 40.2188 24.9792 40.0938 24.4375C39.7396 24.7083 39.4479 25.0104 39.2188 25.3438C38.9896 25.6771 38.7604 26.0208 38.5312 26.375C38.3021 26.7083 38.0625 27.0417 37.8125 27.375C37.5625 27.7083 37.25 28 36.875 28.25C36.0417 28.8125 35.3854 29 34.9062 28.8125C34.4271 28.6042 34.0938 28.1562 33.9062 27.4688C33.7396 26.7812 33.6875 25.9062 33.75 24.8438C33.8333 23.7812 34.0104 22.6667 34.2812 21.5C34.5521 20.3333 34.8958 19.1771 35.3125 18.0312C35.75 16.8646 36.2292 15.8438 36.75 14.9688C37.2708 14.0938 37.8125 13.4271 38.375 12.9688C38.9583 12.4896 39.5312 12.3438 40.0938 12.5312C40.1354 12.5729 40.1562 12.6667 40.1562 12.8125C40.1562 12.9583 40.1354 13.0521 40.0938 13.0938C39.9896 13.2812 39.7292 13.7396 39.3125 14.4688C38.9167 15.1979 38.4688 16.0729 37.9688 17.0938C37.4688 18.0938 36.9688 19.1667 36.4688 20.3125C35.9688 21.4375 35.5729 22.4896 35.2812 23.4688C34.9896 24.4479 34.8542 25.2812 34.875 25.9688C34.9167 26.6562 35.2188 27.0521 35.7812 27.1562C36.4896 26.9688 37.0938 26.625 37.5938 26.125C38.1146 25.6042 38.5521 24.9896 38.9062 24.2812C39.2604 23.5729 39.5417 22.8021 39.75 21.9688C39.9792 21.1354 40.1562 20.3125 40.2812 19.5C40.4062 18.6667 40.4896 17.8854 40.5312 17.1562C40.5938 16.4062 40.6354 15.7604 40.6562 15.2188C40.7604 14.8854 40.9896 14.6875 41.3438 14.625C41.6979 14.5625 42.0104 14.5833 42.2812 14.6875C42.2812 14.9375 42.2708 15.3333 42.25 15.875C42.25 16.4167 42.25 17.0312 42.25 17.7188C42.25 18.3854 42.2396 19.0938 42.2188 19.8438C42.2188 20.5938 42.2188 21.3125 42.2188 22C42.2396 22.6667 42.25 23.2708 42.25 23.8125C42.25 24.3542 42.2604 24.75 42.2812 25C42.2812 25.2708 42.3021 25.6875 42.3438 26.25C42.4062 26.7917 42.4792 27.4062 42.5625 28.0938C42.6458 28.7604 42.7292 29.4583 42.8125 30.1875C42.9167 30.9375 43.0208 31.6458 43.125 32.3125C43.25 32.9792 43.375 33.5729 43.5 34.0938C43.6458 34.6354 43.7812 35.0312 43.9062 35.2812C44.3021 36.0312 44.8438 36.7917 45.5312 37.5625C46.2396 38.3542 46.9479 39.1562 47.6562 39.9688C48.3646 40.8021 49.0104 41.6458 49.5938 42.5C50.1771 43.3542 50.5417 44.2188 50.6875 45.0938C50.8333 45.9688 50.6979 46.8542 50.2812 47.75C49.8646 48.6667 49.0104 49.5833 47.7188 50.5C47.6354 50.4583 47.5104 50.3542 47.3438 50.1875C47.1979 50.0417 47.0312 49.8854 46.8438 49.7188C46.6771 49.5521 46.5208 49.3854 46.375 49.2188C46.2292 49.0521 46.1354 48.9375 46.0938 48.875ZM45.5312 42.9062C45.5938 43.1146 45.7292 43.4792 45.9375 44L46.5938 45.625C46.8229 46.2083 47.0417 46.75 47.25 47.25C47.4583 47.7708 47.6146 48.125 47.7188 48.3125C48.0521 48.6458 48.2812 48.6979 48.4062 48.4688C48.5521 48.2396 48.6146 47.8333 48.5938 47.25C48.5729 46.6667 48.4688 45.9583 48.2812 45.125C48.0938 44.2917 47.8229 43.4375 47.4688 42.5625C47.1146 41.7083 46.6875 40.875 46.1875 40.0625C45.6875 39.25 45.1146 38.5729 44.4688 38.0312C44.4479 38.0729 44.4375 38.1562 44.4375 38.2812C44.4375 38.4271 44.4479 38.5208 44.4688 38.5625C44.5312 38.8125 44.6146 39.1667 44.7188 39.625L45.0312 41C45.1354 41.4583 45.2292 41.8646 45.3125 42.2188C45.4167 42.5938 45.4896 42.8229 45.5312 42.9062ZM45.2812 27.7188C45.2396 27.6354 45.1875 27.5 45.125 27.3125C45.0625 27.1042 45 26.8854 44.9375 26.6562C44.8958 26.4062 44.8542 26.1771 44.8125 25.9688C44.7708 25.7604 44.75 25.6146 44.75 25.5312V13.5938C44.75 13.4062 44.8229 13.2708 44.9688 13.1875C45.1146 13.1042 45.2812 13.0521 45.4688 13.0312C45.6562 13.0104 45.8333 13.0104 46 13.0312C46.1875 13.0521 46.3125 13.0729 46.375 13.0938C46.3542 13.3646 46.3438 13.7812 46.3438 14.3438C46.3438 14.9062 46.3333 15.5417 46.3125 16.25C46.3125 16.9583 46.3125 17.7083 46.3125 18.5C46.3333 19.2917 46.3438 20.0521 46.3438 20.7812V22.6875C46.3438 23.25 46.3542 23.6667 46.375 23.9375C46.4167 25.1042 46.5729 25.9167 46.8438 26.375C47.1354 26.8333 47.4792 27.0521 47.875 27.0312C48.2917 26.9896 48.7188 26.7604 49.1562 26.3438C49.6146 25.9062 50.0312 25.3958 50.4062 24.8125C50.8021 24.2083 51.125 23.5833 51.375 22.9375C51.6458 22.2917 51.7812 21.7188 51.7812 21.2188V13.0938H53.9688C53.9271 13.5729 53.875 14.1979 53.8125 14.9688C53.75 15.7396 53.7083 16.5729 53.6875 17.4688C53.6875 18.3646 53.7083 19.2812 53.75 20.2188C53.7917 21.1354 53.8854 22.0104 54.0312 22.8438C54.1979 23.6562 54.4271 24.375 54.7188 25C55.0104 25.6042 55.3854 26.0417 55.8438 26.3125C56.3229 26.5625 56.8958 26.6042 57.5625 26.4375C58.2292 26.25 59.0208 25.7708 59.9375 25C60.125 25.5417 60.0521 26.0625 59.7188 26.5625C59.3854 27.0625 58.9479 27.5 58.4062 27.875C57.8646 28.25 57.2812 28.5312 56.6562 28.7188C56.0312 28.8854 55.5 28.9167 55.0625 28.8125C55 28.7917 54.8958 28.7083 54.75 28.5625C54.625 28.4167 54.5417 28.3125 54.5 28.25C54.4167 28.1042 54.2708 27.8333 54.0625 27.4375C53.8542 27.0208 53.6354 26.5833 53.4062 26.125C53.1771 25.6667 52.9583 25.2292 52.75 24.8125C52.5625 24.3958 52.4271 24.1042 52.3438 23.9375C52.2188 24.1667 52.0104 24.5208 51.7188 25C51.4271 25.4583 51.0729 25.9583 50.6562 26.5C50.2604 27.0208 49.8229 27.5208 49.3438 28C48.8854 28.4583 48.4167 28.7917 47.9375 29C47.4583 29.1875 46.9896 29.2083 46.5312 29.0625C46.0729 28.8958 45.6562 28.4479 45.2812 27.7188ZM64.1875 28.8125C63.3125 28.125 62.6146 27.3229 62.0938 26.4062C61.5938 25.4688 61.2083 24.4688 60.9375 23.4062C60.8125 23.5104 60.625 23.625 60.375 23.75C60.125 23.875 59.8646 23.9792 59.5938 24.0625C59.3438 24.1458 59.0938 24.2083 58.8438 24.25C58.5938 24.2708 58.4062 24.2396 58.2812 24.1562C58.1771 24.0729 58.1458 23.9375 58.1875 23.75C58.25 23.5417 58.4479 23.2396 58.7812 22.8438C58.8229 22.7812 58.9479 22.6458 59.1562 22.4375C59.3854 22.2292 59.625 22.0104 59.875 21.7812C60.125 21.5312 60.3542 21.3021 60.5625 21.0938C60.7708 20.8646 60.8958 20.7188 60.9375 20.6562C61.1667 20.1354 61.3021 19.5625 61.3438 18.9375C61.4062 18.3125 61.4375 17.6667 61.4375 17C61.4583 16.3125 61.5 15.6354 61.5625 14.9688C61.625 14.3021 61.7812 13.6771 62.0312 13.0938C62.1771 12.7604 62.4479 12.3542 62.8438 11.875C63.2604 11.375 63.7188 10.8958 64.2188 10.4375C64.7396 9.97917 65.2604 9.57292 65.7812 9.21875C66.3229 8.84375 66.7812 8.61458 67.1562 8.53125C67.5521 8.44792 67.8333 8.54167 68 8.8125C68.1875 9.08333 68.1875 9.60417 68 10.375C67.7708 11.2917 67.4167 12.1875 66.9375 13.0625C66.4792 13.9167 66 14.7708 65.5 15.625C65 16.4583 64.5208 17.2917 64.0625 18.125C63.625 18.9583 63.3125 19.8021 63.125 20.6562C63.0208 21.1146 62.9688 21.6771 62.9688 22.3438C62.9688 22.9896 63.0417 23.6354 63.1875 24.2812C63.3333 24.9271 63.5729 25.5208 63.9062 26.0625C64.2396 26.5833 64.6979 26.9479 65.2812 27.1562C65.9479 27.4062 66.6146 27.4688 67.2812 27.3438C67.9479 27.2188 68.5938 26.9792 69.2188 26.625C69.8646 26.2708 70.4792 25.8333 71.0625 25.3125C71.6458 24.7708 72.1875 24.2188 72.6875 23.6562C73.1875 23.0938 73.6354 22.5521 74.0312 22.0312C74.4271 21.4896 74.7604 21.0312 75.0312 20.6562L75.5625 21.2188C75.7083 21.3438 75.6146 21.6979 75.2812 22.2812C74.9688 22.8646 74.5 23.5312 73.875 24.2812C73.2708 25.0104 72.5521 25.7604 71.7188 26.5312C70.8854 27.3021 70.0208 27.9479 69.125 28.4688C68.25 28.9896 67.375 29.3125 66.5 29.4375C65.6458 29.5625 64.875 29.3542 64.1875 28.8125ZM63.125 15.2188C63.1042 15.3229 63.0833 15.5104 63.0625 15.7812C63.0625 16.0312 63.0625 16.3021 63.0625 16.5938C63.0625 16.8854 63.0625 17.1562 63.0625 17.4062C63.0833 17.6562 63.1042 17.8333 63.125 17.9375C63.7917 16.7917 64.4167 15.5729 65 14.2812C65.5833 12.9896 66.0417 11.6875 66.375 10.375C65.8958 10.5417 65.4583 10.8021 65.0625 11.1562C64.6875 11.4896 64.3646 11.8854 64.0938 12.3438C63.8229 12.7812 63.6042 13.25 63.4375 13.75C63.2917 14.25 63.1875 14.7396 63.125 15.2188Z" fill="#C52929"/>
</svg>
