<svg width="231" height="51" viewBox="0 0 231 51" fill="none" xmlns="http://www.w3.org/2000/svg">
<path d="M3.5625 28.8125C2.70833 28.4792 2.01042 27.8854 1.46875 27.0312C0.947917 26.1562 0.572917 25.1458 0.34375 24C0.114583 22.8333 0.03125 21.5729 0.09375 20.2188C0.15625 18.8646 0.333333 17.5104 0.625 16.1562C0.9375 14.8021 1.35417 13.5104 1.875 12.2812C2.39583 11.0521 3.01042 9.98958 3.71875 9.09375C4.42708 8.17708 5.21875 7.48958 6.09375 7.03125C6.98958 6.55208 7.94792 6.39583 8.96875 6.5625C9.01042 6.77083 9.08333 7.13542 9.1875 7.65625C9.3125 8.15625 9.42708 8.69792 9.53125 9.28125C9.65625 9.86458 9.76042 10.4167 9.84375 10.9375C9.94792 11.4375 10.0208 11.7917 10.0625 12C10.1042 12.2292 10.0312 12.4792 9.84375 12.75C9.65625 13.0208 9.42708 13.2396 9.15625 13.4062C8.90625 13.5729 8.65625 13.6562 8.40625 13.6562C8.15625 13.6354 7.98958 13.4479 7.90625 13.0938C7.84375 12.8854 7.79167 12.5833 7.75 12.1875C7.70833 11.7917 7.65625 11.375 7.59375 10.9375C7.53125 10.5 7.44792 10.0938 7.34375 9.71875C7.23958 9.32292 7.09375 9.04167 6.90625 8.875C6.71875 8.70833 6.47917 8.6875 6.1875 8.8125C5.91667 8.91667 5.58333 9.25 5.1875 9.8125C5.0625 9.97917 4.90625 10.2083 4.71875 10.5C4.55208 10.7708 4.375 11.0521 4.1875 11.3438C4.02083 11.6354 3.875 11.8958 3.75 12.125C3.625 12.3542 3.5625 12.4896 3.5625 12.5312L1.9375 21.2188C1.75 22.1771 1.76042 23.0417 1.96875 23.8125C2.17708 24.5625 2.51042 25.2083 2.96875 25.75C3.42708 26.2708 3.98958 26.6875 4.65625 27C5.32292 27.2917 6.02083 27.4583 6.75 27.5C7.5 27.5208 8.25 27.4271 9 27.2188C9.77083 26.9896 10.4896 26.6146 11.1562 26.0938C11.4062 25.9062 11.7292 25.5521 12.125 25.0312C12.5417 24.5104 12.9792 23.9271 13.4375 23.2812C13.8958 22.6146 14.375 21.9271 14.875 21.2188C15.375 20.4896 15.8438 19.8438 16.2812 19.2812C16.7188 18.6979 17.1042 18.2292 17.4375 17.875C17.7708 17.5208 18.0208 17.3646 18.1875 17.4062C18.5 18.3229 18.4792 19.2917 18.125 20.3125C17.7917 21.3333 17.2292 22.3333 16.4375 23.3125C15.6667 24.2708 14.7292 25.1667 13.625 26C12.5417 26.8333 11.4062 27.5208 10.2188 28.0625C9.03125 28.6042 7.85417 28.9583 6.6875 29.125C5.52083 29.2917 4.47917 29.1875 3.5625 28.8125ZM21.4688 28.8125C21.0104 28.5208 20.6667 28.0729 20.4375 27.4688C20.2292 26.8438 20.0729 26.1979 19.9688 25.5312C19.8854 24.8438 19.8438 24.2083 19.8438 23.625V22.3125C19.8438 22.0833 19.8542 21.625 19.875 20.9375C19.8958 20.2292 19.9271 19.4167 19.9688 18.5C20.0104 17.5625 20.0521 16.5729 20.0938 15.5312C20.1354 14.4688 20.1771 13.4792 20.2188 12.5625C20.2604 11.625 20.2917 10.8125 20.3125 10.125C20.3542 9.4375 20.375 8.97917 20.375 8.75C20.375 8.4375 20.375 7.89583 20.375 7.125C20.3958 6.35417 20.4062 5.54167 20.4062 4.6875C20.4062 3.8125 20.3958 2.98958 20.375 2.21875C20.375 1.44792 20.375 0.90625 20.375 0.59375C20.6875 0.364583 20.9583 0.208333 21.1875 0.125C21.3958 0.0416667 21.5833 0.03125 21.75 0.09375C21.9167 0.135417 22 0.302083 22 0.59375V26.0938C22 26.2396 22.0417 26.4167 22.125 26.625C22.2292 26.8125 22.3542 26.9792 22.5 27.125C22.6458 27.2708 22.8125 27.3646 23 27.4062C23.2083 27.4271 23.4167 27.3438 23.625 27.1562L27.4062 23.9375C27.5104 24.4167 27.5 24.9167 27.375 25.4375C27.25 25.9583 27.0417 26.4479 26.75 26.9062C26.4792 27.3646 26.1354 27.7812 25.7188 28.1562C25.3021 28.5312 24.8542 28.8229 24.375 29.0312C23.8958 29.2188 23.4062 29.3125 22.9062 29.3125C22.4062 29.2917 21.9271 29.125 21.4688 28.8125ZM27.9062 27.7188C27.8646 27.6354 27.8125 27.4792 27.75 27.25C27.6875 27 27.625 26.7292 27.5625 26.4375C27.5 26.1458 27.4479 25.8646 27.4062 25.5938C27.3646 25.3229 27.3438 25.125 27.3438 25V9.8125C27.3438 9.60417 27.4375 9.45833 27.625 9.375C27.8125 9.29167 28.0208 9.25 28.25 9.25C28.5 9.22917 28.7188 9.22917 28.9062 9.25C29.1146 9.27083 29.2292 9.28125 29.25 9.28125V26.0938C29.25 26.4479 29.3646 26.7396 29.5938 26.9688C29.8229 27.1979 30.0938 27.3854 30.4062 27.5312C30.7188 27.6562 31.0417 27.7396 31.375 27.7812C31.7083 27.8021 31.9896 27.7812 32.2188 27.7188C32.5104 28.1562 32.5 28.5104 32.1875 28.7812C31.8958 29.0312 31.4688 29.1771 30.9062 29.2188C30.3646 29.2396 29.7917 29.1354 29.1875 28.9062C28.6042 28.6562 28.1771 28.2604 27.9062 27.7188ZM26.8125 4.375C26.8125 3.77083 27.0521 3.38542 27.5312 3.21875C28.0104 3.03125 28.5 3.05208 29 3.28125V4.9375C28.9375 4.95833 28.8229 4.97917 28.6562 5C28.5104 5 28.3438 5 28.1562 5C27.9896 5 27.8229 5 27.6562 5C27.5104 4.97917 27.4062 4.95833 27.3438 4.9375C27.2604 4.91667 27.1458 4.83333 27 4.6875C26.875 4.54167 26.8125 4.4375 26.8125 4.375ZM46.0938 48.875C45.5312 48.0625 45.0521 47.1979 44.6562 46.2812C44.2604 45.3854 43.9375 44.5 43.6875 43.625C43.4375 42.75 43.2604 41.9167 43.1562 41.125C43.0729 40.3333 43.0625 39.6562 43.125 39.0938C42.9375 37.8438 42.4479 36.8646 41.6562 36.1562C40.8854 35.4479 39.9792 34.9167 38.9375 34.5625C37.9167 34.2292 36.8229 34.0104 35.6562 33.9062C34.5104 33.8021 33.4688 33.7292 32.5312 33.6875C32.4271 33.5208 32.4375 33.3021 32.5625 33.0312C32.6875 32.7604 32.8542 32.6146 33.0625 32.5938C33.7083 32.5104 34.3854 32.4792 35.0938 32.5C35.8021 32.5417 36.5 32.6146 37.1875 32.7188C37.8958 32.8229 38.5833 32.9583 39.25 33.125C39.9375 33.3125 40.5833 33.5 41.1875 33.6875C41.2708 33 41.2812 32.2292 41.2188 31.375C41.1562 30.5208 41.0625 29.6771 40.9375 28.8438C40.8125 27.9896 40.6667 27.1771 40.5 26.4062C40.3542 25.6354 40.2188 24.9792 40.0938 24.4375C39.7396 24.7083 39.4479 25.0104 39.2188 25.3438C38.9896 25.6771 38.7604 26.0208 38.5312 26.375C38.3021 26.7083 38.0625 27.0417 37.8125 27.375C37.5625 27.7083 37.25 28 36.875 28.25C36.0417 28.8125 35.3854 29 34.9062 28.8125C34.4271 28.6042 34.0938 28.1562 33.9062 27.4688C33.7396 26.7812 33.6875 25.9062 33.75 24.8438C33.8333 23.7812 34.0104 22.6667 34.2812 21.5C34.5521 20.3333 34.8958 19.1771 35.3125 18.0312C35.75 16.8646 36.2292 15.8438 36.75 14.9688C37.2708 14.0938 37.8125 13.4271 38.375 12.9688C38.9583 12.4896 39.5312 12.3438 40.0938 12.5312C40.1354 12.5729 40.1562 12.6667 40.1562 12.8125C40.1562 12.9583 40.1354 13.0521 40.0938 13.0938C39.9896 13.2812 39.7292 13.7396 39.3125 14.4688C38.9167 15.1979 38.4688 16.0729 37.9688 17.0938C37.4688 18.0938 36.9688 19.1667 36.4688 20.3125C35.9688 21.4375 35.5729 22.4896 35.2812 23.4688C34.9896 24.4479 34.8542 25.2812 34.875 25.9688C34.9167 26.6562 35.2188 27.0521 35.7812 27.1562C36.4896 26.9688 37.0938 26.625 37.5938 26.125C38.1146 25.6042 38.5521 24.9896 38.9062 24.2812C39.2604 23.5729 39.5417 22.8021 39.75 21.9688C39.9792 21.1354 40.1562 20.3125 40.2812 19.5C40.4062 18.6667 40.4896 17.8854 40.5312 17.1562C40.5938 16.4062 40.6354 15.7604 40.6562 15.2188C40.7604 14.8854 40.9896 14.6875 41.3438 14.625C41.6979 14.5625 42.0104 14.5833 42.2812 14.6875C42.2812 14.9375 42.2708 15.3333 42.25 15.875C42.25 16.4167 42.25 17.0312 42.25 17.7188C42.25 18.3854 42.2396 19.0938 42.2188 19.8438C42.2188 20.5938 42.2188 21.3125 42.2188 22C42.2396 22.6667 42.25 23.2708 42.25 23.8125C42.25 24.3542 42.2604 24.75 42.2812 25C42.2812 25.2708 42.3021 25.6875 42.3438 26.25C42.4062 26.7917 42.4792 27.4062 42.5625 28.0938C42.6458 28.7604 42.7292 29.4583 42.8125 30.1875C42.9167 30.9375 43.0208 31.6458 43.125 32.3125C43.25 32.9792 43.375 33.5729 43.5 34.0938C43.6458 34.6354 43.7812 35.0312 43.9062 35.2812C44.3021 36.0312 44.8438 36.7917 45.5312 37.5625C46.2396 38.3542 46.9479 39.1562 47.6562 39.9688C48.3646 40.8021 49.0104 41.6458 49.5938 42.5C50.1771 43.3542 50.5417 44.2188 50.6875 45.0938C50.8333 45.9688 50.6979 46.8542 50.2812 47.75C49.8646 48.6667 49.0104 49.5833 47.7188 50.5C47.6354 50.4583 47.5104 50.3542 47.3438 50.1875C47.1979 50.0417 47.0312 49.8854 46.8438 49.7188C46.6771 49.5521 46.5208 49.3854 46.375 49.2188C46.2292 49.0521 46.1354 48.9375 46.0938 48.875ZM45.5312 42.9062C45.5938 43.1146 45.7292 43.4792 45.9375 44L46.5938 45.625C46.8229 46.2083 47.0417 46.75 47.25 47.25C47.4583 47.7708 47.6146 48.125 47.7188 48.3125C48.0521 48.6458 48.2812 48.6979 48.4062 48.4688C48.5521 48.2396 48.6146 47.8333 48.5938 47.25C48.5729 46.6667 48.4688 45.9583 48.2812 45.125C48.0938 44.2917 47.8229 43.4375 47.4688 42.5625C47.1146 41.7083 46.6875 40.875 46.1875 40.0625C45.6875 39.25 45.1146 38.5729 44.4688 38.0312C44.4479 38.0729 44.4375 38.1562 44.4375 38.2812C44.4375 38.4271 44.4479 38.5208 44.4688 38.5625C44.5312 38.8125 44.6146 39.1667 44.7188 39.625L45.0312 41C45.1354 41.4583 45.2292 41.8646 45.3125 42.2188C45.4167 42.5938 45.4896 42.8229 45.5312 42.9062ZM45.2812 27.7188C45.2396 27.6354 45.1875 27.5 45.125 27.3125C45.0625 27.1042 45 26.8854 44.9375 26.6562C44.8958 26.4062 44.8542 26.1771 44.8125 25.9688C44.7708 25.7604 44.75 25.6146 44.75 25.5312V13.5938C44.75 13.4062 44.8229 13.2708 44.9688 13.1875C45.1146 13.1042 45.2812 13.0521 45.4688 13.0312C45.6562 13.0104 45.8333 13.0104 46 13.0312C46.1875 13.0521 46.3125 13.0729 46.375 13.0938C46.3542 13.3646 46.3438 13.7812 46.3438 14.3438C46.3438 14.9062 46.3333 15.5417 46.3125 16.25C46.3125 16.9583 46.3125 17.7083 46.3125 18.5C46.3333 19.2917 46.3438 20.0521 46.3438 20.7812V22.6875C46.3438 23.25 46.3542 23.6667 46.375 23.9375C46.4167 25.1042 46.5729 25.9167 46.8438 26.375C47.1354 26.8333 47.4792 27.0521 47.875 27.0312C48.2917 26.9896 48.7188 26.7604 49.1562 26.3438C49.6146 25.9062 50.0312 25.3958 50.4062 24.8125C50.8021 24.2083 51.125 23.5833 51.375 22.9375C51.6458 22.2917 51.7812 21.7188 51.7812 21.2188V13.0938H53.9688C53.9271 13.5729 53.875 14.1979 53.8125 14.9688C53.75 15.7396 53.7083 16.5729 53.6875 17.4688C53.6875 18.3646 53.7083 19.2812 53.75 20.2188C53.7917 21.1354 53.8854 22.0104 54.0312 22.8438C54.1979 23.6562 54.4271 24.375 54.7188 25C55.0104 25.6042 55.3854 26.0417 55.8438 26.3125C56.3229 26.5625 56.8958 26.6042 57.5625 26.4375C58.2292 26.25 59.0208 25.7708 59.9375 25C60.125 25.5417 60.0521 26.0625 59.7188 26.5625C59.3854 27.0625 58.9479 27.5 58.4062 27.875C57.8646 28.25 57.2812 28.5312 56.6562 28.7188C56.0312 28.8854 55.5 28.9167 55.0625 28.8125C55 28.7917 54.8958 28.7083 54.75 28.5625C54.625 28.4167 54.5417 28.3125 54.5 28.25C54.4167 28.1042 54.2708 27.8333 54.0625 27.4375C53.8542 27.0208 53.6354 26.5833 53.4062 26.125C53.1771 25.6667 52.9583 25.2292 52.75 24.8125C52.5625 24.3958 52.4271 24.1042 52.3438 23.9375C52.2188 24.1667 52.0104 24.5208 51.7188 25C51.4271 25.4583 51.0729 25.9583 50.6562 26.5C50.2604 27.0208 49.8229 27.5208 49.3438 28C48.8854 28.4583 48.4167 28.7917 47.9375 29C47.4583 29.1875 46.9896 29.2083 46.5312 29.0625C46.0729 28.8958 45.6562 28.4479 45.2812 27.7188ZM64.1875 28.8125C63.3125 28.125 62.6146 27.3229 62.0938 26.4062C61.5938 25.4688 61.2083 24.4688 60.9375 23.4062C60.8125 23.5104 60.625 23.625 60.375 23.75C60.125 23.875 59.8646 23.9792 59.5938 24.0625C59.3438 24.1458 59.0938 24.2083 58.8438 24.25C58.5938 24.2708 58.4062 24.2396 58.2812 24.1562C58.1771 24.0729 58.1458 23.9375 58.1875 23.75C58.25 23.5417 58.4479 23.2396 58.7812 22.8438C58.8229 22.7812 58.9479 22.6458 59.1562 22.4375C59.3854 22.2292 59.625 22.0104 59.875 21.7812C60.125 21.5312 60.3542 21.3021 60.5625 21.0938C60.7708 20.8646 60.8958 20.7188 60.9375 20.6562C61.1667 20.1354 61.3021 19.5625 61.3438 18.9375C61.4062 18.3125 61.4375 17.6667 61.4375 17C61.4583 16.3125 61.5 15.6354 61.5625 14.9688C61.625 14.3021 61.7812 13.6771 62.0312 13.0938C62.1771 12.7604 62.4479 12.3542 62.8438 11.875C63.2604 11.375 63.7188 10.8958 64.2188 10.4375C64.7396 9.97917 65.2604 9.57292 65.7812 9.21875C66.3229 8.84375 66.7812 8.61458 67.1562 8.53125C67.5521 8.44792 67.8333 8.54167 68 8.8125C68.1875 9.08333 68.1875 9.60417 68 10.375C67.7708 11.2917 67.4167 12.1875 66.9375 13.0625C66.4792 13.9167 66 14.7708 65.5 15.625C65 16.4583 64.5208 17.2917 64.0625 18.125C63.625 18.9583 63.3125 19.8021 63.125 20.6562C63.0208 21.1146 62.9688 21.6771 62.9688 22.3438C62.9688 22.9896 63.0417 23.6354 63.1875 24.2812C63.3333 24.9271 63.5729 25.5208 63.9062 26.0625C64.2396 26.5833 64.6979 26.9479 65.2812 27.1562C65.9479 27.4062 66.6146 27.4688 67.2812 27.3438C67.9479 27.2188 68.5938 26.9792 69.2188 26.625C69.8646 26.2708 70.4792 25.8333 71.0625 25.3125C71.6458 24.7708 72.1875 24.2188 72.6875 23.6562C73.1875 23.0938 73.6354 22.5521 74.0312 22.0312C74.4271 21.4896 74.7604 21.0312 75.0312 20.6562L75.5625 21.2188C75.7083 21.3438 75.6146 21.6979 75.2812 22.2812C74.9688 22.8646 74.5 23.5312 73.875 24.2812C73.2708 25.0104 72.5521 25.7604 71.7188 26.5312C70.8854 27.3021 70.0208 27.9479 69.125 28.4688C68.25 28.9896 67.375 29.3125 66.5 29.4375C65.6458 29.5625 64.875 29.3542 64.1875 28.8125ZM63.125 15.2188C63.1042 15.3229 63.0833 15.5104 63.0625 15.7812C63.0625 16.0312 63.0625 16.3021 63.0625 16.5938C63.0625 16.8854 63.0625 17.1562 63.0625 17.4062C63.0833 17.6562 63.1042 17.8333 63.125 17.9375C63.7917 16.7917 64.4167 15.5729 65 14.2812C65.5833 12.9896 66.0417 11.6875 66.375 10.375C65.8958 10.5417 65.4583 10.8021 65.0625 11.1562C64.6875 11.4896 64.3646 11.8854 64.0938 12.3438C63.8229 12.7812 63.6042 13.25 63.4375 13.75C63.2917 14.25 63.1875 14.7396 63.125 15.2188ZM92.5 45.0625C92.0833 44.7917 91.7396 44.3646 91.4688 43.7812C91.1979 43.2188 90.9792 42.6146 90.8125 41.9688C90.6458 41.3229 90.5208 40.6875 90.4375 40.0625C90.375 39.4375 90.3333 38.9375 90.3125 38.5625C90.2292 36.7708 90.1979 34.875 90.2188 32.875C90.2604 30.8958 90.4479 28.9271 90.7812 26.9688C91.1146 24.9896 91.625 23.0938 92.3125 21.2812C93.0208 19.4479 93.9896 17.7917 95.2188 16.3125C95.8646 15.5417 96.4896 14.8438 97.0938 14.2188C97.7188 13.5729 98.3646 13 99.0312 12.5C99.7188 12 100.448 11.5729 101.219 11.2188C102.01 10.8438 102.896 10.5521 103.875 10.3438C104.771 10.1562 105.448 10.25 105.906 10.625C106.385 11 106.698 11.5625 106.844 12.3125C106.99 13.0417 106.99 13.9167 106.844 14.9375C106.698 15.9375 106.448 16.9792 106.094 18.0625C105.74 19.125 105.302 20.1667 104.781 21.1875C104.281 22.2083 103.74 23.1042 103.156 23.875C102.573 24.6458 101.969 25.25 101.344 25.6875C100.719 26.1042 100.115 26.2396 99.5312 26.0938C99.4479 25.9479 99.5417 25.6042 99.8125 25.0625C100.083 24.5208 100.438 23.8542 100.875 23.0625C101.333 22.2708 101.823 21.3958 102.344 20.4375C102.885 19.4583 103.365 18.4688 103.781 17.4688C104.219 16.4688 104.552 15.4896 104.781 14.5312C105.031 13.5729 105.094 12.7188 104.969 11.9688C104.906 11.6354 104.719 11.4375 104.406 11.375C104.094 11.3125 103.75 11.3229 103.375 11.4062C103.021 11.4896 102.677 11.5938 102.344 11.7188C102.01 11.8438 101.802 11.9271 101.719 11.9688C100.135 12.6562 98.7604 13.6562 97.5938 14.9688C96.4479 16.2604 95.4792 17.75 94.6875 19.4375C93.8958 21.1042 93.2708 22.8854 92.8125 24.7812C92.375 26.6771 92.0625 28.5417 91.875 30.375C91.6875 32.2292 91.6146 33.9896 91.6562 35.6562C91.6979 37.3438 91.8333 38.7917 92.0625 40C92.2917 41.2292 92.5833 42.1562 92.9375 42.7812C93.2917 43.4271 93.6875 43.6458 94.125 43.4375C94.1667 43.4167 94.25 43.3333 94.375 43.1875C94.5208 43.0417 94.6146 42.9375 94.6562 42.875C94.9479 42 95.1875 41.0417 95.375 40C95.5625 38.9583 95.6979 37.875 95.7812 36.75C95.8854 35.625 95.9479 34.4896 95.9688 33.3438C95.9896 32.1979 95.9896 31.0833 95.9688 30C95.9479 28.9375 95.9062 27.9271 95.8438 26.9688C95.8021 26.0104 95.7604 25.1667 95.7188 24.4375C95.6562 24.2917 95.6042 24.0208 95.5625 23.625C95.5417 23.2292 95.5208 22.8021 95.5 22.3438C95.5 21.8854 95.5104 21.4375 95.5312 21C95.5729 20.5417 95.6458 20.1979 95.75 19.9688C95.8542 19.7396 95.9896 19.6562 96.1562 19.7188C96.3229 19.7812 96.5417 20.0833 96.8125 20.625C96.8542 20.8958 96.8958 21.3646 96.9375 22.0312C97 22.6979 97.0625 23.4167 97.125 24.1875C97.1875 24.9375 97.2396 25.6458 97.2812 26.3125C97.3229 26.9792 97.3438 27.4479 97.3438 27.7188C97.3646 28.0104 97.375 28.4167 97.375 28.9375C97.3958 29.4375 97.4062 29.9792 97.4062 30.5625V34.1562C97.4062 34.6979 97.3958 35.1667 97.375 35.5625C97.375 35.9792 97.3646 36.25 97.3438 36.375C97.3438 36.5625 97.2917 36.9271 97.1875 37.4688C97.1042 38.0312 97.0104 38.625 96.9062 39.25C96.8021 39.8958 96.6875 40.5104 96.5625 41.0938C96.4375 41.6771 96.3438 42.0938 96.2812 42.3438C96.1562 42.7812 95.9792 43.2292 95.75 43.6875C95.5208 44.1458 95.2396 44.5312 94.9062 44.8438C94.5938 45.1562 94.2292 45.3438 93.8125 45.4062C93.4167 45.4896 92.9792 45.375 92.5 45.0625ZM109.031 28.8125C108.615 27.9375 108.385 27.0521 108.344 26.1562C108.323 25.2604 108.375 24.3438 108.5 23.4062C108.521 23.1146 108.573 22.6771 108.656 22.0938C108.74 21.5104 108.833 20.8646 108.938 20.1562C109.042 19.4479 109.156 18.6979 109.281 17.9062C109.406 17.1146 109.521 16.3646 109.625 15.6562C109.729 14.9479 109.823 14.3229 109.906 13.7812C110.01 13.2188 110.083 12.8021 110.125 12.5312C110.292 11.6562 110.469 10.9167 110.656 10.3125C110.865 9.6875 111.135 9.20833 111.469 8.875C111.823 8.54167 112.271 8.36458 112.812 8.34375C113.375 8.32292 114.094 8.45833 114.969 8.75C115.073 8.77083 115.188 8.85417 115.312 9C115.438 9.125 115.51 9.21875 115.531 9.28125C115.573 9.55208 115.646 9.96875 115.75 10.5312C115.875 11.0938 116.01 11.7396 116.156 12.4688C116.302 13.1771 116.448 13.9271 116.594 14.7188C116.76 15.4896 116.917 16.2396 117.062 16.9688C117.208 17.6771 117.333 18.3125 117.438 18.875C117.562 19.4375 117.656 19.8542 117.719 20.125C118.031 21.6042 118.417 22.6354 118.875 23.2188C119.333 23.7812 119.823 24.0729 120.344 24.0938C120.865 24.1146 121.396 23.9479 121.938 23.5938C122.5 23.2188 123.052 22.8333 123.594 22.4375C124.135 22.0208 124.646 21.6667 125.125 21.375C125.604 21.0833 126.021 21.0312 126.375 21.2188C126.375 21.6146 126.281 22 126.094 22.375C125.906 22.75 125.677 23.1042 125.406 23.4375C125.156 23.75 124.875 24.0417 124.562 24.3125C124.25 24.5833 123.958 24.8125 123.688 25C122.521 25.7708 121.542 26.1771 120.75 26.2188C119.979 26.2604 119.323 26.0833 118.781 25.6875C118.24 25.2917 117.802 24.75 117.469 24.0625C117.135 23.375 116.833 22.6771 116.562 21.9688C116.312 21.2604 116.062 20.6354 115.812 20.0938C115.583 19.5312 115.302 19.1771 114.969 19.0312C114.906 19.3021 114.771 19.7708 114.562 20.4375C114.375 21.1042 114.167 21.8125 113.938 22.5625C113.708 23.3125 113.49 24.0208 113.281 24.6875C113.073 25.3542 112.927 25.8229 112.844 26.0938C112.802 26.1979 112.708 26.3958 112.562 26.6875C112.438 26.9792 112.271 27.3021 112.062 27.6562C111.854 27.9896 111.615 28.3229 111.344 28.6562C111.094 28.9688 110.833 29.2083 110.562 29.375C110.292 29.5625 110.021 29.625 109.75 29.5625C109.479 29.5 109.24 29.25 109.031 28.8125ZM110.656 19.5938C110.615 19.8438 110.583 20.3021 110.562 20.9688C110.562 21.6354 110.562 22.3438 110.562 23.0938C110.562 23.8438 110.562 24.5521 110.562 25.2188C110.583 25.8854 110.615 26.3542 110.656 26.625C111.385 25.5208 112.042 24.2396 112.625 22.7812C113.208 21.3021 113.646 19.7812 113.938 18.2188C114.25 16.6354 114.375 15.0729 114.312 13.5312C114.25 11.9688 113.938 10.5521 113.375 9.28125C113.021 9.92708 112.688 10.7396 112.375 11.7188C112.062 12.6979 111.792 13.6979 111.562 14.7188C111.333 15.7188 111.135 16.6667 110.969 17.5625C110.823 18.4375 110.719 19.1146 110.656 19.5938ZM126.625 29C126.292 29.6875 126.01 30.0312 125.781 30.0312C125.552 30.0521 125.354 29.8229 125.188 29.3438C125.042 28.8854 124.917 28.2292 124.812 27.375C124.729 26.5208 124.667 25.5729 124.625 24.5312C124.604 23.4896 124.604 22.3958 124.625 21.25C124.646 20.1042 124.677 19 124.719 17.9375C124.781 16.875 124.854 15.9062 124.938 15.0312C125.021 14.1354 125.104 13.4375 125.188 12.9375C125.292 12.4167 125.396 12.1354 125.5 12.0938C125.604 12.0521 125.708 12.3333 125.812 12.9375C126.479 12.4375 127.198 11.9688 127.969 11.5312C128.74 11.0729 129.531 10.6979 130.344 10.4062C131.177 10.0938 132.01 9.89583 132.844 9.8125C133.698 9.72917 134.521 9.80208 135.312 10.0312C135.396 10.3021 135.406 10.6146 135.344 10.9688C135.281 11.3229 135.083 11.5521 134.75 11.6562C134.417 11.5938 133.979 11.5625 133.438 11.5625C132.896 11.5625 132.323 11.6042 131.719 11.6875C131.115 11.7708 130.51 11.9062 129.906 12.0938C129.302 12.2812 128.75 12.5312 128.25 12.8438C127.771 13.1354 127.375 13.5 127.062 13.9375C126.771 14.3542 126.625 14.8542 126.625 15.4375V29ZM138.062 28.8125C137.646 27.9375 137.417 27.0521 137.375 26.1562C137.354 25.2604 137.406 24.3438 137.531 23.4062C137.552 23.1146 137.604 22.6771 137.688 22.0938C137.771 21.5104 137.865 20.8646 137.969 20.1562C138.073 19.4479 138.188 18.6979 138.312 17.9062C138.438 17.1146 138.552 16.3646 138.656 15.6562C138.76 14.9479 138.854 14.3229 138.938 13.7812C139.042 13.2188 139.115 12.8021 139.156 12.5312C139.323 11.6562 139.5 10.9167 139.688 10.3125C139.896 9.6875 140.167 9.20833 140.5 8.875C140.854 8.54167 141.302 8.36458 141.844 8.34375C142.406 8.32292 143.125 8.45833 144 8.75C144.104 8.77083 144.219 8.85417 144.344 9C144.469 9.125 144.542 9.21875 144.562 9.28125C144.604 9.55208 144.677 9.96875 144.781 10.5312C144.906 11.0938 145.042 11.7396 145.188 12.4688C145.333 13.1771 145.479 13.9271 145.625 14.7188C145.792 15.4896 145.948 16.2396 146.094 16.9688C146.24 17.6771 146.365 18.3125 146.469 18.875C146.594 19.4375 146.688 19.8542 146.75 20.125C147.062 21.6042 147.448 22.6354 147.906 23.2188C148.365 23.7812 148.854 24.0729 149.375 24.0938C149.896 24.1146 150.427 23.9479 150.969 23.5938C151.531 23.2188 152.083 22.8333 152.625 22.4375C153.167 22.0208 153.677 21.6667 154.156 21.375C154.635 21.0833 155.052 21.0312 155.406 21.2188C155.406 21.6146 155.312 22 155.125 22.375C154.938 22.75 154.708 23.1042 154.438 23.4375C154.188 23.75 153.906 24.0417 153.594 24.3125C153.281 24.5833 152.99 24.8125 152.719 25C151.552 25.7708 150.573 26.1771 149.781 26.2188C149.01 26.2604 148.354 26.0833 147.812 25.6875C147.271 25.2917 146.833 24.75 146.5 24.0625C146.167 23.375 145.865 22.6771 145.594 21.9688C145.344 21.2604 145.094 20.6354 144.844 20.0938C144.615 19.5312 144.333 19.1771 144 19.0312C143.938 19.3021 143.802 19.7708 143.594 20.4375C143.406 21.1042 143.198 21.8125 142.969 22.5625C142.74 23.3125 142.521 24.0208 142.312 24.6875C142.104 25.3542 141.958 25.8229 141.875 26.0938C141.833 26.1979 141.74 26.3958 141.594 26.6875C141.469 26.9792 141.302 27.3021 141.094 27.6562C140.885 27.9896 140.646 28.3229 140.375 28.6562C140.125 28.9688 139.865 29.2083 139.594 29.375C139.323 29.5625 139.052 29.625 138.781 29.5625C138.51 29.5 138.271 29.25 138.062 28.8125ZM139.688 19.5938C139.646 19.8438 139.615 20.3021 139.594 20.9688C139.594 21.6354 139.594 22.3438 139.594 23.0938C139.594 23.8438 139.594 24.5521 139.594 25.2188C139.615 25.8854 139.646 26.3542 139.688 26.625C140.417 25.5208 141.073 24.2396 141.656 22.7812C142.24 21.3021 142.677 19.7812 142.969 18.2188C143.281 16.6354 143.406 15.0729 143.344 13.5312C143.281 11.9688 142.969 10.5521 142.406 9.28125C142.052 9.92708 141.719 10.7396 141.406 11.7188C141.094 12.6979 140.823 13.6979 140.594 14.7188C140.365 15.7188 140.167 16.6667 140 17.5625C139.854 18.4375 139.75 19.1146 139.688 19.5938ZM169.906 28.8125C169.49 27.9375 169.26 27.0521 169.219 26.1562C169.198 25.2604 169.25 24.3438 169.375 23.4062C169.396 23.1146 169.448 22.6771 169.531 22.0938C169.615 21.5104 169.708 20.8646 169.812 20.1562C169.917 19.4479 170.031 18.6979 170.156 17.9062C170.281 17.1146 170.396 16.3646 170.5 15.6562C170.604 14.9479 170.698 14.3229 170.781 13.7812C170.885 13.2188 170.958 12.8021 171 12.5312C171.167 11.6562 171.344 10.9167 171.531 10.3125C171.74 9.6875 172.01 9.20833 172.344 8.875C172.698 8.54167 173.146 8.36458 173.688 8.34375C174.25 8.32292 174.969 8.45833 175.844 8.75C175.948 8.77083 176.062 8.85417 176.188 9C176.312 9.125 176.385 9.21875 176.406 9.28125C176.448 9.55208 176.521 9.96875 176.625 10.5312C176.75 11.0938 176.885 11.7396 177.031 12.4688C177.177 13.1771 177.323 13.9271 177.469 14.7188C177.635 15.4896 177.792 16.2396 177.938 16.9688C178.083 17.6771 178.208 18.3125 178.312 18.875C178.438 19.4375 178.531 19.8542 178.594 20.125C178.906 21.6042 179.292 22.6354 179.75 23.2188C180.208 23.7812 180.698 24.0729 181.219 24.0938C181.74 24.1146 182.271 23.9479 182.812 23.5938C183.375 23.2188 183.927 22.8333 184.469 22.4375C185.01 22.0208 185.521 21.6667 186 21.375C186.479 21.0833 186.896 21.0312 187.25 21.2188C187.25 21.6146 187.156 22 186.969 22.375C186.781 22.75 186.552 23.1042 186.281 23.4375C186.031 23.75 185.75 24.0417 185.438 24.3125C185.125 24.5833 184.833 24.8125 184.562 25C183.396 25.7708 182.417 26.1771 181.625 26.2188C180.854 26.2604 180.198 26.0833 179.656 25.6875C179.115 25.2917 178.677 24.75 178.344 24.0625C178.01 23.375 177.708 22.6771 177.438 21.9688C177.188 21.2604 176.938 20.6354 176.688 20.0938C176.458 19.5312 176.177 19.1771 175.844 19.0312C175.781 19.3021 175.646 19.7708 175.438 20.4375C175.25 21.1042 175.042 21.8125 174.812 22.5625C174.583 23.3125 174.365 24.0208 174.156 24.6875C173.948 25.3542 173.802 25.8229 173.719 26.0938C173.677 26.1979 173.583 26.3958 173.438 26.6875C173.312 26.9792 173.146 27.3021 172.938 27.6562C172.729 27.9896 172.49 28.3229 172.219 28.6562C171.969 28.9688 171.708 29.2083 171.438 29.375C171.167 29.5625 170.896 29.625 170.625 29.5625C170.354 29.5 170.115 29.25 169.906 28.8125ZM171.531 19.5938C171.49 19.8438 171.458 20.3021 171.438 20.9688C171.438 21.6354 171.438 22.3438 171.438 23.0938C171.438 23.8438 171.438 24.5521 171.438 25.2188C171.458 25.8854 171.49 26.3542 171.531 26.625C172.26 25.5208 172.917 24.2396 173.5 22.7812C174.083 21.3021 174.521 19.7812 174.812 18.2188C175.125 16.6354 175.25 15.0729 175.188 13.5312C175.125 11.9688 174.812 10.5521 174.25 9.28125C173.896 9.92708 173.562 10.7396 173.25 11.7188C172.938 12.6979 172.667 13.6979 172.438 14.7188C172.208 15.7188 172.01 16.6667 171.844 17.5625C171.698 18.4375 171.594 19.1146 171.531 19.5938ZM188.531 29.0625C188.427 28.75 188.5 28.4167 188.75 28.0625C189 27.7083 189.354 27.3542 189.812 27C190.271 26.625 190.781 26.25 191.344 25.875C191.927 25.5 192.479 25.1354 193 24.7812C193.542 24.4271 194.01 24.0938 194.406 23.7812C194.823 23.4479 195.104 23.1354 195.25 22.8438C195.562 22.2188 195.823 21.4896 196.031 20.6562C196.26 19.8229 196.406 19.0208 196.469 18.25C196.552 17.4583 196.552 16.75 196.469 16.125C196.385 15.4792 196.188 15.0417 195.875 14.8125C195.562 14.5833 195.135 14.6146 194.594 14.9062C194.052 15.1979 193.365 15.8542 192.531 16.875C192.302 17.1667 192.031 17.6875 191.719 18.4375C191.406 19.1667 191.073 19.9792 190.719 20.875C190.365 21.7708 190 22.6771 189.625 23.5938C189.25 24.4896 188.875 25.25 188.5 25.875C188.146 26.5 187.802 26.9167 187.469 27.125C187.135 27.3125 186.844 27.1458 186.594 26.625C186.594 26.4792 186.594 26.2292 186.594 25.875C186.615 25.5208 186.625 25.1458 186.625 24.75C186.625 24.3333 186.615 23.9479 186.594 23.5938C186.594 23.2396 186.594 22.9896 186.594 22.8438C186.531 21.4271 186.458 20.0417 186.375 18.6875C186.292 17.3333 186.198 15.9896 186.094 14.6562C186.01 13.3229 185.917 11.9896 185.812 10.6562C185.708 9.32292 185.604 7.95833 185.5 6.5625C185.458 5.95833 185.479 5.55208 185.562 5.34375C185.646 5.13542 185.76 5.07292 185.906 5.15625C186.052 5.21875 186.219 5.40625 186.406 5.71875C186.615 6.03125 186.802 6.40625 186.969 6.84375C187.156 7.28125 187.312 7.76042 187.438 8.28125C187.562 8.80208 187.635 9.3125 187.656 9.8125C187.656 10.0625 187.667 10.4583 187.688 11C187.729 11.5417 187.771 12.1562 187.812 12.8438C187.854 13.5104 187.896 14.2188 187.938 14.9688C187.979 15.7188 188.01 16.4375 188.031 17.125C188.073 17.7917 188.104 18.3958 188.125 18.9375C188.167 19.4792 188.198 19.875 188.219 20.125C188.677 19.7917 189.062 19.3854 189.375 18.9062C189.708 18.4062 190.021 17.9062 190.312 17.4062C190.625 16.8854 190.948 16.3854 191.281 15.9062C191.635 15.4271 192.052 15.0208 192.531 14.6875C193.865 13.8542 194.969 13.4062 195.844 13.3438C196.719 13.2604 197.385 13.4583 197.844 13.9375C198.323 14.3958 198.604 15.0625 198.688 15.9375C198.771 16.8125 198.688 17.7917 198.438 18.875C198.188 19.9375 197.781 21.0521 197.219 22.2188C196.677 23.3646 196 24.4479 195.188 25.4688C194.396 26.4688 193.479 27.3438 192.438 28.0938C191.396 28.8438 190.26 29.3438 189.031 29.5938L188.75 29.3438C188.625 29.1979 188.552 29.1042 188.531 29.0625ZM202.406 29C202.073 29.6875 201.792 30.0312 201.562 30.0312C201.333 30.0521 201.135 29.8229 200.969 29.3438C200.823 28.8854 200.698 28.2292 200.594 27.375C200.51 26.5208 200.448 25.5729 200.406 24.5312C200.385 23.4896 200.385 22.3958 200.406 21.25C200.427 20.1042 200.458 19 200.5 17.9375C200.562 16.875 200.635 15.9062 200.719 15.0312C200.802 14.1354 200.885 13.4375 200.969 12.9375C201.073 12.4167 201.177 12.1354 201.281 12.0938C201.385 12.0521 201.49 12.3333 201.594 12.9375C202.26 12.4375 202.979 11.9688 203.75 11.5312C204.521 11.0729 205.312 10.6979 206.125 10.4062C206.958 10.0938 207.792 9.89583 208.625 9.8125C209.479 9.72917 210.302 9.80208 211.094 10.0312C211.177 10.3021 211.188 10.6146 211.125 10.9688C211.062 11.3229 210.865 11.5521 210.531 11.6562C210.198 11.5938 209.76 11.5625 209.219 11.5625C208.677 11.5625 208.104 11.6042 207.5 11.6875C206.896 11.7708 206.292 11.9062 205.688 12.0938C205.083 12.2812 204.531 12.5312 204.031 12.8438C203.552 13.1354 203.156 13.5 202.844 13.9375C202.552 14.3542 202.406 14.8542 202.406 15.4375V29ZM213.594 27.7188C213.552 27.6354 213.5 27.4792 213.438 27.25C213.375 27 213.312 26.7292 213.25 26.4375C213.188 26.1458 213.135 25.8646 213.094 25.5938C213.052 25.3229 213.031 25.125 213.031 25V9.8125C213.031 9.60417 213.125 9.45833 213.312 9.375C213.5 9.29167 213.708 9.25 213.938 9.25C214.188 9.22917 214.406 9.22917 214.594 9.25C214.802 9.27083 214.917 9.28125 214.938 9.28125V26.0938C214.938 26.4479 215.052 26.7396 215.281 26.9688C215.51 27.1979 215.781 27.3854 216.094 27.5312C216.406 27.6562 216.729 27.7396 217.062 27.7812C217.396 27.8021 217.677 27.7812 217.906 27.7188C218.198 28.1562 218.188 28.5104 217.875 28.7812C217.583 29.0312 217.156 29.1771 216.594 29.2188C216.052 29.2396 215.479 29.1354 214.875 28.9062C214.292 28.6562 213.865 28.2604 213.594 27.7188ZM212.5 4.375C212.5 3.77083 212.74 3.38542 213.219 3.21875C213.698 3.03125 214.188 3.05208 214.688 3.28125V4.9375C214.625 4.95833 214.51 4.97917 214.344 5C214.198 5 214.031 5 213.844 5C213.677 5 213.51 5 213.344 5C213.198 4.97917 213.094 4.95833 213.031 4.9375C212.948 4.91667 212.833 4.83333 212.688 4.6875C212.562 4.54167 212.5 4.4375 212.5 4.375ZM221.844 29C221.51 29.6875 221.229 30.0312 221 30.0312C220.771 30.0521 220.573 29.8229 220.406 29.3438C220.26 28.8854 220.135 28.2292 220.031 27.375C219.948 26.5208 219.885 25.5729 219.844 24.5312C219.823 23.4896 219.823 22.3958 219.844 21.25C219.865 20.1042 219.896 19 219.938 17.9375C220 16.875 220.073 15.9062 220.156 15.0312C220.24 14.1354 220.323 13.4375 220.406 12.9375C220.51 12.4167 220.615 12.1354 220.719 12.0938C220.823 12.0521 220.927 12.3333 221.031 12.9375C221.698 12.4375 222.417 11.9688 223.188 11.5312C223.958 11.0729 224.75 10.6979 225.562 10.4062C226.396 10.0938 227.229 9.89583 228.062 9.8125C228.917 9.72917 229.74 9.80208 230.531 10.0312C230.615 10.3021 230.625 10.6146 230.562 10.9688C230.5 11.3229 230.302 11.5521 229.969 11.6562C229.635 11.5938 229.198 11.5625 228.656 11.5625C228.115 11.5625 227.542 11.6042 226.938 11.6875C226.333 11.7708 225.729 11.9062 225.125 12.0938C224.521 12.2812 223.969 12.5312 223.469 12.8438C222.99 13.1354 222.594 13.5 222.281 13.9375C221.99 14.3542 221.844 14.8542 221.844 15.4375V29Z" fill="#C52929"/>
</svg>
