<svg width="67" height="209" viewBox="0 0 67 209" fill="none" xmlns="http://www.w3.org/2000/svg">
<path d="M35.6657 203.346C30.7229 198.306 26.4613 192.64 22.9897 186.492C20.6946 182.607 18.3222 178.194 15.942 173.419C13.3658 168.32 11.1462 163.049 9.29914 157.643C8.31528 154.729 7.52391 151.753 6.93017 148.735C6.27636 145.609 5.90482 142.431 5.82006 139.238C5.6956 135.968 5.95851 132.694 6.60331 129.486C7.20848 126.236 8.25235 123.083 9.70623 120.115L9.96011 119.63C10.0949 119.759 10.214 119.922 10.3492 120.068C15.4853 125.552 22.2615 129.219 29.6585 130.516C33.4172 131.134 37.2621 130.979 40.9591 130.061C44.8322 129.102 48.3951 127.166 51.3076 124.436C52.8869 123.044 54.2343 121.408 55.2994 119.591C56.5078 117.563 57.2387 115.287 57.4363 112.934C57.5708 110.645 57.2212 108.353 56.4102 106.209C55.5992 104.064 54.3452 102.115 52.7301 100.489C49.8027 97.5446 45.9372 95.7203 41.8055 95.3331C38.024 94.9567 34.2054 95.33 30.5681 96.4316C26.9822 97.4838 23.5799 99.0838 20.4816 101.175C16.6206 103.794 13.2336 107.052 10.466 110.809C9.92199 109.905 9.43867 108.966 9.01921 107.997C6.50314 102.301 5.28312 96.1172 5.44742 89.8917C5.56126 84.0857 6.5522 78.3304 8.38659 72.8213C9.96367 68.0021 12.1224 63.3937 14.8148 59.0981C17.1868 55.5003 19.8781 52.1239 22.8559 49.0099C27.4641 44.0901 32.5974 39.6909 38.1635 35.8912C41.8768 33.3125 45.78 31.0193 49.8397 29.0314C53.1085 27.4578 55.5304 26.4311 57.4297 25.68C59.0664 25.0005 60.164 24.597 60.9987 24.2487L60.2466 25.3721C58.1022 28.5747 56.2162 31.5073 54.6846 34.0192C51.6378 39.0426 49.9091 42.385 50.479 42.7861C51.0489 43.1872 53.5378 40.655 57.2402 36.1797C59.1079 33.9416 61.2464 31.235 63.5755 28.1773L64.4589 27.018C64.8445 26.5233 65.1869 25.9962 65.4822 25.4426C65.6659 25.0841 65.8181 24.7104 65.9372 24.3255C66.0897 23.8364 66.1734 23.3283 66.1858 22.8161C66.2115 21.7612 65.9003 20.7255 65.2974 19.8599C64.4612 18.8061 63.434 17.9195 62.2698 17.2466L59.7057 15.4665C45.3015 5.85574 33.085 -1.0413 32.433 0.129574C31.7809 1.30044 42.9141 10.0552 57.3186 19.6825L59.2275 20.9311C58.2673 21.0703 57.3174 21.2727 56.3839 21.537C53.5846 22.2676 50.8449 23.2099 48.1882 24.3559C43.7958 26.1969 39.5821 28.4388 35.6004 31.0533C29.6081 34.9159 24.0911 39.4714 19.1632 44.6257C15.9067 48.0047 12.9723 51.6805 10.398 55.6053C7.3957 60.335 4.9967 65.4223 3.25702 70.7486C1.21034 76.8877 0.1162 83.3047 0.0127289 89.7759C-0.152889 96.9782 1.29684 104.126 4.25525 110.693C5.09982 112.589 6.13397 114.395 7.3419 116.082C6.99252 116.734 6.64315 117.386 6.34363 118.054C4.76192 121.405 3.63783 124.953 3.00159 128.604C2.37065 132.142 2.15352 135.741 2.35459 139.328C2.51441 142.753 2.9847 146.157 3.75969 149.497C4.44064 152.635 5.32822 155.725 6.41661 158.746C8.4183 164.242 10.8222 169.582 13.6087 174.725C16.1656 179.53 18.6853 183.884 21.168 187.787C24.9251 193.919 29.5664 199.462 34.9416 204.237C36.3847 205.483 37.9213 206.616 39.5378 207.627C40.658 208.281 41.2093 208.583 41.3065 208.498C41.4038 208.414 39.1726 206.759 35.6649 203.313L35.6657 203.346ZM14.2546 115.82C13.8662 115.415 13.5101 114.976 13.154 114.537C15.7926 110.872 19.0841 107.726 22.8634 105.256C25.6276 103.46 28.6499 102.097 31.8257 101.215C34.934 100.32 38.1883 100.048 41.4018 100.416C44.4573 100.749 47.3014 102.138 49.4438 104.344C50.5088 105.415 51.3365 106.699 51.8729 108.111C52.4093 109.524 52.6425 111.033 52.5571 112.542C52.0859 115.564 50.5079 118.302 48.1304 120.223C45.7934 122.358 42.949 123.858 39.8683 124.58C36.8051 125.274 33.6336 125.341 30.5437 124.779C27.4376 124.232 24.4422 123.179 21.6768 121.662C18.8937 120.158 16.3845 118.194 14.2553 115.853" fill="#7A1515"/>
</svg>
