<svg width="320" height="300" viewBox="0 0 320 300" fill="none" xmlns="http://www.w3.org/2000/svg">
<g id="gift-body" filter="url(#filter0_d_2_721)">
<g clip-path="url(#clip0_2_721)">
<rect x="20" y="24" width="280" height="266" rx="12" fill="#F29F9F"/>
<path d="M73 42C69.5714 42 64.4286 39.9583 62.1429 35.1176C61.4099 33.5653 61 32.7081 61 30C61 27.1949 61.9624 24.6147 63.5751 22.5714C65.1878 20.5282 68.4286 18 73 18C76.2697 18 79.5192 19.4061 81 20.8571C83.9157 23.7143 85 26.6422 85 30C85 32.5496 84.0701 33.7706 82.7143 35.7143C80.5458 38.8231 78.7143 42 73 42Z" fill="#FACAC9"/>
<path d="M122 79C122 82.4286 119.958 87.5714 115.118 89.8571C113.565 90.5901 112.708 91 110 91C107.195 91 104.615 90.0376 102.571 88.4249C100.528 86.8122 98 83.5714 98 79C98 75.7303 99.4061 72.4808 100.857 71C103.714 68.0843 106.642 67 110 67C112.55 67 113.771 67.9299 115.714 69.2857C118.823 71.4542 122 73.2857 122 79Z" fill="#FACAC9"/>
<path d="M78 270C78 273.429 75.9583 278.571 71.1176 280.857C69.5653 281.59 68.7081 282 66 282C63.1949 282 60.6147 281.038 58.5714 279.425C56.5282 277.812 54 274.571 54 270C54 266.73 55.4061 263.481 56.8571 262C59.7143 259.084 62.6422 258 66 258C68.5496 258 69.7706 258.93 71.7143 260.286C74.8231 262.454 78 264.286 78 270Z" fill="#FACAC9"/>
<path d="M223 47C223 50.4286 220.958 55.5714 216.118 57.8571C214.565 58.5901 213.708 59 211 59C208.195 59 205.615 58.0376 203.571 56.4249C201.528 54.8122 199 51.5714 199 47C199 43.7303 200.406 40.4808 201.857 39C204.714 36.0843 207.642 35 211 35C213.55 35 214.771 35.9299 216.714 37.2857C219.823 39.4542 223 41.2857 223 47Z" fill="#FACAC9"/>
<path d="M162 290C162 293.429 159.958 298.571 155.118 300.857C153.565 301.59 152.708 302 150 302C147.195 302 144.615 301.038 142.571 299.425C140.528 297.812 138 294.571 138 290C138 286.73 139.406 283.481 140.857 282C143.714 279.084 146.642 278 150 278C152.55 278 153.771 278.93 155.714 280.286C158.823 282.454 162 284.286 162 290Z" fill="#FACAC9"/>
<path d="M215 263C215 266.429 212.958 271.571 208.118 273.857C206.565 274.59 205.708 275 203 275C200.195 275 197.615 274.038 195.571 272.425C193.528 270.812 191 267.571 191 263C191 259.73 192.406 256.481 193.857 255C196.714 252.084 199.642 251 203 251C205.55 251 206.771 251.93 208.714 253.286C211.823 255.454 215 257.286 215 263Z" fill="#FACAC9"/>
<path d="M162 11C165.429 11 170.571 13.0417 172.857 17.8824C173.59 19.4347 174 20.2919 174 23C174 25.8051 173.038 28.3853 171.425 30.4286C169.812 32.4718 166.571 35 162 35C158.73 35 155.481 33.5939 154 32.1429C151.084 29.2857 150 26.3578 150 23C150 20.4504 150.93 19.2294 152.286 17.2857C154.454 14.1769 156.286 11 162 11Z" fill="#FACAC9"/>
<path d="M155 170C155 173.429 152.958 178.571 148.118 180.857C146.565 181.59 145.708 182 143 182C140.195 182 137.615 181.038 135.571 179.425C133.528 177.812 131 174.571 131 170C131 166.73 132.406 163.481 133.857 162C136.714 159.084 139.642 158 143 158C145.55 158 146.771 158.93 148.714 160.286C151.823 162.454 155 164.286 155 170Z" fill="#FACAC9"/>
<path d="M255 142C258.429 142 263.571 144.042 265.857 148.882C266.59 150.435 267 151.292 267 154C267 156.805 266.038 159.385 264.425 161.429C262.812 163.472 259.571 166 255 166C251.73 166 248.481 164.594 247 163.143C244.084 160.286 243 157.358 243 154C243 151.45 243.93 150.229 245.286 148.286C247.454 145.177 249.286 142 255 142Z" fill="#FACAC9"/>
<path d="M291 169C294.429 169 299.571 171.042 301.857 175.882C302.59 177.435 303 178.292 303 181C303 183.805 302.038 186.385 300.425 188.429C298.812 190.472 295.571 193 291 193C287.73 193 284.481 191.594 283 190.143C280.084 187.286 279 184.358 279 181C279 178.45 279.93 177.229 281.286 175.286C283.454 172.177 285.286 169 291 169Z" fill="#FACAC9"/>
<path d="M188 146C184.571 146 179.429 143.958 177.143 139.118C176.41 137.565 176 136.708 176 134C176 131.195 176.962 128.615 178.575 126.571C180.188 124.528 183.429 122 188 122C191.27 122 194.519 123.406 196 124.857C198.916 127.714 200 130.642 200 134C200 136.55 199.07 137.771 197.714 139.714C195.546 142.823 193.714 146 188 146Z" fill="#FACAC9"/>
<path d="M242 101C238.571 101 233.429 98.9583 231.143 94.1176C230.41 92.5653 230 91.7081 230 89C230 86.1949 230.962 83.6147 232.575 81.5714C234.188 79.5282 237.429 77 242 77C245.27 77 248.519 78.4061 250 79.8571C252.916 82.7143 254 85.6422 254 89C254 91.5496 253.07 92.7706 251.714 94.7143C249.546 97.8231 247.714 101 242 101Z" fill="#FACAC9"/>
<path d="M167 104C163.571 104 158.429 101.958 156.143 97.1176C155.41 95.5653 155 94.7081 155 92C155 89.1949 155.962 86.6147 157.575 84.5714C159.188 82.5282 162.429 80 167 80C170.27 80 173.519 81.4061 175 82.8571C177.916 85.7143 179 88.6422 179 92C179 94.5496 178.07 95.7706 176.714 97.7143C174.546 100.823 172.714 104 167 104Z" fill="#FACAC9"/>
<path d="M246 223C246 226.429 243.958 231.571 239.118 233.857C237.565 234.59 236.708 235 234 235C231.195 235 228.615 234.038 226.571 232.425C224.528 230.812 222 227.571 222 223C222 219.73 223.406 216.481 224.857 215C227.714 212.084 230.642 211 234 211C236.55 211 237.771 211.93 239.714 213.286C242.823 215.454 246 217.286 246 223Z" fill="#FACAC9"/>
<path d="M296 260C296 263.429 293.958 268.571 289.118 270.857C287.565 271.59 286.708 272 284 272C281.195 272 278.615 271.038 276.571 269.425C274.528 267.812 272 264.571 272 260C272 256.73 273.406 253.481 274.857 252C277.714 249.084 280.642 248 284 248C286.55 248 287.771 248.93 289.714 250.286C292.823 252.454 296 254.286 296 260Z" fill="#FACAC9"/>
<path d="M54 65C54 68.4286 51.9583 73.5714 47.1176 75.8571C45.5653 76.5901 44.7081 77 42 77C39.1949 77 36.6147 76.0376 34.5714 74.4249C32.5282 72.8122 30 69.5714 30 65C30 61.7303 31.4061 58.4808 32.8571 57C35.7143 54.0843 38.6422 53 42 53C44.5496 53 45.7706 53.9299 47.7143 55.2857C50.8231 57.4542 54 59.2857 54 65Z" fill="#FACAC9"/>
<path d="M200 205C200 208.429 197.958 213.571 193.118 215.857C191.565 216.59 190.708 217 188 217C185.195 217 182.615 216.038 180.571 214.425C178.528 212.812 176 209.571 176 205C176 201.73 177.406 198.481 178.857 197C181.714 194.084 184.642 193 188 193C190.55 193 191.771 193.93 193.714 195.286C196.823 197.454 200 199.286 200 205Z" fill="#FACAC9"/>
<path d="M294 123C290.571 123 285.429 120.958 283.143 116.118C282.41 114.565 282 113.708 282 111C282 108.195 282.962 105.615 284.575 103.571C286.188 101.528 289.429 99 294 99C297.27 99 300.519 100.406 302 101.857C304.916 104.714 306 107.642 306 111C306 113.55 305.07 114.771 303.714 116.714C301.546 119.823 299.714 123 294 123Z" fill="#FACAC9"/>
<path d="M124 217C127.429 217 132.571 219.042 134.857 223.882C135.59 225.435 136 226.292 136 229C136 231.805 135.038 234.385 133.425 236.429C131.812 238.472 128.571 241 124 241C120.73 241 117.481 239.594 116 238.143C113.084 235.286 112 232.358 112 229C112 226.45 112.93 225.229 114.286 223.286C116.454 220.177 118.286 217 124 217Z" fill="#FACAC9"/>
<path d="M290 13C293.429 13 298.571 15.0417 300.857 19.8824C301.59 21.4347 302 22.2919 302 25C302 27.8051 301.038 30.3853 299.425 32.4286C297.812 34.4718 294.571 37 290 37C286.73 37 283.481 35.5939 282 34.1429C279.084 31.2857 278 28.3578 278 25C278 22.4504 278.93 21.2294 280.286 19.2857C282.454 16.1769 284.286 13 290 13Z" fill="#FACAC9"/>
<path d="M25 141C21.5714 141 16.4286 138.958 14.1429 134.118C13.4099 132.565 13 131.708 13 129C13 126.195 13.9624 123.615 15.5751 121.571C17.1878 119.528 20.4286 117 25 117C28.2697 117 31.5192 118.406 33 119.857C35.9157 122.714 37 125.642 37 129C37 131.55 36.0701 132.771 34.7143 134.714C32.5458 137.823 30.7143 141 25 141Z" fill="#FACAC9"/>
<path d="M98 130C98 133.429 95.9583 138.571 91.1176 140.857C89.5653 141.59 88.7081 142 86 142C83.1949 142 80.6147 141.038 78.5714 139.425C76.5282 137.812 74 134.571 74 130C74 126.73 75.4061 123.481 76.8571 122C79.7143 119.084 82.6422 118 86 118C88.5496 118 89.7706 118.93 91.7143 120.286C94.8231 122.454 98 124.286 98 130Z" fill="#FACAC9"/>
<path d="M72 201C68.5714 201 63.4286 198.958 61.1429 194.118C60.4099 192.565 60 191.708 60 189C60 186.195 60.9624 183.615 62.5751 181.571C64.1878 179.528 67.4286 177 72 177C75.2697 177 78.5192 178.406 80 179.857C82.9157 182.714 84 185.642 84 189C84 191.55 83.0701 192.771 81.7143 194.714C79.5458 197.823 77.7143 201 72 201Z" fill="#FACAC9"/>
<path d="M45 217C45 220.429 42.9583 225.571 38.1176 227.857C36.5653 228.59 35.7081 229 33 229C30.1949 229 27.6147 228.038 25.5714 226.425C23.5282 224.812 21 221.571 21 217C21 213.73 22.4061 210.481 23.8571 209C26.7143 206.084 29.6422 205 33 205C35.5496 205 36.7706 205.93 38.7143 207.286C41.8231 209.454 45 211.286 45 217Z" fill="#FACAC9"/>
</g>
</g>
<g id="gift-lid-wrap">
<g id="gift-lid" filter="url(#filter1_d_2_721)">
<path d="M10 22C10 15.3726 15.3726 10 22 10H298C304.627 10 310 15.3726 310 22V122C310 126.418 306.418 130 302 130H18C13.5817 130 10 126.418 10 122V22Z" fill="#E68B8B"/>
</g>
<g id="gift-ribbon-right" filter="url(#filter2_d_2_721)">
<path d="M211.859 221.857L249.865 229.01C251.439 229.306 252.657 227.662 251.897 226.266L193.817 119.541L158.355 129.196L175.464 248.379C175.678 249.873 177.492 250.523 178.624 249.513L208.596 222.76C209.481 221.971 210.688 221.636 211.859 221.857Z" fill="#FACAC9"/>
</g>
<g id="gift-ribbon-left" filter="url(#filter3_d_2_721)">
<path d="M109.08 221.857L71.7407 229.01C70.1937 229.306 68.9976 227.662 69.7442 226.266L126.805 119.541L161.645 129.196L144.837 248.379C144.626 249.873 142.844 250.523 141.732 249.513L112.285 222.76C111.416 221.971 110.23 221.636 109.08 221.857Z" fill="#FACAC9"/>
</g>
<g id="gift-bow-top" filter="url(#filter4_d_2_721)">
<path d="M133.686 91.4413C122.187 81.9909 108.096 70.4104 67.1188 70.0106C65.8191 69.998 64.6471 70.8226 64.2772 72.0686C59.2403 89.0372 53.1393 126.973 64.2316 160.47C64.6312 161.676 65.7876 162.479 67.0586 162.467C108.132 162.065 123.855 150.095 135.958 140.882C143.594 135.069 149.789 130.353 160 130.331C170.211 130.353 176.406 135.069 184.042 140.882C196.145 150.095 211.868 162.065 252.941 162.467C254.212 162.479 255.369 161.676 255.768 160.47C266.861 126.973 260.76 89.0372 255.723 72.0686C255.353 70.8226 254.181 69.998 252.881 70.0106C211.904 70.4104 197.813 81.9909 186.314 91.4413C178.736 97.67 172.283 102.973 160 103.54C147.717 102.973 141.264 97.67 133.686 91.4413Z" fill="#FACAC9"/>
</g>
<g id="gift-bow-center" filter="url(#filter5_dd_2_721)">
<path d="M148.593 134.131C147.466 132.776 147.241 100.796 148.593 99.6673C149.945 98.3125 170.366 98.5383 171.493 99.6673C172.62 100.796 172.62 133.002 171.493 134.131C170.366 135.26 149.72 135.486 148.593 134.131Z" fill="#FACAC9"/>
</g>
</g>
<defs>
<filter id="filter0_d_2_721" x="-4" y="-2" width="328" height="308" filterUnits="userSpaceOnUse" color-interpolation-filters="sRGB">
<feFlood flood-opacity="0" result="BackgroundImageFix"/>
<feColorMatrix in="SourceAlpha" type="matrix" values="0 0 0 0 0 0 0 0 0 0 0 0 0 0 0 0 0 0 127 0" result="hardAlpha"/>
<feOffset dy="2"/>
<feGaussianBlur stdDeviation="2"/>
<feComposite in2="hardAlpha" operator="out"/>
<feColorMatrix type="matrix" values="0 0 0 0 0 0 0 0 0 0 0 0 0 0 0 0 0 0 0.25 0"/>
<feBlend mode="normal" in2="BackgroundImageFix" result="effect1_dropShadow_2_721"/>
<feBlend mode="normal" in="SourceGraphic" in2="effect1_dropShadow_2_721" result="shape"/>
</filter>
<filter id="filter1_d_2_721" x="6" y="8" width="308" height="128" filterUnits="userSpaceOnUse" color-interpolation-filters="sRGB">
<feFlood flood-opacity="0" result="BackgroundImageFix"/>
<feColorMatrix in="SourceAlpha" type="matrix" values="0 0 0 0 0 0 0 0 0 0 0 0 0 0 0 0 0 0 127 0" result="hardAlpha"/>
<feOffset dy="2"/>
<feGaussianBlur stdDeviation="2"/>
<feComposite in2="hardAlpha" operator="out"/>
<feColorMatrix type="matrix" values="0 0 0 0 0 0 0 0 0 0 0 0 0 0 0 0 0 0 0.25 0"/>
<feBlend mode="normal" in2="BackgroundImageFix" result="effect1_dropShadow_2_721"/>
<feBlend mode="normal" in="SourceGraphic" in2="effect1_dropShadow_2_721" result="shape"/>
</filter>
<filter id="filter2_d_2_721" x="158.355" y="119.541" width="95.7742" height="134.459" filterUnits="userSpaceOnUse" color-interpolation-filters="sRGB">
<feFlood flood-opacity="0" result="BackgroundImageFix"/>
<feColorMatrix in="SourceAlpha" type="matrix" values="0 0 0 0 0 0 0 0 0 0 0 0 0 0 0 0 0 0 127 0" result="hardAlpha"/>
<feOffset dx="2" dy="4"/>
<feComposite in2="hardAlpha" operator="out"/>
<feColorMatrix type="matrix" values="0 0 0 0 0 0 0 0 0 0 0 0 0 0 0 0 0 0 0.3 0"/>
<feBlend mode="multiply" in2="BackgroundImageFix" result="effect1_dropShadow_2_721"/>
<feBlend mode="normal" in="SourceGraphic" in2="effect1_dropShadow_2_721" result="shape"/>
</filter>
<filter id="filter3_d_2_721" x="69.5161" y="119.541" width="94.129" height="134.459" filterUnits="userSpaceOnUse" color-interpolation-filters="sRGB">
<feFlood flood-opacity="0" result="BackgroundImageFix"/>
<feColorMatrix in="SourceAlpha" type="matrix" values="0 0 0 0 0 0 0 0 0 0 0 0 0 0 0 0 0 0 127 0" result="hardAlpha"/>
<feOffset dx="2" dy="4"/>
<feComposite in2="hardAlpha" operator="out"/>
<feColorMatrix type="matrix" values="0 0 0 0 0 0 0 0 0 0 0 0 0 0 0 0 0 0 0.3 0"/>
<feBlend mode="multiply" in2="BackgroundImageFix" result="effect1_dropShadow_2_721"/>
<feBlend mode="normal" in="SourceGraphic" in2="effect1_dropShadow_2_721" result="shape"/>
</filter>
<filter id="filter4_d_2_721" x="58" y="70.0105" width="206" height="96.4563" filterUnits="userSpaceOnUse" color-interpolation-filters="sRGB">
<feFlood flood-opacity="0" result="BackgroundImageFix"/>
<feColorMatrix in="SourceAlpha" type="matrix" values="0 0 0 0 0 0 0 0 0 0 0 0 0 0 0 0 0 0 127 0" result="hardAlpha"/>
<feOffset dx="2" dy="4"/>
<feComposite in2="hardAlpha" operator="out"/>
<feColorMatrix type="matrix" values="0 0 0 0 0 0 0 0 0 0 0 0 0 0 0 0 0 0 0.25 0"/>
<feBlend mode="multiply" in2="BackgroundImageFix" result="effect1_dropShadow_2_721"/>
<feBlend mode="normal" in="SourceGraphic" in2="effect1_dropShadow_2_721" result="shape"/>
</filter>
<filter id="filter5_dd_2_721" x="146.661" y="98.7339" width="27.6774" height="40.3303" filterUnits="userSpaceOnUse" color-interpolation-filters="sRGB">
<feFlood flood-opacity="0" result="BackgroundImageFix"/>
<feColorMatrix in="SourceAlpha" type="matrix" values="0 0 0 0 0 0 0 0 0 0 0 0 0 0 0 0 0 0 127 0" result="hardAlpha"/>
<feOffset dx="2" dy="4"/>
<feComposite in2="hardAlpha" operator="out"/>
<feColorMatrix type="matrix" values="0 0 0 0 0 0 0 0 0 0 0 0 0 0 0 0 0 0 0.2 0"/>
<feBlend mode="multiply" in2="BackgroundImageFix" result="effect1_dropShadow_2_721"/>
<feColorMatrix in="SourceAlpha" type="matrix" values="0 0 0 0 0 0 0 0 0 0 0 0 0 0 0 0 0 0 127 0" result="hardAlpha"/>
<feOffset dx="-1"/>
<feComposite in2="hardAlpha" operator="out"/>
<feColorMatrix type="matrix" values="0 0 0 0 0 0 0 0 0 0 0 0 0 0 0 0 0 0 0.2 0"/>
<feBlend mode="multiply" in2="effect1_dropShadow_2_721" result="effect2_dropShadow_2_721"/>
<feBlend mode="normal" in="SourceGraphic" in2="effect2_dropShadow_2_721" result="shape"/>
</filter>
<clipPath id="clip0_2_721">
<rect x="20" y="24" width="280" height="266" rx="12" fill="white"/>
</clipPath>
</defs>
</svg>
